<svg xmlns="http://www.w3.org/2000/svg" xmlns:xlink="http://www.w3.org/1999/xlink" width="114" height="114" viewBox="0 0 114 114">
  <defs>
    <clipPath id="clip-path">
      <rect id="Rectangle_411066" data-name="Rectangle 411066" width="104.095" height="110.648" fill="none"/>
    </clipPath>
  </defs>
  <g id="Group_1207769" data-name="Group 1207769" transform="translate(9145 7085)">
    <rect id="Rectangle_411063" data-name="Rectangle 411063" width="114" height="114" transform="translate(-9145 -7085)" fill="none"/>
    <g id="Group_1207768" data-name="Group 1207768" transform="translate(-9140 -7083)">
      <g id="Group_1207767" data-name="Group 1207767" clip-path="url(#clip-path)">
        <path id="Path_1257825" data-name="Path 1257825" d="M104.264,62.281A51.882,51.882,0,1,1,52.382,10.4a51.882,51.882,0,0,1,51.882,51.882" transform="translate(-0.335 -6.957)" fill="#fff"/>
        <ellipse id="Ellipse_12987" data-name="Ellipse 12987" cx="51.882" cy="51.882" rx="51.882" ry="51.882" transform="translate(0.166 3.442)" fill="none" stroke="#366023" stroke-miterlimit="10" stroke-width="1"/>
        <path id="Path_1257826" data-name="Path 1257826" d="M106.215,114.266a38.692,38.692,0,0,1-.656-4.781l-.536-4.246-.274-2.388a12.223,12.223,0,0,0-.357-2.549,23.673,23.673,0,0,0,.235,2.826l1.3,11.021a6.626,6.626,0,0,1,.079,1.328,46.383,46.383,0,0,0,.018,5.486c.132,2.157.04,4.259.048,6.425,0,.232-.234.437.034.557a1.946,1.946,0,0,1-.021.664c-.12-.033-.214,0-.25.086.3-.721-.581,2.665-.647,2.876-.131.417-.425.755-.42,1.166-.027.14-.116.123-.143-.011a18.994,18.994,0,0,1-1.868-5.968c-.03-.22-.062-.384-.257-.406a14.637,14.637,0,0,1-.282-2.789c.331-.088.062-.463.058-.72l-.091-6.546a14.818,14.818,0,0,0-3.172-8.64c.109-.961-.2-3.186-.205-4.012,0-2.353-.129-4.655.053-6.97.089-1.134.072-2.218.126-3.329l.135-2.767c.067-1.368.1-2.407.159-3.807-.262.111-.272.385-.242.665a14.347,14.347,0,0,1-.107,2.253l-.08,1.939c-.186,4.505-.289,8.073-.139,12.6.038,1.136.115,2.2.069,3.262a22.717,22.717,0,0,0-2.2-2.443l-2.064-2.207a7.147,7.147,0,0,1-2.094-4.914c.014-2.625,1.85-4.757,2.864-7.2a7.241,7.241,0,0,0-.964-7.33c-2.556-3.313-7.362-3.882-7.287-8.705.036-2.278.15-4.475-.01-6.732A9.71,9.71,0,0,0,84.12,61.6a14.971,14.971,0,0,0-3.758-2.468,4.532,4.532,0,0,1-1.343-.828,5.058,5.058,0,0,1,1.058-1.386c3.568-3.327,3.032-6.576,4.869-9.062a4.561,4.561,0,0,1,4.687-1.809c2.322.427,4.753,2.358,7.9.043a25.167,25.167,0,0,0,2.754-2.3,7.673,7.673,0,0,1,3.942-1.617c2.08-.035,2.647.877,3.586,1.451.919.562,2.2,3.121,5.964,2.54a14.262,14.262,0,0,1,4.062.043,7.689,7.689,0,0,1,5.85,3.97c1.432,2.614.816,3.071,2.719,5.783a19.922,19.922,0,0,0,4.4,4.16,11,11,0,0,1-1.751,1.2c-4.8,3.055-9.426,8.015-8.646,14.173l.267,2.111a7.092,7.092,0,0,1-2.7,6.209l-3.09,2.762c-3.249,2.9-5.072,6.872-3.776,11.232a22.69,22.69,0,0,0,1.413,3.366,5.17,5.17,0,0,1-.809,5.652c-1,1.2-2.347,2.1-3.251,3.458-.182.274-.358.506-.562.766a10.161,10.161,0,0,0-1.413,2.974c-.06.167-.162.262-.288.24m-1.859-59.692a.066.066,0,1,0-.066.067.066.066,0,0,0,.066-.067m-1.2.133a.066.066,0,1,0-.066.067.066.066,0,0,0,.066-.067m1.531,3.131c.1-.381.52-3.133-.2-3.178.694.967-.13,2.12.2,3.178m-1.664-2.865a.066.066,0,1,0-.067.066.067.067,0,0,0,.067-.066M100.558,71.2l.821-6.39,1.469-9.68c-.749,2-.782,3.984-1.182,6.009l-1.157,8.9c-.051.391-.24.824.049,1.16m2.739,2.444c.188-.968.2-2.423.292-3.463l.136-1.592c.054-.635.05-1.22.111-1.87l.26-2.779.278-2.8c.039-.4.361-3.2.152-3.195l-.661,6.274-.136,1.71-.135,1.592-.128,1.863-.134,1.724-.109,2.17c-.11,2.18-.077,4.337-.006,6.469Zm13.759-14.285a.084.084,0,1,0-.084.084.084.084,0,0,0,.084-.084m-.35.133a.067.067,0,1,0-.067.067.066.066,0,0,0,.067-.067m.664,0a.066.066,0,1,0-.067.067.066.066,0,0,0,.067-.067m-.93.133a.066.066,0,1,0-.066.066.066.066,0,0,0,.066-.066m1.085,1.375a1.129,1.129,0,0,0-.015-1.452,2.709,2.709,0,0,1,.015,1.452m-1.457-1.149c-.1.137.026.3.1.181.025-.038.142-.1.129-.145-.017-.059-.167-.12-.231-.036M93.434,61.12a.514.514,0,0,0-.78-.158c.32.1.542.027.78.158m.777.809a1.714,1.714,0,0,0-.572-.775,1.347,1.347,0,0,0,.572.775m23.138-.413c.188-.164.209-.292.088-.367a1.8,1.8,0,0,0-.2.2c-.038.072.024.243.113.165m-.112.229a.067.067,0,1,0-.067.067.067.067,0,0,0,.067-.067m-.133.266a.066.066,0,1,0-.066.066.066.066,0,0,0,.066-.066m-.133.265a.066.066,0,1,0-.067.067.067.067,0,0,0,.067-.067m-.511.677c.273-.092.42-.23.363-.485-.253.087-.226.308-.363.485M92.8,63.205a.066.066,0,1,0-.067.067.066.066,0,0,0,.067-.067m.871,1.52a3.531,3.531,0,0,0-.848-1.314,3.178,3.178,0,0,0,.848,1.314m1.361,2.114-.146-.369c-.143.007-.132.189-.033.252.041.026.089.144.178.117m.36.672c-.054-.3-.1-.449-.324-.524-.06.295.185.373.324.524m.2.21a.067.067,0,1,0-.067.067.067.067,0,0,0,.067-.067m.515,1-.325-.668c-.118.237.085.522.325.668m.149.2a.067.067,0,1,0-.067.067.067.067,0,0,0,.067-.067m.133.265a.066.066,0,1,0-.067.067.066.066,0,0,0,.067-.067m.133.266a.066.066,0,1,0-.066.066.066.066,0,0,0,.066-.066m.133.265a.066.066,0,1,0-.066.067.066.066,0,0,0,.066-.067m.133.266a.067.067,0,1,0-.067.066.067.067,0,0,0,.067-.066m.741,1.8a3.518,3.518,0,0,0-.728-1.6,3.537,3.537,0,0,0,.728,1.6m.346.544a1.022,1.022,0,0,1-.2-.433.268.268,0,0,0-.033.4c.042.057.152.221.233.03m.108.309a.067.067,0,1,0-.067.067.066.066,0,0,0,.067-.067m.146.173-.2.066.305.916.2-.067Zm8.846.241c.051-.132-.2-.1-.259.036L106.1,74.56a6.913,6.913,0,0,0,.878-1.512M98.85,75.342a3.3,3.3,0,0,0-.442-1.464,4.356,4.356,0,0,0,.442,1.464m9.9-.252c.24-.144.444-.431.325-.668Zm-2.671-.331a.066.066,0,1,0-.067.066.067.067,0,0,0,.067-.066m-.133.265a.066.066,0,1,0-.067.067.066.066,0,0,0,.067-.067m-.133.266a.067.067,0,1,0-.067.066.067.067,0,0,0,.067-.066m2.921,0a.066.066,0,1,0-.066.066.066.066,0,0,0,.066-.066m-9.324,9.659.08-3.575a19.134,19.134,0,0,0,0-2.741,9.034,9.034,0,0,0-.569-3.154,35.923,35.923,0,0,1,.355,7.451c0,.137-.255,2.192-.05,2.247.045.012.176-.1.179-.227m6.27-9.394a.066.066,0,1,0-.066.067.066.066,0,0,0,.066-.067m2.922,0a.066.066,0,1,0-.066.067.066.066,0,0,0,.066-.067m-3.054.265a.066.066,0,1,0-.066.067.066.066,0,0,0,.066-.067m2.922,0a.066.066,0,1,0-.067.067.066.066,0,0,0,.067-.067m-3.054.266a.066.066,0,1,0-.067.066.067.067,0,0,0,.067-.066m2.571.589a.871.871,0,0,0,.3-.657.979.979,0,0,0-.3.657m-2.7-.324a.067.067,0,1,0-.067.067.066.066,0,0,0,.067-.067m-.133.266a.066.066,0,1,0-.066.066.066.066,0,0,0,.066-.066m-.133.265a.066.066,0,1,0-.066.067.066.066,0,0,0,.066-.067m2.558.6a.754.754,0,0,0,.352-.673c-.273.121-.271.383-.352.673m-2.691-.33a.066.066,0,1,0-.067.066.067.067,0,0,0,.067-.066m-.3.563c.031-.241.162-.229.164-.356a.377.377,0,0,0-.258.2c-.044.068.036.248.094.157m2.959-.032a.066.066,0,1,0-.066.066.066.066,0,0,0,.066-.066m-3.956,2.584a22.99,22.99,0,0,0,.889-2.328,3.252,3.252,0,0,0-.889,2.328m3.823-2.319a.066.066,0,1,0-.066.067.066.066,0,0,0,.066-.067m-.755,1.529a2.153,2.153,0,0,0,.616-1.359c-.441.329-.431.855-.616,1.359m-.816,2a3.866,3.866,0,0,0,.745-1.907,6.064,6.064,0,0,0-.745,1.907m-1.828,14.635c.484-.231.049-.556.064-.839.1-1.952-.126-3.884.1-5.822a3.454,3.454,0,0,0,.107-1.1,10.121,10.121,0,0,1,.493-3.4,22.526,22.526,0,0,0,.992-3.385c-1.767,4.086-2,7.106-1.863,11.37Z" transform="translate(-52.865 -28.217)" fill="#5f9235"/>
        <path id="Path_1257827" data-name="Path 1257827" d="M184.339,77.193c.062,2.188.1,5.608-1.044,7.537-2.12,3.57-4.437,7.013-6.368,10.744-.2.382-.353.641-.567.987a39.563,39.563,0,0,0-3.535,7.116,88.382,88.382,0,0,0-3.256,11.6,10.933,10.933,0,0,1-1.478,3.439,3.9,3.9,0,0,1-1.4,1.417c-2.452,1.5-4.195,1.738-7.049,1.878-.288-.807,1.049-1.962,1.617-3.363a15.871,15.871,0,0,0,1.2-5c.146-2.34.085-4.637.022-6.995-.052-1.955-.679-5.435.618-7.549l.6-.974a7.061,7.061,0,0,1,.81-1.171l2.781-2.932c.264-.279.446-.593.685-.877a6.38,6.38,0,0,0,.758-7.168c-1.616-3.191-2.638-6.087-.481-9.46,2.818-4.409,9.36-6.182,8.766-13.309-.092-1.1-.368-2.172-.357-3.258a8.64,8.64,0,0,1,1.084-4.332c-.222.382,1.518-2.339,1.244-1.95a16.619,16.619,0,0,1,3.557-3.485c1.045-.811,2.152-1.441,3.235-2.195l1.5-1.04a20.277,20.277,0,0,0,5.184-5.186,1.2,1.2,0,0,0-.118-1.528,1.157,1.157,0,0,0-1.594.075l-2.158,2.367a8.648,8.648,0,0,1-2.168,1.846L186,43.628l-1.355-1.287c-1.334-1.266-2.89-2.453-3.548-4.611-1.649-5.414-5.858-9-11.849-8.594.387-3.284,4.119-5.247,6.48-7.13s4.536-2.037,6.967-.193a15.219,15.219,0,0,1,2.766,2.95c2.237,2.881,4.312-1.514,9.339,1.423a2.9,2.9,0,0,1,1.122,1.14c1.688,2.779.328,4.517.574,7.382a5.532,5.532,0,0,0,2.225,3.885,10.17,10.17,0,0,0,2.2,1.391,6.465,6.465,0,0,1,1.375,1,8.091,8.091,0,0,1,3.048,6.131,13.382,13.382,0,0,1-.993,5.218c-1.17,3.215.967,4.678,2.088,6.847a5.176,5.176,0,0,1-.539,5.9l-1,1.105c-.7.773-1.585,1.328-2.328,2.049-4.07,3.953,1.422,6.826-1.5,12.859a13.656,13.656,0,0,1-1.821,2.821,18.832,18.832,0,0,1-3.387,2.737,25.258,25.258,0,0,1-2.459,1.5c-2.608,1.146-4.393,4.223-5.478,5.566L186.5,95.489c-1.813,2.245-4.123,3.633-6.453,5.334l-3.471,2.535a7.425,7.425,0,0,0-1.786,1.656,33.307,33.307,0,0,1,2.705-5.648l4.832-8.45c.208-.364.358-.664.582-1.021l2.915-4.65a12.256,12.256,0,0,0,.663-1.228,80.515,80.515,0,0,0,4.362-9.694,47.79,47.79,0,0,0,2.254-10.482c.267-2.431.317-4.784.359-7.228a1.215,1.215,0,0,0-.917-1.122c-.37-.107-1.262.256-1.27.839-.117,7.852-1.194,14.746-4.581,21.943a37.177,37.177,0,0,0-1.683-11.882,1.144,1.144,0,0,0-1.317-.853,1.1,1.1,0,0,0-.847,1.439,43.14,43.14,0,0,1,1.489,10.214" transform="translate(-106.775 -13.723)" fill="#5f9235"/>
        <path id="Path_1257828" data-name="Path 1257828" d="M32.368,82.221a1.064,1.064,0,0,0-.48-1.455,1.2,1.2,0,0,0-1.5.55,39.646,39.646,0,0,0-3.733,14.06,37.241,37.241,0,0,1-3.038-13.635,45.589,45.589,0,0,1,.938-11.073A1.2,1.2,0,0,0,23.8,69.2a1.211,1.211,0,0,0-1.428.754,43.806,43.806,0,0,0-1.1,12.975l.119,1.484a36.078,36.078,0,0,0,4.075,14.106,56.862,56.862,0,0,0,6.111,9.184c.556.691.907,1.433,1.509,2.1a39.824,39.824,0,0,1,2.734,3.614l1.719,2.42a29.448,29.448,0,0,1,3.654,6.019,23.078,23.078,0,0,0-6.752-4.379L28.7,114.953a8.172,8.172,0,0,1-4.047-3.647c-1.512-2.886.048-5.455-2.013-7.289a13.888,13.888,0,0,0-2.79-1.848c-.976-.516-1.832-1.167-2.745-1.75a5.493,5.493,0,0,1-1.526-1.546c-2.134-2.865-3.293-6.978-1.088-10.131,1.418-2.028,2.073-3.709.886-6a11.193,11.193,0,0,0-1.514-2.19,9.365,9.365,0,0,1-2.122-7.581A9.244,9.244,0,0,1,13.62,68.5a11.423,11.423,0,0,0,1.122-1.442c.567-.971,1.164-.762,2.237-2.788a9.489,9.489,0,0,0,1.5-4.31l.058-5.028c.024-2.109,1.767-4.718,4.275-4.979a4.435,4.435,0,0,1,3.929,1.61c1.479,1.912.414,5.1.691,7.862.279,2.781,2.287,4.557,4.544,5.912,1.411.848,2.931,1.393,4.286,2.362.371.265.584.751,1.129.7A9.051,9.051,0,0,1,39.645,74.7l-.017,6.246a6.719,6.719,0,0,0,2.932,5.268c1,.743,1.952,1.393,2.985,2.062a8.605,8.605,0,0,1,1.211,1.048c2.614,2.465,1.416,5.363.014,7.95-1.955,3.608-2.826,7.176-.327,10.809a17.6,17.6,0,0,0,1.726,2l1.352,1.456a29.419,29.419,0,0,1,2.416,3.029,13.993,13.993,0,0,1,2.633,7.171l.1,6.705c.053,3.678,1.348,9.055,3.431,12.237a.588.588,0,0,1-.3.908,5.1,5.1,0,0,1-1.6-.062c-3.724-.246-6.859-1.8-8.05-5.531a24.164,24.164,0,0,1-.59-3.278,42.406,42.406,0,0,0-5.975-15.354,14.847,14.847,0,0,1-.959-1.473,7.38,7.38,0,0,0-1.129-1.64c-.338-.369-.481-.729-.779-1.12l-6.468-8.477a17.424,17.424,0,0,1-2.3-3.452,13.7,13.7,0,0,1-.725-6.718,36.845,36.845,0,0,1,2.012-9.313c.353-1.025.685-1.976,1.127-2.954" transform="translate(-7.777 -33.401)" fill="#5f9235"/>
        <path id="Path_1257829" data-name="Path 1257829" d="M81.347,21.757c-1.463-.035-3.741-1.905-7.122-.989a7.67,7.67,0,0,0-4.865,4.3c-1.031,2.186-1.322,4.553-2.87,6.29-.813.912-1.644,1.7-2.337,2.635a5.2,5.2,0,0,1-1.672-2.141c-1.084-3.305,1.73-7.436-2.391-10.93a7.031,7.031,0,0,1,2.2-3.991l1.367-1c2.639-1.923,7.168.092,10.036-.487a7.087,7.087,0,0,0,4.426-3.26A11.906,11.906,0,0,1,81.139,8.85a5.621,5.621,0,0,1,6.253-.3l3.355,2.077c4.636,2.87,7.015-3.241,12.634,4.091-.278.4-.734.555-.915.946a4.688,4.688,0,0,1-.712.9,8.158,8.158,0,0,0-1.449,4.145c-1.119.335-2.67-.963-3.359-1.668a7.5,7.5,0,0,0-4.567-2.171,8.554,8.554,0,0,0-6.357,2.247l-1.866,1.5a4.442,4.442,0,0,1-2.808,1.138" transform="translate(-40.201 -5.178)" fill="#5f9235"/>
        <path id="Path_1257830" data-name="Path 1257830" d="M143.916,84.411c-.048-.255-.241-.293-.47-.236a.083.083,0,0,0-.068-.037.085.085,0,0,0-.084.084v0a2.164,2.164,0,0,0-.2.089.065.065,0,0,0-.051-.025.066.066,0,0,0-.066.067.064.064,0,0,0,0,.02c-.05.028-.1.057-.143.085a.066.066,0,0,0-.126.028.065.065,0,0,0,.017.043c-.1.065-.175.121-.218.154a.1.1,0,0,0-.038.029L133.158,97.9a.163.163,0,0,0-.037.052l-1.149,2.432a.071.071,0,0,0-.011.023l-.108.229a.065.065,0,0,0-.028.053v0l-.095.2a.066.066,0,0,0-.039.06.058.058,0,0,0,0,.016l-.089.188a.065.065,0,0,0-.047.063.064.064,0,0,0,.005.026l-.083.175a.066.066,0,0,0-.056.064.063.063,0,0,0,.01.032l-.079.167a.065.065,0,0,0-.05.1l-.076.161h0a.066.066,0,0,0-.067.066.067.067,0,0,0,.018.045l-.084.178a.409.409,0,0,0-.2.183.162.162,0,0,0,.032.169l-.145.308a2.8,2.8,0,0,0-.7,1.492l-.38.8a7.713,7.713,0,0,1-.074-.794l.073-5.5c.007-.166.014-.33.022-.49.172-.966.189-2.364.275-3.372l.136-1.592c.054-.634.05-1.22.111-1.87l.26-2.779.278-2.8a25.3,25.3,0,0,0,.207-3.072l.051-.5a1.71,1.71,0,0,0,.06.269c.1-.349.449-2.671-.038-3.107a.3.3,0,0,0-.3-.173.065.065,0,0,0-.126,0,1.088,1.088,0,0,0-1.071.126.066.066,0,1,0-.088.086,1.007,1.007,0,0,0-.1.139h0a.066.066,0,0,0-.066.066.064.064,0,0,0,.014.039,1.379,1.379,0,0,0-.074.192l.012-.078c-.749,2-.782,3.984-1.182,6.009l-1.157,8.9a2.064,2.064,0,0,0-.061.975l-.046.3c-.424-.022-5.3-7.805-6.378-9.53a2.16,2.16,0,0,0,.188.154,1.716,1.716,0,0,0-.572-.775.992.992,0,0,0,.049.154,2.248,2.248,0,0,0-.284-.244.526.526,0,0,0-.75-.1c.023.007.045.012.067.017-1.263.249-.309,1.811-.047,2.2a.065.065,0,0,0,.062.09,2.007,2.007,0,0,1,.147.2c-.02-.02-.038-.04-.058-.06a3.163,3.163,0,0,0,.843,1.308c.542.889,1.113,1.853,1.113,1.853h0a.168.168,0,0,0,.074.149.844.844,0,0,1,.076.082l.135.211c-.033.243.148.332.283.453l.126.207a.066.066,0,0,0,.048.111.062.062,0,0,0,.016,0q.108.179.211.357a.62.62,0,0,0,.312.547l.094.17a.066.066,0,0,0,.031.124.063.063,0,0,0,.031-.009l.079.146a.066.066,0,0,0,.022.128.065.065,0,0,0,.039-.014l.079.15a.065.065,0,0,0-.052.063.066.066,0,0,0,.111.049l.079.152a.066.066,0,1,0,.057.111l.078.154a.065.065,0,0,0-.059.065.066.066,0,0,0,.115.045q.092.185.18.366c-.048-.071-.1-.141-.148-.212a3.54,3.54,0,0,0,.728,1.6c-.01-.074-.024-.146-.039-.218.052.119.1.237.151.353a.281.281,0,0,0,0,.378c.036.049.12.173.194.094l.072.181a.066.066,0,0,0-.059.065.066.066,0,0,0,.067.066.065.065,0,0,0,.038-.014c.021.053.041.105.061.158l-.086.029.305.916.115-.038.063.18a4.659,4.659,0,0,0,.438,1.412c0-.012,0-.022,0-.034q.069.239.128.458a36.762,36.762,0,0,1,.309,7.163c0,.135-.25,2.148-.056,2.244l-.033,1.643c-.181.13-.186.372-.16.619a14.348,14.348,0,0,1-.107,2.253l-.08,1.939c-.186,4.5-.289,8.073-.139,12.6.03.9.083,1.747.082,2.591l-.014.671.2,2.3,1.241,3.266,1.038,2.355.506,4-.557,3.038,1.722,7.6,1.693,3.9,1.21-1.62,1.4-3.14-.1-8.127-.949-5.819a2.36,2.36,0,0,0,.033-.974,38.685,38.685,0,0,1-.656-4.781l-.536-4.246-.274-2.388a12.23,12.23,0,0,0-.357-2.549c0,.1,0,.2,0,.3-.161-1.625-.263-3.14-.321-4.531.376-.228-.014-.535,0-.8.1-1.952-.126-3.884.1-5.823a3.454,3.454,0,0,0,.107-1.1,10.121,10.121,0,0,1,.493-3.4c.246-1.063.775-1.976.946-3.008.123-.3.237-.574.335-.805a3.759,3.759,0,0,0,.471-1.2c.068-.174.151-.376.246-.6a2.053,2.053,0,0,0,.487-1.1l.1-.218a.065.065,0,0,0,.048-.063.069.069,0,0,0-.007-.028l.079-.172a.066.066,0,0,0,.061-.065.067.067,0,0,0-.013-.037l.093-.2a.731.731,0,0,0,.306-.636l-.012.007.075-.16,0,.023a.869.869,0,0,0,.3-.643l.077-.162a.065.065,0,0,0,.041.016.067.067,0,0,0,.067-.067.066.066,0,0,0-.053-.064l.074-.154a.067.067,0,0,0,.046.019.066.066,0,0,0,.008-.131l.076-.157a.066.066,0,1,0,.053-.11c.159-.328.258-.532.258-.532l.056-.086-.236.484c.231-.138.427-.409.337-.64l7.458-11.53c.212-.09.321-.221.277-.439.028-.047.057-.094.083-.139a.066.066,0,0,0,.063-.066.065.065,0,0,0-.008-.031q.05-.088.1-.173a.066.066,0,0,0,.046-.062.053.053,0,0,0,0-.018q.05-.1.093-.186a.066.066,0,0,0,.043-.062.061.061,0,0,0,0-.021q.045-.1.085-.19a.081.081,0,0,0,.032-.018c.174-.152.2-.273.11-.35.032-.094.059-.184.082-.269-.006.032-.01.063-.016.1a1.129,1.129,0,0,0-.015-1.452m-18.668,44.8c-.022-.28-.036-.522-.037-.7,0-2.353-.129-4.655.053-6.97.089-1.135.072-2.218.126-3.329l.135-2.767v0Z" transform="translate(-79.271 -53.085)" fill="#fff"/>
        <path id="Path_1257831" data-name="Path 1257831" d="M76.561,89.566c-3.347,2.382-6.545,5.21-7.948,9.153a28.053,28.053,0,0,0-.906,3.613,9.761,9.761,0,0,1-4.582,6.5,13.456,13.456,0,0,1-6.346,1.725,56.807,56.807,0,0,1-6.527,0c-5.038-.293-9.082-3.176-9.991-8.336-.2-1.112-.285-2.162-.572-3.275a18.339,18.339,0,0,0-8.178-10.917,33.142,33.142,0,0,0-4.445-2.351l-4.348-1.887a11.273,11.273,0,0,1-5.46-4.632c-2.033-3.475-.358-6.278-1.948-7.2l-3.365-1.95a12.938,12.938,0,0,1-4.871-4.977A12.8,12.8,0,0,1,5.6,58.292c.177-5.131,4.883-5.221,1.23-9.465a12,12,0,0,1-2.661-10.7,13.976,13.976,0,0,1,3.562-6.377c1.485-1.6,2.955-3.614,3-5.892l.086-4.7a8.117,8.117,0,0,1,1.828-4.535,6.734,6.734,0,0,1,7.621-2.3A9.647,9.647,0,0,1,28.1,7.236a19.182,19.182,0,0,1,5.375.324c3.039.6,3.918-.609,5.431-2.79A10.875,10.875,0,0,1,44.169.495C50.3-1.665,53.574,3.97,56.32,3.561l3.319-.5c2.552-.381,4.923,1.289,6.611,3.19l1.427,1.608a38.562,38.562,0,0,1,3.737-2.6,7.386,7.386,0,0,1,7.2-.186A12.69,12.69,0,0,1,82.826,8.94c.852,1.15,1.85-.317,4.979-.03,4.346.4,7.765,4.172,7.3,8.366l-.382,3.431c-.2,1.772,2.919,2.964,4.6,4.28a10.841,10.841,0,0,1,4.234,7.091,10.419,10.419,0,0,1,.066,3.253,22.488,22.488,0,0,1-1.038,4.021,2.746,2.746,0,0,0,.489,2.758c2.272,2.99,3.175,6.179,1.336,9.672a11.53,11.53,0,0,1-3.45,3.76c-1.693,1.287-1.968,2.119-1.344,4.342,1.949,6.951-1.447,11.745-7.062,15.383L89.972,76.94a12.725,12.725,0,0,0-3.89,3.954,20.857,20.857,0,0,1-5.558,5.852ZM43.718,16.579a4.442,4.442,0,0,0,2.808-1.138l1.866-1.5a8.554,8.554,0,0,1,6.357-2.247,7.505,7.505,0,0,1,4.567,2.171c.689.705,2.24,2,3.359,1.668a8.159,8.159,0,0,1,1.449-4.145,4.7,4.7,0,0,0,.712-.9c.181-.391.637-.548.915-.946-5.618-7.332-8-1.221-12.634-4.091L49.763,3.373a5.622,5.622,0,0,0-6.253.3,11.91,11.91,0,0,0-3.024,3.338,7.087,7.087,0,0,1-4.426,3.26c-2.868.58-7.4-1.436-10.036.487l-1.367,1a7.031,7.031,0,0,0-2.2,3.991c4.121,3.493,1.307,7.624,2.391,10.93a5.2,5.2,0,0,0,1.672,2.141c.693-.932,1.524-1.723,2.337-2.635,1.548-1.737,1.839-4.1,2.87-6.29a7.671,7.671,0,0,1,4.865-4.3c3.381-.916,5.659.954,7.122.989M80.136,63.47a43.144,43.144,0,0,0-1.489-10.215,1.1,1.1,0,0,1,.847-1.439,1.144,1.144,0,0,1,1.317.853,37.173,37.173,0,0,1,1.683,11.882c3.387-7.2,4.465-14.091,4.581-21.942.009-.584.9-.946,1.271-.839a1.215,1.215,0,0,1,.917,1.122c-.043,2.444-.092,4.8-.359,7.228A47.787,47.787,0,0,1,86.65,60.6,80.543,80.543,0,0,1,82.288,70.3a12.246,12.246,0,0,1-.663,1.228l-2.915,4.65c-.224.357-.374.657-.582,1.021L73.3,85.644a33.294,33.294,0,0,0-2.705,5.648,7.417,7.417,0,0,1,1.786-1.656L75.848,87.1c2.33-1.7,4.64-3.089,6.453-5.334L83.727,80c1.085-1.343,2.87-4.42,5.478-5.566a25.3,25.3,0,0,0,2.459-1.5A18.832,18.832,0,0,0,95.05,70.2a13.679,13.679,0,0,0,1.821-2.821c2.918-6.032-2.574-8.906,1.5-12.859.743-.722,1.626-1.275,2.328-2.049l1-1.105a5.175,5.175,0,0,0,.539-5.9c-1.121-2.169-3.258-3.632-2.088-6.847a13.381,13.381,0,0,0,.993-5.218,8.092,8.092,0,0,0-3.048-6.131,6.47,6.47,0,0,0-1.375-1,10.186,10.186,0,0,1-2.2-1.391,5.531,5.531,0,0,1-2.224-3.885c-.246-2.864,1.114-4.6-.574-7.381a2.9,2.9,0,0,0-1.122-1.14c-5.026-2.937-7.1,1.458-9.339-1.423A15.221,15.221,0,0,0,78.494,8.09c-2.432-1.844-4.616-1.682-6.967.193s-6.093,3.846-6.48,7.13c5.992-.405,10.2,3.181,11.849,8.594.657,2.158,2.214,3.345,3.548,4.612L81.8,29.905l.414.793a8.644,8.644,0,0,0,2.169-1.846l2.158-2.367a1.157,1.157,0,0,1,1.594-.075,1.2,1.2,0,0,1,.118,1.528,20.272,20.272,0,0,1-5.184,5.186l-1.5,1.04c-1.083.753-2.19,1.384-3.235,2.195a16.632,16.632,0,0,0-3.557,3.485c.273-.389-1.466,2.333-1.244,1.95a8.639,8.639,0,0,0-1.084,4.332c-.011,1.085.265,2.156.357,3.258.594,7.128-5.948,8.9-8.766,13.309-2.156,3.373-1.135,6.269.481,9.46a6.38,6.38,0,0,1-.758,7.168c-.239.284-.42.6-.685.877L60.3,83.131a7.064,7.064,0,0,0-.81,1.171l-.6.974c-1.3,2.115-.669,5.594-.618,7.549.062,2.358.123,4.655-.023,7a15.867,15.867,0,0,1-1.2,5c-.568,1.4-1.9,2.557-1.617,3.363,2.854-.14,4.6-.377,7.049-1.878a3.9,3.9,0,0,0,1.4-1.416,10.938,10.938,0,0,0,1.477-3.44,88.382,88.382,0,0,1,3.256-11.6,39.553,39.553,0,0,1,3.535-7.116c.214-.347.369-.605.567-.988,1.93-3.73,4.248-7.173,6.368-10.743,1.146-1.929,1.106-5.349,1.044-7.537M48.486,79.276c1.4,2.018,3.09,5.578,3.127,8.141L51.7,93.21c-.006-.38.18,2.707.224,2.135a14.631,14.631,0,0,0,.282,2.789,18.72,18.72,0,0,0,1.8,6.162.328.328,0,0,0,.32.213c.028.133.117.15.144.011a11.129,11.129,0,0,0,1.317-4.127,1.944,1.944,0,0,0,.021-.664,21.922,21.922,0,0,0,.178-5.38l-.134-2.123c-.1-1.52-.058-3.028-.039-4.571a6.469,6.469,0,0,0,.107-1.6c.126.022.229-.073.288-.24a10.166,10.166,0,0,1,1.413-2.974c.2-.259.379-.492.562-.765.9-1.356,2.254-2.263,3.251-3.459a5.17,5.17,0,0,0,.809-5.652,22.73,22.73,0,0,1-1.413-3.366c-1.3-4.36.528-8.328,3.777-11.232L67.7,55.6a7.091,7.091,0,0,0,2.7-6.209l-.268-2.111c-.78-6.158,3.847-11.118,8.646-14.173a10.971,10.971,0,0,0,1.751-1.2,19.927,19.927,0,0,1-4.4-4.16c-1.9-2.712-1.287-3.168-2.72-5.783a7.689,7.689,0,0,0-5.85-3.97,14.273,14.273,0,0,0-4.062-.043c-3.759.581-5.044-1.978-5.964-2.54-.938-.574-1.506-1.486-3.586-1.451A7.678,7.678,0,0,0,50,15.577a25.162,25.162,0,0,1-2.754,2.3c-3.152,2.315-5.582.384-7.905-.043a4.562,4.562,0,0,0-4.687,1.809c-1.836,2.487-1.3,5.735-4.868,9.062a5.052,5.052,0,0,0-1.058,1.386,4.538,4.538,0,0,0,1.342.828,14.949,14.949,0,0,1,3.758,2.467,9.712,9.712,0,0,1,2.908,6.357c.16,2.257.045,4.453.01,6.731-.075,4.823,4.73,5.392,7.287,8.705A7.239,7.239,0,0,1,45,62.508c-1.014,2.448-2.85,4.58-2.864,7.2a7.147,7.147,0,0,0,2.094,4.914l2.064,2.207a22.784,22.784,0,0,1,2.2,2.443M27.163,48.82c-.442.978-.774,1.929-1.127,2.954a36.845,36.845,0,0,0-2.012,9.313,13.7,13.7,0,0,0,.725,6.718,17.424,17.424,0,0,0,2.3,3.452l6.468,8.477c.3.391.442.75.779,1.12a7.38,7.38,0,0,1,1.129,1.64,14.849,14.849,0,0,0,.959,1.473,42.406,42.406,0,0,1,5.975,15.354,24.163,24.163,0,0,0,.59,3.278c1.191,3.73,4.326,5.285,8.05,5.531a5.1,5.1,0,0,0,1.6.062.588.588,0,0,0,.3-.908c-2.083-3.181-3.378-8.559-3.431-12.237l-.1-6.7a13.993,13.993,0,0,0-2.633-7.171,29.421,29.421,0,0,0-2.416-3.029l-1.352-1.456a17.6,17.6,0,0,1-1.726-2c-2.5-3.633-1.628-7.2.327-10.809,1.4-2.587,2.6-5.485-.014-7.95a8.606,8.606,0,0,0-1.211-1.048c-1.033-.669-1.986-1.319-2.985-2.062a6.719,6.719,0,0,1-2.932-5.268L34.44,41.3a9.051,9.051,0,0,0-2.255-6.311c-.545.054-.758-.432-1.129-.7-1.354-.968-2.875-1.514-4.286-2.362-2.256-1.356-4.265-3.132-4.544-5.912-.277-2.758.789-5.95-.691-7.862a4.435,4.435,0,0,0-3.929-1.61c-2.507.261-4.25,2.87-4.275,4.979l-.058,5.028a9.489,9.489,0,0,1-1.5,4.31c-1.073,2.026-1.67,1.817-2.237,2.788A11.423,11.423,0,0,1,8.415,35.1,9.244,9.244,0,0,0,6.532,39.57a9.365,9.365,0,0,0,2.122,7.581,11.193,11.193,0,0,1,1.514,2.19c1.187,2.289.533,3.97-.886,6-2.206,3.154-1.046,7.266,1.088,10.131A5.493,5.493,0,0,0,11.9,67.017c.913.584,1.769,1.234,2.745,1.75a13.888,13.888,0,0,1,2.79,1.848c2.061,1.834.5,4.4,2.013,7.289a8.172,8.172,0,0,0,4.047,3.647l5.744,2.525a23.078,23.078,0,0,1,6.752,4.379,29.447,29.447,0,0,0-3.654-6.019l-1.719-2.42A39.823,39.823,0,0,0,27.881,76.4c-.6-.67-.953-1.413-1.509-2.1a56.862,56.862,0,0,1-6.111-9.184,36.078,36.078,0,0,1-4.075-14.106l-.119-1.484a43.806,43.806,0,0,1,1.1-12.975A1.211,1.211,0,0,1,18.6,35.8a1.2,1.2,0,0,1,.756,1.473,45.589,45.589,0,0,0-.938,11.073,37.241,37.241,0,0,0,3.038,13.635,39.646,39.646,0,0,1,3.733-14.06,1.2,1.2,0,0,1,1.5-.55,1.064,1.064,0,0,1,.48,1.455" transform="translate(-2.572 0)" fill="#040405"/>
      </g>
    </g>
  </g>
</svg>
