<svg xmlns="http://www.w3.org/2000/svg" xmlns:xlink="http://www.w3.org/1999/xlink" width="100" height="100" viewBox="0 0 100 100">
  <defs>
    <clipPath id="clip-path">
      <rect id="Rectangle_411071" data-name="Rectangle 411071" width="97.881" height="81.353" fill="none"/>
    </clipPath>
  </defs>
  <g id="Group_1207786" data-name="Group 1207786" transform="translate(-1117.051 -2211)">
    <path id="Path_1257919" data-name="Path 1257919" d="M91.222,85.582A45.361,45.361,0,1,1,45.861,40.221,45.361,45.361,0,0,1,91.222,85.582" transform="translate(1121.69 2175.418)" fill="#fff"/>
    <g id="Group_1207778" data-name="Group 1207778" transform="translate(1117.071 2211.021)">
      <g id="Group_1207777" data-name="Group 1207777" transform="translate(1.36 8.842)">
        <g id="Group_1207776" data-name="Group 1207776" transform="translate(0 0)" clip-path="url(#clip-path)">
          <path id="Path_1257855" data-name="Path 1257855" d="M84.891,75.8l-.109-4.168-.109-4.217-.1-3.353-.109-3.131-.112-3.243-.11-2.811-.1-3.036c-.066-2.038-.308-2.034,1-3.6a16.105,16.105,0,0,0,2.514-3.683,12.014,12.014,0,0,0,.866-6.978,17.74,17.74,0,0,0-3.046-7.106,13.4,13.4,0,0,0-1.666-2.121l-2.24-2.218c-4.554-4.511-13.409-6.775-19.766-7.441a61.78,61.78,0,0,0-20.971,1.23,36.354,36.354,0,0,0-8.211,3.125,5.292,5.292,0,0,0-1.376.8c.091-.094-1.994,1.427-1.863,1.121l1.9-1.6c.211-.177.435-.291.628-.47l.681-.63a28.091,28.091,0,0,1,8.1-4.692l.956-.416A58.527,58.527,0,0,1,51.675,14a88.006,88.006,0,0,1,23.562-2.287l1.744.092c7.278.385,20.2,2.368,26.219,6.323l.832.546,1.615.934a18.075,18.075,0,0,1,2.711,1.922l.706.606a11.663,11.663,0,0,1,2.359,2.268,15.486,15.486,0,0,0,1.057,1.232,16.732,16.732,0,0,1,2.123,3.185c2.163,3.844,3.212,8.918,1.164,13.031-.229.461-.509.874-.767,1.31a16.033,16.033,0,0,1-1.917,2.286c-.236.27-.18.648-.2.989l-.335,5.3L112.112,59,110.96,76.28c-.157,2.357-1.2,4.594-3.432,5.462l-1.147.447c-2.2.859-15.921,3.511-18.676,3.864l-.9.115c-.913.117-1.752.36-2.758.416a10.309,10.309,0,0,0,.755-2.8,64.807,64.807,0,0,0,.084-7.979" transform="translate(-21.93 -8.68)" fill="#b18c32"/>
          <path id="Path_1257856" data-name="Path 1257856" d="M56.282,114.641l-2.1-.114-2.061-.1-1.725-.113-1.838-.109-1.732-.105-1.729-.111-1.732-.1-1.628-.1-10.322-.681-6.493-.549a30.1,30.1,0,0,1-4.735-.68,2.782,2.782,0,0,1-2.192-2.768l.051-16.285L18.019,77a4.645,4.645,0,0,0-1.657-3.329,18.3,18.3,0,0,1-2.09-2.024,9,9,0,0,1-1.782-5.178,12.392,12.392,0,0,1,4.09-9.947,21.032,21.032,0,0,1,6.842-4.078,45.912,45.912,0,0,1,13.26-2.824l2.246-.13A69.557,69.557,0,0,1,53.013,50.5a34.273,34.273,0,0,1,9.781,3.213A18.21,18.21,0,0,1,69.728,59.3l1.19,1.737a12.243,12.243,0,0,1,2.243,8.276,8.532,8.532,0,0,1-2.493,5.288,5.988,5.988,0,0,0-1.91,5.261c.109.756-.087,1.552.072,2.306,0-.016.446,9.843.466,10.644l.074,2.868.1,4.571.036,11.323c.006,1.788-.906,3.207-2.812,3.362a30.474,30.474,0,0,1-3.753.018l-2.493-.1-2.375-.112ZM40.332,55.833a2.345,2.345,0,1,0-2.345,2.345,2.345,2.345,0,0,0,2.345-2.345m-9.482,4.4a3.764,3.764,0,0,0-1.043-3.168,3.457,3.457,0,0,0-3.961-.449,3.735,3.735,0,0,0-1.886,3.432A3.241,3.241,0,0,0,26.5,63.31a3.478,3.478,0,0,0,4.355-3.079M58.522,59.6a2.605,2.605,0,1,0-2.605,2.605A2.605,2.605,0,0,0,58.522,59.6M37.729,72.356a8.656,8.656,0,0,0,7.24-1.935A18.83,18.83,0,0,0,49.1,65.6a6.345,6.345,0,0,0,.922-4.081c-.367-2.688-2.49-3.677-5.046-3.509-2.834.186-5.924,2.364-7.959,4.239-1.836,1.691-3.14,3.874-2.841,6.483a4.221,4.221,0,0,0,3.556,3.628m-16.1-8.239a2.188,2.188,0,1,0-2.188,2.188,2.188,2.188,0,0,0,2.188-2.188m46,3.4A3.584,3.584,0,1,0,64.044,71.1a3.584,3.584,0,0,0,3.584-3.584M31.381,68.991a2.189,2.189,0,1,0-2.189,2.189,2.189,2.189,0,0,0,2.189-2.189m25.1.826a2.118,2.118,0,1,0-2.118,2.118,2.118,2.118,0,0,0,2.118-2.118M25.173,72.838a2.187,2.187,0,1,0-2.187,2.187,2.187,2.187,0,0,0,2.187-2.187m34.107,5.449a3.51,3.51,0,1,0-3.51,3.51,3.51,3.51,0,0,0,3.51-3.51M64.451,76.1A1.58,1.58,0,0,0,63.2,75.085a1.668,1.668,0,0,0-1.6.624,1.735,1.735,0,0,0,.02,2.27,1.79,1.79,0,0,0,2.321.285,1.962,1.962,0,0,0,.507-2.167M46.46,77.517a2.317,2.317,0,1,0-2.317,2.317,2.317,2.317,0,0,0,2.317-2.317M33.5,78.26a2.992,2.992,0,1,0-2.992,2.992A2.993,2.993,0,0,0,33.5,78.26M24.3,84.74a1.676,1.676,0,1,0-1.411-.012,1.928,1.928,0,0,0,1.411.012M35.833,97.406A14.251,14.251,0,0,0,39.9,94.234c1.859-2.186,3.332-4.92,2.986-7.851-.37-3.14-2.837-4.774-5.919-4.595a12.24,12.24,0,0,0-4.89,1.8c-2.865,1.705-5.513,3.959-6.663,7.168-1.029,2.87-.633,6.025,2.369,7.394,2.448,1.116,5.714.548,8.045-.738m14.608,2.445a4.14,4.14,0,0,0,3.8,3.741,6.448,6.448,0,0,0,5.77-2.438A14.038,14.038,0,0,0,61.5,98.943a46.866,46.866,0,0,0,3.276-7.61,9.318,9.318,0,0,0,.491-3.833,3.427,3.427,0,0,0-2.937-3.155,6.6,6.6,0,0,0-2.264-.01,7.839,7.839,0,0,0-4.178,2.411c-.314.044-.375.377-.557.508-.852.614-.7,1-1.567,1.9a4.978,4.978,0,0,0-.684,1.063,18.759,18.759,0,0,0-1.915,4.236,13.636,13.636,0,0,0-.722,5.4m.46-13.069a2.348,2.348,0,1,0-2.348,2.348A2.348,2.348,0,0,0,50.9,86.783M23.159,94.839a1.565,1.565,0,0,0-2.074-1.679,1.793,1.793,0,0,0-.949,2.48A1.572,1.572,0,0,0,21.9,96.4a1.609,1.609,0,0,0,1.254-1.557m24.011.2A1.676,1.676,0,0,0,44.758,94a1.842,1.842,0,0,0-.967,1.982,1.733,1.733,0,0,0,2.15,1.412,1.794,1.794,0,0,0,1.228-2.355m20.018,4.431A1.441,1.441,0,0,0,65.7,97.993a1.544,1.544,0,0,0-1.526,1.354,1.523,1.523,0,1,0,3.009.12m-21.936,9.023a3.467,3.467,0,0,0,2.488-2.1,5.338,5.338,0,0,0-.557-5.089,4.934,4.934,0,0,0-4.359-1.984,3.333,3.333,0,0,0-3.033,2.7,6.132,6.132,0,0,0,1.372,5.2,4.006,4.006,0,0,0,4.09,1.268m-16.933-4.658a3.1,3.1,0,1,0-3.1,3.1,3.1,3.1,0,0,0,3.1-3.1m7.913,2.389A2.228,2.228,0,1,0,34,108.45a2.228,2.228,0,0,0,2.228-2.228m28.342,1.641a2.129,2.129,0,1,0-2.129,2.129,2.129,2.129,0,0,0,2.129-2.129m-9.3.152A1.684,1.684,0,0,0,54,106.352a1.73,1.73,0,0,0-1.967.886,1.787,1.787,0,0,0,2.521,2.394,1.738,1.738,0,0,0,.721-1.616" transform="translate(-9.302 -36.896)" fill="#f8ecd1"/>
          <path id="Path_1257857" data-name="Path 1257857" d="M129.654,258.478c-1.752.7-3.2-1.038-3.706-2.724-.358-1.195-.035-2.9,1.218-3.23a3.223,3.223,0,0,1,2.946.729,3.447,3.447,0,0,1,1.122,2.884,2.612,2.612,0,0,1-1.581,2.342" transform="translate(-93.907 -188.409)" fill="#f8ecd1"/>
          <path id="Path_1257858" data-name="Path 1257858" d="M67.539,83.895a2.048,2.048,0,0,1-1.851,2.219,2.012,2.012,0,0,1-2.16-1.9,2.214,2.214,0,0,1,.946-2.05,2.089,2.089,0,0,1,2.309-.007,2.132,2.132,0,0,1,.756,1.74" transform="translate(-47.412 -61.064)" fill="#f8ecd1"/>
          <path id="Path_1257859" data-name="Path 1257859" d="M211.779,114.377a2.148,2.148,0,1,1-2.148-2.148,2.148,2.148,0,0,1,2.148,2.148" transform="translate(-154.867 -83.769)" fill="#f8ecd1"/>
          <path id="Path_1257860" data-name="Path 1257860" d="M179.274,156.993a2.1,2.1,0,1,1-2.1-2.1,2.1,2.1,0,0,1,2.1,2.1" transform="translate(-130.67 -115.611)" fill="#f8ecd1"/>
          <path id="Path_1257861" data-name="Path 1257861" d="M59.238,260.035a1.7,1.7,0,1,1,0-2.231,1.692,1.692,0,0,1,0,2.231" transform="translate(-42.028 -191.99)" fill="#f8ecd1"/>
          <path id="Path_1257862" data-name="Path 1257862" d="M95.423,270.484a.973.973,0,1,1-.973-.973.973.973,0,0,1,.973.973" transform="translate(-69.772 -201.166)" fill="#f8ecd1"/>
          <path id="Path_1257863" data-name="Path 1257863" d="M76.521,124.149a.958.958,0,0,1-1.857-.265.975.975,0,0,1,.757-.988.9.9,0,0,1,.941.265.982.982,0,0,1,.159.987" transform="translate(-55.729 -91.708)" fill="#f8ecd1"/>
          <path id="Path_1257864" data-name="Path 1257864" d="M52.124,138.739a.929.929,0,0,1-.557.982,1.075,1.075,0,0,1-1.129-.289,1.039,1.039,0,0,1,.025-1.2.918.918,0,0,1,1.008-.382.841.841,0,0,1,.654.887" transform="translate(-37.513 -102.871)" fill="#f8ecd1"/>
          <path id="Path_1257865" data-name="Path 1257865" d="M37.982,104.084a.985.985,0,0,1-.391,1.046,1.1,1.1,0,0,1-1.149-.027.96.96,0,0,1-.258-1.16,1.06,1.06,0,0,1,.94-.653.834.834,0,0,1,.857.794" transform="translate(-26.949 -77.096)" fill="#f8ecd1"/>
          <path id="Path_1257866" data-name="Path 1257866" d="M175.9,127.122a.9.9,0,1,1-.9-.9.9.9,0,0,1,.9.9" transform="translate(-129.943 -94.211)" fill="#f8ecd1"/>
          <path id="Path_1257867" data-name="Path 1257867" d="M141.395,229.548a.691.691,0,1,1-.692-.692.692.692,0,0,1,.692.692" transform="translate(-104.506 -170.82)" fill="#f8ecd1"/>
          <path id="Path_1257868" data-name="Path 1257868" d="M210.076,155.461a.635.635,0,1,1-.634-.634.634.634,0,0,1,.634.634" transform="translate(-155.856 -115.564)" fill="#f8ecd1"/>
          <path id="Path_1257869" data-name="Path 1257869" d="M55.3,180.543a.647.647,0,0,1-.507.685.612.612,0,0,1-.68-.519c-.065-.427.114-.739.495-.784a.553.553,0,0,1,.692.618" transform="translate(-40.381 -134.293)" fill="#f8ecd1"/>
          <path id="Path_1257870" data-name="Path 1257870" d="M47.167,226.647a.563.563,0,1,1-.563-.563.563.563,0,0,1,.563.563" transform="translate(-34.365 -168.751)" fill="#f8ecd1"/>
          <path id="Path_1257871" data-name="Path 1257871" d="M221.273,245.455c0,.418-.332.543-.68.463a.54.54,0,0,1-.3-.739.546.546,0,0,1,.6-.328c.223.019.383.266.382.6" transform="translate(-164.393 -182.756)" fill="#f8ecd1"/>
          <path id="Path_1257872" data-name="Path 1257872" d="M80.492,183.7a4.974,4.974,0,0,0-3.668-.022,5.774,5.774,0,0,0-1.748.755c-.275.221-.589.291-.911.506l-.9.6c-.656.438-1.226.951-1.856,1.356a8.838,8.838,0,0,0-1.455,1.387,7.4,7.4,0,0,0-2.215,5.568,3.749,3.749,0,0,0,3.569,3.136,13.164,13.164,0,0,0,1.945-.027c.779-.044,3.035-.669,3.353-1.27,1.468-.7.921-.609,2.025-1.4.134-.1,1.816-1.541,1.544-1.741.133-.156.34-.251.5-.482l.485-.694c1.733-2.055,2.243-6.366-.666-7.679m-6.444,3.615c.178-.181.426-.252.473-.476.037-.021.1,0,.137-.014a3.551,3.551,0,0,1,4.42.685,3.848,3.848,0,0,1-.094,4.721,1.99,1.99,0,0,1-.216.324c-.212-.051-.346.1-.546.225a3.729,3.729,0,0,1-3.628.169c-.156-.079-.24-.229-.367-.069-.027-.116-.138-.165-.21-.242a3.565,3.565,0,0,1-1.068-2.172,4.059,4.059,0,0,1,1.1-3.151" transform="translate(-50.542 -136.847)" fill="#b18c32"/>
          <path id="Path_1257873" data-name="Path 1257873" d="M94.832,204.448a2.175,2.175,0,0,1,.3-2.967,2.019,2.019,0,0,1,2.522-.011,1.976,1.976,0,0,1,.6,1.707,1.994,1.994,0,0,1-3.422,1.272" transform="translate(-70.446 -150.053)" fill="#b18c32"/>
          <path id="Path_1257874" data-name="Path 1257874" d="M181.724,232.469a1.282,1.282,0,0,0-.843,1.876,1.074,1.074,0,0,0,1.681-.075,1.252,1.252,0,0,1-1.522.115c-.282-.245-.209-.7-.13-1.04.093-.4,1.166-1.136,1.651-.57.377.44.155,1.006,0,1.5.389-.131.517-1.234.067-1.64a.875.875,0,0,0-.905-.161" transform="translate(-134.873 -173.476)" fill="#bc5313"/>
          <path id="Path_1257875" data-name="Path 1257875" d="M178.991,193.382h0c-1.077-.913-3.167-.532-4.12.206a.028.028,0,0,0,0,.018.028.028,0,0,1,0-.018,1.729,1.729,0,0,1-.537.322c-.248.077-.281.338-.425.446-.235-.051-.4.111-.572.294a10.5,10.5,0,0,0-1.483,1.652c-.248.424-1.119,1.25-.972,1.514-.18-.029-.273.115-.372.277a16.079,16.079,0,0,0-1.673,3.53c-.5,1.569-1.531,4.628-.34,6.038a4.873,4.873,0,0,0,.755.871,3.9,3.9,0,0,0,4.484-.374,6.022,6.022,0,0,0,1.324-1.327l.675-.931c.292-.4.393-.9.673-1.261a4.219,4.219,0,0,0,.563-.973,47.58,47.58,0,0,0,2.621-6.75,10.91,10.91,0,0,0,.157-1.156,3.059,3.059,0,0,0-.757-2.379m-2.3-.319a4.637,4.637,0,0,1,.543-.026,4.637,4.637,0,0,0-.543.026,3.993,3.993,0,0,0-.8.167,3.146,3.146,0,0,0-.959.5,3.146,3.146,0,0,1,.959-.5,3.993,3.993,0,0,1,.8-.167m-2.148,12.106c-.4.651-.494.909-1.064,1.19a2.7,2.7,0,0,1-2.7.108c-.747-.759-.645-.34-.973-1.406a2.873,2.873,0,0,1,2.464-3.681,2.586,2.586,0,0,1,2.046.654,2.313,2.313,0,0,1,.139.216,2.859,2.859,0,0,1,.09,2.92m3.478-6.164a2.756,2.756,0,0,1-.541.757c-.281-.034-.516.164-.792.294a2.688,2.688,0,0,1-2.668-.4l-.108-.108a2.777,2.777,0,0,1-.642-2.3,2.89,2.89,0,0,1,2.627-2.322,2.312,2.312,0,0,1,1.808.6,2.911,2.911,0,0,1,.316,3.482" transform="translate(-125.355 -143.943)" fill="#b18c32"/>
          <path id="Path_1257876" data-name="Path 1257876" d="M196.286,206.972c-.7-.468-1.729.312-1.842.828a1.008,1.008,0,0,0,.411,1.1,1.381,1.381,0,0,1-.245-1.15,1.232,1.232,0,0,1,1.649-.627,1,1,0,0,1,.327.71,1.039,1.039,0,0,1-.531,1.039,1.3,1.3,0,0,1-1.2.028.879.879,0,0,0,1.116.2,1.2,1.2,0,0,0,.731-1.065,1.04,1.04,0,0,0-.417-1.067" transform="translate(-145.112 -154.379)" fill="#bc5313"/>
          <path id="Path_1257877" data-name="Path 1257877" d="M79.894,159.565a1.661,1.661,0,0,1-1.738-.1,1.585,1.585,0,0,1-.59-1.638,1.641,1.641,0,0,1,2.245-1.147,1.594,1.594,0,0,1,.871,1.348,1.488,1.488,0,0,1-.787,1.538" transform="translate(-57.874 -116.851)" fill="#f8ecd1"/>
          <path id="Path_1257878" data-name="Path 1257878" d="M115.686,89.912c-1.278-.751-3.243-.242-4.607.344-.549.235-2.965,1.535-3.07,2.007a10.935,10.935,0,0,0-1.046.764c-1.394,1.045-3.022,3.147-2.8,5.011a2.554,2.554,0,0,0,1.249,2.125,2.5,2.5,0,0,0,1.263.573,7.333,7.333,0,0,0,5.944-1.816,14.607,14.607,0,0,0,2.083-2.356l1.2-1.609c1.192-1.6,1.467-4.058-.211-5.044m-7.493,7.673a.316.316,0,0,0-.114.034.315.315,0,0,1,.114-.034m-.145.293a.444.444,0,0,1,.579.009l.011.108c.023.16.067.4-.085.49s-.377.042-.544.05l-.093-.108a.582.582,0,0,1,.133-.549m.8.416a.942.942,0,0,1-.593.462.942.942,0,0,0,.593-.462.243.243,0,0,0,.023-.179.243.243,0,0,1-.023.179m5.9-3.148c-1.243,1.978-4.2,1.7-4.784.678a2.791,2.791,0,0,1,.288-3.155c1.073-1.325,3.182-2.116,4.538-.73a3.012,3.012,0,0,1-.042,3.207" transform="translate(-77.729 -66.83)" fill="#b18c32"/>
          <path id="Path_1257879" data-name="Path 1257879" d="M134.3,102.413a1.568,1.568,0,0,0-2.121.976.931.931,0,0,0,.75,1.264,1.6,1.6,0,0,0,1.276-.545.812.812,0,0,0,.177-.183c.32-.369.418-1.209-.082-1.512m-.241,1.672a.267.267,0,0,1,.089-.025.267.267,0,0,0-.089.025" transform="translate(-98.615 -76.319)" fill="#b18c32"/>
          <path id="Path_1257880" data-name="Path 1257880" d="M181.092,85.125a1.3,1.3,0,0,1-.145,1.916,1.27,1.27,0,0,1-1.692-.306,1.236,1.236,0,0,1,.2-1.687,1.356,1.356,0,0,1,1.638.076" transform="translate(-133.618 -63.303)" fill="#f8ecd1"/>
          <path id="Path_1257881" data-name="Path 1257881" d="M152.68,193.27a1.109,1.109,0,0,1-.628,1.191,1.011,1.011,0,0,1-1.274-.375,1.078,1.078,0,0,1,.2-1.413,1.042,1.042,0,0,1,1.015-.251.944.944,0,0,1,.691.848" transform="translate(-112.407 -143.598)" fill="#f8ecd1"/>
          <path id="Path_1257882" data-name="Path 1257882" d="M182.983,234.725a1.252,1.252,0,0,1-1.522.114c-.282-.244-.209-.7-.13-1.04.093-.4,1.166-1.136,1.651-.57.377.44.155,1.006,0,1.5" transform="translate(-135.294 -173.931)" fill="#b18c32"/>
          <path id="Path_1257883" data-name="Path 1257883" d="M109.627,72.484a1,1,0,0,1-.9-1.246,1.076,1.076,0,0,1,1.282-.815.984.984,0,0,1,.86,1.113,1.067,1.067,0,0,1-1.246.947" transform="translate(-81.142 -52.553)" fill="#f8ecd1"/>
          <path id="Path_1257884" data-name="Path 1257884" d="M195.283,209.376a1.381,1.381,0,0,1-.245-1.15,1.232,1.232,0,0,1,1.649-.627,1,1,0,0,1,.327.71,1.039,1.039,0,0,1-.531,1.039,1.3,1.3,0,0,1-1.2.028" transform="translate(-145.539 -154.854)" fill="#b18c32"/>
          <path id="Path_1257885" data-name="Path 1257885" d="M97.653,25.413C95.731,14.445,85.231,7.132,75.335,3.771A73.631,73.631,0,0,0,55.634.179L53.341.073c-2.193-.1-4.374-.092-6.565,0L44.768.156,42.964.3a87.461,87.461,0,0,0-18.537,3.4c-6.49,1.951-13.17,5.064-18,9.884C2.206,17.782-.436,23.461.059,29.463a14.125,14.125,0,0,0,4.5,9.249,7,7,0,0,1,1.056,1.146L5.641,71.7a6.4,6.4,0,0,0,3.912,5.8,16.251,16.251,0,0,0,5.26,1.244l4.017.394,1.818.116c.4.026.8.087,1.189.11l1.947.11,1.626.1,1.833.116,1.733.11,1.629.1,1.62.1,1.831.117,1.63.1,2.05.113,1.517.1,2.053.113,1.889.11,1.572.1,1.833.118,1.84.109c.631.038,1.223.078,1.846.1l2,.079a61.861,61.861,0,0,0,7.026.109c1.627-.121,3.1-.422,4.724-.673,6.127-.942,12.138-2.045,18.156-3.466a23.661,23.661,0,0,0,4.39-1.37,8.741,8.741,0,0,0,4.41-4.1,12.749,12.749,0,0,0,.975-4.807l.346-4.909.118-1.918.1-1.524.08-1.588,1.208-17.678.063-1.325a14.417,14.417,0,0,0,3.769-12.511m-38.2,17.56c.109.756-.086,1.552.072,2.306,0-.016.446,9.843.467,10.644l.074,2.868.1,4.571L60.2,74.684c.006,1.788-.906,3.207-2.812,3.362a30.423,30.423,0,0,1-3.753.018l-2.493-.1-2.375-.112-1.79-.1-2.1-.114-2.061-.1-1.725-.113-1.838-.109L37.519,77.2l-1.729-.111-1.732-.1-1.628-.1L22.109,76.21l-6.493-.549a30.14,30.14,0,0,1-4.735-.68,2.783,2.783,0,0,1-2.192-2.768l.051-16.285L8.717,40.1a4.646,4.646,0,0,0-1.657-3.329,18.252,18.252,0,0,1-2.09-2.024,9,9,0,0,1-1.782-5.178,12.392,12.392,0,0,1,4.09-9.947,21.036,21.036,0,0,1,6.842-4.078,45.912,45.912,0,0,1,13.26-2.824l2.246-.13a69.557,69.557,0,0,1,14.085,1.014,34.279,34.279,0,0,1,9.781,3.213,18.214,18.214,0,0,1,6.933,5.591l1.19,1.737a12.244,12.244,0,0,1,2.243,8.276,8.531,8.531,0,0,1-2.493,5.288,5.988,5.988,0,0,0-1.91,5.261m34.383-9.795c-.229.461-.509.874-.767,1.31a16.013,16.013,0,0,1-1.917,2.286c-.236.27-.18.648-.2.989l-.335,5.3-.435,7.258L89.03,67.6c-.157,2.357-1.2,4.594-3.432,5.462l-1.147.447c-2.2.859-15.921,3.511-18.677,3.864l-.895.115c-.913.117-1.752.36-2.758.416a10.309,10.309,0,0,0,.755-2.8,64.8,64.8,0,0,0,.084-7.979l-.109-4.168-.109-4.217-.1-3.353-.109-3.131-.112-3.243-.11-2.81-.1-3.036c-.066-2.038-.308-2.034,1-3.6a16.1,16.1,0,0,0,2.514-3.683,12.016,12.016,0,0,0,.866-6.978A17.742,17.742,0,0,0,63.549,21.8a13.4,13.4,0,0,0-1.666-2.121l-2.24-2.218c-4.554-4.511-13.409-6.774-19.766-7.441a61.78,61.78,0,0,0-20.971,1.23A36.352,36.352,0,0,0,10.7,14.372a5.3,5.3,0,0,0-1.376.8C9.41,15.082,7.325,16.6,7.456,16.3l1.9-1.6c.211-.177.435-.291.628-.47l.681-.63a28.091,28.091,0,0,1,8.1-4.692l.956-.416A58.5,58.5,0,0,1,29.745,5.325,88.006,88.006,0,0,1,53.307,3.039l1.744.092c7.278.385,20.2,2.368,26.219,6.323L82.1,10l1.615.934a18.055,18.055,0,0,1,2.711,1.922l.706.606a11.656,11.656,0,0,1,2.359,2.268,15.529,15.529,0,0,0,1.057,1.232,16.756,16.756,0,0,1,2.123,3.185c2.162,3.844,3.212,8.918,1.164,13.031" transform="translate(0 0)" fill="#040405"/>
          <path id="Path_1257886" data-name="Path 1257886" d="M79.52,181.581c-.37-3.14-2.837-4.774-5.919-4.595a12.239,12.239,0,0,0-4.89,1.8c-2.865,1.705-5.513,3.959-6.663,7.168-1.029,2.87-.633,6.025,2.369,7.394,2.448,1.116,5.714.548,8.045-.739a14.251,14.251,0,0,0,4.071-3.172c1.859-2.186,3.332-4.92,2.986-7.852m-3.457,5.742c-.161.231-.368.326-.5.483.273.2-1.409,1.645-1.544,1.741-1.1.786-.557.694-2.025,1.4-.319.6-2.574,1.227-3.354,1.27a13.165,13.165,0,0,1-1.945.027,3.749,3.749,0,0,1-3.569-3.136,7.4,7.4,0,0,1,2.215-5.568,8.829,8.829,0,0,1,1.455-1.387c.63-.4,1.2-.918,1.856-1.356l.9-.6c.322-.215.637-.285.911-.506a5.78,5.78,0,0,1,1.747-.755,4.975,4.975,0,0,1,3.668.022c2.909,1.314,2.4,5.624.666,7.679Z" transform="translate(-45.932 -132.095)" fill="#040405"/>
          <path id="Path_1257887" data-name="Path 1257887" d="M176.4,193.789a9.318,9.318,0,0,0,.491-3.833,3.427,3.427,0,0,0-2.937-3.155,6.6,6.6,0,0,0-2.264-.01,7.838,7.838,0,0,0-4.178,2.411c-.314.044-.375.377-.557.508-.852.614-.7,1-1.567,1.9a4.977,4.977,0,0,0-.684,1.063,18.744,18.744,0,0,0-1.915,4.236,13.632,13.632,0,0,0-.722,5.4,4.14,4.14,0,0,0,3.8,3.741,6.449,6.449,0,0,0,5.77-2.438,14.039,14.039,0,0,0,1.492-2.211,46.874,46.874,0,0,0,3.276-7.611m-4.42,6.26c-.279.357-.381.858-.673,1.261l-.675.931a6.022,6.022,0,0,1-1.323,1.327,3.9,3.9,0,0,1-4.484.374,4.874,4.874,0,0,1-.755-.871c-1.191-1.411-.164-4.469.34-6.038a16.09,16.09,0,0,1,1.673-3.53c.1-.162.192-.306.372-.277-.146-.263.724-1.09.972-1.514a10.54,10.54,0,0,1,1.483-1.652c.169-.184.337-.345.572-.294.144-.108.177-.369.425-.446a1.731,1.731,0,0,0,.538-.322c.953-.738,3.043-1.119,4.12-.206a3.059,3.059,0,0,1,.757,2.379,10.845,10.845,0,0,1-.156,1.156,47.586,47.586,0,0,1-2.621,6.75,4.215,4.215,0,0,1-.563.973" transform="translate(-120.928 -139.352)" fill="#040405"/>
          <path id="Path_1257888" data-name="Path 1257888" d="M101.507,97.541a8.656,8.656,0,0,0,7.24-1.935,18.827,18.827,0,0,0,4.128-4.825A6.344,6.344,0,0,0,113.8,86.7c-.367-2.688-2.49-3.677-5.046-3.509-2.834.186-5.924,2.364-7.959,4.239-1.836,1.691-3.14,3.874-2.841,6.483a4.221,4.221,0,0,0,3.556,3.628m.806-9.263a10.867,10.867,0,0,1,1.046-.764c.1-.472,2.522-1.772,3.07-2.007,1.365-.586,3.329-1.1,4.608-.344,1.677.986,1.4,3.447.21,5.044l-1.2,1.609a14.575,14.575,0,0,1-2.083,2.356,7.332,7.332,0,0,1-5.944,1.816,2.5,2.5,0,0,1-1.263-.573,2.553,2.553,0,0,1-1.249-2.126c-.218-1.864,1.41-3.967,2.8-5.011" transform="translate(-73.08 -62.081)" fill="#040405"/>
          <path id="Path_1257889" data-name="Path 1257889" d="M53.652,251.74a3.1,3.1,0,1,0,3.1,3.1,3.1,3.1,0,0,0-3.1-3.1m1.291,4.206a1.7,1.7,0,1,1,0-2.231,1.692,1.692,0,0,1,0,2.231" transform="translate(-37.734 -187.901)" fill="#040405"/>
          <path id="Path_1257890" data-name="Path 1257890" d="M90.85,264.594a2.228,2.228,0,1,0,2.228,2.228,2.228,2.228,0,0,0-2.228-2.228m-.024,3.192a.973.973,0,1,1,.973-.973.973.973,0,0,1-.973.973" transform="translate(-66.148 -197.496)" fill="#040405"/>
          <path id="Path_1257891" data-name="Path 1257891" d="M203.3,271.456a2.129,2.129,0,1,0,2.129,2.129,2.129,2.129,0,0,0-2.129-2.129m.015,3.013a.937.937,0,1,1,.937-.937.937.937,0,0,1-.937.937" transform="translate(-150.154 -202.618)" fill="#040405"/>
          <path id="Path_1257892" data-name="Path 1257892" d="M135.948,226.595a1.734,1.734,0,0,0,2.15,1.412,1.794,1.794,0,0,0,1.228-2.355,1.676,1.676,0,0,0-2.411-1.039,1.843,1.843,0,0,0-.967,1.982m1.708-1.048a.692.692,0,1,1-.692.692.692.692,0,0,1,.692-.692" transform="translate(-101.459 -167.511)" fill="#040405"/>
          <path id="Path_1257893" data-name="Path 1257893" d="M169.777,273.767a1.73,1.73,0,0,0-1.967.886,1.787,1.787,0,0,0,2.521,2.394,1.738,1.738,0,0,0,.72-1.616,1.684,1.684,0,0,0-1.274-1.663m-.131,2.317a.714.714,0,0,1-.879-.2.7.7,0,0,1,.225-.969.637.637,0,0,1,.911.221.731.731,0,0,1-.257.944" transform="translate(-125.081 -204.311)" fill="#040405"/>
          <path id="Path_1257894" data-name="Path 1257894" d="M207.369,153.715a1.961,1.961,0,0,0,.507-2.167,1.579,1.579,0,0,0-1.249-1.011,1.668,1.668,0,0,0-1.6.624,1.735,1.735,0,0,0,.02,2.27,1.79,1.79,0,0,0,2.321.285m-1.056-2.106a.635.635,0,1,1-.634.634.634.634,0,0,1,.634-.634" transform="translate(-152.727 -112.347)" fill="#040405"/>
          <path id="Path_1257895" data-name="Path 1257895" d="M51.862,175.4a1.712,1.712,0,0,0-1.872,1.291,1.734,1.734,0,0,0,.869,2.052,1.926,1.926,0,0,0,1.411.012,1.791,1.791,0,0,0-.408-3.355m-.182,2.445a.612.612,0,0,1-.68-.518c-.064-.427.114-.739.5-.784a.553.553,0,0,1,.691.617.647.647,0,0,1-.507.685" transform="translate(-37.268 -130.906)" fill="#040405"/>
          <path id="Path_1257896" data-name="Path 1257896" d="M45.189,223.273a1.565,1.565,0,0,0-2.074-1.679,1.793,1.793,0,0,0-.949,2.481,1.572,1.572,0,0,0,1.768.755,1.609,1.609,0,0,0,1.254-1.557m-1.618.515a.563.563,0,1,1,.563-.563.563.563,0,0,1-.563.563" transform="translate(-31.332 -165.33)" fill="#040405"/>
          <path id="Path_1257897" data-name="Path 1257897" d="M217.877,240.929a1.544,1.544,0,0,0-1.526,1.354,1.523,1.523,0,1,0,3.009.12,1.441,1.441,0,0,0-1.484-1.475m-.2,2.064a.54.54,0,0,1-.3-.739.547.547,0,0,1,.6-.328c.223.019.383.266.382.6,0,.418-.332.543-.68.463" transform="translate(-161.475 -179.832)" fill="#040405"/>
          <path id="Path_1257898" data-name="Path 1257898" d="M122.9,246.13a3.334,3.334,0,0,0-3.034,2.7,6.132,6.132,0,0,0,1.372,5.2,4.006,4.006,0,0,0,4.09,1.268,3.467,3.467,0,0,0,2.488-2.1,5.338,5.338,0,0,0-.558-5.088,4.934,4.934,0,0,0-4.359-1.984m3.807,5.3a2.613,2.613,0,0,1-1.581,2.342c-1.752.7-3.2-1.038-3.706-2.724-.358-1.195-.035-2.9,1.218-3.23a3.224,3.224,0,0,1,2.947.729,3.448,3.448,0,0,1,1.122,2.884" transform="translate(-89.382 -183.706)" fill="#040405"/>
          <path id="Path_1257899" data-name="Path 1257899" d="M60.333,83.215a3.477,3.477,0,0,0,4.355-3.079,3.763,3.763,0,0,0-1.043-3.168,3.457,3.457,0,0,0-3.961-.449A3.736,3.736,0,0,0,57.8,79.952a3.242,3.242,0,0,0,2.535,3.264M60.2,77.9a2.089,2.089,0,0,1,2.309-.007,2.131,2.131,0,0,1,.756,1.74,2.048,2.048,0,0,1-1.85,2.219,2.012,2.012,0,0,1-2.16-1.9A2.215,2.215,0,0,1,60.2,77.9" transform="translate(-43.14 -56.801)" fill="#040405"/>
          <path id="Path_1257900" data-name="Path 1257900" d="M205.317,106.622a3.584,3.584,0,1,0,3.584,3.584,3.584,3.584,0,0,0-3.584-3.584m.022,5.717a2.148,2.148,0,1,1,2.148-2.148,2.148,2.148,0,0,1-2.148,2.148" transform="translate(-150.576 -79.584)" fill="#040405"/>
          <path id="Path_1257901" data-name="Path 1257901" d="M172.906,149.38a3.51,3.51,0,1,0,3.51,3.51,3.51,3.51,0,0,0-3.51-3.51m.032,5.606a2.1,2.1,0,1,1,2.1-2.1,2.1,2.1,0,0,1-2.1,2.1" transform="translate(-126.439 -111.499)" fill="#040405"/>
          <path id="Path_1257902" data-name="Path 1257902" d="M71.987,117.928a2.189,2.189,0,1,0,2.189,2.189,2.189,2.189,0,0,0-2.189-2.189m.9,2.535a.958.958,0,0,1-1.857-.265.975.975,0,0,1,.757-.988.9.9,0,0,1,.941.265.982.982,0,0,1,.159.987" transform="translate(-52.098 -88.023)" fill="#040405"/>
          <path id="Path_1257903" data-name="Path 1257903" d="M45.334,135.3a2.187,2.187,0,1,0,2.187-2.187,2.187,2.187,0,0,0-2.187,2.187m1.452-.579a.918.918,0,0,1,1.008-.382.841.841,0,0,1,.654.887.929.929,0,0,1-.557.982,1.075,1.075,0,0,1-1.129-.289,1.039,1.039,0,0,1,.025-1.2" transform="translate(-33.838 -99.354)" fill="#040405"/>
          <path id="Path_1257904" data-name="Path 1257904" d="M35.72,100.9a2.188,2.188,0,1,0-2.188,2.188A2.188,2.188,0,0,0,35.72,100.9m-1.682.814a1.1,1.1,0,0,1-1.149-.027.96.96,0,0,1-.257-1.16,1.059,1.059,0,0,1,.94-.654.834.834,0,0,1,.857.794.985.985,0,0,1-.391,1.046" transform="translate(-23.395 -73.681)" fill="#040405"/>
          <path id="Path_1257905" data-name="Path 1257905" d="M171.47,125.7a2.118,2.118,0,1,0-2.118-2.118,2.118,2.118,0,0,0,2.118,2.118m-.014-3.031a.9.9,0,1,1-.9.9.9.9,0,0,1,.9-.9" transform="translate(-126.406 -90.663)" fill="#040405"/>
          <path id="Path_1257906" data-name="Path 1257906" d="M90.016,195.721c-.038.019-.1-.007-.137.014-.047.224-.3.295-.473.476a4.058,4.058,0,0,0-1.1,3.151,3.563,3.563,0,0,0,1.068,2.172c.072.078.183.127.21.242.128-.16.211-.01.368.069a3.73,3.73,0,0,0,3.628-.168c.2-.126.334-.277.546-.226a1.99,1.99,0,0,0,.216-.324,3.848,3.848,0,0,0,.094-4.721,3.551,3.551,0,0,0-4.42-.685m3.693,3.143a1.995,1.995,0,0,1-3.422,1.272,2.175,2.175,0,0,1,.3-2.967,2.018,2.018,0,0,1,2.522-.011,1.976,1.976,0,0,1,.6,1.707" transform="translate(-65.901 -145.741)" fill="#040405"/>
          <path id="Path_1257907" data-name="Path 1257907" d="M179.41,227.112a2.587,2.587,0,0,0-2.046-.654,2.873,2.873,0,0,0-2.464,3.681c.328,1.066.226.646.973,1.406a2.705,2.705,0,0,0,2.7-.108c.569-.281.666-.538,1.063-1.189a2.858,2.858,0,0,0-.09-2.92,2.368,2.368,0,0,0-.139-.216m-1.266,2.7a1.074,1.074,0,0,1-1.681.075,1.282,1.282,0,0,1,.843-1.876.875.875,0,0,1,.905.161c.45.406.323,1.51-.067,1.64" transform="translate(-130.455 -169.021)" fill="#040405"/>
          <path id="Path_1257908" data-name="Path 1257908" d="M191.465,200.981a2.89,2.89,0,0,0-2.627,2.322,2.777,2.777,0,0,0,.642,2.3l.108.108a2.688,2.688,0,0,0,2.668.4c.277-.13.512-.328.792-.294a2.756,2.756,0,0,0,.541-.757,2.911,2.911,0,0,0-.316-3.482,2.313,2.313,0,0,0-1.808-.6m1.052,2.683a1.2,1.2,0,0,1-.732,1.065.879.879,0,0,1-1.116-.2,1.008,1.008,0,0,1-.411-1.1c.113-.517,1.137-1.3,1.842-.828a1.04,1.04,0,0,1,.417,1.067" transform="translate(-140.926 -150.004)" fill="#040405"/>
          <path id="Path_1257909" data-name="Path 1257909" d="M130.873,100.078a3.012,3.012,0,0,0,.042-3.207c-1.356-1.386-3.465-.595-4.538.73a2.79,2.79,0,0,0-.288,3.155c.58,1.021,3.542,1.3,4.784-.678m-3.466-1.247a1.567,1.567,0,0,1,2.12-.975c.5.3.4,1.142.083,1.511a.825.825,0,0,1-.177.183,1.6,1.6,0,0,1-1.276.545.931.931,0,0,1-.75-1.264" transform="translate(-93.845 -71.762)" fill="#040405"/>
          <path id="Path_1257910" data-name="Path 1257910" d="M119.084,122.786c.167-.009.379.048.544-.05s.108-.331.086-.49l-.011-.108a.444.444,0,0,0-.579-.008.582.582,0,0,0-.133.549Z" transform="translate(-88.806 -91.081)" fill="#040405"/>
          <path id="Path_1257911" data-name="Path 1257911" d="M71.838,154.3a2.992,2.992,0,1,0,2.992-2.992,2.992,2.992,0,0,0-2.992,2.992m3.719-1.536a1.594,1.594,0,0,1,.871,1.348,1.488,1.488,0,0,1-.787,1.538,1.661,1.661,0,0,1-1.738-.1,1.585,1.585,0,0,1-.591-1.638,1.641,1.641,0,0,1,2.245-1.147" transform="translate(-53.621 -112.94)" fill="#040405"/>
          <path id="Path_1257912" data-name="Path 1257912" d="M176.149,84.482a2.605,2.605,0,1,0-2.605-2.605,2.605,2.605,0,0,0,2.605,2.605m-.778-3.568a1.356,1.356,0,0,1,1.638.076,1.3,1.3,0,0,1-.145,1.917,1.27,1.27,0,0,1-1.692-.306,1.236,1.236,0,0,1,.2-1.687" transform="translate(-129.535 -59.169)" fill="#040405"/>
          <path id="Path_1257913" data-name="Path 1257913" d="M147.867,187.464a2.348,2.348,0,1,0,2.348,2.348,2.348,2.348,0,0,0-2.348-2.348m.394,3.324a1.011,1.011,0,0,1-1.274-.374,1.078,1.078,0,0,1,.2-1.413,1.043,1.043,0,0,1,1.015-.251.944.944,0,0,1,.691.848,1.108,1.108,0,0,1-.628,1.191" transform="translate(-108.617 -139.925)" fill="#040405"/>
          <path id="Path_1257914" data-name="Path 1257914" d="M106.213,70.119a2.345,2.345,0,1,0-2.345-2.345,2.345,2.345,0,0,0,2.345,2.345m-1.1-2.6a1.076,1.076,0,0,1,1.282-.815.984.984,0,0,1,.86,1.113,1.067,1.067,0,0,1-1.246.947,1,1,0,0,1-.9-1.246" transform="translate(-77.528 -48.837)" fill="#040405"/>
          <path id="Path_1257915" data-name="Path 1257915" d="M130.57,151.049a2.317,2.317,0,1,0,2.317,2.317,2.317,2.317,0,0,0-2.317-2.317m.95,2.75a1.033,1.033,0,0,1-1.38.5,1.044,1.044,0,0,1-.52-1.325,1.055,1.055,0,0,1,1.366-.616,1.022,1.022,0,0,1,.534,1.439" transform="translate(-95.729 -112.745)" fill="#040405"/>
          <path id="Path_1257916" data-name="Path 1257916" d="M135.354,157.492a1.033,1.033,0,0,1-1.38.5,1.044,1.044,0,0,1-.52-1.325,1.055,1.055,0,0,1,1.366-.616,1.022,1.022,0,0,1,.534,1.439" transform="translate(-99.564 -116.438)" fill="#f8ecd1"/>
        </g>
      </g>
      <rect id="Rectangle_411073" data-name="Rectangle 411073" width="100" height="100" transform="translate(-0.02 -0.02)" fill="none"/>
    </g>
  </g>
</svg>
