<svg xmlns="http://www.w3.org/2000/svg" xmlns:xlink="http://www.w3.org/1999/xlink" width="100" height="100" viewBox="0 0 100 100">
  <defs>
    <clipPath id="clip-path">
      <rect id="Rectangle_411069" data-name="Rectangle 411069" width="89.52" height="96.446" fill="none"/>
    </clipPath>
  </defs>
  <g id="Group_1207784" data-name="Group 1207784" transform="translate(-382.051 -2211)">
    <path id="Path_1257917" data-name="Path 1257917" d="M91.222,85.582A45.361,45.361,0,1,1,45.861,40.221,45.361,45.361,0,0,1,91.222,85.582" transform="translate(386.189 2175.418)" fill="#fff"/>
    <g id="Group_1207779" data-name="Group 1207779" transform="translate(382.051 2211.021)">
      <g id="Group_1207773" data-name="Group 1207773" transform="translate(5.441 2.04)">
        <g id="Group_1207772" data-name="Group 1207772" clip-path="url(#clip-path)">
          <path id="Path_1257832" data-name="Path 1257832" d="M24.107,79.311a1.645,1.645,0,0,1-1.766,1.625,1.681,1.681,0,0,1-1.461-1.885l.339-4.182a15.909,15.909,0,0,1-6.783-2.194c-1.021,1.369-1.865,2.726-2.745,4.094a1.449,1.449,0,0,1-2.086.325,1.721,1.721,0,0,1-.482-2.437A25.857,25.857,0,0,1,11.875,70.9a17.618,17.618,0,0,1-4.523-5.657L2.923,66.818a1.327,1.327,0,0,1-1.556-.672,1.468,1.468,0,0,1,.2-1.727,3.462,3.462,0,0,1,1.389-.812l3.165-1.287A20.437,20.437,0,0,1,5.7,53.464a38.248,38.248,0,0,0-3.932-.418,1.672,1.672,0,0,1-1.726-1.19c-.172-.7.177-1.742,1.037-1.839a22.311,22.311,0,0,1,5.332.411c.431-1.3.9-2.594,1.42-3.908l1.939-4.936-3.383-.811a6.285,6.285,0,0,1-1.824-.524,1.519,1.519,0,0,1-.6-1.886,1.465,1.465,0,0,1,1.794-.919l4.826,1.068a56.762,56.762,0,0,0,1.638-9.686L7.2,27.307a1.781,1.781,0,0,1-1.2-1.208,1.693,1.693,0,0,1,.551-1.72A1.646,1.646,0,0,1,8,24.166c1.515.316,2.916.8,4.439,1.229l.325-2.886a21.514,21.514,0,0,1,1.52-5.849L9.514,13.978a1.663,1.663,0,0,1-.754-2.044,1.618,1.618,0,0,1,2.135-.826,33.728,33.728,0,0,1,4.955,2.6A18.746,18.746,0,0,1,20.567,9.02,48.354,48.354,0,0,0,17.595,4.5a1.679,1.679,0,0,1-.274-1.542,1.528,1.528,0,0,1,.949-.985,1.893,1.893,0,0,1,1.971.569A44.811,44.811,0,0,1,23.3,7.115a18.837,18.837,0,0,1,8.237-2.078l.2-3.294A1.7,1.7,0,0,1,33.381,0a1.628,1.628,0,0,1,1.682,1.774l-.233,3.57A18.957,18.957,0,0,1,41.674,7.9c1.151-1.161,2.068-2.457,3.088-3.7a1.59,1.59,0,0,1,2.086-.427,1.606,1.606,0,0,1,.526,2.12,33.938,33.938,0,0,1-2.981,4.056,19.55,19.55,0,0,1,4.748,6.681l2.951-1.7a1.738,1.738,0,0,1,1.38-.227,1.47,1.47,0,0,1,.945,1.2,1.5,1.5,0,0,1-.733,1.53L50.2,19.624c-.224.255,0,.766.05,1.052a17.517,17.517,0,0,1,.224,5.853c-.032.144.035.55.194.57l3.972.5a1.511,1.511,0,0,1,1.437,1.743A1.53,1.53,0,0,1,54.3,30.749l-4.076-.456c-.4,2.567-.88,5.087-1.47,7.675l3.667.637c.887.154,1.578.676,1.544,1.577a1.474,1.474,0,0,1-1.6,1.534l-4.185-.685-2.42,8.678a27.26,27.26,0,0,1,4.4,3.114A1.644,1.644,0,0,1,49.6,55.4a1.205,1.205,0,0,1-1.167-.144,26.607,26.607,0,0,0-3.507-2.375A68.725,68.725,0,0,1,41.754,61.6a43.213,43.213,0,0,1,2.976,3.319,1.578,1.578,0,0,1-.163,2.178,1.3,1.3,0,0,1-1.955.046,21.111,21.111,0,0,0-2.376-2.57A21.284,21.284,0,0,1,34.72,71.1c.7,1.383,1.378,2.7,1.957,4.127a1.7,1.7,0,0,1-.4,1.967,1.441,1.441,0,0,1-1.328.29,1.425,1.425,0,0,1-.885-.81c-.626-1.255-1.2-2.494-1.928-3.74A18.452,18.452,0,0,1,24.342,75Zm7.056-9.689a3.84,3.84,0,0,1,.816-.5,6.691,6.691,0,0,0,.986-.745,8.483,8.483,0,0,0,1.852-1.772l1.123-1.354A18.774,18.774,0,0,0,38.2,61.419a61.371,61.371,0,0,0,4.209-11.255l1.673-6.2a115.425,115.425,0,0,0,2.607-11.811c.692-4.306,1.557-10.069-.394-14.021l-.86-1.741a11.193,11.193,0,0,0-.677-1.095c.3.456-1.258-1.637-1.018-1.335a11.762,11.762,0,0,0-2.251-2.08,5.385,5.385,0,0,0-1.759-1.184c-.388-.22-.735-.627-1.228-.719-1.113-.207-1.69-1.217-5.717-1.584a13.891,13.891,0,0,0-6.81,1.162,7.985,7.985,0,0,1-1.255.614,4.3,4.3,0,0,0-1.5.958l-.862.664A11.2,11.2,0,0,0,19.6,14.471c-.483.744-1.265,1.288-1.514,2.226-1.311,1.588-2.152,5.051-2.217,7.121-.011.339-.025.571-.056.89l-.606,6.1a53.5,53.5,0,0,1-3.289,13.832l-2.483,6.54a15.637,15.637,0,0,0,.889,12.761A5.3,5.3,0,0,1,11.1,65.28a15.745,15.745,0,0,0,7.409,5.711,14.236,14.236,0,0,0,5.424.808c1.8-.051,4.235-.75,3.592-.692l.584-.053a18.134,18.134,0,0,0,3.055-1.433" transform="translate(0 0.001)" fill="#040405"/>
          <path id="Path_1257833" data-name="Path 1257833" d="M50.68,88.825a18.112,18.112,0,0,1-3.054,1.433l-.584.053c.643-.058-1.791.641-3.592.692a14.234,14.234,0,0,1-5.424-.809,15.743,15.743,0,0,1-7.409-5.711,5.308,5.308,0,0,0-.781-1.336,15.64,15.64,0,0,1-.889-12.761l2.484-6.54a53.485,53.485,0,0,0,3.289-13.832l.606-6.1c.032-.319.046-.55.056-.89.065-2.07.906-5.532,2.217-7.12.249-.938,1.032-1.482,1.515-2.226a11.2,11.2,0,0,1,2.767-2.681l.862-.664a4.3,4.3,0,0,1,1.5-.958,7.907,7.907,0,0,0,1.255-.614,13.893,13.893,0,0,1,6.811-1.162c4.027.367,4.6,1.377,5.716,1.584.492.091.84.5,1.227.719a5.391,5.391,0,0,1,1.759,1.184,11.8,11.8,0,0,1,2.251,2.08c-.24-.3,1.314,1.791,1.018,1.335a11.256,11.256,0,0,1,.677,1.095l.86,1.741c1.951,3.951,1.086,9.714.394,14.02A115.425,115.425,0,0,1,63.6,63.163l-1.673,6.2a61.349,61.349,0,0,1-4.209,11.255,18.76,18.76,0,0,1-2.264,3.833l-1.123,1.354a8.481,8.481,0,0,1-1.851,1.772,6.693,6.693,0,0,1-.987.745,3.865,3.865,0,0,0-.817.5m9.369-46.144a9.542,9.542,0,1,0-9.542,9.542,9.542,9.542,0,0,0,9.542-9.542M49.541,66.393a4.937,4.937,0,1,0,5.7-8.062,5.114,5.114,0,0,0-5.178-.269,4.73,4.73,0,0,0-1.774,1.544,5.609,5.609,0,0,0-.763,3.4,5,5,0,0,0,2.014,3.392m-3.467,7.933a6.846,6.846,0,1,0-6.846,6.846,6.846,6.846,0,0,0,6.846-6.846" transform="translate(-19.518 -19.202)" fill="#435829"/>
          <path id="Path_1257834" data-name="Path 1257834" d="M56.178,166.292a6.846,6.846,0,1,1-6.846-6.846,6.846,6.846,0,0,1,6.846,6.846m-7.32,4.252c1.654-.431,1.916.174,3.286-1.208a4.239,4.239,0,0,0,.2-5.937,6.565,6.565,0,0,0-1.31-.961,3.654,3.654,0,0,0-3.7.2,4.325,4.325,0,0,0-2.037,4.378,4.109,4.109,0,0,0,3.553,3.528" transform="translate(-29.622 -111.168)" fill="#040405"/>
          <path id="Path_1257835" data-name="Path 1257835" d="M55.145,176.488a4.109,4.109,0,0,1-3.553-3.528,4.325,4.325,0,0,1,2.037-4.378,3.654,3.654,0,0,1,3.7-.2,6.565,6.565,0,0,1,1.31.961,4.239,4.239,0,0,1-.2,5.937c-1.37,1.382-1.633.776-3.286,1.208" transform="translate(-35.908 -117.112)" fill="#89b254"/>
          <path id="Path_1257836" data-name="Path 1257836" d="M94.408,135.356a4.994,4.994,0,0,1-2.014-3.392,5.605,5.605,0,0,1,.763-3.4,4.723,4.723,0,0,1,1.774-1.543,5.115,5.115,0,0,1,5.178.269,4.937,4.937,0,0,1-5.7,8.062m5.146-4.077a2.235,2.235,0,1,0-2.235,2.235,2.235,2.235,0,0,0,2.235-2.235" transform="translate(-64.385 -88.165)" fill="#040405"/>
          <path id="Path_1257837" data-name="Path 1257837" d="M105.856,137.243a2.235,2.235,0,1,1-2.235-2.235,2.235,2.235,0,0,1,2.235,2.235" transform="translate(-70.687 -94.129)" fill="#89b254"/>
          <path id="Path_1257838" data-name="Path 1257838" d="M89.916,55.57a9.542,9.542,0,1,1-9.542-9.542,9.542,9.542,0,0,1,9.542,9.542m-10.17,6.745a6.748,6.748,0,0,0,5.8-2.47,6.632,6.632,0,0,0-.569-9.282,8.786,8.786,0,0,0-1.632-1.035,6.77,6.77,0,0,0-9.671,5.434,6.637,6.637,0,0,0,6.072,7.353" transform="translate(-49.385 -32.091)" fill="#040405"/>
          <path id="Path_1257839" data-name="Path 1257839" d="M86.211,68.8a6.637,6.637,0,0,1-6.072-7.353,6.77,6.77,0,0,1,9.671-5.434,8.786,8.786,0,0,1,1.632,1.035,6.632,6.632,0,0,1,.569,9.282,6.748,6.748,0,0,1-5.8,2.47" transform="translate(-55.851 -38.58)" fill="#89b254"/>
          <path id="Path_1257840" data-name="Path 1257840" d="M166.272,180.908a1.308,1.308,0,0,1-1.655-1.085c-.162-1.176-.154-2.334-.254-3.539a11.778,11.778,0,0,1-6.412-.354l-1.735,3.563a1.3,1.3,0,0,1-1.776.45,1.516,1.516,0,0,1-.743-1.7,24.886,24.886,0,0,1,1.388-3.623,15.956,15.956,0,0,1-4.105-3.545l-3.632,2.232c-.642.394-1.454-.262-1.7-.833a1.532,1.532,0,0,1,.5-1.88c1.033-.8,2.116-1.443,3.247-2.2a14.168,14.168,0,0,1-1.284-4.7,22.048,22.048,0,0,0-2.929.537,1.494,1.494,0,0,1-.881-2.851,22.913,22.913,0,0,1,3.944-.785,19.509,19.509,0,0,1,1.737-5.275c-1.509-.533-4.322-.541-4.033-2.5a1.319,1.319,0,0,1,1.472-1.182c1.361.227,2.633.653,3.961,1.007a53.277,53.277,0,0,0,2.964-6.111l-3.508-.93a1.445,1.445,0,0,1-1.1-1.755,1.43,1.43,0,0,1,1.9-1.026l3.648.885a28.465,28.465,0,0,0,1.01-3.313l.778-2.879c-1.125-.943-2.281-1.715-3.276-2.726a1.53,1.53,0,0,1-.134-2.112,1.436,1.436,0,0,1,2.042-.169,25.332,25.332,0,0,0,2.333,2.036,15.164,15.164,0,0,1,3.749-4.924l-1.658-2.937a1.4,1.4,0,0,1,.434-1.9c1.72-1.07,2.748,1.762,3.569,3.032a13.337,13.337,0,0,1,4.848-1.552c0-1.284.046-2.443.128-3.659a1.47,1.47,0,0,1,1.366-1.421c2.518-.21,1.274,3.547,1.481,5.031a12.862,12.862,0,0,1,6.247,1.945c.548-.67.885-1.414,1.382-2.117a1.48,1.48,0,0,1,1.92-.487c1.714.965-.158,3.051-.867,4.29a14.046,14.046,0,0,1,3.51,5c1.157-.524,2.192-1.052,3.332-1.479a1.219,1.219,0,0,1,1.135.137,1.532,1.532,0,0,1,.549,1.453,1.624,1.624,0,0,1-.871,1.2l-3.36,1.711a15.278,15.278,0,0,1,.146,4.812l2.969.531a1.495,1.495,0,1,1-.47,2.939c-.991-.213-1.935-.335-3.013-.469a56.526,56.526,0,0,1-1.978,6.122,16.1,16.1,0,0,1,1.767.83c1.029.532,2.854.893,2.247,2.613a1.323,1.323,0,0,1-1.818.817l-3.208-1.471-2.687,6.268a37.412,37.412,0,0,1,3.369,2.324,1.455,1.455,0,0,1,.478,1.667,1.336,1.336,0,0,1-.812.875,1.423,1.423,0,0,1-1.334-.287,28.231,28.231,0,0,0-2.85-1.953,34.685,34.685,0,0,1-3.048,5.255,36.783,36.783,0,0,1,2.713,3.636,1.423,1.423,0,0,1-.587,1.929,1.457,1.457,0,0,1-1.965-.549,18.792,18.792,0,0,0-2.072-2.42,17.089,17.089,0,0,1-5.568,4.009l.22,4.127a1.383,1.383,0,0,1-1.163,1.432m7.376-16a57.63,57.63,0,0,0,2.627-5.467l1.438-3.292c.95-2.176,1.725-4.318,2.569-6.542,1.642-4.331,3.354-10.833.393-14.955l-1.2-1.664c-.9-1.254-1.494-1.265-1.946-1.792a11.06,11.06,0,0,0-2.239-1.253,10.642,10.642,0,0,0-9.206.174l-1.265.765c-.233.141-.474.385-.723.546a8.129,8.129,0,0,0-1.828,1.944,13.957,13.957,0,0,0-2.435,5.167l-1.148,4.373c-1.691,6.439-5.31,11.345-7.067,16.025a10.935,10.935,0,0,0,14.294,13.794c3.7-1.508,5.826-4.463,7.732-7.821" transform="translate(-99.922 -84.489)" fill="#040405"/>
          <path id="Path_1257841" data-name="Path 1257841" d="M191.185,182.878c-1.906,3.358-4.033,6.313-7.732,7.821a10.935,10.935,0,0,1-14.294-13.794c1.757-4.68,5.376-9.586,7.067-16.025l1.148-4.373a13.953,13.953,0,0,1,2.435-5.167,8.123,8.123,0,0,1,1.828-1.944c.248-.161.49-.405.723-.546l1.265-.765a10.641,10.641,0,0,1,9.206-.173,11.047,11.047,0,0,1,2.239,1.253c.452.528,1.045.539,1.946,1.792l1.2,1.664c2.962,4.122,1.25,10.624-.393,14.955-.844,2.224-1.618,4.366-2.569,6.542l-1.438,3.293a57.623,57.623,0,0,1-2.627,5.467m2.353-24.153a6,6,0,1,0-6,6,6,6,0,0,0,6-6m-2.267,14.051a2.974,2.974,0,1,0-2.975,2.974,2.974,2.974,0,0,0,2.975-2.974m-8.911,5.975a4.909,4.909,0,1,0-4.909,4.909,4.909,4.909,0,0,0,4.909-4.909" transform="translate(-117.46 -102.457)" fill="#435829"/>
          <path id="Path_1257842" data-name="Path 1257842" d="M230.077,225.39a2.974,2.974,0,1,1-2.974-2.974,2.975,2.975,0,0,1,2.974,2.974m-2.418-.054a.557.557,0,1,0-.557.557.557.557,0,0,0,.557-.557" transform="translate(-156.265 -155.071)" fill="#040405"/>
          <path id="Path_1257843" data-name="Path 1257843" d="M223.651,172.029a6,6,0,1,1-6-6,6,6,0,0,1,6,6m-2.421-.09a3.487,3.487,0,1,0-3.487,3.487,3.487,3.487,0,0,0,3.487-3.487" transform="translate(-147.572 -115.761)" fill="#040405"/>
          <path id="Path_1257844" data-name="Path 1257844" d="M227.207,177.509a3.487,3.487,0,1,1-3.487-3.487,3.487,3.487,0,0,1,3.487,3.487" transform="translate(-153.55 -121.331)" fill="#89b254"/>
          <path id="Path_1257845" data-name="Path 1257845" d="M191.737,240.669a4.909,4.909,0,1,1-4.909-4.909,4.909,4.909,0,0,1,4.909,4.909m-2.4-.028a2.444,2.444,0,1,0-2.444,2.444,2.444,2.444,0,0,0,2.444-2.444" transform="translate(-126.836 -164.375)" fill="#040405"/>
          <path id="Path_1257846" data-name="Path 1257846" d="M195.158,246.253a2.444,2.444,0,1,1-2.444-2.444,2.444,2.444,0,0,1,2.444,2.444" transform="translate(-132.659 -169.987)" fill="#89b254"/>
          <path id="Path_1257847" data-name="Path 1257847" d="M233.222,230.779a.557.557,0,1,1-.557-.557.557.557,0,0,1,.557.557" transform="translate(-161.828 -160.514)" fill="#657a2e"/>
        </g>
      </g>
      <rect id="Rectangle_411075" data-name="Rectangle 411075" width="100" height="100" transform="translate(0 -0.02)" fill="none"/>
    </g>
  </g>
</svg>
