<svg xmlns="http://www.w3.org/2000/svg" xmlns:xlink="http://www.w3.org/1999/xlink" width="480.177" height="272.561" viewBox="0 0 480.177 272.561">
  <defs>
    <clipPath id="clip-path">
      <rect id="Rectangle_411023" data-name="Rectangle 411023" width="51.23" height="103.454" fill="#cfe0b9"/>
    </clipPath>
    <clipPath id="clip-path-2">
      <rect id="Rectangle_411023-2" data-name="Rectangle 411023" width="33.42" height="67.488" fill="#cfe0b9"/>
    </clipPath>
    <clipPath id="clip-path-3">
      <rect id="Rectangle_411024" data-name="Rectangle 411024" width="17.189" height="33.942" fill="#89b254"/>
    </clipPath>
    <clipPath id="clip-path-4">
      <rect id="Rectangle_411024-2" data-name="Rectangle 411024" width="34.515" height="68.155" fill="#89b254"/>
    </clipPath>
    <clipPath id="clip-path-5">
      <rect id="Rectangle_411025" data-name="Rectangle 411025" width="42.989" height="70.764" fill="#89b254"/>
    </clipPath>
  </defs>
  <g id="Group_1207781" data-name="Group 1207781" transform="translate(-1193.468 4129.232)">
    <path id="Path_1257493" data-name="Path 1257493" d="M13.2,0H466.972c7.293,0,13.2,5.391,13.2,12.041V260.52c0,6.65-5.912,12.041-13.2,12.041H13.2C5.912,272.561,0,267.17,0,260.52V12.041C0,5.391,5.912,0,13.2,0Z" transform="translate(1193.468 -4129.232)" fill="#435829"/>
    <path id="Path_1257492" data-name="Path 1257492" d="M72.393,6.764c28.754,11.791,72.825,33.9,78.641,63.269s-7.943,76.773-47.84,90.185S0,148.676,0,69.172,43.639-5.027,72.393,6.764Z" transform="translate(1350.719 -4127.083) rotate(52)" fill="#cfe0b9"/>
    <path id="Path_1257491" data-name="Path 1257491" d="M69.3.7c80.223,9.13,229,82.674,255.35,130.227S215.93,227.05,138.687,218.717,15.387,126.349,5.7,100.113-10.919-8.427,69.3.7Z" transform="translate(1291.586 -4095.058)" fill="#f2f6ec"/>
    <path id="Path_1257665" data-name="Path 1257665" d="M54.195.675c62.734,8.762,179.077,79.34,199.68,124.975S168.854,217.893,108.451,209.9,12.033,121.253,4.458,96.075-8.539-8.087,54.195.675Z" transform="matrix(0.999, -0.035, 0.035, 0.999, 1372.255, -4098.692)" fill="#89b254"/>
    <path id="Path_1257382" data-name="Path 1257382" d="M149.042,51.52l-17.336-.028c-1.6,0-2.228,1.491-2.092,2.884.078.785-.038,1.453.479,2.049a2.329,2.329,0,0,0,2.044.8l.069,7.052h-.012l.048,44.414a7.947,7.947,0,0,0,15.888,0l.052-44.414h0l.008-7.082a2.4,2.4,0,0,0,2.1-.591c.627-.585.61-1.3.666-2.247.072-1.216-.39-2.835-1.909-2.836m-.29,3.564-2.509.178.04,9.014h-.015l-.035,43.8a6.047,6.047,0,1,1-12.089.226l-.037-44.028H134.1l-.014-9.065c-.817-.178-1.643.178-2.354-.154-.3-.3-.16-1.115,0-1.533l17.118,0c.163.438.309,1.525-.094,1.554" transform="translate(1314.271 -4069.059)" fill="#5f7b39"/>
    <path id="Path_1257383" data-name="Path 1257383" d="M148.161,52.82l-17.116,0c-.157.418-.3,1.233,0,1.533.711.333,1.537-.023,2.354.154l.014,9.65h.008l.035,43.445a6.048,6.048,0,1,0,12.09-.226l.034-43.22h.02l-.043-9.6,2.509-.18c.4-.028.256-1.116.092-1.554m-5.038,57.846a5.063,5.063,0,0,1-6.918.144,6.562,6.562,0,0,1-2.133-4.41V86.209l11.026-.025.018,19.92a6.594,6.594,0,0,1-1.993,4.561" transform="translate(1314.953 -4068.35)" fill="#fbfbf9"/>
    <path id="Path_1257384" data-name="Path 1257384" d="M142.006,99.026a5.063,5.063,0,0,1-6.918.144,6.562,6.562,0,0,1-2.133-4.41V74.57l11.026-.025L144,94.465a6.594,6.594,0,0,1-1.993,4.561" transform="translate(1316.07 -4056.71)" fill="#5f7b39"/>
    <path id="Path_1257385" data-name="Path 1257385" d="M88.385,51.5l-17.492,0c-1.526,0-2.032,1.612-1.944,2.852a3.135,3.135,0,0,0,.579,2.159,2.555,2.555,0,0,0,1.976.728l.045,7.026h-.015l.057,44.4a7.942,7.942,0,0,0,15.875.117l.057-44.518h0l.008-7.082a2.4,2.4,0,0,0,2.105-.594,3,3,0,0,0,.693-2.244c.055-1.218-.436-2.842-1.94-2.842m-.266,3.583-2.537.163.04,9.017h-.015l-.06,44.14a6.053,6.053,0,0,1-6.261,5.96,6.186,6.186,0,0,1-5.8-6.444L73.483,64.26h-.017l.026-9.073-2.446-.08a2.118,2.118,0,0,1,.038-1.6l17.1,0c.166.47.3,1.345-.063,1.569" transform="translate(1281.78 -4069.057)" fill="#5f7b39"/>
    <path id="Path_1257386" data-name="Path 1257386" d="M87.5,52.811l-17.1-.006a2.122,2.122,0,0,0-.037,1.6l2.446.08-.028,9.653H72.8l.008,43.076a6.184,6.184,0,0,0,5.8,6.442,6.051,6.051,0,0,0,6.259-5.96l.06-43.558h.02l-.043-9.6,2.537-.163c.359-.226.229-1.1.063-1.569m-5.25,58.01a4.508,4.508,0,0,1-6.262.519,5.567,5.567,0,0,1-2-4.129l.009-37.552,9.691,0,.009,37.549a5.578,5.578,0,0,1-1.448,3.609" transform="translate(1282.468 -4068.355)" fill="#fbfbf9"/>
    <path id="Path_1257387" data-name="Path 1257387" d="M80.934,104.943a4.508,4.508,0,0,1-6.262.519,5.567,5.567,0,0,1-2-4.129l.009-37.552,9.691,0,.009,37.549a5.578,5.578,0,0,1-1.448,3.609" transform="translate(1283.78 -4062.477)" fill="#cfe0b9"/>
    <line id="Line_1446" data-name="Line 1446" x1="40.066" transform="translate(1304.134 -3985.103)" fill="none" stroke="#e55166" stroke-miterlimit="10" stroke-width="1"/>
    <path id="Path_1257388" data-name="Path 1257388" d="M61.521,69.178l5.3,5.3-5.307,5.309s.025-10.591.006-10.61" transform="translate(1277.804 -4059.585)" fill="#e55166"/>
    <line id="Line_1447" data-name="Line 1447" x1="59.5" transform="translate(1376.285 -3985.103)" fill="none" stroke="#e55166" stroke-miterlimit="10" stroke-width="1"/>
    <path id="Path_1257389" data-name="Path 1257389" d="M121.162,69.178l5.3,5.3-5.307,5.309s.025-10.591.008-10.61" transform="translate(1309.749 -4059.585)" fill="#e55166"/>
    <line id="Line_1448" data-name="Line 1448" y1="34.09" transform="translate(1299.019 -4051.453) rotate(33)" fill="none" stroke="#e55166" stroke-miterlimit="10" stroke-width="1"/>
    <path id="Path_1257390" data-name="Path 1257390" d="M0,.007,5.993,6l6-6S.021.028,0,.007" transform="translate(1278.427 -4030.757) rotate(33)" fill="#e55166"/>
    <path id="Path_1257391" data-name="Path 1257391" d="M173.784,21.246C170.61,8.384,156.731,2.766,144.647,1.971c-13.176-.148-23.761,11.446-25.175,24.123-2.346,14.1,9.4,27.459,23.059,29.749,18.459,1.718,36.993-15.7,31.253-34.6m-44.291-1.523h0" transform="translate(1306.286 -4103.689)" fill="#cfe0b9"/>
    <path id="Path_1257392" data-name="Path 1257392" d="M132.8,31.126a2.643,2.643,0,0,1-.852.456l-2.916.752c-8.294,2.141-17.145,7.942-25.662,17.5-2.173,2.439-4.217,5.012-6.256,7.706l-2.216,2.924a1.909,1.909,0,0,1-1.209.883,4.6,4.6,0,0,1,.1-.874c.791-2.167,4.019-6.875,5.514-8.9,5.788-7.835,12.391-14.06,18.911-17.915a28.784,28.784,0,0,1,11.037-4.137,8.939,8.939,0,0,1,3.506.158c.307.088.41.395.39.818Z" transform="translate(1295.035 -4080.878)" fill="#e55166"/>
    <path id="Path_1257393" data-name="Path 1257393" d="M94.117,57.951l-.424-.045a29.716,29.716,0,0,0-1.682-8.572c-.507-1.562-.963-3.1-1.331-4.7-.089-.392-.3-1.184.066-1.376.408-.213.8.683.941,1,.427.94.814,1.861,1.184,2.832a27.067,27.067,0,0,1,1.216,4.238,22.529,22.529,0,0,1,.456,5.069l2.816-2.79c1.176-1.167,2.362-2.27,3.623-3.337a8.863,8.863,0,0,1,1.382-.994,1.067,1.067,0,0,1,.559-.02,1.027,1.027,0,0,1-.074.576,41.2,41.2,0,0,1-4.9,4.794Z" transform="translate(1293.349 -4073.486)" fill="#e55166"/>
    <path id="Path_1257394" data-name="Path 1257394" d="M60.964,24.555c0,13.562-13.647,24.556-30.482,24.556S0,38.116,0,24.555,13.647,0,30.482,0,60.964,10.993,60.964,24.555" transform="translate(1280.453 -4103.337)" fill="#e55166"/>
    <path id="Path_1257395" data-name="Path 1257395" d="M62.9,80.163c0,13.908-14,25.183-31.26,25.183S.381,94.071.381,80.163s14-25.183,31.26-25.183S62.9,66.255,62.9,80.163" transform="translate(1235.188 -4071.876)" fill="#e55166"/>
    <path id="Path_1257396" data-name="Path 1257396" d="M106.906,29.108a.663.663,0,0,1-.184.15l-.673.319a13.366,13.366,0,0,0-5.4,5.444c-.412.693-.786,1.411-1.155,2.161l-.4.812a.476.476,0,0,1-.252.27,1.124,1.124,0,0,1-.017-.217,13.476,13.476,0,0,1,.92-2.416,16.539,16.539,0,0,1,3.742-5.227,7.105,7.105,0,0,1,2.48-1.52,2.206,2.206,0,0,1,.858-.126c.078.006.117.077.132.18Z" transform="translate(1297.788 -4081.238)" fill="#dc0a17"/>
    <path id="Path_1257397" data-name="Path 1257397" d="M106.906,29.108a.663.663,0,0,1-.184.15l-.673.319a13.366,13.366,0,0,0-5.4,5.444c-.412.693-.786,1.411-1.155,2.161l-.4.812a.476.476,0,0,1-.252.27,1.124,1.124,0,0,1-.017-.217,13.476,13.476,0,0,1,.92-2.416,16.539,16.539,0,0,1,3.742-5.227,7.105,7.105,0,0,1,2.48-1.52,2.206,2.206,0,0,1,.858-.126c.078.006.117.077.132.18Z" transform="translate(1297.788 -4081.238)" fill="none" stroke="#e55166" stroke-miterlimit="10" stroke-width="1"/>
    <path id="Path_1257398" data-name="Path 1257398" d="M98.06,29.108a.647.647,0,0,0,.186.15l.671.319a13.366,13.366,0,0,1,5.4,5.444c.412.693.786,1.411,1.155,2.161l.4.812a.476.476,0,0,0,.252.27,1.123,1.123,0,0,0,.017-.217,13.477,13.477,0,0,0-.92-2.416,16.539,16.539,0,0,0-3.742-5.227A7.106,7.106,0,0,0,99,28.885a2.206,2.206,0,0,0-.858-.126c-.078.006-.117.077-.132.18Z" transform="translate(1297.349 -4081.238)" fill="#dc0a17"/>
    <path id="Path_1257399" data-name="Path 1257399" d="M98.06,29.108a.647.647,0,0,0,.186.15l.671.319a13.366,13.366,0,0,1,5.4,5.444c.412.693.786,1.411,1.155,2.161l.4.812a.476.476,0,0,0,.252.27,1.123,1.123,0,0,0,.017-.217,13.477,13.477,0,0,0-.92-2.416,16.539,16.539,0,0,0-3.742-5.227A7.106,7.106,0,0,0,99,28.885a2.206,2.206,0,0,0-.858-.126c-.078.006-.117.077-.132.18Z" transform="translate(1297.349 -4081.238)" fill="#e55166" stroke="#e55166" stroke-miterlimit="10" stroke-width="1"/>
    <path id="Path_1257404" data-name="Path 1257404" d="M0,.017c.019.009.034,0,.052.009L.033,0C.024.007.01.01,0,.017" transform="translate(1603.444 -4004.018) rotate(14)" fill="#435829"/>
    <path id="Path_1257405" data-name="Path 1257405" d="M1.167.076C.8-.191.468.348,0,.163.258.554.456.781.8.682c.2-.059.716-.348.363-.606" transform="translate(1603.527 -4004.141) rotate(14)" fill="#435829"/>
    <g id="Group_1207687" data-name="Group 1207687" transform="translate(1556.068 -4026.271) rotate(14)">
      <path id="Path_1257400" data-name="Path 1257400" d="M2.764,0l-1.7,1.121A2.409,2.409,0,0,0,.394,4.472c1.083,1.365,2.348,2.874,4.2,3.413a6.508,6.508,0,0,0,6.789-2.4,29.02,29.02,0,0,0-6.608-4.2A9.505,9.505,0,0,1,2.764,0" transform="translate(19.663 21.435)" fill="#9ec05e"/>
      <path id="Path_1257401" data-name="Path 1257401" d="M0,3.884c1.74,1.25,3.074,1.346,5.276.785A3.538,3.538,0,0,0,7.859.215C4.727-.481,1.122.456,0,3.884" transform="translate(0 14.261)" fill="#9ec05e"/>
      <path id="Path_1257402" data-name="Path 1257402" d="M.374.286C-.275.965.023,2.472.491,3.169A2.971,2.971,0,0,0,3.078,4.375C5.1,4.4,7.146,3.179,6.817,1.144A8.674,8.674,0,0,0,.374.286" transform="translate(43.555 10.837)" fill="#9ec05e"/>
      <path id="Path_1257403" data-name="Path 1257403" d="M3.2.622A1.966,1.966,0,0,0,.42.532a2.4,2.4,0,0,0,.151,2.9A1.92,1.92,0,0,0,3.124,3.5,2.474,2.474,0,0,0,3.2.622" transform="translate(48.227 6.651)" fill="#9ec05e"/>
      <path id="Path_1257406" data-name="Path 1257406" d="M17.656,1.139A10.077,10.077,0,0,0,10.42,2.849C9.145,1.7,7.651,2.78,7.637,1.566A1.552,1.552,0,0,0,6.088.009,2.055,2.055,0,0,0,4.194.787,4.281,4.281,0,0,0,1.15.564,1.68,1.68,0,0,0,.039,2.659C.179,3.5.96,3.878,1.986,4.06A1.62,1.62,0,0,0,.413,5.339a2.019,2.019,0,0,0,.921,2.208c.862.537,1.6-.244,2.356-.312,1-.09,2.319.417,2.742-1.09A8.715,8.715,0,0,0,8,6.165a1.722,1.722,0,0,1,.119.861l-.907-.043c-.413.608.5,2.169,1.057,2.183.339.007.867.115,1-.287s-.1-.633.062-.962c.644.26,1.3.017,1.864.176a15.346,15.346,0,0,0,3.816.613,10.5,10.5,0,0,0,5.7-.78,4.7,4.7,0,0,0,2.707-5.434,17.6,17.6,0,0,0-5.77-1.351" transform="translate(10.364 0)" fill="#9ec05e"/>
      <path id="Path_1257407" data-name="Path 1257407" d="M6.969.038C5.2.325,1.169,2.139,0,3.621a6.528,6.528,0,0,0,3.346,2.3c-.492.394-1.26.446-1.649,1.052a1.333,1.333,0,0,0,.5,1.539,2.222,2.222,0,0,0,2.294,0A1.89,1.89,0,0,0,4.525,6.2c2.766.384,6.231-1.752,6.2-4.63C9.706.692,8.4-.195,6.969.038" transform="translate(10.18 41.577)" fill="#9ec05e"/>
    </g>
    <rect id="Rectangle_411019" data-name="Rectangle 411019" width="0.172" height="3.017" transform="translate(1620.326 -3990.691) rotate(14)" fill="#435829"/>
    <rect id="Rectangle_411020" data-name="Rectangle 411020" width="0.172" height="2.587" transform="translate(1611.301 -3976.593) rotate(14)" fill="#435829"/>
    <path id="Path_1257408" data-name="Path 1257408" d="M95.061,29.011c-.415-1.26-.647-2.751-1.559-3.821A7.1,7.1,0,0,0,91.4,23.224L87.889,21.66,82.672,18.79c-3.095-1.7-6.969-1.38-10.324-2.615a5.223,5.223,0,0,1-2.749-1.7L66.077,8.836a20.282,20.282,0,0,0-3.931-4.523A16.78,16.78,0,0,0,49.33.087C45,.543,43.644,5.647,39.858,5.972l-3.966.341a5.212,5.212,0,0,0-3.943,2.32,23.706,23.706,0,0,0-3.121,6.358c-1.764,5.193-7.312,3.8-9.543,7.171l-3.091,4.666c-1.344,2.029-5.809,3.658-6.176,7.618a6.427,6.427,0,0,1-2.262,4.307c-4.186,3.663-4.3,3.152-6.709,7.954-.482.96-1.508,1.451-.812,2.859.41.83.172,2.42.852,3.255a35.037,35.037,0,0,0,3.637,3.384L18.967,69.362c5.112,4.723,14.24,11.808,20.376,14.589a25.753,25.753,0,0,0-.131-4.8l1.167-.4,1.441-3.41a4.472,4.472,0,0,1,2.623-2.661c4.329-1.4,5.417-5.176,8.345-6.5C56.4,64.55,59.253,65.1,61.556,61.8a23.644,23.644,0,0,0,3.623-7.548A7.26,7.26,0,0,1,68.031,50.2c2.387-1.773,4.208-1.239,5.668-2.126l4.255-2.585a10.031,10.031,0,0,1,4.709-1.343,12.36,12.36,0,0,0,9.618-5.587,17.663,17.663,0,0,0,2.393-6.976c.181-.948.761-1.437.387-2.573M75.7,21.276a2.023,2.023,0,0,1,1.874-.282c.759.375-.475,1.7-.849,1.671-.294-.021-1.606-.874-1.026-1.389m2.022,9.735c-.16.454-1.195.1-1.251-.375-.048-.41.633-.773,1.005-.647.325.11.41.559.246,1.022M72.093,25.97a1.964,1.964,0,0,1,2.776.09,2.474,2.474,0,0,1-.072,2.876,1.924,1.924,0,0,1-2.554-.065,2.4,2.4,0,0,1-.15-2.9m-6.271-7.718a.861.861,0,1,1-.862.862.862.862,0,0,1,.862-.862m1.572,22.237a2.274,2.274,0,0,1-1.718,1.379,5.006,5.006,0,0,1-2.565-.673c-.067-.468-.33-1.267.1-1.537,1.11-.7,3.907-.341,4.186.831M61.2,22.069a1.659,1.659,0,1,1,1.659,1.659A1.66,1.66,0,0,1,61.2,22.069m-.728,9.417a1,1,0,0,1-.735-.917,1.6,1.6,0,0,1,.909-.935.724.724,0,0,1,.9.343c.3.826-.873,1.53-1.076,1.51M64.7,12.248c.084.126-.033.435-.157.57a2.186,2.186,0,0,1-1.2-.315,1.775,1.775,0,0,1,1.355-.255m-4.226-1.807c.554-.033.766-.47,1.169-.721a.4.4,0,0,1,.575.251c.007.217.122.723-.084.833-1.277-.425-1.291.692-1.782.062-.093-.119-.157-.408.122-.425m-7.162-7c.16.165-.022.5-.1.62s-.47.1-.666-.2c-.179-.277.577-.616.771-.417M52.266,4.685a.884.884,0,0,1,.084.955c-.213.408-1.327.053-1.346-.468s.917-.787,1.262-.487M49.954,6.866a1.7,1.7,0,0,1,1.719.38.8.8,0,0,1,.165.818c-.121.511-1.515.745-1.942.114-.219-.322-.348-1.127.057-1.312m.454,5.973a.788.788,0,1,1-.788.788.788.788,0,0,1,.788-.788M40.186,17.014a1.143,1.143,0,0,1,.764.874c.019.31-.539.518-.769.449-.284-.084-.84-.315-.78-.721.048-.325.456-.694.785-.6m-1.239-6.622a.8.8,0,0,1,.627.845.668.668,0,0,1-.88.4c-.222-.1-.68-.332-.565-.678a.939.939,0,0,1,.818-.571M36.737,14.7A1.835,1.835,0,1,1,34.9,16.536,1.837,1.837,0,0,1,36.737,14.7M33.081,68.6a1.55,1.55,0,0,1,1.821.334.661.661,0,0,1-.124,1.052c-.267.217-.422.522-.682.513a1.018,1.018,0,0,1-.869-.394,1.98,1.98,0,0,1-.146-1.5m2.659,1.253a2.705,2.705,0,0,1,2.324,0,1.712,1.712,0,0,1,.749,2.072,1.745,1.745,0,0,1-1.69,1.31,1.9,1.9,0,0,1-2.052-1.095,1.82,1.82,0,0,1,.67-2.284M30.85,22.2a.639.639,0,1,1-.639.64.641.641,0,0,1,.639-.64m.735,45.4c-1.146.048-1.773,1.122-2.635.155a.8.8,0,0,1,.182-1.069c.537-.361,1.06.014,1.5.313.3.2.756.024.948.6M25.721,23.8a.458.458,0,1,1-.458.458.458.458,0,0,1,.458-.458m5.584,9.46a3.54,3.54,0,0,1-2.584,4.456c-2.2.559-3.535.463-5.276-.787,1.122-3.429,4.727-4.365,7.859-3.67M27.558,62.784a1.8,1.8,0,0,1-1.974.091,1.345,1.345,0,0,1,0-1.991,1.728,1.728,0,0,1,1.9.449c.353.391.215.928.077,1.451M18.934,33.275c.17-.015.379.052.408.439.026.336.048.635-.107.726a1.062,1.062,0,0,1-1.213-.417c-.122-.351.408-.7.912-.749m-1.153,6.876a3.182,3.182,0,0,1,1.78.432,1.984,1.984,0,0,1,.594,1.723,1.843,1.843,0,0,1-1.27,1.787,1.749,1.749,0,0,1-2.129-.955,2.916,2.916,0,0,1,.2-2.594,2.125,2.125,0,0,1-1.535-.63,1.327,1.327,0,0,1-.329-1.484,1.733,1.733,0,0,1,2.534-.5c.587.584.244,1.463.155,2.224M17.9,54.682a1.545,1.545,0,0,1-2-.015,1.333,1.333,0,0,1,.181-1.883,1.765,1.765,0,0,1,1.813.406,1.125,1.125,0,0,1,.01,1.492M17.335,30.4a.817.817,0,0,1,.148.835c-.145.522-1.122.382-1.572.179.169-.67.981-1.3,1.423-1.014M15.45,34.777a.713.713,0,0,1,.8.153c.54.714-.417,1.5-.885,1.675-.361.136-.9-.532-.837-.866a1.615,1.615,0,0,1,.923-.962m-2.17.348a.745.745,0,0,1-.95.281,1.974,1.974,0,0,1-.719-.812,1.32,1.32,0,0,1,1.67.532M10.629,41.21A2.34,2.34,0,0,1,13.7,41a1.765,1.765,0,0,1,.317,2.207,2,2,0,0,1-2.119.9,1.694,1.694,0,0,1-1.451-.981,1.96,1.96,0,0,1,.181-1.916m2.544,11.474a.621.621,0,1,1-.621-.621.622.622,0,0,1,.621.621M9.187,43.561a1.378,1.378,0,1,1-1.379,1.377,1.377,1.377,0,0,1,1.379-1.377m29.068,34.8A143.1,143.1,0,0,0,23.793,67.348l-7.678-5.085a23.651,23.651,0,0,1-4.6-4.067c-2.582-2.864-5.362-5.4-8.171-8.05-.219-.207.1-.936.3-.843C7.717,52.01,11.5,54.869,15.328,57.84l9.014,6.992c.124-.509,1.806-.534,2.207-.026a.767.767,0,0,1,.1.938c-.189.22-.406.439-.534.621L39.238,76.442a6.354,6.354,0,0,1-.983,1.923M40.5,69.81a1.5,1.5,0,0,1-1.341-.117c.077-.647.515-1.21,1.158-1.1A.7.7,0,0,1,40.5,69.81M38.15,66.567a1.887,1.887,0,0,1-.036,2.308,2.215,2.215,0,0,1-2.293.005,1.333,1.333,0,0,1-.5-1.539c.389-.608,1.155-.658,1.649-1.052a6.522,6.522,0,0,1-3.346-2.3c1.167-1.482,5.2-3.3,6.969-3.584,1.432-.232,2.737.654,3.756,1.535.031,2.876-3.434,5.012-6.2,4.63M36.732,53.843a1.514,1.514,0,0,1-2.053.124,1.411,1.411,0,0,1,.022-1.876,1.653,1.653,0,0,1,2.04.5,1.208,1.208,0,0,1-.009,1.248m.478,3.6c.176.05.618.143.642.463.021.277-.441.361-.628.351a.723.723,0,0,1-.6-.442c.212-.308.37-.434.59-.372m-1.616-24.3c-.442.411-.871.052-1.243-.186-.33-.212-.425-1.136-.071-1.294a2.306,2.306,0,0,1,1.754.021c.639.461-.071,1.117-.441,1.46m8.491,26.342a1.772,1.772,0,0,1-2.324.656,2.036,2.036,0,0,1-.843-2.411,1.994,1.994,0,0,1-2.775-.95,2.25,2.25,0,0,1,.224-1.487c.16-.43.979-.4,1.222-.692.315-.914.775-1.625,1.874-1.553a1.95,1.95,0,0,1,1.387.456,1.881,1.881,0,0,1,.435,1.456c-.089,1.021-.745,1.425-1.728,1.84.874.014,1.692-.248,2.355.41a1.892,1.892,0,0,1,.172,2.275m-5.9-23.433a1.843,1.843,0,1,1,1.843,1.842,1.842,1.842,0,0,1-1.843-1.842m6.129,20.23a1.648,1.648,0,1,1,1.647,1.647,1.647,1.647,0,0,1-1.647-1.647m4.336,6.339c-.4.454-.649.52-1.064.281-.84-.485-.4-1.625-.349-1.678.172-.186,1.417-.415,1.7.32a1.008,1.008,0,0,1-.291,1.078M49.973,58a.565.565,0,1,1,.565-.565.565.565,0,0,1-.565.565m-2.272-9.9c-1.852-.54-3.115-2.05-4.2-3.413a2.408,2.408,0,0,1,.675-3.351l1.7-1.121a9.505,9.505,0,0,0,2.01,1.286,28.961,28.961,0,0,1,6.608,4.2,6.515,6.515,0,0,1-6.79,2.4M44.2,32.794a1.822,1.822,0,0,1,1.8,0,1.309,1.309,0,0,1,.439,1.6,1.7,1.7,0,0,1-1.4.914,1.23,1.23,0,0,1-1.26-.824,1.333,1.333,0,0,1,.417-1.683m6.46-1.253c.269-.645,1.518-.709,2.084-.413.227.12.086.585,0,.814-.2.563-.766.566-1.15.53-.346-.031-1.143-.437-.938-.931m-1.838-4.05a15.284,15.284,0,0,1-3.818-.614c-.565-.157-1.22.086-1.862-.174-.164.329.065.57-.064.962s-.661.294-1,.287c-.554-.014-1.472-1.575-1.059-2.183l.909.043a1.743,1.743,0,0,0-.12-.861,8.718,8.718,0,0,1-1.572-.019c-.423,1.506-1.738,1-2.742,1.09-.759.067-1.494.849-2.355.31a2.017,2.017,0,0,1-.923-2.208A1.623,1.623,0,0,1,35.8,22.847c-1.028-.182-1.809-.556-1.947-1.4a1.678,1.678,0,0,1,1.108-2.095,4.277,4.277,0,0,1,3.047.222,2.059,2.059,0,0,1,1.893-.78,1.553,1.553,0,0,1,1.547,1.559c.014,1.213,1.508.138,2.783,1.282a10.079,10.079,0,0,1,7.236-1.709,17.6,17.6,0,0,1,5.77,1.351,4.7,4.7,0,0,1-2.706,5.434,10.508,10.508,0,0,1-5.7.78m7.847,23.547a1.108,1.108,0,0,1-1.162-.461c-.1-.322.415-.7.854-.735.2-.015.425.024.46.415.031.361.062.663-.151.781m1.122-13.913a2.072,2.072,0,0,1-1.883.138c-.2-.155-.534-.508-.367-.8.251-.439,1.475-1.241,2.212-.775.274.174.284,1.141.038,1.436m.577-28.108a1.635,1.635,0,0,1-2.05,0c-.346-.294-.146-.833-.374-1.112a2.463,2.463,0,0,1-1.983-.294,1.985,1.985,0,0,1-.551-1.678,1.381,1.381,0,0,1,1.673-1.317c1.076.138.785-.9,1.94-.654.325.069.386.384.47.761.1.448-.279.565-.566.89a1.32,1.32,0,0,0,.034,1.291c.36.313,1.059.181,1.4.673a1.283,1.283,0,0,1,.009,1.437m-.105-2.284a.888.888,0,0,1,.04-1.258c.236-.281.478-.391.7-.32a.725.725,0,0,1,.59.8c.007.377.026.749-.207.924a.819.819,0,0,1-1.124-.143m1.449,7.422A1.657,1.657,0,0,1,61.8,14.8c.207.394-.057.8.1,1.15a2.614,2.614,0,0,1,2.193.31,2.007,2.007,0,0,1,0,2.751,1.839,1.839,0,0,1-2.535-.021,2.145,2.145,0,0,1-.217-2.587c-.706-.09-1.313.09-1.745-.422-.344-.408-.4-1.492.119-1.83m.52,44.551c-.4.146-.933-.54-.867-.89a1.6,1.6,0,0,1,.929-.957.715.715,0,0,1,.783.157c.537.752-.453,1.544-.845,1.69m-.606-9.512a1.144,1.144,0,0,1,1.534.769,1.482,1.482,0,0,1-1.539.129c-.287-.148-.127-.632.005-.9m.931-.6a.847.847,0,0,1-1.052-.547c-.117-.463.341-.733.608-.919.327-.231.824.3,1.181.279.384-.024.616-.735,1.246-.732a1.492,1.492,0,0,1-1.026-1.757,1.362,1.362,0,0,1,1.967-.855,1.327,1.327,0,0,1,.719,1.2,1.526,1.526,0,0,1-.616,1.329c.074.236.27.5.248.728-.029.282-.222.442-.423.671-.806.916-1.115-.028-2.852.6m6.093,1.945c-.614.418-1.356-.021-2.062.074-.341.045-.518.911-1.146.628-.336-.151-.914-.578-.683-1.114.208-.482.967-.46,1.181-.752a4.062,4.062,0,0,1,.26-1.534c.229-.477.837-.415,1.188-.793.179-.194,0-.73.2-.917.346-.324,1.788-.478,1.9.167a.988.988,0,0,1-.54,1.04,2.131,2.131,0,0,1-.291,3.2m.838-17.748c-.468-.7-.766-2.2-.117-2.885a8.682,8.682,0,0,1,6.443.859C74.147,32.8,72.1,34.018,70.079,34a2.975,2.975,0,0,1-2.587-1.207M70.1,47.7c-.387.453-1.489.055-1.59-.133a.744.744,0,0,1,.033-.649,1.447,1.447,0,0,1,1.651-.346c.072.544.134.862-.093,1.127m5.422-7.771a1.8,1.8,0,0,1-2.382.208,1.99,1.99,0,0,1-.506-2.473,1.894,1.894,0,0,1,3-.2,2.116,2.116,0,0,1-.115,2.465m.133-10.463c-.348.1-.547-.127-.8-.516.468.182.8-.356,1.167-.09s-.158.547-.363.606m3.912,7.682c-.635,1.275-2.752.833-3.072.559a1.6,1.6,0,0,1,.17-2.325,2.358,2.358,0,0,1,2.857.169,1.385,1.385,0,0,1,.045,1.6m8.247.172c-.1.368-.831.1-.914-.031-.17-.26.609-.432.828-.4.134.021.143.231.086.429m-.286-4.391c.021.406.207.719-.033,1.072-.346.434-1.627.573-1.79-.022-.052-.625.835-1.246,1.384-1.475a2.232,2.232,0,0,1,.1-2.516,2.029,2.029,0,0,1,2.733,0,2,2,0,0,1-.4,2.878,2.257,2.257,0,0,1-1.995.064m3.727,1.866a4.517,4.517,0,0,1-.878.814,3.241,3.241,0,0,1-1.417-.986c-.134-.224.189-.6.3-.776a5.716,5.716,0,0,1,1.885-.036.71.71,0,0,1,.105.985" transform="translate(1537.864 -4050.172) rotate(14)" fill="#cfe0b9"/>
    <path id="Path_1257409" data-name="Path 1257409" d="M9.644,3.677,6.778,0A3.107,3.107,0,0,0,5.522.957L7.264,2.465c-.342.571-3.207,2.912-2.1,3.224-.086-.024,2.52-.234,2.881-.241C8.066,8.31,5.5,5.417,4.835,8.389c.291.343.614.491.781.869-.73.064-1.788,1.031-1.432,1.692a2.186,2.186,0,0,1,.38,2.563A3.827,3.827,0,0,1,3.267,15a6.308,6.308,0,0,0-2.823,3.48c-.143.5.757.523,1.065.456.85-.184,1.627-.833,2.479-.78.608.038.473,1.294.17,1.713a3.6,3.6,0,0,1-1.6,1.3L0,22.261a3.639,3.639,0,0,0,1.234,1.561,32.375,32.375,0,0,0,5.742-6c1.16-1.57-.127-3.367-.184-4.019a18.03,18.03,0,0,1,.007-2.78,4.573,4.573,0,0,0,1.783.613c.48-1.907-.886-3.6.077-4.172a23.326,23.326,0,0,1,1.973,3.067c.811.284.394-5.048.374-5.159-.119-.683-.962-1.181-1.362-1.694" transform="translate(1583.408 -3982.487) rotate(14)" fill="#cfe0b9"/>
    <path id="Path_1257410" data-name="Path 1257410" d="M4.942,0c-.248-.041-.793.212-.8.47.241.448.742.744.9,1.253-1.226.334-.721.077-1.392,1.289.547.411,1.263.4,1.658.861.207.244-.031,1.1-.267,1.265C3.513,5.275.306,4.59.372,7.058c.461.088,1.761-.535,1.909.077A9.641,9.641,0,0,1,0,9.6l.046,3.01C2.332,11.229,2.2,8.062,5.112,6.554c-.219.775-.859,1.411-.692,2.155a3.731,3.731,0,0,0,1.195,1.742A21.942,21.942,0,0,0,7.351,5.6C7.694,3.76,6.742.311,4.942,0" transform="translate(1566.344 -3971.794) rotate(14)" fill="#cfe0b9"/>
    <path id="Path_1257411" data-name="Path 1257411" d="M7,.082C6.055-.41,5.558,1.434,5.673,2.141c.563,3.48,1.768,4.98.367,8.246A20.728,20.728,0,0,0,3.207,2.6c-.491-.122-1.377-.251-1.726.067-.115,2.463-.444,1.284.551,3.222C1.47,6.121.663,5.728.2,6.064-.2,6.449.091,7.152.33,7.539a16.983,16.983,0,0,1,2.164,5.126C1.4,15.785.05,16.431.6,20c.028.184.733.162.8-.01.565-1.553.83-4.43,1.508-6.14l.131,3.406a2.668,2.668,0,0,0,.864,2.1A32.79,32.79,0,0,0,6.06,13.221a15.214,15.214,0,0,0,1.849.995A3.265,3.265,0,0,0,9.3,11.761C9.386,8.778,10,1.65,7,.082M2.442,6.518A2.96,2.96,0,0,1,3.59,8.465,12.568,12.568,0,0,1,2.442,6.518" transform="translate(1597.798 -3986.091) rotate(14)" fill="#cfe0b9"/>
    <path id="Path_1257412" data-name="Path 1257412" d="M2.543,3.98c.227.279.028.818.374,1.11a1.633,1.633,0,0,0,2.05,0,1.286,1.286,0,0,0-.009-1.436c-.341-.492-1.038-.36-1.4-.673a1.327,1.327,0,0,1-.036-1.293c.287-.324.668-.441.568-.888C4.008.42,3.948.105,3.623.037,2.468-.2,2.759.828,1.681.691A1.378,1.378,0,0,0,.01,2.007,1.98,1.98,0,0,0,.561,3.686a2.462,2.462,0,0,0,1.983.294" transform="translate(1588.732 -4033.441) rotate(14)" fill="#435829"/>
    <path id="Path_1257413" data-name="Path 1257413" d="M.266,2c.432.511,1.04.334,1.745.422A2.145,2.145,0,0,0,2.229,5a1.837,1.837,0,0,0,2.535.021,2.008,2.008,0,0,0,0-2.751,2.614,2.614,0,0,0-2.193-.31c-.155-.349.108-.756-.1-1.148A1.656,1.656,0,0,0,.385.166C-.138.5-.078,1.587.266,2" transform="translate(1592.048 -4022.246) rotate(14)" fill="#435829"/>
    <path id="Path_1257414" data-name="Path 1257414" d="M1.792,4.543c.239-.353.053-.666.033-1.072A2.257,2.257,0,0,0,3.82,3.407a2,2,0,0,0,.4-2.878,2.029,2.029,0,0,0-2.733,0,2.232,2.232,0,0,0-.1,2.516C.837,3.275-.049,3.9,0,4.521c.164.594,1.444.456,1.79.022" transform="translate(1613.894 -4000.861) rotate(14)" fill="#435829"/>
    <path id="Path_1257415" data-name="Path 1257415" d="M.145,2.548A1.9,1.9,0,0,0,2.2,3.643,1.743,1.743,0,0,0,3.885,2.334,1.71,1.71,0,0,0,3.136.26a2.7,2.7,0,0,0-2.322,0,1.818,1.818,0,0,0-.67,2.284" transform="translate(1554.917 -3974.197) rotate(14)" fill="#435829"/>
    <path id="Path_1257416" data-name="Path 1257416" d="M0,1.842A1.843,1.843,0,1,0,1.843,0,1.842,1.842,0,0,0,0,1.842" transform="translate(1566.635 -4007.741) rotate(14)" fill="#435829"/>
    <path id="Path_1257417" data-name="Path 1257417" d="M3.109,3.108A2.116,2.116,0,0,0,3.225.643a1.9,1.9,0,0,0-3,.2A1.99,1.99,0,0,0,.727,3.316a1.8,1.8,0,0,0,2.382-.208" transform="translate(1599.218 -3996.933) rotate(14)" fill="#435829"/>
    <path id="Path_1257418" data-name="Path 1257418" d="M.425,2.727C.744,3,2.859,3.445,3.5,2.169A1.393,1.393,0,0,0,3.451.57,2.353,2.353,0,0,0,.6.4a1.6,1.6,0,0,0-.17,2.324" transform="translate(1603.213 -3997.834) rotate(14)" fill="#435829"/>
    <path id="Path_1257419" data-name="Path 1257419" d="M.142,1.894A5.007,5.007,0,0,0,2.7,2.568a2.28,2.28,0,0,0,1.72-1.38C4.144.016,1.347-.344.239.357c-.427.27-.165,1.069-.1,1.537" transform="translate(1589.457 -3996.806) rotate(14)" fill="#435829"/>
    <path id="Path_1257420" data-name="Path 1257420" d="M1.659,3.317A1.658,1.658,0,1,0,0,1.658,1.659,1.659,0,0,0,1.659,3.317" transform="translate(1592.306 -4015.563) rotate(14)" fill="#435829"/>
    <path id="Path_1257421" data-name="Path 1257421" d="M1.388,2.749a1.7,1.7,0,0,0,1.4-.916,1.309,1.309,0,0,0-.439-1.6,1.826,1.826,0,0,0-1.8.005A1.331,1.331,0,0,0,.128,1.923a1.231,1.231,0,0,0,1.26.826" transform="translate(1572.351 -4008.023) rotate(14)" fill="#435829"/>
    <path id="Path_1257422" data-name="Path 1257422" d="M.485.117A1.331,1.331,0,0,0,.3,2a1.547,1.547,0,0,0,2,.017A1.128,1.128,0,0,0,2.3.521,1.768,1.768,0,0,0,.485.117" transform="translate(1540.255 -3995.295) rotate(14)" fill="#435829"/>
    <path id="Path_1257423" data-name="Path 1257423" d="M2.415,2.04c.136-.523.274-1.062-.079-1.451A1.72,1.72,0,0,0,.442.14a1.346,1.346,0,0,0,0,1.991A1.8,1.8,0,0,0,2.415,2.04" transform="translate(1547.565 -3985.15) rotate(14)" fill="#435829"/>
    <path id="Path_1257424" data-name="Path 1257424" d="M2.295,1.577c.246-.294.234-1.263-.04-1.436C1.518-.325.3.477.045.916c-.167.291.17.644.365.8a2.075,2.075,0,0,0,1.885-.136" transform="translate(1583.116 -4002.252) rotate(14)" fill="#435829"/>
    <path id="Path_1257425" data-name="Path 1257425" d="M1.1,2.04c.26.009.417-.3.683-.515A.662.662,0,0,0,1.9.474,1.547,1.547,0,0,0,.082.142a1.975,1.975,0,0,0,.145,1.5,1.024,1.024,0,0,0,.869.4" transform="translate(1553.322 -3975.758) rotate(14)" fill="#435829"/>
    <path id="Path_1257426" data-name="Path 1257426" d="M2.151,1.3A.8.8,0,0,0,1.984.483,1.691,1.691,0,0,0,.263.1c-.4.184-.275.99-.057,1.312.427.63,1.821.4,1.945-.114" transform="translate(1584.442 -4031.588) rotate(14)" fill="#435829"/>
    <path id="Path_1257427" data-name="Path 1257427" d="M1.54,1.643c.367-.343,1.076-1,.439-1.46A2.31,2.31,0,0,0,.223.163C-.13.321-.033,1.246.3,1.457c.368.238.8.6,1.243.186" transform="translate(1563.288 -4011.369) rotate(14)" fill="#435829"/>
    <path id="Path_1257428" data-name="Path 1257428" d="M.337.1C.221.276-.1.649.032.873a3.241,3.241,0,0,0,1.417.986,4.518,4.518,0,0,0,.878-.814A.71.71,0,0,0,2.221.061,5.717,5.717,0,0,0,.337.1" transform="translate(1615.985 -3995.918) rotate(14)" fill="#435829"/>
    <path id="Path_1257429" data-name="Path 1257429" d="M1.175,1.792C1.546,1.818,2.781.5,2.02.121A2.025,2.025,0,0,0,.147.4c-.582.515.73,1.368,1.028,1.389" transform="translate(1606.128 -4011.642) rotate(14)" fill="#435829"/>
    <path id="Path_1257430" data-name="Path 1257430" d="M2.768,1.062c-.193-.578-.647-.4-.948-.6C1.376.162.852-.213.315.148A.8.8,0,0,0,.133,1.217c.862.966,1.489-.107,2.635-.155" transform="translate(1549.729 -3978.641) rotate(14)" fill="#435829"/>
    <path id="Path_1257431" data-name="Path 1257431" d="M.033.582c-.2.494.592.9.938.933.384.034.945.031,1.148-.53.084-.231.225-.694,0-.814C1.551-.127.3-.063.033.582" transform="translate(1579.501 -4007.885) rotate(14)" fill="#435829"/>
    <path id="Path_1257432" data-name="Path 1257432" d="M.873,1.9c.392-.146,1.382-.938.845-1.69A.715.715,0,0,0,.935.053a1.589,1.589,0,0,0-.93.955c-.065.351.472,1.038.868.89" transform="translate(1581.721 -3980.691) rotate(14)" fill="#435829"/>
    <path id="Path_1257433" data-name="Path 1257433" d="M.915.049A1.615,1.615,0,0,0,.006.983,1.007,1.007,0,0,0,.741,1.9c.2.021,1.375-.683,1.078-1.51a.726.726,0,0,0-.9-.343" transform="translate(1588.661 -4007.016) rotate(14)" fill="#435829"/>
    <path id="Path_1257434" data-name="Path 1257434" d="M1.367,1.741c.232-.174.212-.547.207-.924a.725.725,0,0,0-.59-.8C.761-.051.517.059.283.342A.886.886,0,0,0,.243,1.6a.818.818,0,0,0,1.124.143" transform="translate(1592.922 -4031.152) rotate(14)" fill="#435829"/>
    <path id="Path_1257435" data-name="Path 1257435" d="M.862,1.723A.861.861,0,1,0,0,.862a.862.862,0,0,0,.862.861" transform="translate(1596.479 -4016.747) rotate(14)" fill="#435829"/>
    <path id="Path_1257436" data-name="Path 1257436" d="M.788,1.577A.788.788,0,1,0,0,.788a.788.788,0,0,0,.788.788" transform="translate(1582.905 -4025.71) rotate(14)" fill="#435829"/>
    <path id="Path_1257437" data-name="Path 1257437" d="M1.861,1.139c.2-.11.091-.618.084-.835A.4.4,0,0,0,1.371.053C.966.3.756.743.2.776c-.279.017-.213.306-.12.425.491.628.5-.487,1.781-.062" transform="translate(1594.006 -4026.212) rotate(14)" fill="#435829"/>
    <path id="Path_1257438" data-name="Path 1257438" d="M1.837,3.668A1.834,1.834,0,1,0,0,1.833,1.834,1.834,0,0,0,1.837,3.668" transform="translate(1568.173 -4027.463) rotate(14)" fill="#435829"/>
    <path id="Path_1257439" data-name="Path 1257439" d="M.784,1.339c.231.069.788-.139.769-.449A1.143,1.143,0,0,0,.789.014C.459-.076.053.292,0,.616c-.06.406.5.637.78.723" transform="translate(1571.978 -4024.146) rotate(14)" fill="#435829"/>
    <path id="Path_1257440" data-name="Path 1257440" d="M1.346,1.083A.884.884,0,0,0,1.262.128C.918-.171-.017.08,0,.615s1.133.876,1.346.468" transform="translate(1586.251 -4033.412) rotate(14)" fill="#435829"/>
    <path id="Path_1257441" data-name="Path 1257441" d="M.583,1.25a.669.669,0,0,0,.88-.4A.8.8,0,0,0,.836,0,.933.933,0,0,0,.018.571c-.115.344.342.582.565.678" transform="translate(1572.329 -4030.867) rotate(14)" fill="#435829"/>
    <path id="Path_1257442" data-name="Path 1257442" d="M2.881.28c-.2.188-.021.723-.2.917-.351.38-.957.317-1.188.8a4.055,4.055,0,0,0-.258,1.534c-.215.293-.974.269-1.183.75-.231.537.348.962.683,1.114.63.284.807-.583,1.146-.628.706-.095,1.448.346,2.062-.074a2.13,2.13,0,0,0,.291-3.2.986.986,0,0,0,.54-1.04C4.669-.2,3.227-.044,2.881.28" transform="translate(1587.619 -3990.512) rotate(14)" fill="#435829"/>
    <path id="Path_1257443" data-name="Path 1257443" d="M3.924,4.059c.2-.229.394-.389.423-.671.022-.229-.176-.492-.25-.728a1.522,1.522,0,0,0,.616-1.331A1.325,1.325,0,0,0,4,.128,1.364,1.364,0,0,0,2.029.983,1.488,1.488,0,0,0,3.055,2.74c-.63,0-.864.707-1.246.732-.356.022-.854-.508-1.182-.277-.265.186-.725.454-.608.919a.849.849,0,0,0,1.052.547c1.737-.63,2.048.313,2.854-.6" transform="translate(1584.957 -3993.149) rotate(14)" fill="#435829"/>
    <path id="Path_1257444" data-name="Path 1257444" d="M1.65,1.241c.227-.265.165-.583.093-1.127A1.447,1.447,0,0,0,.092.459a.744.744,0,0,0-.033.649c.1.188,1.2.585,1.59.133" transform="translate(1593.041 -3988.539) rotate(14)" fill="#435829"/>
    <path id="Path_1257445" data-name="Path 1257445" d="M1.7.839A1.144,1.144,0,0,0,.164.072c-.131.265-.291.749,0,.9A1.478,1.478,0,0,0,1.7.839" transform="translate(1583.677 -3988.122) rotate(14)" fill="#435829"/>
    <path id="Path_1257446" data-name="Path 1257446" d="M1.571.905A.818.818,0,0,0,1.423.07C.983-.215.17.416,0,1.086c.449.2,1.427.341,1.572-.181" transform="translate(1545.966 -4016.896) rotate(14)" fill="#435829"/>
    <path id="Path_1257447" data-name="Path 1257447" d="M1.231,1.167c.153-.09.133-.391.107-.726C1.309.055,1.1-.014.928,0,.426.05-.1.4.018.752a1.062,1.062,0,0,0,1.213.415" transform="translate(1547.284 -4013.532) rotate(14)" fill="#435829"/>
    <path id="Path_1257448" data-name="Path 1257448" d="M1.252,1.049C1.416.586,1.331.135,1.006.025.636-.1-.047.264,0,.674c.055.472,1.09.83,1.25.375" transform="translate(1604.819 -4002.599) rotate(14)" fill="#435829"/>
    <path id="Path_1257449" data-name="Path 1257449" d="M.64,1.279A.639.639,0,1,0,0,.639a.64.64,0,0,0,.64.64" transform="translate(1561.806 -4021.32) rotate(14)" fill="#435829"/>
    <path id="Path_1257450" data-name="Path 1257450" d="M.867,0C.428.035-.09.418.013.738A1.106,1.106,0,0,0,1.175,1.2c.213-.12.182-.422.151-.783C1.292.027,1.065-.013.867,0" transform="translate(1579.656 -3988.387) rotate(14)" fill="#435829"/>
    <path id="Path_1257451" data-name="Path 1257451" d="M0,.621A.621.621,0,1,0,.621,0,.622.622,0,0,0,0,.621" transform="translate(1536.845 -3996.771) rotate(14)" fill="#435829"/>
    <path id="Path_1257452" data-name="Path 1257452" d="M.565,1.129A.565.565,0,1,0,0,.565a.565.565,0,0,0,.565.565" transform="translate(1572.047 -3983.036) rotate(14)" fill="#435829"/>
    <path id="Path_1257453" data-name="Path 1257453" d="M1.507,1.559c-.243.287-1.062.26-1.222.692A2.261,2.261,0,0,0,.061,3.738a1.994,1.994,0,0,0,2.775.95A2.037,2.037,0,0,0,3.679,7.1,1.773,1.773,0,0,0,6,6.443a1.892,1.892,0,0,0-.174-2.275c-.663-.656-1.48-.394-2.355-.408.983-.417,1.64-.819,1.728-1.84A1.878,1.878,0,0,0,4.769.461,1.956,1.956,0,0,0,3.382.005c-1.1-.072-1.559.64-1.874,1.554" transform="translate(1561.983 -3989.493) rotate(14)" fill="#435829"/>
    <path id="Path_1257454" data-name="Path 1257454" d="M0,1.647A1.648,1.648,0,1,0,1.647,0,1.647,1.647,0,0,0,0,1.647" transform="translate(1567.641 -3986.439) rotate(14)" fill="#435829"/>
    <path id="Path_1257455" data-name="Path 1257455" d="M.368.184A1.411,1.411,0,0,0,.346,2.061,1.512,1.512,0,0,0,2.4,1.937,1.208,1.208,0,0,0,2.408.689a1.653,1.653,0,0,0-2.04-.5" transform="translate(1558.62 -3991.502) rotate(14)" fill="#435829"/>
    <path id="Path_1257456" data-name="Path 1257456" d="M.509,1.864c.415.239.668.172,1.065-.281A1.01,1.01,0,0,0,1.864.506C1.576-.229.332,0,.16.186.11.239-.331,1.379.509,1.864" transform="translate(1568.773 -3979.559) rotate(14)" fill="#435829"/>
    <path id="Path_1257457" data-name="Path 1257457" d="M0,1.112a1.5,1.5,0,0,0,1.341.117A.7.7,0,0,0,1.158.014C.515-.1.077.464,0,1.112" transform="translate(1559.267 -3974.154) rotate(14)" fill="#435829"/>
    <path id="Path_1257458" data-name="Path 1257458" d="M.6.83c.186.01.649-.074.627-.351C1.207.158.766.065.59.015.37-.047.212.079,0,.387A.727.727,0,0,0,.6.83" transform="translate(1559.503 -3985.589) rotate(14)" fill="#435829"/>
    <path id="Path_1257459" data-name="Path 1257459" d="M.458.916A.458.458,0,1,0,0,.458.458.458,0,0,0,.458.916" transform="translate(1556.618 -4020.964) rotate(14)" fill="#435829"/>
    <path id="Path_1257460" data-name="Path 1257460" d="M1.355.048A1.775,1.775,0,0,0,0,.3,2.2,2.2,0,0,0,1.2.617c.124-.134.241-.446.157-.57" transform="translate(1596.375 -4023.008) rotate(14)" fill="#435829"/>
    <path id="Path_1257461" data-name="Path 1257461" d="M.693.68C.774.564.958.225.8.06.6-.14-.152.2.027.478c.195.3.582.32.666.2" transform="translate(1588 -4034.191) rotate(14)" fill="#435829"/>
    <path id="Path_1257462" data-name="Path 1257462" d="M.024.4C.106.531.834.8.939.435.994.235.988.027.852,0,.633-.03-.145.144.024.4" transform="translate(1613.235 -3993.37) rotate(14)" fill="#435829"/>
    <path id="Path_1257463" data-name="Path 1257463" d="M.111.861A1.329,1.329,0,0,0,.442,2.343a2.133,2.133,0,0,0,1.535.632,2.916,2.916,0,0,0-.2,2.594A1.754,1.754,0,0,0,3.9,6.524,1.842,1.842,0,0,0,5.173,4.737,1.985,1.985,0,0,0,4.58,3.013,3.2,3.2,0,0,0,2.8,2.581c.09-.759.43-1.639-.157-2.222a1.732,1.732,0,0,0-2.534.5" transform="translate(1543.31 -4010.095) rotate(14)" fill="#435829"/>
    <path id="Path_1257464" data-name="Path 1257464" d="M1.615,3.581a2,2,0,0,0,2.119-.9A1.765,1.765,0,0,0,3.417.474,2.345,2.345,0,0,0,.343.686,1.965,1.965,0,0,0,.162,2.6a1.7,1.7,0,0,0,1.453.981" transform="translate(1538.039 -4008.362) rotate(14)" fill="#435829"/>
    <path id="Path_1257465" data-name="Path 1257465" d="M1.377,2.754A1.377,1.377,0,1,0,0,1.377,1.377,1.377,0,0,0,1.377,2.754" transform="translate(1534.904 -4006.016) rotate(14)" fill="#435829"/>
    <path id="Path_1257466" data-name="Path 1257466" d="M.839,1.889c.47-.177,1.425-.96.885-1.676a.715.715,0,0,0-.8-.151A1.612,1.612,0,0,0,0,1.023c-.06.334.475,1,.835.866" transform="translate(1543.559 -4012.973) rotate(14)" fill="#435829"/>
    <path id="Path_1257467" data-name="Path 1257467" d="M.719.916A.743.743,0,0,0,1.668.636,1.318,1.318,0,0,0,0,.1,1.962,1.962,0,0,0,.719.916" transform="translate(1540.786 -4013.898) rotate(14)" fill="#435829"/>
    <path id="Path_1257468" data-name="Path 1257468" d="M22.846,17.071c.127-.182.343-.4.534-.621a.767.767,0,0,0-.1-.938c-.4-.508-2.083-.484-2.207.026L12.057,8.545C8.228,5.575,4.446,2.717.377.008.17-.085-.145.645.074.852,2.883,3.5,5.663,6.039,8.245,8.9a23.6,23.6,0,0,0,4.6,4.067l7.678,5.085A143.085,143.085,0,0,1,34.983,29.07a6.36,6.36,0,0,0,.985-1.923Z" transform="translate(1529.113 -4001.55) rotate(14)" fill="#435829"/>
    <path id="Path_1257469" data-name="Path 1257469" d="M62.545,11.224A36.929,36.929,0,0,0,55.7,1.053,3.261,3.261,0,0,0,54.292,0c.911,1.071,1.143,2.561,1.558,3.821.374,1.138-.207,1.627-.387,2.573a17.67,17.67,0,0,1-2.393,6.978,12.356,12.356,0,0,1-9.618,5.585A10.051,10.051,0,0,0,38.742,20.3l-4.255,2.585c-1.46.886-3.281.353-5.668,2.126a7.264,7.264,0,0,0-2.852,4.055,23.652,23.652,0,0,1-3.623,7.546c-2.3,3.3-5.16,2.747-8.768,4.377-2.928,1.324-4.014,5.1-8.345,6.5a4.468,4.468,0,0,0-2.623,2.661L1.167,53.56,0,53.964a25.756,25.756,0,0,1,.131,4.8c.413.188.625.721,1.315.394a.748.748,0,0,1,.788.32H4.823a32.758,32.758,0,0,0,6.491-2.454c3.372-1.809,2.157-.613,4.727-.671a14.98,14.98,0,0,0,12.586-7.563,8.164,8.164,0,0,1,5.561-4.141c3.365-.68,3.57.231,6.334-1.42L47.6,39c1.67-1,7.171-1.172,9.126-1.8a7.435,7.435,0,0,0,3.759-3.105A19.579,19.579,0,0,0,62.9,28.2a24.987,24.987,0,0,0,1.27-6.134c0-.117.088-.2.165-.181V16.713a21.093,21.093,0,0,0-1.788-5.489M14.734,49.565A21.937,21.937,0,0,1,13,54.421,3.731,3.731,0,0,1,11.8,52.679c-.167-.744.473-1.38.692-2.155C9.586,52.031,9.716,55.2,7.429,56.579l-.046-3.01a9.642,9.642,0,0,0,2.281-2.463c-.146-.613-1.446.01-1.909-.077-.065-2.468,3.141-1.783,4.668-1.916.236-.169.473-1.021.267-1.265-.394-.465-1.11-.449-1.656-.861.67-1.212.167-.957,1.391-1.289-.16-.511-.661-.806-.9-1.253.009-.258.554-.511.8-.47,1.8.306,2.754,3.756,2.41,5.591M31.986,40a23.1,23.1,0,0,0-1.973-3.067c-.964.577.4,2.265-.077,4.172a4.549,4.549,0,0,1-1.783-.614,18.024,18.024,0,0,0-.007,2.78c.055.652,1.344,2.449.184,4.019a32.223,32.223,0,0,1-5.744,6,3.653,3.653,0,0,1-1.232-1.559l2.559-1.091a3.572,3.572,0,0,0,1.6-1.3c.3-.418.437-1.675-.17-1.711-.852-.053-1.628.6-2.479.78-.308.065-1.208.04-1.067-.456a6.32,6.32,0,0,1,2.825-3.482,3.815,3.815,0,0,0,1.3-1.484,2.178,2.178,0,0,0-.382-2.561c-.355-.661.7-1.628,1.432-1.694-.165-.377-.489-.527-.78-.868.663-2.974,3.231-.081,3.207-2.942-.361.005-2.967.215-2.881.239-1.1-.312,1.761-2.651,2.1-3.224l-1.742-1.506a3.11,3.11,0,0,1,1.257-.959L31,33.143c.4.513,1.243,1.012,1.362,1.7.019.108.437,5.441-.374,5.159m11.76-5.746A3.259,3.259,0,0,1,42.353,36.7a15.2,15.2,0,0,1-1.847-.995,32.789,32.789,0,0,1-2.16,6.135,2.674,2.674,0,0,1-.864-2.1l-.129-3.406c-.678,1.709-.943,4.587-1.51,6.14-.062.172-.769.195-.8.01-.551-3.566.794-4.21,1.892-7.333a16.978,16.978,0,0,0-2.162-5.126c-.241-.387-.535-1.09-.134-1.475.465-.336,1.274.057,1.833-.177-.995-1.94-.666-.759-.551-3.222.351-.32,1.236-.191,1.726-.069a20.727,20.727,0,0,1,2.833,7.792c1.4-3.267.2-4.766-.367-8.246-.114-.707.382-2.551,1.324-2.059,3,1.568,2.389,8.7,2.3,11.68m6.271-3.226h-.172V28.438h.172Zm5.346-15.433H55.19V12.575h.172Z" transform="translate(1569.818 -4016.244) rotate(14)" fill="#435829"/>
    <path id="Path_1257470" data-name="Path 1257470" d="M0,0A12.568,12.568,0,0,0,1.148,1.947,2.96,2.96,0,0,0,0,0" transform="translate(1598.591 -3979.176) rotate(14)" fill="#435829"/>
    <path id="Path_1257475" data-name="Path 1257475" d="M1.9,0A5.778,5.778,0,0,1,.35.485C.252.592-.091.769.023.88L.253,1.1c.114.11-.238.616-.169.768a9.959,9.959,0,0,0,1.6.814A6.237,6.237,0,0,1,2.033.432C2.085.3,2.035.017,1.9,0" transform="translate(1484.392 -3990.435) rotate(14)" fill="#5f7b39"/>
    <path id="Path_1257476" data-name="Path 1257476" d="M14.013,0c-.231.194-.16.508-.351.709-.954,1.007-.912.592-2.238,1.029l-.6.972a13.723,13.723,0,0,1-3.083,2,7.036,7.036,0,0,1-3.226.606c-.585-.112-1.062-.43-1.608-.492.473,0-.019,1.942-.076,1.986L1.487,7.878c-.287.229-.071,1.5-1.019,2.73-.139.181-.4.231-.468.432a11.638,11.638,0,0,0,2.238-.587c1.212-.571,2.288-1.332,3.534-1.83,1.22-.487,2.881-.083,3.94-.4,3.14-.945,3.838-2.479,5.434-5.15a21.228,21.228,0,0,0,.929-2.048c-.15-.1-.2-.225-.308-.27Z" transform="translate(1506.978 -3984.67) rotate(14)" fill="#5f7b39"/>
    <path id="Path_1257477" data-name="Path 1257477" d="M1.715,1.246A1.545,1.545,0,0,0,1.393,0,2.2,2.2,0,0,1,.23,1.195a.613.613,0,0,0-.213.6c.186.506,1.468.215,1.7-.551" transform="translate(1517.38 -4008.137) rotate(14)" fill="#5f7b39"/>
    <path id="Path_1257478" data-name="Path 1257478" d="M.522,2.372c.3.241.107.435.215.785L1.9,2.716c.468-.177.781-1.169.778-1.565A2.031,2.031,0,0,0,2.43.31a.839.839,0,0,0-.714-.3C.861.264.53-.108.33.148.079.472.632,1.391,0,2.327c.253-.048.389-.06.522.045" transform="translate(1516.245 -4006.34) rotate(14)" fill="#5f7b39"/>
    <path id="Path_1257479" data-name="Path 1257479" d="M0,.076A3.14,3.14,0,0,0,1.033.26.975.975,0,0,0,0,.076" transform="translate(1519.545 -4008.169) rotate(14)" fill="#5f7b39"/>
    <path id="Path_1257480" data-name="Path 1257480" d="M16.526,9.8l.379-2.16a8.282,8.282,0,0,0-.2-1.94l-2.1.09a10.762,10.762,0,0,1-2.227-.456c-.623-.107-1.26.155-1.885-.009A13.23,13.23,0,0,1,6.127,2.608L3.052,0a6.8,6.8,0,0,1-.885.6c.014.73.415,1.017.053,1.475-.286.363-.706.826-1.25.757C.646,2.8.209,2.608.033,3.053a8.192,8.192,0,0,0-.029.9.384.384,0,0,0,.1.239L1.221,5.453A15.24,15.24,0,0,0,4.88,8.274c1.73.4,5.83.53,7.281,1.248L15.9,11.371a8.4,8.4,0,0,0,2.022.394,1.791,1.791,0,0,0,.291-.057,5.552,5.552,0,0,1-.687-.6Z" transform="translate(1487.157 -3990.568) rotate(14)" fill="#5f7b39"/>
    <path id="Path_1257481" data-name="Path 1257481" d="M48.684,18.568c.026-.052.136-.059.182-.184L47.8,16.909c-.84-1.165-6.2-4.845-7.847-5.591l-3.181-.093-2.36.821c.355.363,1.854.942,1.737,1.36l-1.5-.065c-.375-.017-.726.246-1.11.236a22.647,22.647,0,0,1-2.623-.172l-3.045-.435-1.084-.016c-.114,0-.177-.017-.2-.074-.029-.079-.079-.277.06-.267l3.4.219.873,0a6.107,6.107,0,0,0,1.525-.076c-.208-.177-.5-.225-.663-.437-.59-.768,2.8-2.086,2.914-2.1l1.3-.2c-.37-.382-.7-.744-1.081-1.079a3.043,3.043,0,0,1-.709-.685,1.873,1.873,0,0,1,.969.091c.281.076,2.592.675,2.57.458A31.756,31.756,0,0,0,32.022,7.6l-4.665-.184a5.615,5.615,0,0,1,.269-1.351l.9-2.253c.69-1.735.394-1.51.2-3.27-.466-.16-1.551-.85-1.916-.372a5.668,5.668,0,0,0-.874,1.107c-.084.475.4.947.356,1.413-.164,1.563-.585,3.031-.893,4.585-.869.038-1.763-.535-2.651-.62a33.81,33.81,0,0,0-3.785.265,3.06,3.06,0,0,0-.711,1.4l-2.095-.742a7.124,7.124,0,0,0-4.2.1c.83.652,2.678.742,3.745,1.232a11.63,11.63,0,0,1,2.017,1.432c.48.365.752.929,1.174,1.315l-.73.127a.5.5,0,0,0-.282.441c.045.862,3.009.811,3.682.812,1.11,0,2.191-.22,3.325-.15.16.033.207.449.2.585l-1.866-.207-2.565.391a12.858,12.858,0,0,1-2.744-.164c-.361-.024-.668-.337-1.033-.324a9.755,9.755,0,0,0-1.8.191c-.236.053-.379.355-.58.46l2.42.816A7.723,7.723,0,0,1,18,15.253c-.224.3-.284.711-.568.94-.213.172-.666.026-.935-.033l-3.861-.826c-.728-.155-1.429-.356-2.122-.561-.145-.41-.036-.849-.213-1.236a8.88,8.88,0,0,0-.905-1.62l-1.969-.535,1.255-.592c1.976.9,3.682,2.573,5.8,3.043a3.326,3.326,0,0,1,.6-1.226c-.286-.236-.365-.614-.645-.8l-1.1-.745c.389-.112.711.028,1.028-.217a2.692,2.692,0,0,0-.769-1.059,12.167,12.167,0,0,0-2.513-.31A20.228,20.228,0,0,0,6.2,11.625l-1.931,1.4a7.052,7.052,0,0,1-2.692.5c-.029-.948.465-1.349.685-2.088-.086.072-.232.091-.332.207-.37.427-.823.761-1.164,1.21-.287.38-.511.8-.769,1.182.059.236.246.336.358.472a8.554,8.554,0,0,1,3.351-1.053c1.664.644,1.974.484,2.57,2.293,2.4.442,2.158-.42,4.849.27a5.3,5.3,0,0,1,1.339.614,5.066,5.066,0,0,1,1.124,1.01c.547.614,1.51,3.214,1.89,3.43l1.207.694A12.543,12.543,0,0,1,17.9,24.138c.114.256-.01.544.145.806a5.944,5.944,0,0,1,2.413-.456l.659-1.375a7.128,7.128,0,0,1,1.99-2.427,4.434,4.434,0,0,0,.487-.33c.787-.771,1.408-.571,2.77-.716.22-.024,1.038.27,1.262-.293a7.189,7.189,0,0,1,.389-1.253c.676-1.093,1.905-1.1,3.129-.993.267.024.453.306.7.391a13.6,13.6,0,0,0,1.437.4,3.479,3.479,0,0,1,1.74-1.422c.2-.079.554-.241.763-.071A9.2,9.2,0,0,1,38.1,18.823l.041.775c.558.065,1.1-.193,1.659-.126L42.6,19.8l3.949.022a10.928,10.928,0,0,1,2.133.353c.446-.477-.308-1,.007-1.608M23.817,16.057a4.208,4.208,0,0,1-2.58.518c-.73-.067-1.4-.3-2.119-.406l-.542-.725a8.02,8.02,0,0,1,.628-.75l2.275-.065a26.406,26.406,0,0,1,3.513.355,7.742,7.742,0,0,1-1.176,1.074" transform="translate(1493.77 -4050.101) rotate(14)" fill="#5f7b39"/>
    <path id="Path_1257482" data-name="Path 1257482" d="M1.182,0C1.188.1.1.861,0,.737A7.45,7.45,0,0,1,1.182,0" transform="translate(1495.028 -4039.836) rotate(14)" fill="#610e0e"/>
    <path id="Path_1257483" data-name="Path 1257483" d="M1.351,0C1.172.2.262.566,0,.308A5.614,5.614,0,0,0,1.351,0" transform="translate(1504.548 -4040.31) rotate(14)" fill="#610e0e"/>
    <path id="Path_1257484" data-name="Path 1257484" d="M42.236,6.348l-2.79-.33c-.556-.065-1.1.191-1.659.127l-.041-.775a9.179,9.179,0,0,0-2.322-2.427c-.208-.169-.559-.007-.763.072a3.473,3.473,0,0,0-1.742,1.422,13.838,13.838,0,0,1-1.437-.4c-.241-.086-.429-.367-.694-.391-1.226-.112-2.453-.1-3.131.993a7.334,7.334,0,0,0-.387,1.253c-.224.563-1.041.269-1.263.293-1.36.145-1.981-.057-2.768.716a4.883,4.883,0,0,1-.487.33,7.128,7.128,0,0,0-1.99,2.427L20.1,11.035a5.939,5.939,0,0,0-2.413.456c-.157-.263-.031-.551-.146-.806a12.387,12.387,0,0,0-1.213-2.374l-1.208-.694c-.379-.219-1.343-2.816-1.89-3.43a5.02,5.02,0,0,0-1.122-1.01,5.284,5.284,0,0,0-1.341-.615c-2.689-.69-2.444.172-4.849-.27C5.326.484,5.014.642,3.35,0A8.489,8.489,0,0,0,0,1.053l.265.32L1.916,4.233c.155.269.437.425.64.67a5.812,5.812,0,0,1,1.663.2l.446.633a4.793,4.793,0,0,1,1.563.224c.466.072,1.076-.215,1.522.005.573.287.869.926,1.3,1.379A5.649,5.649,0,0,1,10.457,9.14a3.907,3.907,0,0,0,.7,1.522,3.522,3.522,0,0,0-.733.573c-.213.164-.3.294-.184.57.1.238.1.534.275.74l1.391,1.64a4.594,4.594,0,0,1,.788,3.234l-.182,2.06.019,1.5a2.821,2.821,0,0,0,1.127,1.367c.4.42-.353,1.009.976,1.881-.169,2.183.429,3.473-.7,5.384a4.4,4.4,0,0,1-1.009.988c-.358.007-.99.059-1.091.563-.207,1.033-.244,2.136-.52,3.2l-.5.408.374.745a4.713,4.713,0,0,1-.42,1.071l-.434.757a2.716,2.716,0,0,1-.32,1.411c-.193.644-.275,2.778-.637,3.368l-.594.974L8.4,44.4l-.838-.843-.945,1.9-.324.3c-.408.38-.582,1.01-.964,1.429a5.708,5.708,0,0,0,1.554-.484c.129.017.181.3.127.432a6.273,6.273,0,0,0-.351,2.251,9.917,9.917,0,0,0,.973.47,8.17,8.17,0,0,1,.031-.9c.174-.446.611-.258.936-.217.544.069.964-.394,1.251-.757.361-.46-.041-.745-.053-1.477a6.741,6.741,0,0,0,.885-.6l3.072,2.608a13.2,13.2,0,0,0,4.36,2.72c.625.164,1.26-.1,1.883.01a10.87,10.87,0,0,0,2.229.456l2.1-.091a8.311,8.311,0,0,1,.207,1.942l-.38,2.16,1,1.3a5.557,5.557,0,0,0,.687.6,1.609,1.609,0,0,1-.291.059l.637.139a4.8,4.8,0,0,0,.561.163h1.031c.143,0,.325-.16.5-.1.072-.2.329-.25.468-.43.95-1.231.733-2.5,1.021-2.73l1.344-1.071c.057-.045.551-1.985.077-1.986.544.06,1.021.38,1.608.492a7.047,7.047,0,0,0,3.224-.606,13.783,13.783,0,0,0,3.083-2l.6-.973c1.324-.437,1.282-.024,2.236-1.029.193-.2.122-.515.353-.709l1.754.752c-.358-.685-.379-4.486-.651-4.971a3.924,3.924,0,0,0-.749-1.181,22.29,22.29,0,0,1-2.806-1.967c-.134-.122-.422-.136-.415-.392.01-.293.31-.577.293-.888-.074-1.456-1.277-2.059-1.563-2.661l-.644-1.362c.57-2.615.4-1.687-.711-3.957.055-.112.248-.195.27-.294.031-.139-.153-.238-.174-.336-.1-.461-.5-.551-.723-.88a2.592,2.592,0,0,1-.365-1.339,10.055,10.055,0,0,0,.086-1.854,10.661,10.661,0,0,1,.558-2.312l-.4-1.831a1.951,1.951,0,0,0,1.119-.1,2.348,2.348,0,0,0,1.332-.749c.177-.215.46-.344.587-.621l-.484-.157.713-3.122a9.821,9.821,0,0,0-.694-.966,4.291,4.291,0,0,0,.943-.811L41.5,12l1.59-1.732,1.229-1.883c-.007.01,1.673-1.017,1.88-1.062l.8.73c.42-.172,1.389-.859,1.322-1.334a10.946,10.946,0,0,0-2.134-.353ZM25.464,50.868c.069-.463.47-2,.8-1.992-.578.831-.2,1.9-.8,1.992m1.279-2.35c.356-.145.615-.485,1.088-.422a2.675,2.675,0,0,1-1.088.422m1.281-.059a.808.808,0,0,1,.361.382,1.353,1.353,0,0,1-.361-.382m1.288,1.473a6.825,6.825,0,0,0,1.255,1.274c-.57-.227-1.172-.57-1.255-1.274m3.622-27.185a2.208,2.208,0,0,0,1.164-1.2,1.552,1.552,0,0,1,.32,1.246c-.231.766-1.513,1.057-1.7.551a.612.612,0,0,1,.215-.6m1,3.537-1.164.441c-.108-.349.086-.544-.217-.785-.131-.1-.267-.091-.522-.043.632-.938.079-1.857.332-2.181.2-.255.528.115,1.386-.138a.846.846,0,0,1,.714.3,2.091,2.091,0,0,1,.25.842c0,.4-.312,1.389-.78,1.565m.859-5.214a.975.975,0,0,1,1.033.184,3.139,3.139,0,0,1-1.033-.184" transform="translate(1490.863 -4036.959) rotate(14)" fill="#e7efdc"/>
    <path id="Path_1257485" data-name="Path 1257485" d="M2.693,6.8,4.625,5.4A20.258,20.258,0,0,1,9.5,3.245a11.936,11.936,0,0,1,2.513.31,2.689,2.689,0,0,1,.771,1.059c-.318.243-.64.1-1.029.217l1.1.745c.279.189.36.568.644.8a3.354,3.354,0,0,0-.6,1.226c-2.114-.47-3.818-2.148-5.8-3.045l-1.255.592,1.969.535a8.891,8.891,0,0,1,.905,1.62c.179.389.069.828.215,1.238.694.2,1.393.4,2.121.561l3.861.826c.27.057.721.2.936.031.282-.227.343-.644.568-.938a8.02,8.02,0,0,0-1.083-.616L12.919,7.6c.2-.1.346-.408.58-.461a9.922,9.922,0,0,1,1.8-.191c.363-.012.671.3,1.031.324a12.866,12.866,0,0,0,2.744.164l2.565-.391,1.866.207c0-.136-.041-.553-.2-.584-1.134-.071-2.215.153-3.325.15-.671,0-3.637.05-3.682-.814a.5.5,0,0,1,.282-.439l.73-.129c-.422-.386-.694-.95-1.174-1.315a11.713,11.713,0,0,0-2.017-1.43C13.05,2.192,11.2,2.1,10.372,1.452a7.124,7.124,0,0,1,4.2-.1l2.095.742a3.055,3.055,0,0,1,.711-1.4A33.4,33.4,0,0,1,21.166.424C20.942.4,20.7.164,20.424.156L15.7,0a10.962,10.962,0,0,0-3.1.663c-.179.2-1.09.566-1.351.308a6.811,6.811,0,0,0-1.119.021l-5.012,1.5a12.688,12.688,0,0,0-1.809.931c.005.1-1.086.861-1.184.737-.477.348-.988.658-1.437,1.043C.466,5.946-.028,6.345,0,7.294a7.052,7.052,0,0,0,2.692-.5" transform="translate(1493.795 -4043.674) rotate(14)" fill="#e7efdc"/>
    <path id="Path_1257486" data-name="Path 1257486" d="M21.8,7.954a9.047,9.047,0,0,0-1.11-1.4,22.723,22.723,0,0,0-3.324-2.7L13.777,1.717A10.939,10.939,0,0,0,11.188.584C11.211.8,8.9.2,8.618.126A1.855,1.855,0,0,0,7.649.035,3.043,3.043,0,0,0,8.358.72c.379.336.711.7,1.081,1.079L8.14,2c-.119.019-3.5,1.337-2.914,2.105.164.212.453.26.663.435a6.11,6.11,0,0,1-1.525.077L3.491,4.61l-3.4-.219c-.141-.009-.091.189-.06.267.022.059.088.074.2.076l1.084.016,3.045.435a22.655,22.655,0,0,0,2.623.172c.382.009.735-.253,1.11-.236l1.5.065c.117-.42-1.382-1-1.737-1.36l2.358-.821,3.183.091c1.649.745,7.007,4.427,7.847,5.592l1.062,1.473c-.046.127-.157.134-.182.184l.491.022A5.639,5.639,0,0,0,21.8,7.954" transform="translate(1517.543 -4035.701) rotate(14)" fill="#e7efdc"/>
    <path id="Path_1257487" data-name="Path 1257487" d="M.628.068A8.537,8.537,0,0,0,0,.819l.542.725c.721.1,1.389.339,2.119.406a4.207,4.207,0,0,0,2.58-.518A7.727,7.727,0,0,0,6.417.359,26.131,26.131,0,0,0,2.9,0Z" transform="translate(1508.256 -4031.416) rotate(14)" fill="#5f7b39"/>
    <path id="Path_1257488" data-name="Path 1257488" d="M6.412,37.163c2.286-4.429,2.43-8.813-.384-12.828C3.935,21.33,1.327,17.884.372,14.329-1.313,8.052,2.944,2.215,8.715,0,5.157,5.221,4.875,10.959,8.6,16.009c2.411,3.1,4.663,6.541,5.114,10.544.489,5.184-2.933,8.613-7.3,10.61" transform="translate(1510.12 -4080.247) rotate(9)" fill="#e55166"/>
    <path id="Path_1257494" data-name="Path 1257494" d="M5.071,0c1.808,3.5,1.922,6.97-.3,10.146C3.112,12.523,1.05,15.249.294,18.06c-1.333,4.965,2.034,9.581,6.6,11.334C4.079,25.265,3.856,20.726,6.8,16.732c1.907-2.452,3.688-5.173,4.045-8.34.387-4.1-2.32-6.812-5.774-8.392" transform="translate(1507.227 -4031.545) rotate(171)" fill="#e55166"/>
    <path id="Path_1257489" data-name="Path 1257489" d="M13.423,25.9c.618,5.088-2.769,8.579-7.154,10.593,2.222-4.274,2.46-8.615-.37-12.63-2-2.871-4.451-6.131-5.451-9.493C-1.406,8.135,2.724,2.262,8.536,0c-3.5,5.169-3.773,10.794-.064,15.779,2.3,2.959,4.487,6.314,4.95,10.124" transform="translate(1551.165 -4067.387) rotate(9)" fill="#e55166"/>
    <path id="Path_1257495" data-name="Path 1257495" d="M9.662,7.625C10.107,3.962,7.669,1.45,4.513,0c1.6,3.076,1.77,6.2-.266,9.092C2.806,11.158,1.043,13.5.323,15.925c-1.334,4.49,1.638,8.718,5.822,10.346C3.623,22.55,3.429,18.5,6.1,14.912c1.657-2.13,3.23-4.545,3.563-7.288" transform="translate(1547.533 -4045.695) rotate(171)" fill="#e55166"/>
    <path id="Path_1257490" data-name="Path 1257490" d="M17.862,34.112c.955,6.864-3.337,11.711-9.45,14.446,2.967-5.847,3.164-11.537-.571-16.829-2.68-3.823-6.03-8.293-7.3-12.8C-1.788,10.691,3.71,2.961,11.364,0c-4.627,6.914-5,14.3-.1,20.954,3.047,3.928,5.811,8.124,6.594,13.157" transform="translate(1567.82 -4092.537) rotate(9)" fill="#e55166"/>
    <path id="Path_1257921" data-name="Path 1257921" d="M19.673-10.225A12.577,12.577,0,0,1,18.516-4.7,8.553,8.553,0,0,1,15.227-1a9.157,9.157,0,0,1-4.856,1.3A9.286,9.286,0,0,1,5.537-.959,8.538,8.538,0,0,1,2.249-4.541,12.215,12.215,0,0,1,1.011-9.888v-1.2a12.633,12.633,0,0,1,1.15-5.53,8.532,8.532,0,0,1,3.3-3.7,9.221,9.221,0,0,1,4.885-1.3,9.131,9.131,0,0,1,4.834,1.289,8.685,8.685,0,0,1,3.3,3.669,12.27,12.27,0,0,1,1.194,5.457Zm-5.229-.894a8.969,8.969,0,0,0-1.062-4.827,3.406,3.406,0,0,0-3.04-1.648q-3.867,0-4.087,5.8L6.24-10.225A9.224,9.224,0,0,0,7.28-5.405a3.4,3.4,0,0,0,3.091,1.685,3.36,3.36,0,0,0,3-1.655,8.972,8.972,0,0,0,1.069-4.761ZM27.727,0H21.278V-1.4L24.249-4.52a3.546,3.546,0,0,0,1.1-1.987,1.382,1.382,0,0,0-.26-.908.929.929,0,0,0-.755-.311.941.941,0,0,0-.793.416,1.709,1.709,0,0,0-.3,1.038H21.087a3.035,3.035,0,0,1,.425-1.571,2.982,2.982,0,0,1,1.181-1.127,3.507,3.507,0,0,1,1.688-.406,3.45,3.45,0,0,1,2.307.692A2.47,2.47,0,0,1,27.5-6.7a2.885,2.885,0,0,1-.2,1.063,4.663,4.663,0,0,1-.632,1.085,15.91,15.91,0,0,1-1.381,1.52L24.09-1.65h3.637Z" transform="translate(1438.725 -4065.683)" fill="#12263f"/>
    <path id="Path_1257923" data-name="Path 1257923" d="M2.741-3.7V0H1.012V-9.953H4.819a3.853,3.853,0,0,1,2.649.868,2.918,2.918,0,0,1,.981,2.3,2.821,2.821,0,0,1-.96,2.276A4.04,4.04,0,0,1,4.8-3.7Zm0-1.388H4.819A2.047,2.047,0,0,0,6.228-5.52a1.6,1.6,0,0,0,.485-1.254,1.721,1.721,0,0,0-.492-1.289,1.9,1.9,0,0,0-1.354-.5H2.741ZM11.566,0H9.905V-7.4h1.661ZM9.8-9.317a.882.882,0,0,1,.243-.636.917.917,0,0,1,.694-.253.928.928,0,0,1,.7.253.875.875,0,0,1,.246.636.855.855,0,0,1-.246.625.935.935,0,0,1-.7.25.924.924,0,0,1-.694-.25A.861.861,0,0,1,9.8-9.317Zm7.444,3.438a4.111,4.111,0,0,0-.677-.055,1.524,1.524,0,0,0-1.538.875V0H13.371V-7.4h1.586L15-6.569a1.872,1.872,0,0,1,1.668-.964,1.555,1.555,0,0,1,.588.1Zm5.53,5.154A2.576,2.576,0,0,1,20.7.137a2.3,2.3,0,0,1-1.822-.7A3,3,0,0,1,18.259-2.6V-7.4H19.92v4.771q0,1.408,1.169,1.408a1.642,1.642,0,0,0,1.634-.868V-7.4h1.661V0H22.818Zm5.906-1.381L30.249-7.4h1.716L29.4,0H27.959L25.375-7.4H27.1ZM37.317,0a2.564,2.564,0,0,1-.191-.69,2.586,2.586,0,0,1-1.941.827A2.61,2.61,0,0,1,33.366-.5a2.034,2.034,0,0,1-.7-1.572,2.1,2.1,0,0,1,.878-1.815,4.257,4.257,0,0,1,2.512-.632h1.019V-5a1.3,1.3,0,0,0-.321-.919,1.274,1.274,0,0,0-.978-.345,1.463,1.463,0,0,0-.93.284.878.878,0,0,0-.362.721H32.819a1.844,1.844,0,0,1,.4-1.138,2.687,2.687,0,0,1,1.1-.831,3.854,3.854,0,0,1,1.548-.3,3.1,3.1,0,0,1,2.071.653,2.328,2.328,0,0,1,.793,1.835v3.336a3.781,3.781,0,0,0,.28,1.593V0ZM35.492-1.2a1.89,1.89,0,0,0,.926-.239,1.6,1.6,0,0,0,.653-.643V-3.473h-.9a2.449,2.449,0,0,0-1.388.321,1.041,1.041,0,0,0-.465.909.971.971,0,0,0,.318.762A1.231,1.231,0,0,0,35.492-1.2Zm7.062-8v1.8h1.306v1.23H42.554v4.129a.909.909,0,0,0,.167.612.777.777,0,0,0,.6.188,2.559,2.559,0,0,0,.581-.068V-.021a4.091,4.091,0,0,1-1.094.157q-1.914,0-1.914-2.112v-4.19H39.676V-7.4h1.217v-1.8Zm2.058,5.428a4.361,4.361,0,0,1,.431-1.958,3.145,3.145,0,0,1,1.21-1.34,3.409,3.409,0,0,1,1.791-.468,3.231,3.231,0,0,1,2.43.964,3.791,3.791,0,0,1,1.008,2.557l.007.39a4.4,4.4,0,0,1-.42,1.955,3.108,3.108,0,0,1-1.2,1.333,3.434,3.434,0,0,1-1.808.472A3.209,3.209,0,0,1,45.551-.906a3.993,3.993,0,0,1-.94-2.779Zm1.661.144a2.98,2.98,0,0,0,.472,1.788,1.533,1.533,0,0,0,1.313.646,1.517,1.517,0,0,0,1.309-.656,3.292,3.292,0,0,0,.468-1.921,2.942,2.942,0,0,0-.482-1.777A1.539,1.539,0,0,0,48.043-6.2a1.525,1.525,0,0,0-1.292.646A3.23,3.23,0,0,0,46.272-3.623Z" transform="translate(1239.548 -3988.651)" fill="#fbfbf9"/>
    <path id="Path_1257924" data-name="Path 1257924" d="M-12.266-1.655H-15.02L-15.6,0H-16.88l2.686-7.109h1.108L-10.4,0h-1.289Zm-2.407-1h2.061L-13.643-5.6ZM-8.442,0H-9.629V-7.5h1.187ZM-4.98-.85a1.073,1.073,0,0,0,.737-.259.884.884,0,0,0,.313-.64h1.118a1.743,1.743,0,0,1-.308.92A2.018,2.018,0,0,1-3.9-.151,2.328,2.328,0,0,1-4.966.1,2.253,2.253,0,0,1-6.724-.62,2.847,2.847,0,0,1-7.373-2.6v-.122a2.8,2.8,0,0,1,.645-1.931,2.232,2.232,0,0,1,1.758-.725,2.171,2.171,0,0,1,1.536.549,1.968,1.968,0,0,1,.623,1.443H-3.931a1.087,1.087,0,0,0-.31-.747,1,1,0,0,0-.74-.293,1.044,1.044,0,0,0-.889.417,2.13,2.13,0,0,0-.317,1.267v.19a2.166,2.166,0,0,0,.31,1.282A1.043,1.043,0,0,0-4.98-.85ZM-2.139-2.69a3.115,3.115,0,0,1,.308-1.4,2.247,2.247,0,0,1,.864-.957A2.435,2.435,0,0,1,.313-5.381a2.308,2.308,0,0,1,1.736.688,2.708,2.708,0,0,1,.72,1.826l0,.278a3.143,3.143,0,0,1-.3,1.4,2.22,2.22,0,0,1-.859.952A2.453,2.453,0,0,1,.322.1a2.292,2.292,0,0,1-1.79-.745,2.852,2.852,0,0,1-.671-1.985Zm1.187.1A2.129,2.129,0,0,0-.615-1.311,1.1,1.1,0,0,0,.322-.85a1.083,1.083,0,0,0,.935-.469A2.351,2.351,0,0,0,1.592-2.69a2.1,2.1,0,0,0-.344-1.27,1.1,1.1,0,0,0-.935-.469,1.089,1.089,0,0,0-.923.461A2.307,2.307,0,0,0-.952-2.588Zm5.9-2.119a1.857,1.857,0,0,1,1.47-.674q1.689,0,1.714,1.929V0H6.943V-3.408a1.043,1.043,0,0,0-.237-.774.968.968,0,0,0-.7-.227,1.143,1.143,0,0,0-1.064.635V0H3.76V-7.5H4.946ZM9.106-2.69a3.115,3.115,0,0,1,.308-1.4,2.247,2.247,0,0,1,.864-.957,2.435,2.435,0,0,1,1.279-.334,2.308,2.308,0,0,1,1.736.688,2.708,2.708,0,0,1,.72,1.826l0,.278a3.143,3.143,0,0,1-.3,1.4,2.22,2.22,0,0,1-.859.952A2.453,2.453,0,0,1,11.567.1a2.292,2.292,0,0,1-1.79-.745,2.852,2.852,0,0,1-.671-1.985Zm1.187.1a2.129,2.129,0,0,0,.337,1.277,1.1,1.1,0,0,0,.938.461,1.083,1.083,0,0,0,.935-.469,2.351,2.351,0,0,0,.334-1.372,2.1,2.1,0,0,0-.344-1.27,1.1,1.1,0,0,0-.935-.469,1.089,1.089,0,0,0-.923.461A2.307,2.307,0,0,0,10.293-2.588ZM16.284,0H15.1V-7.5h1.187Zm-33.12,10.109a7.441,7.441,0,0,1,.3-2.141,5.877,5.877,0,0,1,.889-1.812A3.529,3.529,0,0,1-14.4,5.036l.234.693a3.625,3.625,0,0,0-1.116,1.594,7.14,7.14,0,0,0-.466,2.454l0,.42a7.762,7.762,0,0,0,.417,2.639A3.89,3.89,0,0,0-14.17,14.6l-.234.659a3.535,3.535,0,0,1-1.243-1.125,5.876,5.876,0,0,1-.889-1.812A7.734,7.734,0,0,1-16.836,10.109Zm5.8,2.988a2.455,2.455,0,0,1-1.829-.71,2.577,2.577,0,0,1-.7-1.892v-.146a3.17,3.17,0,0,1,.305-1.414,2.323,2.323,0,0,1,.857-.969,2.265,2.265,0,0,1,1.23-.347,2.074,2.074,0,0,1,1.667.688,2.911,2.911,0,0,1,.588,1.948v.479h-3.452a1.587,1.587,0,0,0,.437,1.035,1.312,1.312,0,0,0,.964.381,1.607,1.607,0,0,0,1.328-.659l.64.61a2.136,2.136,0,0,1-.847.735A2.652,2.652,0,0,1-11.04,13.1Zm-.142-4.526a1,1,0,0,0-.789.342,1.772,1.772,0,0,0-.383.952h2.261V9.777a1.442,1.442,0,0,0-.317-.9A.992.992,0,0,0-11.182,8.571Zm4.668-2.139V7.717h.933V8.6h-.933v2.949a.649.649,0,0,0,.12.437.555.555,0,0,0,.427.134,1.828,1.828,0,0,0,.415-.049v.918a2.922,2.922,0,0,1-.781.112Q-7.7,13.1-7.7,11.589V8.6h-.869V7.717H-7.7V6.433Zm5,6.567a1.831,1.831,0,0,1-.137-.493,1.847,1.847,0,0,1-1.387.591,1.864,1.864,0,0,1-1.3-.454,1.453,1.453,0,0,1-.5-1.123,1.5,1.5,0,0,1,.627-1.3,3.041,3.041,0,0,1,1.794-.452h.728V9.426a.925.925,0,0,0-.229-.657.91.91,0,0,0-.7-.247,1.045,1.045,0,0,0-.664.2.627.627,0,0,0-.259.515H-4.731a1.317,1.317,0,0,1,.288-.813,1.919,1.919,0,0,1,.784-.593,2.753,2.753,0,0,1,1.106-.215,2.217,2.217,0,0,1,1.479.466A1.663,1.663,0,0,1-.508,9.4v2.383a2.7,2.7,0,0,0,.2,1.138V13Zm-1.3-.854a1.35,1.35,0,0,0,.662-.171,1.142,1.142,0,0,0,.466-.459v-1h-.64a1.749,1.749,0,0,0-.991.229.743.743,0,0,0-.332.649.693.693,0,0,0,.227.544A.879.879,0,0,0-2.822,12.146ZM1.836,7.717l.034.61a1.9,1.9,0,0,1,1.538-.708q1.65,0,1.68,1.89V13H3.9V9.577a1.088,1.088,0,0,0-.217-.745.914.914,0,0,0-.71-.242A1.143,1.143,0,0,0,1.9,9.24V13H.718V7.717ZM6.074,10.31a3.115,3.115,0,0,1,.308-1.4,2.247,2.247,0,0,1,.864-.957,2.435,2.435,0,0,1,1.279-.334,2.308,2.308,0,0,1,1.736.688,2.708,2.708,0,0,1,.72,1.826l0,.278a3.143,3.143,0,0,1-.3,1.4,2.22,2.22,0,0,1-.859.952,2.453,2.453,0,0,1-1.292.337,2.292,2.292,0,0,1-1.79-.745,2.852,2.852,0,0,1-.671-1.985Zm1.187.1A2.129,2.129,0,0,0,7.6,11.689a1.1,1.1,0,0,0,.938.461,1.083,1.083,0,0,0,.935-.469A2.351,2.351,0,0,0,9.8,10.31,2.1,2.1,0,0,0,9.46,9.04,1.16,1.16,0,0,0,7.6,9.033,2.307,2.307,0,0,0,7.261,10.412ZM13.252,13H12.065V5.5h1.187Zm3.579-2.812a7.347,7.347,0,0,1-.3,2.092,5.928,5.928,0,0,1-.9,1.836,3.537,3.537,0,0,1-1.265,1.145l-.234-.659a3.752,3.752,0,0,0,1.16-1.731,7.689,7.689,0,0,0,.427-2.659V10.1a7.8,7.8,0,0,0-.371-2.473,4.362,4.362,0,0,0-1.064-1.79L14.131,5.7l.234-.664A3.5,3.5,0,0,1,15.576,6.11a5.829,5.829,0,0,1,.9,1.726,7.19,7.19,0,0,1,.352,1.97Z" transform="translate(1359.207 -3940.743)" fill="#12263f"/>
    <path id="Path_1257925" data-name="Path 1257925" d="M-8.188-1.655h-2.754L-11.519,0H-12.8l2.686-7.109h1.108L-6.318,0H-7.607Zm-2.407-1h2.061L-9.565-5.6Zm1.4-6.362h1.353L-9.194-7.534h-.952ZM-3.457-.85a1.073,1.073,0,0,0,.737-.259.884.884,0,0,0,.313-.64h1.118a1.743,1.743,0,0,1-.308.92,2.018,2.018,0,0,1-.781.676A2.328,2.328,0,0,1-3.442.1,2.253,2.253,0,0,1-5.2-.62,2.847,2.847,0,0,1-5.85-2.6v-.122a2.8,2.8,0,0,1,.645-1.931,2.232,2.232,0,0,1,1.758-.725,2.171,2.171,0,0,1,1.536.549,1.968,1.968,0,0,1,.623,1.443H-2.407a1.087,1.087,0,0,0-.31-.747,1,1,0,0,0-.74-.293,1.044,1.044,0,0,0-.889.417,2.13,2.13,0,0,0-.317,1.267v.19a2.166,2.166,0,0,0,.31,1.282A1.043,1.043,0,0,0-3.457-.85ZM.869,0H-.317V-5.283H.869ZM-.391-6.655a.63.63,0,0,1,.173-.454.655.655,0,0,1,.5-.181.663.663,0,0,1,.5.181.625.625,0,0,1,.176.454.61.61,0,0,1-.176.447.668.668,0,0,1-.5.178.66.66,0,0,1-.5-.178A.615.615,0,0,1-.391-6.655ZM1.938-2.681A3.141,3.141,0,0,1,2.5-4.641a1.815,1.815,0,0,1,1.519-.74,1.724,1.724,0,0,1,1.357.586V-7.5H6.567V0H5.493L5.435-.547A1.749,1.749,0,0,1,4.014.1a1.8,1.8,0,0,1-1.5-.747A3.256,3.256,0,0,1,1.938-2.681Zm1.187.1a2.2,2.2,0,0,0,.31,1.257,1.006,1.006,0,0,0,.881.452,1.121,1.121,0,0,0,1.064-.649V-3.774a1.1,1.1,0,0,0-1.055-.635,1.013,1.013,0,0,0-.889.457A2.449,2.449,0,0,0,3.125-2.578ZM7.583-2.69a3.115,3.115,0,0,1,.308-1.4,2.247,2.247,0,0,1,.864-.957,2.435,2.435,0,0,1,1.279-.334,2.308,2.308,0,0,1,1.736.688,2.708,2.708,0,0,1,.72,1.826l0,.278a3.143,3.143,0,0,1-.3,1.4,2.22,2.22,0,0,1-.859.952A2.453,2.453,0,0,1,10.044.1a2.292,2.292,0,0,1-1.79-.745,2.852,2.852,0,0,1-.671-1.985Zm1.187.1a2.129,2.129,0,0,0,.337,1.277,1.1,1.1,0,0,0,.938.461,1.083,1.083,0,0,0,.935-.469,2.351,2.351,0,0,0,.334-1.372,2.1,2.1,0,0,0-.344-1.27,1.1,1.1,0,0,0-.935-.469,1.089,1.089,0,0,0-.923.461A2.307,2.307,0,0,0,8.77-2.588ZM-13.132,13h-1.187V5.5h1.187Zm4.448,0a1.831,1.831,0,0,1-.137-.493,1.847,1.847,0,0,1-1.387.591,1.864,1.864,0,0,1-1.3-.454,1.453,1.453,0,0,1-.5-1.123,1.5,1.5,0,0,1,.627-1.3,3.041,3.041,0,0,1,1.794-.452h.728V9.426a.925.925,0,0,0-.229-.657.91.91,0,0,0-.7-.247,1.045,1.045,0,0,0-.664.2.627.627,0,0,0-.259.515H-11.9a1.317,1.317,0,0,1,.288-.813,1.919,1.919,0,0,1,.784-.593,2.753,2.753,0,0,1,1.106-.215,2.217,2.217,0,0,1,1.479.466A1.663,1.663,0,0,1-7.673,9.4v2.383a2.7,2.7,0,0,0,.2,1.138V13Zm-1.3-.854a1.35,1.35,0,0,0,.662-.171,1.142,1.142,0,0,0,.466-.459v-1H-9.5a1.749,1.749,0,0,0-.991.229.743.743,0,0,0-.332.649.693.693,0,0,0,.227.544A.879.879,0,0,0-9.988,12.146ZM-9.329,5.5h1.353L-9.329,6.979h-.952Zm5.068,6.65a1.073,1.073,0,0,0,.737-.259.884.884,0,0,0,.313-.64h1.118a1.743,1.743,0,0,1-.308.92,2.018,2.018,0,0,1-.781.676,2.328,2.328,0,0,1-1.064.249A2.253,2.253,0,0,1-6,12.38,2.847,2.847,0,0,1-6.653,10.4v-.122a2.8,2.8,0,0,1,.645-1.931A2.232,2.232,0,0,1-4.25,7.619a2.171,2.171,0,0,1,1.536.549,1.968,1.968,0,0,1,.623,1.443H-3.21a1.087,1.087,0,0,0-.31-.747,1,1,0,0,0-.74-.293,1.044,1.044,0,0,0-.889.417,2.13,2.13,0,0,0-.317,1.267v.19a2.166,2.166,0,0,0,.31,1.282A1.043,1.043,0,0,0-4.26,12.15ZM.291,6.433V7.717h.933V8.6H.291v2.949a.649.649,0,0,0,.12.437.555.555,0,0,0,.427.134,1.828,1.828,0,0,0,.415-.049v.918a2.922,2.922,0,0,1-.781.112Q-.9,13.1-.9,11.589V8.6h-.869V7.717H-.9V6.433ZM3.391,13H2.2V7.717H3.391ZM2.131,6.345A.63.63,0,0,1,2.3,5.891a.655.655,0,0,1,.5-.181.663.663,0,0,1,.5.181.625.625,0,0,1,.176.454.61.61,0,0,1-.176.447.668.668,0,0,1-.5.178.66.66,0,0,1-.5-.178A.615.615,0,0,1,2.131,6.345ZM6.853,12.15a1.073,1.073,0,0,0,.737-.259.884.884,0,0,0,.313-.64H9.021a1.743,1.743,0,0,1-.308.92,2.018,2.018,0,0,1-.781.676,2.328,2.328,0,0,1-1.064.249A2.253,2.253,0,0,1,5.11,12.38,2.847,2.847,0,0,1,4.46,10.4v-.122A2.8,2.8,0,0,1,5.1,8.344a2.232,2.232,0,0,1,1.758-.725A2.171,2.171,0,0,1,8.4,8.168a1.968,1.968,0,0,1,.623,1.443H7.9a1.087,1.087,0,0,0-.31-.747,1,1,0,0,0-.74-.293,1.044,1.044,0,0,0-.889.417,2.13,2.13,0,0,0-.317,1.267v.19a2.166,2.166,0,0,0,.31,1.282A1.043,1.043,0,0,0,6.853,12.15ZM9.695,10.31A3.115,3.115,0,0,1,10,8.911a2.247,2.247,0,0,1,.864-.957,2.435,2.435,0,0,1,1.279-.334,2.308,2.308,0,0,1,1.736.688,2.708,2.708,0,0,1,.72,1.826l0,.278a3.143,3.143,0,0,1-.3,1.4,2.22,2.22,0,0,1-.859.952,2.453,2.453,0,0,1-1.292.337,2.292,2.292,0,0,1-1.79-.745,2.852,2.852,0,0,1-.671-1.985Zm1.187.1a2.129,2.129,0,0,0,.337,1.277,1.1,1.1,0,0,0,.938.461,1.083,1.083,0,0,0,.935-.469,2.351,2.351,0,0,0,.334-1.372,2.1,2.1,0,0,0-.344-1.27,1.16,1.16,0,0,0-1.858-.007A2.307,2.307,0,0,0,10.881,10.412Z" transform="translate(1451.489 -3940.211)" fill="#12263f"/>
    <path id="Path_1257922" data-name="Path 1257922" d="M8.023-1.2a3.071,3.071,0,0,1-1.39.99A5.672,5.672,0,0,1,4.615.127,3.978,3.978,0,0,1,2.558-.4,3.509,3.509,0,0,1,1.177-1.907,5.274,5.274,0,0,1,.673-4.2v-.724a4.891,4.891,0,0,1,1-3.272,3.478,3.478,0,0,1,2.8-1.177,3.69,3.69,0,0,1,2.45.762,3.283,3.283,0,0,1,1.092,2.2H6.443A1.771,1.771,0,0,0,4.507-8.081,1.9,1.9,0,0,0,2.866-7.3a3.964,3.964,0,0,0-.581,2.282v.711a3.765,3.765,0,0,0,.632,2.326,2.083,2.083,0,0,0,1.755.828,2.314,2.314,0,0,0,1.752-.559V-3.523H4.52V-4.742h3.5ZM11.28,0H9.737V-9.75H11.28Zm5.84-.673a2.392,2.392,0,0,1-1.93.8A2.132,2.132,0,0,1,13.5-.527a2.781,2.781,0,0,1-.574-1.892v-4.45h1.542v4.431q0,1.308,1.085,1.308a1.524,1.524,0,0,0,1.517-.806V-6.868h1.542V0H17.158ZM23-1.1a1.4,1.4,0,0,0,.958-.336,1.149,1.149,0,0,0,.406-.832h1.454a2.266,2.266,0,0,1-.4,1.2A2.623,2.623,0,0,1,24.407-.2a3.027,3.027,0,0,1-1.384.324,2.928,2.928,0,0,1-2.285-.933,3.7,3.7,0,0,1-.844-2.577v-.159a3.639,3.639,0,0,1,.838-2.51A2.9,2.9,0,0,1,23.017-7a2.822,2.822,0,0,1,2,.714,2.558,2.558,0,0,1,.809,1.876H24.369a1.412,1.412,0,0,0-.4-.971A1.3,1.3,0,0,0,23-5.757a1.357,1.357,0,0,0-1.155.543,2.769,2.769,0,0,0-.413,1.647v.248a2.815,2.815,0,0,0,.4,1.666A1.356,1.356,0,0,0,23-1.1ZM26.7-3.5a4.05,4.05,0,0,1,.4-1.819A2.921,2.921,0,0,1,28.222-6.56,3.166,3.166,0,0,1,29.885-7a3,3,0,0,1,2.257.9,3.52,3.52,0,0,1,.936,2.374l.006.362a4.086,4.086,0,0,1-.39,1.815A2.886,2.886,0,0,1,31.576-.311,3.189,3.189,0,0,1,29.9.127a2.979,2.979,0,0,1-2.326-.968,3.707,3.707,0,0,1-.873-2.58Zm1.542.133a2.767,2.767,0,0,0,.438,1.66,1.424,1.424,0,0,0,1.219.6,1.408,1.408,0,0,0,1.216-.609A3.057,3.057,0,0,0,31.548-3.5a2.732,2.732,0,0,0-.448-1.65,1.429,1.429,0,0,0-1.216-.609,1.416,1.416,0,0,0-1.2.6A3,3,0,0,0,28.241-3.364Zm10,1.5a.7.7,0,0,0-.34-.628,3.612,3.612,0,0,0-1.127-.381,5.792,5.792,0,0,1-1.314-.419A1.754,1.754,0,0,1,34.3-4.913,1.828,1.828,0,0,1,35.052-6.4a2.961,2.961,0,0,1,1.9-.6,3.081,3.081,0,0,1,1.99.609A1.934,1.934,0,0,1,39.7-4.805H38.162a.951.951,0,0,0-.33-.74,1.265,1.265,0,0,0-.876-.3,1.367,1.367,0,0,0-.828.235.74.74,0,0,0-.321.628.625.625,0,0,0,.3.552,4.1,4.1,0,0,0,1.206.4,5.709,5.709,0,0,1,1.425.476,2.018,2.018,0,0,1,.768.663,1.692,1.692,0,0,1,.251.939,1.789,1.789,0,0,1-.768,1.5,3.275,3.275,0,0,1-2.012.574,3.551,3.551,0,0,1-1.5-.3,2.476,2.476,0,0,1-1.028-.838,1.983,1.983,0,0,1-.368-1.149h1.5a1.087,1.087,0,0,0,.413.841,1.6,1.6,0,0,0,1.009.3,1.56,1.56,0,0,0,.927-.232A.717.717,0,0,0,38.238-1.866ZM45.2,0a2.381,2.381,0,0,1-.178-.641,2.4,2.4,0,0,1-1.8.768,2.423,2.423,0,0,1-1.688-.59,1.889,1.889,0,0,1-.654-1.46,1.95,1.95,0,0,1,.816-1.685A3.953,3.953,0,0,1,44.027-4.2h.946v-.451a1.2,1.2,0,0,0-.3-.854,1.183,1.183,0,0,0-.908-.321,1.359,1.359,0,0,0-.863.263.815.815,0,0,0-.336.67H41.025A1.712,1.712,0,0,1,41.4-5.945a2.5,2.5,0,0,1,1.019-.771A3.579,3.579,0,0,1,43.856-7a2.882,2.882,0,0,1,1.923.606,2.162,2.162,0,0,1,.736,1.7v3.1a3.511,3.511,0,0,0,.26,1.479V0ZM43.507-1.111a1.755,1.755,0,0,0,.86-.222,1.484,1.484,0,0,0,.606-.6V-3.225h-.832a2.274,2.274,0,0,0-1.289.3.966.966,0,0,0-.432.844.9.9,0,0,0,.3.708A1.143,1.143,0,0,0,43.507-1.111Z" transform="translate(1286.365 -4075.748)" fill="#fbfbf9"/>
    <g id="Group_1207689" data-name="Group 1207689" transform="matrix(0.438, 0.899, -0.899, 0.438, 1589.072, -3958.083)">
      <g id="Group_1207688" data-name="Group 1207688" transform="translate(0 0)" clip-path="url(#clip-path)">
        <path id="Path_1257496" data-name="Path 1257496" d="M12.924,6.468A6.462,6.462,0,1,1,6.456,0a6.466,6.466,0,0,1,6.468,6.468" transform="translate(17.542 90.518)" fill="#cfe0b9"/>
        <path id="Path_1257497" data-name="Path 1257497" d="M26.452,13.226A13.226,13.226,0,1,1,13.226,0,13.233,13.233,0,0,1,26.452,13.226" transform="translate(2.403 57.573)" fill="#cfe0b9"/>
        <path id="Path_1257498" data-name="Path 1257498" d="M18.272,9.136A9.136,9.136,0,1,1,9.136,0a9.135,9.135,0,0,1,9.136,9.136" transform="translate(32.945 31.473)" fill="#cfe0b9"/>
        <path id="Path_1257499" data-name="Path 1257499" d="M17.391,8.7A8.7,8.7,0,1,1,8.7,0a8.69,8.69,0,0,1,8.7,8.7" transform="translate(0 21.633)" fill="#cfe0b9"/>
        <path id="Path_1257500" data-name="Path 1257500" d="M14.811,7.4A7.406,7.406,0,1,1,7.4,0a7.4,7.4,0,0,1,7.412,7.4" transform="translate(25.747 4.317)" fill="#cfe0b9"/>
        <path id="Path_1257501" data-name="Path 1257501" d="M14.233,7.11A7.116,7.116,0,1,1,7.123,0a7.111,7.111,0,0,1,7.11,7.11" transform="translate(29.585 51.948)" fill="#cfe0b9"/>
        <path id="Path_1257502" data-name="Path 1257502" d="M10.659,5.323A5.329,5.329,0,1,1,5.336,0a5.317,5.317,0,0,1,5.323,5.323" transform="translate(10.319 0.001)" fill="#cfe0b9"/>
        <path id="Path_1257503" data-name="Path 1257503" d="M10.47,5.235A5.235,5.235,0,1,1,5.235,0,5.231,5.231,0,0,1,10.47,5.235" transform="translate(15.365 39.011)" fill="#cfe0b9"/>
      </g>
    </g>
    <g id="Group_1207690" data-name="Group 1207690" transform="translate(1251.525 -4024.755) rotate(-160)">
      <g id="Group_1207688-2" data-name="Group 1207688" transform="translate(0 0)" clip-path="url(#clip-path-2)">
        <path id="Path_1257496-2" data-name="Path 1257496" d="M8.431,4.22a4.215,4.215,0,1,0-4.22,4.22,4.218,4.218,0,0,0,4.22-4.22" transform="translate(11.444 0)" fill="#cfe0b9"/>
        <path id="Path_1257497-2" data-name="Path 1257497" d="M17.256,8.628a8.628,8.628,0,1,0-8.628,8.628,8.633,8.633,0,0,0,8.628-8.628" transform="translate(1.568 12.675)" fill="#cfe0b9"/>
        <path id="Path_1257498-2" data-name="Path 1257498" d="M11.92,5.96a5.96,5.96,0,1,0-5.96,5.96,5.959,5.959,0,0,0,5.96-5.96" transform="translate(21.492 35.037)" fill="#cfe0b9"/>
        <path id="Path_1257499-2" data-name="Path 1257499" d="M11.345,5.673a5.673,5.673,0,1,0-5.673,5.673,5.669,5.669,0,0,0,5.673-5.673" transform="translate(0 42.031)" fill="#cfe0b9"/>
        <path id="Path_1257500-2" data-name="Path 1257500" d="M9.662,4.827A4.831,4.831,0,1,0,4.827,9.654,4.826,4.826,0,0,0,9.662,4.827" transform="translate(16.796 55.018)" fill="#cfe0b9"/>
        <path id="Path_1257501-2" data-name="Path 1257501" d="M9.285,4.638A4.642,4.642,0,1,0,4.646,9.276,4.639,4.639,0,0,0,9.285,4.638" transform="translate(19.3 24.324)" fill="#cfe0b9"/>
        <path id="Path_1257502-2" data-name="Path 1257502" d="M6.953,3.473A3.477,3.477,0,1,0,3.481,6.945,3.468,3.468,0,0,0,6.953,3.473" transform="translate(6.732 60.543)" fill="#cfe0b9"/>
        <path id="Path_1257503-2" data-name="Path 1257503" d="M6.83,3.415A3.415,3.415,0,1,0,3.415,6.83,3.412,3.412,0,0,0,6.83,3.415" transform="translate(10.024 35.209)" fill="#cfe0b9"/>
      </g>
    </g>
    <g id="Group_1207692" data-name="Group 1207692" transform="translate(1517.426 -3928.465) rotate(-98)">
      <g id="Group_1207691" data-name="Group 1207691" transform="translate(0 0)" clip-path="url(#clip-path-3)">
        <path id="Path_1257504" data-name="Path 1257504" d="M12.139,6.069A6.069,6.069,0,1,1,6.069,0a6.071,6.071,0,0,1,6.069,6.069" transform="translate(1.231 21.804)" fill="#89b254"/>
        <path id="Path_1257505" data-name="Path 1257505" d="M7.1,3.552A3.549,3.549,0,1,1,3.547,0,3.553,3.553,0,0,1,7.1,3.552" transform="translate(1.683 0)" fill="#89b254"/>
        <path id="Path_1257506" data-name="Path 1257506" d="M6.146,3.073A3.073,3.073,0,1,1,3.073,0,3.073,3.073,0,0,1,6.146,3.073" transform="translate(11.043 17.265)" fill="#89b254"/>
        <path id="Path_1257507" data-name="Path 1257507" d="M4.064,2.032A2.032,2.032,0,1,1,2.032,0,2.032,2.032,0,0,1,4.064,2.032" transform="translate(0 17.429)" fill="#89b254"/>
        <path id="Path_1257508" data-name="Path 1257508" d="M4.048,2.021A2.024,2.024,0,1,1,2.027,0,2.021,2.021,0,0,1,4.048,2.021" transform="translate(7.306 10.281)" fill="#89b254"/>
      </g>
    </g>
    <g id="Group_1207693" data-name="Group 1207693" transform="matrix(0.629, -0.777, 0.777, 0.629, 1261.676, -3944.971)">
      <g id="Group_1207691-2" data-name="Group 1207691" transform="translate(0 0)" clip-path="url(#clip-path-4)">
        <path id="Path_1257504-2" data-name="Path 1257504" d="M24.374,12.187A12.187,12.187,0,1,1,12.187,0,12.19,12.19,0,0,1,24.374,12.187" transform="translate(2.472 43.781)" fill="#89b254"/>
        <path id="Path_1257505-2" data-name="Path 1257505" d="M14.255,7.133A7.127,7.127,0,1,1,7.122,0a7.134,7.134,0,0,1,7.133,7.133" transform="translate(3.38 0)" fill="#89b254"/>
        <path id="Path_1257506-2" data-name="Path 1257506" d="M12.34,6.17A6.17,6.17,0,1,1,6.17,0a6.17,6.17,0,0,1,6.17,6.17" transform="translate(22.175 34.668)" fill="#89b254"/>
        <path id="Path_1257507-2" data-name="Path 1257507" d="M8.161,4.081A4.081,4.081,0,1,1,4.081,0,4.081,4.081,0,0,1,8.161,4.081" transform="translate(0 34.996)" fill="#89b254"/>
        <path id="Path_1257508-2" data-name="Path 1257508" d="M8.128,4.059A4.064,4.064,0,1,1,4.07,0,4.057,4.057,0,0,1,8.128,4.059" transform="translate(14.67 20.643)" fill="#89b254"/>
      </g>
    </g>
    <g id="Group_1207695" data-name="Group 1207695" transform="translate(1593.725 -4107.921)">
      <g id="Group_1207694" data-name="Group 1207694" transform="translate(0 0)" clip-path="url(#clip-path-5)">
        <path id="Path_1257509" data-name="Path 1257509" d="M26.066,19.04a10.812,10.812,0,0,1-4.315,9.774,10.036,10.036,0,0,1-10.745.788C5.162,26.45,3.74,19.261,7.325,13.6c-3.248-.029-5.363-2.134-5.363-4.921a4.747,4.747,0,0,1,5.6-4.709c3.056.432,3.4,3.719,3.969,5.853,3.162-.173,6.776-1.1,9.889,1.269a11.026,11.026,0,0,1,4.642,7.948M8.776,8.7A2.172,2.172,0,1,0,6.6,10.871,2.176,2.176,0,0,0,8.776,8.7M23.749,20.088A8.015,8.015,0,1,0,15.734,28.1a8.01,8.01,0,0,0,8.015-8.015" transform="translate(16.894 33.718)" fill="#89b254"/>
        <path id="Path_1257510" data-name="Path 1257510" d="M14.368,11.612A7.17,7.17,0,1,1,7.2,4.442a7.17,7.17,0,0,1,7.17,7.17m-2.528,0A4.642,4.642,0,1,0,7.2,16.254a4.639,4.639,0,0,0,4.642-4.642" transform="translate(0.25 38.244)" fill="#89b254"/>
        <path id="Path_1257511" data-name="Path 1257511" d="M14.468,7.423A6.261,6.261,0,1,1,8.2,1.166a6.267,6.267,0,0,1,6.266,6.257m-2.537.01A3.729,3.729,0,1,0,8.2,11.161a3.732,3.732,0,0,0,3.729-3.729" transform="translate(16.748 10.035)" fill="#89b254"/>
        <path id="Path_1257512" data-name="Path 1257512" d="M11.446,7.648A5.723,5.723,0,1,1,5.728,1.92a5.714,5.714,0,0,1,5.718,5.728m-2.537.01a3.181,3.181,0,1,0-3.181,3.181A3.179,3.179,0,0,0,8.909,7.658" transform="translate(0 16.528)" fill="#89b254"/>
        <path id="Path_1257513" data-name="Path 1257513" d="M9.741,10.756a4.291,4.291,0,1,1-4.3-4.286,4.294,4.294,0,0,1,4.3,4.286M7.2,10.785a1.749,1.749,0,1,0-1.749,1.749A1.749,1.749,0,0,0,7.2,10.785" transform="translate(9.98 55.707)" fill="#89b254"/>
        <path id="Path_1257514" data-name="Path 1257514" d="M10.3,6.222A3.58,3.58,0,1,1,6.723,2.647,3.575,3.575,0,0,1,10.3,6.222" transform="translate(27.02 22.788)" fill="#89b254"/>
        <path id="Path_1257515" data-name="Path 1257515" d="M8.06,6.588A3.522,3.522,0,1,1,4.542,3.07,3.519,3.519,0,0,1,8.06,6.588" transform="translate(8.74 26.43)" fill="#89b254"/>
        <path id="Path_1257516" data-name="Path 1257516" d="M8.08,3.575A3.58,3.58,0,1,1,4.5,0,3.575,3.575,0,0,1,8.08,3.575" transform="translate(7.922 -0.005)" fill="#89b254"/>
        <path id="Path_1257517" data-name="Path 1257517" d="M18.592,12.78a8.015,8.015,0,1,1-8.015-8.015,8.01,8.01,0,0,1,8.015,8.015" transform="translate(22.052 41.025)" fill="#f2f6ec"/>
        <path id="Path_1257518" data-name="Path 1257518" d="M6.562,6.36A2.172,2.172,0,1,1,4.39,4.188,2.17,2.17,0,0,1,6.562,6.36" transform="translate(19.099 36.057)" fill="#f2f6ec"/>
        <path id="Path_1257519" data-name="Path 1257519" d="M9.576,9.347A4.642,4.642,0,1,1,4.934,4.7,4.639,4.639,0,0,1,9.576,9.347" transform="translate(2.514 40.509)" fill="#f2f6ec"/>
        <path id="Path_1257520" data-name="Path 1257520" d="M9.666,5.159A3.729,3.729,0,1,1,5.937,1.43,3.732,3.732,0,0,1,9.666,5.159" transform="translate(19.012 12.309)" fill="#f2f6ec"/>
        <path id="Path_1257521" data-name="Path 1257521" d="M6.627,5.367A3.181,3.181,0,1,1,3.446,2.186,3.179,3.179,0,0,1,6.627,5.367" transform="translate(2.282 18.818)" fill="#f2f6ec"/>
        <path id="Path_1257522" data-name="Path 1257522" d="M4.922,8.486A1.749,1.749,0,1,1,3.173,6.737,1.749,1.749,0,0,1,4.922,8.486" transform="translate(12.262 58.006)" fill="#f2f6ec"/>
      </g>
    </g>
  </g>
</svg>
