<svg xmlns="http://www.w3.org/2000/svg" xmlns:xlink="http://www.w3.org/1999/xlink" width="116" height="116" viewBox="0 0 116 116">
  <defs>
    <clipPath id="clip-path">
      <rect id="Rectangle_411062" data-name="Rectangle 411062" width="115.757" height="102.246" fill="none"/>
    </clipPath>
  </defs>
  <g id="Group_1207758" data-name="Group 1207758" transform="translate(0 0.243)">
    <rect id="Rectangle_411057" data-name="Rectangle 411057" width="116" height="116" transform="translate(0 -0.243)" fill="none"/>
    <g id="Group_1207757" data-name="Group 1207757" transform="translate(0 6.625)">
      <g id="Group_1207756" data-name="Group 1207756" clip-path="url(#clip-path)">
        <path id="Path_1257801" data-name="Path 1257801" d="M153.631,86.927c20.47,0,37.064,16.308,37.064,36.425s-16.594,36.425-37.064,36.425-37.064-16.308-37.064-36.425,16.594-36.425,37.064-36.425" transform="translate(-77.148 -57.531)" fill="#ffbc32"/>
        <path id="Path_1257802" data-name="Path 1257802" d="M20.449,0A20.449,20.449,0,1,1,0,20.449,20.449,20.449,0,0,1,20.449,0" fill="#ffbc32"/>
        <path id="Path_1257803" data-name="Path 1257803" d="M147.6,49.869c-5.367,6.235-5.286,6.131-6.947,13.838a18.062,18.062,0,0,1-.293,2.714c1.159-.7,2.528-2.336,3.628-1.192a12.871,12.871,0,0,1,1.933,2.85,41.746,41.746,0,0,1,3.333,9.105,141.962,141.962,0,0,0,6.013,16.662,22.626,22.626,0,0,0,1.269,2.5l4.847-2.818a9.845,9.845,0,0,0,3.14-2.989c1.4-1.978,3.725-5.246,5.828-6.314a3.039,3.039,0,0,1,3.147.064,39.649,39.649,0,0,1,4.092,2.873,49.3,49.3,0,0,1,3.048-8.129l3.926-8.953,2.658-6.018a4.747,4.747,0,0,1,1.4-1.875L187.547,55.4c-.223-1.4-1.113-5.958-.4-6.911a.99.99,0,0,1,.9-.151,9.633,9.633,0,0,1,2.3,1.748,24.462,24.462,0,0,1,5.318,8.741c.5,1.452.75,2.873,1.185,4.368a59.32,59.32,0,0,1,3.507-5.17c.1-.132.063-.346.229-.374a.522.522,0,0,1,.409.091,4.453,4.453,0,0,1,1.439,3.684A75.03,75.03,0,0,1,200.3,76.682a24.091,24.091,0,0,1-1.706,4.784c1.13.739.151,3.649-.259,4.717a38.23,38.23,0,0,1-6.3,10.758c-2.728,3.285-6.393,5.23-10.7,4.315-.165-.035-.571.142-.571.362l-.014,18.922a1.682,1.682,0,0,1-1.629,1.7l-15.09.03a1.8,1.8,0,0,1-1.925-1.848l-.121-14.267a11.523,11.523,0,0,1-11.726-.722,21.425,21.425,0,0,1-6.79-7.455c-.383-.694-1.408-2.8-.3-3.309a88.483,88.483,0,0,1-6.23-7.224c-.15-.2-.067-.516-.225-.69A10.3,10.3,0,0,1,135.06,84.3c-2.148-4.4-3.489-11.33-4.067-16.2-.076-.645,0-1.713.74-1.672.9.051.881,1.9.946,2.248a30.819,30.819,0,0,0,1.757,5.482c.065-.353.335-.7.313-1.1a62.2,62.2,0,0,1,.147-10.84,18.023,18.023,0,0,1,1.792-6.2,43.088,43.088,0,0,1,6.546-9.619,4.178,4.178,0,0,1,1.735-1.352c1.04.033,2.379,3.987,2.626,4.821" transform="translate(-86.68 -29.814)" fill="#a0b948"/>
        <path id="Path_1257804" data-name="Path 1257804" d="M206.412,30.821a.99.99,0,0,0-.9.151c-.711.953.18,5.508.4,6.911l1.076,6.789a4.745,4.745,0,0,0-1.4,1.875l-2.658,6.018-3.926,8.953a49.353,49.353,0,0,0-3.048,8.129,39.679,39.679,0,0,0-4.092-2.873,3.041,3.041,0,0,0-3.148-.064c-2.1,1.068-4.424,4.336-5.827,6.314a9.846,9.846,0,0,1-3.141,2.989L174.9,78.829a22.692,22.692,0,0,1-1.269-2.5,141.954,141.954,0,0,1-6.013-16.662,41.73,41.73,0,0,0-3.333-9.105,12.87,12.87,0,0,0-1.933-2.85c-1.1-1.144-2.47.49-3.628,1.192a18.1,18.1,0,0,0,.293-2.714c1.66-7.707,1.579-7.6,6.946-13.838a3.453,3.453,0,0,0,1.356-1.159,30.943,30.943,0,0,1,7.609-8.248c.993-.735,3.994-2.831,5.039-2.213.272.161.333.513.57.923a9.083,9.083,0,0,1,2.55-2.417,2.437,2.437,0,0,1,3.313.613.874.874,0,0,0,.877.062,6.871,6.871,0,0,1,.636-1.081c.916-.945,2.472,1.069,3.3,1.6a23.391,23.391,0,0,1,2.336,1.4c.977.8,1.9,1.588,2.806,2.47.049-.511.027-.9.407-1.167A1.188,1.188,0,0,1,197.954,23a21.08,21.08,0,0,1,8.457,7.82" transform="translate(-105.051 -12.302)" fill="#bccb5a"/>
        <path id="Path_1257805" data-name="Path 1257805" d="M28.442,170.741c-1.215,4.109-1.2,4.042-.338,8.057a9.416,9.416,0,0,1,.442,1.351c.4-.581.7-1.65,1.468-1.342a6.7,6.7,0,0,1,1.528.94,21.747,21.747,0,0,1,3.531,3.611,73.87,73.87,0,0,0,6.42,6.626,11.86,11.86,0,0,0,1.137.914l1.7-2.375a5.127,5.127,0,0,0,.852-2.091c.243-1.24.647-3.288,1.416-4.245a1.584,1.584,0,0,1,1.508-.643,20.679,20.679,0,0,1,2.558.489,25.72,25.72,0,0,1-.292-4.512l-.051-5.091L50.293,169a2.474,2.474,0,0,1,.266-1.191L48.6,164.818c-.406-.619-1.8-2.591-1.669-3.2a.515.515,0,0,1,.393-.263,5.015,5.015,0,0,1,1.468.337,12.742,12.742,0,0,1,4.4,3.013c.551.582.971,1.2,1.5,1.821a31,31,0,0,1,.559-3.205c.018-.083-.044-.178.029-.227a.273.273,0,0,1,.214-.044,2.32,2.32,0,0,1,1.472,1.441,39.1,39.1,0,0,1,2.252,7.7,12.566,12.566,0,0,1,.214,2.637c.695.109.852,1.7.886,2.3a19.919,19.919,0,0,1-.69,6.456,5.591,5.591,0,0,1-4.16,4.339c-.086.019-.241.189-.194.294l4.041,8.989a.876.876,0,0,1-.411,1.154L51.733,201.6a.937.937,0,0,1-1.31-.466l-3.109-6.749a6,6,0,0,1-5.723,2.166,11.162,11.162,0,0,1-4.82-2.088c-.33-.247-1.267-1.027-.85-1.507a46,46,0,0,1-4.5-2.1c-.113-.061-.142-.231-.254-.28a5.361,5.361,0,0,1-1.307-.808,29.756,29.756,0,0,1-5.4-6.823c-.174-.29-.367-.814-.006-.952.44-.169.824.713.93.865a16.015,16.015,0,0,0,2.008,2.227c-.045-.182.009-.4-.087-.59a32.413,32.413,0,0,1-2.249-5.179,9.392,9.392,0,0,1-.476-3.328,22.459,22.459,0,0,1,1.051-5.968,2.175,2.175,0,0,1,.535-1.013c.5-.207,1.983,1.384,2.278,1.727" transform="translate(-16.048 -106.793)" fill="#a0b948"/>
        <path id="Path_1257806" data-name="Path 1257806" d="M53.663,157.4a.515.515,0,0,0-.393.263c-.134.6,1.263,2.577,1.669,3.2L56.9,163.85a2.473,2.473,0,0,0-.265,1.191l.025,3.426.051,5.091a25.72,25.72,0,0,0,.292,4.512,20.649,20.649,0,0,0-2.558-.489,1.584,1.584,0,0,0-1.508.643c-.769.957-1.172,3.005-1.416,4.245a5.123,5.123,0,0,1-.852,2.091l-1.7,2.375a11.819,11.819,0,0,1-1.137-.914,73.866,73.866,0,0,1-6.42-6.626,21.748,21.748,0,0,0-3.531-3.611,6.7,6.7,0,0,0-1.528-.94c-.767-.308-1.068.761-1.468,1.342a9.415,9.415,0,0,0-.442-1.351c-.861-4.015-.877-3.948.338-8.057a1.8,1.8,0,0,0,.4-.841,16.125,16.125,0,0,1,1.849-5.544c.314-.561,1.291-2.2,1.919-2.129.163.018.268.172.468.316a4.735,4.735,0,0,1,.694-1.693,1.27,1.27,0,0,1,1.7-.418.454.454,0,0,0,.429-.158,3.6,3.6,0,0,1,.071-.65c.233-.645,1.4-.021,1.908.056a12.164,12.164,0,0,1,1.41.167c.635.171,1.243.347,1.861.573-.086-.253-.179-.432-.056-.641a.617.617,0,0,1,.534-.324,10.979,10.979,0,0,1,5.689,1.9" transform="translate(-22.392 -102.832)" fill="#bccb5a"/>
        <path id="Path_1257807" data-name="Path 1257807" d="M50.367,42.1c-2.611,2.232-2.571,2.194-3.746,5.27a7.561,7.561,0,0,1-.294,1.1c.523-.216,1.192-.8,1.573-.261a5.379,5.379,0,0,1,.617,1.3,17.429,17.429,0,0,1,.8,3.969,59.266,59.266,0,0,0,1.423,7.258,9.449,9.449,0,0,0,.365,1.111l2.179-.855a4.109,4.109,0,0,0,1.486-1.034,9.172,9.172,0,0,1,2.806-2.236,1.27,1.27,0,0,1,1.295.226A16.571,16.571,0,0,1,60.376,59.4a20.619,20.619,0,0,1,1.774-3.161l2.189-3.446,1.479-2.315a1.98,1.98,0,0,1,.7-.684L66.5,46.92c0-.593-.081-2.529.273-2.877a.413.413,0,0,1,.379-.005A4.016,4.016,0,0,1,68,44.9a10.214,10.214,0,0,1,1.64,3.945c.116.631.127,1.233.212,1.878a24.757,24.757,0,0,1,1.776-1.911c.048-.048.048-.139.118-.14a.219.219,0,0,1,.163.064,1.86,1.86,0,0,1,.36,1.612,31.357,31.357,0,0,1-1.849,6.163,10.068,10.068,0,0,1-1.008,1.866c.419.377-.169,1.515-.406,1.93a15.968,15.968,0,0,1-3.283,4.039,4.482,4.482,0,0,1-4.692,1.1c-.066-.025-.244.022-.259.113l-1.208,7.808a.7.7,0,0,1-.78.6l-6.229-.946a.751.751,0,0,1-.677-.885l.856-5.9A4.811,4.811,0,0,1,47.936,65.2a8.949,8.949,0,0,1-2.329-3.508c-.114-.311-.4-1.244.087-1.384a36.955,36.955,0,0,1-2.112-3.377c-.049-.09.005-.217-.049-.3a4.3,4.3,0,0,1-.526-1.114,23.849,23.849,0,0,1-.649-6.944c.009-.271.108-.707.412-.643.369.078.243.839.248.988a12.863,12.863,0,0,0,.377,2.374c.049-.142.183-.268.2-.435a25.965,25.965,0,0,1,.749-4.464,7.522,7.522,0,0,1,1.133-2.445,18,18,0,0,1,3.312-3.554,1.744,1.744,0,0,1,.8-.448c.427.08.728,1.8.777,2.156" transform="translate(-28.021 -26.438)" fill="#a0b948"/>
        <path id="Path_1257808" data-name="Path 1257808" d="M74.964,39.624a.414.414,0,0,0-.379.005c-.354.348-.276,2.284-.273,2.877l.013,2.87a1.98,1.98,0,0,0-.7.684l-1.479,2.315-2.189,3.446a20.59,20.59,0,0,0-1.774,3.161,16.571,16.571,0,0,0-1.506-1.446,1.27,1.27,0,0,0-1.3-.226,9.175,9.175,0,0,0-2.806,2.236,4.109,4.109,0,0,1-1.486,1.034l-2.179.855a9.449,9.449,0,0,1-.365-1.111,59.267,59.267,0,0,1-1.423-7.258,17.428,17.428,0,0,0-.8-3.969,5.391,5.391,0,0,0-.617-1.3c-.381-.542-1.05.045-1.573.261a7.561,7.561,0,0,0,.294-1.1c1.174-3.075,1.135-3.037,3.746-5.27a1.442,1.442,0,0,0,.633-.392,12.919,12.919,0,0,1,3.664-2.92c.457-.24,1.828-.915,2.22-.593.1.084.105.233.177.417a3.783,3.783,0,0,1,1.206-.835,1.017,1.017,0,0,1,1.328.463.363.363,0,0,0,.358.081,2.9,2.9,0,0,1,.331-.406c.438-.332.952.6,1.259.871a9.764,9.764,0,0,1,.875.728c.352.392.684.776,1,1.2.052-.208.068-.369.242-.456a.5.5,0,0,1,.5.016,8.8,8.8,0,0,1,2.993,3.764" transform="translate(-35.829 -22.024)" fill="#bccb5a"/>
      </g>
    </g>
  </g>
</svg>
