<svg id="Group_1207753" data-name="Group 1207753" xmlns="http://www.w3.org/2000/svg" xmlns:xlink="http://www.w3.org/1999/xlink" width="90.678" height="115.757" viewBox="0 0 90.678 115.757">
  <defs>
    <clipPath id="clip-path">
      <rect id="Rectangle_411060" data-name="Rectangle 411060" width="90.678" height="115.757" fill="none"/>
    </clipPath>
  </defs>
  <g id="Group_1207752" data-name="Group 1207752" clip-path="url(#clip-path)">
    <path id="Path_1257768" data-name="Path 1257768" d="M80.438,231.381A27.522,27.522,0,1,1,52.92,204.338a27.283,27.283,0,0,1,27.518,27.043" transform="translate(-19.025 -153.036)" fill="#ffbc32"/>
    <path id="Path_1257769" data-name="Path 1257769" d="M270.6,132.593a15.182,15.182,0,1,1-15.182-15.182A15.182,15.182,0,0,1,270.6,132.593" transform="translate(-179.922 -87.933)" fill="#ffbc32"/>
    <path id="Path_1257770" data-name="Path 1257770" d="M38.776,48.52c-.54.147-1.049.449-1.647.564l-.314-1.858a16.1,16.1,0,0,0-2.553-2.645,14.353,14.353,0,0,0,.215,2.4l1.89,2.414c-.564.229-1.106.526-1.719.723L31.558,45.9a15,15,0,0,0-7.74-.13l-3.457.663a8.929,8.929,0,0,1-5.256-.443,4.317,4.317,0,0,1-2.141-2.115,2.087,2.087,0,0,1,.354-2.3,3.246,3.246,0,0,1,1.747-.97c.585-.135,1.832-.407,1.969-1.071a1.143,1.143,0,0,0-.526-1.133c-.935-.656-2.953-.646-4.1-.576l-2.4.146a14.182,14.182,0,0,1-2.46-.127c-1.638-.183-3.257-.843-3.716-2.567a3.206,3.206,0,0,1,1.553-3.322,4.929,4.929,0,0,1,1.146-.5l2.686-.908a8.9,8.9,0,0,0,3.349-1.769,1.2,1.2,0,0,0,.091-1.566,2.906,2.906,0,0,0-1.332-1.013l-1.889-.761c-2.565-1.034-12-7.65-8.771-11.422a4.943,4.943,0,0,1,4.62-1.446,12.168,12.168,0,0,1,6.638,3.016A17.117,17.117,0,0,1,14.569,18.6c.923,1.3,3.349,4.712,4.94,4.949a9.69,9.69,0,0,1-2.169-4.776A6.067,6.067,0,0,1,18.8,14.02a2.187,2.187,0,0,1,1.322-.737,2.082,2.082,0,0,1,2.094-2.037,6.043,6.043,0,0,1,4.73,2.349,10.915,10.915,0,0,1,1.982,7.23c2.18-.025.8-6.169.525-7.472a17.292,17.292,0,0,1-.426-3.893,12.242,12.242,0,0,1,2.2-6.922A5.118,5.118,0,0,1,35.243,0c5.294-.2,3.694,11.628,2.7,14.223l-.691,1.812a3,3,0,0,0-.187,1.71,1.209,1.209,0,0,0,1.245,1.018,9.153,9.153,0,0,0,3.6-1.291l2.357-1.289a5.327,5.327,0,0,1,1.219-.54,3.263,3.263,0,0,1,3.421.99c1.008,1.424.522,3.08-.423,4.41a15.059,15.059,0,0,1-1.807,2.179l-1.862,1.793a7.706,7.706,0,0,0-2.1,3.035A1.208,1.208,0,0,0,43.1,29.3a.944.944,0,0,0,.9.041c1.184-.445,1.722-1.362,3.178-1.349a2.09,2.09,0,0,1,1.942,1.315,4.347,4.347,0,0,1,.122,2.9,8.892,8.892,0,0,1-3.353,4.319l-2.895,2.138a14.7,14.7,0,0,0-5,5.672Z" transform="translate(0 0)" fill="#4e9d24"/>
    <path id="Path_1257771" data-name="Path 1257771" d="M102.024,191.843c.612-.2,1.155-.493,1.719-.723l.762-.31c.6-.115,1.107-.418,1.647-.564a28.768,28.768,0,0,1,3.954-.85,18.123,18.123,0,0,1,4.7-.014A14.834,14.834,0,0,1,123.771,194a19.626,19.626,0,0,1,4.138,6.861,14.316,14.316,0,0,1,.188,8.931,28.336,28.336,0,0,1-4.158,7.94l-1.884,2.764c-1.249,1.833-2.078,3.719-1.5,5.934l.322,1.245a8.092,8.092,0,0,1-.953,5.758c-.68,1.4-.838,2.8.251,4.023.794.887,2.139,1.633,2.587,2.319.774,1.184,1.442,3.362,1,4.718a.508.508,0,0,1-.468.37.488.488,0,0,1-.453-.354,33.706,33.706,0,0,0-1.006-3.569,4.919,4.919,0,0,0-2.052-2.3l-1.671-.962a2.853,2.853,0,0,1-1.4-1.967c-.488-2.258.919-2.191.332-4.484-.96-3.751-4.484-4.781-7.955-4.978a18.229,18.229,0,0,1-4.321-.747,22.5,22.5,0,0,1-11.169-7.693,16.609,16.609,0,0,1-3.625-9.989,14.014,14.014,0,0,1,2.574-8.569,19.126,19.126,0,0,1,3.94-4.054,35.172,35.172,0,0,1,5.54-3.359" transform="translate(-67.376 -141.726)" fill="#79418a"/>
    <path id="Path_1257772" data-name="Path 1257772" d="M191.482,204.009c.05,0,.1,0,.151.005s.117.008.176.014l.105.011.046.006c.146.014-.149-.026-.043-.006a10.224,10.224,0,0,1,1.47.359q.224.076.443.164l.138.057c-.126-.053-.017-.007.014.007.088.04.176.079.264.121a9.927,9.927,0,0,1,1.113.624,10.476,10.476,0,0,1,2.173,1.9,14.876,14.876,0,0,1,2.35,3.751.632.632,0,0,0,.859.225.642.642,0,0,0,.225-.859c-1.6-3.535-4.569-6.885-8.581-7.536a5.462,5.462,0,0,0-.9-.095.628.628,0,0,0,0,1.255" transform="translate(-142.954 -151.85)" fill="#fff"/>
    <path id="Path_1257773" data-name="Path 1257773" d="M133.651,310.233a.645.645,0,0,0-.123.022c.14-.067.172-.019.095-.013l-.087.009q-.093.008-.187.012a4.292,4.292,0,0,1-.533-.014l-.126-.013c-.107-.009.128.024-.056-.008-.113-.02-.225-.04-.336-.066a5.251,5.251,0,0,1-.745-.234c-.069-.028-.075-.03-.02-.008l-.115-.052c-.069-.032-.137-.065-.2-.1q-.23-.118-.449-.256a7.129,7.129,0,0,1-1.737-1.621.631.631,0,0,0-.887,0,.643.643,0,0,0,0,.888,7.083,7.083,0,0,0,3.823,2.593,4.6,4.6,0,0,0,2.021.072.628.628,0,0,0-.334-1.21" transform="translate(-95.836 -230.454)" fill="#fff"/>
    <path id="Path_1257774" data-name="Path 1257774" d="M276.21,148.347a73.421,73.421,0,0,1,8.151-18.518.31.31,0,0,0-.115-.47.322.322,0,0,0-.457.137,75.6,75.6,0,0,0-8.194,18.518l-.691-6.491a96.748,96.748,0,0,1-.282-10.9c.1-1.975.383-5.137,1.871-6.542a2.151,2.151,0,0,1,2.109-.523,3.336,3.336,0,0,1,2.134,1.882,5.523,5.523,0,0,1,.481,1.737l.168,1.642a20.9,20.9,0,0,1,6.168-7.26,4.539,4.539,0,0,1,1.826-.82,1.939,1.939,0,0,1,2.334,1.59,4.974,4.974,0,0,1-.132,2.318,30.131,30.131,0,0,1-6.489,11.607,13.09,13.09,0,0,1,1.642-.668,2.521,2.521,0,0,1,1.986.259,1.544,1.544,0,0,1,.653,1.851,8.273,8.273,0,0,1-3.247,3.492l-2.464,1.557c-1.357.858-2.56,1.854-3.836,2.831Z" transform="translate(-205.636 -90.397)" fill="#e76131"/>
    <path id="Path_1257775" data-name="Path 1257775" d="M269.623,174.041c-.426,1.516-.833,2.98-1.134,4.473-.119.591-.28,1.127-.363,1.731a4.068,4.068,0,0,0,1.714.142.338.338,0,0,1,.4.262.344.344,0,0,1-.329.4,4.962,4.962,0,0,1-4.086-1.4c-.128-.127,0-.347.084-.415a.332.332,0,0,1,.43,0,4.218,4.218,0,0,0,1.119.759,14.743,14.743,0,0,0,.338-1.677l1.207-4.615a75.6,75.6,0,0,1,8.194-18.518.322.322,0,0,1,.457-.137.31.31,0,0,1,.115.47,73.421,73.421,0,0,0-8.151,18.518" transform="translate(-199.049 -116.091)" fill="#481719"/>
    <path id="Path_1257776" data-name="Path 1257776" d="M226.852,246.972a14.745,14.745,0,0,1-.338,1.677,4.211,4.211,0,0,1-1.119-.759.332.332,0,0,0-.43,0c-.088.069-.212.288-.084.415a4.961,4.961,0,0,0,4.086,1.4.344.344,0,0,0,.329-.4.338.338,0,0,0-.4-.262,4.061,4.061,0,0,1-1.714-.142c.082-.6.243-1.14.363-1.731a9.685,9.685,0,0,1,4.3,2.886c3.717,4.367.979,10.566-.868,15.111l-1.5,3.688-10.286,29.1a5.5,5.5,0,0,1-.9,1.653,2.371,2.371,0,0,1-2.779.719,4.9,4.9,0,0,1-2.13-1.661,13,13,0,0,1-2.265-7.634,36.985,36.985,0,0,1,.167-4.409l2.2-23.674a40.231,40.231,0,0,1,1.4-8.048,17.64,17.64,0,0,1,1.762-3.966,9.121,9.121,0,0,1,10.2-3.954m-8.987,7.532a10.659,10.659,0,0,1,3.843-5.524c.139-.1.083-.335.031-.431s-.221-.23-.349-.137a11.221,11.221,0,0,0-4.166,5.951.3.3,0,0,0,.249.355.3.3,0,0,0,.391-.214m15.039.393a3.635,3.635,0,0,0-1.216-3.227.331.331,0,1,0-.442.491,3,3,0,0,1,1,2.715.313.313,0,0,0,.328.362c.169,0,.3-.113.327-.341m-17.5,2.582a52.932,52.932,0,0,0,14.5,3.218c.174.013.236-.274.211-.377a.34.34,0,0,0-.3-.29,52.975,52.975,0,0,1-14.367-3.241c-.2-.076-.332.168-.341.29a.369.369,0,0,0,.292.4m-.869,7.449A43.211,43.211,0,0,0,227,267.94c.18.016.244-.256.222-.362a.357.357,0,0,0-.3-.308,43.25,43.25,0,0,1-12.31-3.022c-.2-.08-.326.2-.322.323a.349.349,0,0,0,.242.355m3.456,3.262c-1.279-.356-2.486-.73-3.7-1.2a.331.331,0,0,0-.459.2.342.342,0,0,0,.234.43,35.03,35.03,0,0,0,3.757,1.207.311.311,0,0,0,.341-.231.3.3,0,0,0-.177-.4m-4.426,5.748a26.776,26.776,0,0,0,10.939,2.822c.206.008.279-.243.263-.364a.339.339,0,0,0-.357-.305,26.117,26.117,0,0,1-10.421-2.68.349.349,0,0,0-.45.091c-.062.086-.165.341.027.437m8.631,7.57a17.89,17.89,0,0,1-9.477-3.112c-.183-.124-.369.073-.413.2a.343.343,0,0,0,.152.426,18.454,18.454,0,0,0,9.893,3.157c.218.005.282-.28.248-.411-.045-.178-.165-.251-.4-.258m-3.362,6.469c.2,0,.248-.268.234-.374a.313.313,0,0,0-.294-.284A10.135,10.135,0,0,1,213.9,286a.345.345,0,0,0-.481.045c-.09.113-.146.363.029.465a10.716,10.716,0,0,0,5.378,1.464m-1.242,10.568a3.453,3.453,0,0,0,.848-1.422l1.981-5.825c.066-.194-.172-.326-.289-.338a.337.337,0,0,0-.38.258L217.8,296.95c-.309.908-1.014,1.772-2.088,1.462-.188-.054-.3.205-.3.338.018.524,1.305.633,2.178-.206" transform="translate(-158.1 -184.739)" fill="#e76131"/>
    <path id="Path_1257777" data-name="Path 1257777" d="M227.358,287.621a.369.369,0,0,1-.292-.4c.008-.122.139-.366.341-.29a52.966,52.966,0,0,0,14.367,3.242.34.34,0,0,1,.3.29c.024.1-.037.39-.211.377a52.938,52.938,0,0,1-14.5-3.218" transform="translate(-170.057 -214.882)" fill="#481719"/>
    <path id="Path_1257778" data-name="Path 1257778" d="M224.049,317.327a.349.349,0,0,1-.242-.355c0-.126.124-.4.322-.323a43.254,43.254,0,0,0,12.31,3.022.356.356,0,0,1,.3.308c.022.106-.042.378-.222.362a43.215,43.215,0,0,1-12.473-3.014" transform="translate(-167.618 -237.14)" fill="#481719"/>
    <path id="Path_1257779" data-name="Path 1257779" d="M220.577,353.573c-.192-.1-.09-.351-.027-.437a.349.349,0,0,1,.451-.091,26.111,26.111,0,0,0,10.421,2.68.34.34,0,0,1,.358.305c.016.122-.057.373-.263.364a26.782,26.782,0,0,1-10.939-2.822" transform="translate(-165.115 -264.375)" fill="#481719"/>
    <path id="Path_1257780" data-name="Path 1257780" d="M225.714,376.029c.238.008.358.08.4.258.034.132-.031.416-.248.411a18.452,18.452,0,0,1-9.893-3.157.342.342,0,0,1-.152-.426c.044-.125.23-.322.413-.2a17.888,17.888,0,0,0,9.477,3.112" transform="translate(-161.621 -279.262)" fill="#481719"/>
    <path id="Path_1257781" data-name="Path 1257781" d="M230.452,430.657c-.873.839-2.16.73-2.178.206,0-.133.11-.392.3-.338,1.074.31,1.779-.554,2.088-1.462l1.951-5.734a.337.337,0,0,1,.38-.258c.117.012.355.144.289.338l-1.981,5.825a3.453,3.453,0,0,1-.848,1.422" transform="translate(-170.962 -316.852)" fill="#481719"/>
    <path id="Path_1257782" data-name="Path 1257782" d="M236.1,259.611a.3.3,0,0,1-.391.214.3.3,0,0,1-.25-.355,11.223,11.223,0,0,1,4.166-5.951c.128-.094.3.053.349.137s.107.327-.032.431a10.659,10.659,0,0,0-3.843,5.524" transform="translate(-176.339 -189.847)" fill="#fff"/>
    <path id="Path_1257783" data-name="Path 1257783" d="M225.51,405.086a10.717,10.717,0,0,1-5.378-1.464c-.176-.1-.119-.353-.029-.465a.345.345,0,0,1,.481-.045,10.135,10.135,0,0,0,4.867,1.316.313.313,0,0,1,.294.284c.014.106-.036.375-.235.374" transform="translate(-164.779 -301.85)" fill="#481719"/>
    <path id="Path_1257784" data-name="Path 1257784" d="M226.088,328.724a.3.3,0,0,1,.177.4.311.311,0,0,1-.341.231,34.99,34.99,0,0,1-3.757-1.208.342.342,0,0,1-.234-.43.332.332,0,0,1,.46-.2c1.209.468,2.416.842,3.695,1.2" transform="translate(-166.2 -245.274)" fill="#481719"/>
    <path id="Path_1257785" data-name="Path 1257785" d="M292.631,269.52a.335.335,0,0,1-.327.341.313.313,0,0,1-.328-.362,3,3,0,0,0-1-2.715.331.331,0,1,1,.442-.491,3.635,3.635,0,0,1,1.216,3.227" transform="translate(-217.827 -199.363)" fill="#fff"/>
    <path id="Path_1257786" data-name="Path 1257786" d="M86.888,320.994c-.141.15-.243.343-.408.495l-.457-.523a5.953,5.953,0,0,0-1.311-.338,5.273,5.273,0,0,0,.53.712l1.058.393c-.133.181-.246.378-.4.558l-1.782-.727a5.525,5.525,0,0,0-2.455,1.451l-.957.874a3.289,3.289,0,0,1-1.736.874,1.592,1.592,0,0,1-1.08-.251.769.769,0,0,1-.331-.789,1.194,1.194,0,0,1,.362-.641c.158-.155.5-.481.412-.716a.421.421,0,0,0-.384-.254,2.862,2.862,0,0,0-1.4.609l-.726.509a5.235,5.235,0,0,1-.8.434,1.426,1.426,0,0,1-1.662-.089,1.181,1.181,0,0,1-.153-1.342,1.809,1.809,0,0,1,.263-.379l.668-.8a3.276,3.276,0,0,0,.71-1.2.441.441,0,0,0-.273-.509,1.072,1.072,0,0,0-.613-.061l-.74.125c-1,.17-5.242-.089-4.955-1.9a1.821,1.821,0,0,1,1.172-1.344,4.483,4.483,0,0,1,2.666-.333,6.312,6.312,0,0,1,1.411.436c.541.231,1.96.834,2.5.6a3.571,3.571,0,0,1-1.6-1.081,2.234,2.234,0,0,1-.46-1.774.807.807,0,0,1,.273-.486.767.767,0,0,1,.265-1.043,2.227,2.227,0,0,1,1.938-.174,4.02,4.02,0,0,1,2.016,1.888c.68-.428-.937-2.092-1.275-2.447a6.377,6.377,0,0,1-.884-1.14,4.512,4.512,0,0,1-.642-2.6,1.886,1.886,0,0,1,.772-1.57c1.623-1.083,3.4,2.938,3.59,3.944l.132.7a1.1,1.1,0,0,0,.271.573.445.445,0,0,0,.587.08,3.369,3.369,0,0,0,.88-1.1l.491-.859a1.954,1.954,0,0,1,.279-.4,1.2,1.2,0,0,1,1.265-.349,1.369,1.369,0,0,1,.717,1.466,5.538,5.538,0,0,1-.147,1.033l-.239.922a2.84,2.84,0,0,0-.075,1.358.445.445,0,0,0,.364.318.348.348,0,0,0,.29-.16c.286-.368.278-.759.738-1.036a.769.769,0,0,1,.863.038,1.6,1.6,0,0,1,.6.886,3.274,3.274,0,0,1-.22,2l-.5,1.229a5.412,5.412,0,0,0-.476,2.744Z" transform="translate(-51.122 -229.369)" fill="#4e9d24"/>
    <path id="Path_1257787" data-name="Path 1257787" d="M133.874,359.031c.154-.18.267-.377.4-.558l.18-.244c.166-.152.267-.345.408-.495a10.608,10.608,0,0,1,1.078-1.029,6.672,6.672,0,0,1,1.471-.909,5.466,5.466,0,0,1,3.706-.278,7.228,7.228,0,0,1,2.622,1.356,5.275,5.275,0,0,1,1.781,2.767,10.446,10.446,0,0,1,.225,3.294l-.059,1.231a2.6,2.6,0,0,0,.671,2.153l.341.329a2.981,2.981,0,0,1,.811,1.991,1.245,1.245,0,0,0,.854,1.214c.42.126.986.1,1.259.229a2.423,2.423,0,0,1,1.224,1.288.187.187,0,0,1-.076.206.18.18,0,0,1-.211-.024,12.306,12.306,0,0,0-1-.927,1.81,1.81,0,0,0-1.087-.326l-.71.02a1.051,1.051,0,0,1-.82-.347c-.588-.615-.134-.865-.76-1.472-1.025-.992-2.329-.636-3.457-.029a6.715,6.715,0,0,1-1.5.6,8.289,8.289,0,0,1-4.989-.262,6.119,6.119,0,0,1-3.063-2.437,5.161,5.161,0,0,1-.844-3.186,7.037,7.037,0,0,1,.455-2.032,12.953,12.953,0,0,1,1.092-2.122" transform="translate(-99.097 -266.11)" fill="#79418a"/>
    <path id="Path_1257788" data-name="Path 1257788" d="M155.414,358.83c.025-.016.051-.029.077-.042s.057-.027.086-.041c.1-.052-.182.067,0,0a3.445,3.445,0,0,1,.348-.108c.075-.019.151-.035.227-.048.045-.008.191-.049.007,0a.824.824,0,0,1,.124-.013,3.7,3.7,0,0,1,.578-.005c.06,0,.119.01.179.016.137.014-.105-.023.046.008.112.023.225.042.336.071a4.256,4.256,0,0,1,.7.242,6.4,6.4,0,0,1,.872.5.628.628,0,0,0,.634-1.084,5.309,5.309,0,0,0-3.349-1,3.467,3.467,0,0,0-1.5.427.628.628,0,0,0,.634,1.084" transform="translate(-115.69 -267.598)" fill="#fff"/>
    <path id="Path_1257789" data-name="Path 1257789" d="M157.282,403.1c-.017.017-.037.031-.055.047s.167-.123.087-.068l-.035.025c-.033.022-.066.043-.1.062s-.08.043-.12.062l-.032.015c-.051.025.176-.069.091-.038l-.073.027a2,2,0,0,1-.394.093l.167-.023a2.356,2.356,0,0,1-.595,0l.167.023a3.116,3.116,0,0,1-.622-.159.632.632,0,0,0-.772.439.644.644,0,0,0,.438.772,2.973,2.973,0,0,0,1.916.08,2.147,2.147,0,0,0,.82-.464.628.628,0,0,0-.888-.888" transform="translate(-116.068 -301.76)" fill="#fff"/>
  </g>
</svg>
