<svg xmlns="http://www.w3.org/2000/svg" xmlns:xlink="http://www.w3.org/1999/xlink" width="116" height="116" viewBox="0 0 116 116">
  <defs>
    <clipPath id="clip-path">
      <rect id="Rectangle_411053" data-name="Rectangle 411053" width="111.97" height="108.622" fill="none"/>
    </clipPath>
  </defs>
  <g id="Group_1207762" data-name="Group 1207762" transform="translate(0.104 0.243)">
    <g id="Group_1207749" data-name="Group 1207749" transform="translate(1.743 3.487)">
      <g id="Group_1207748" data-name="Group 1207748">
        <g id="Group_1207747" data-name="Group 1207747" clip-path="url(#clip-path)">
          <path id="Path_1257726" data-name="Path 1257726" d="M153.116,86.926c20.185,0,36.549,16.081,36.549,35.919s-16.364,35.919-36.549,35.919-36.549-16.081-36.549-35.919,16.364-35.919,36.549-35.919" transform="translate(-77.696 -57.939)" fill="#ffbc32"/>
          <path id="Path_1257727" data-name="Path 1257727" d="M20.165,0A20.165,20.165,0,1,1,0,20.164,20.165,20.165,0,0,1,20.165,0" transform="translate(0 0.001)" fill="#ffbc32"/>
          <path id="Path_1257728" data-name="Path 1257728" d="M127.784,202.525c.167-.136.252-.218.349-.283a20.388,20.388,0,0,0,5.932-6.228,4.594,4.594,0,0,0,.564-1.14.545.545,0,0,0-.114-.59.528.528,0,0,0-.673.057c-.217.166-.414.357-.615.543-.6.556-1.195,1.127-1.81,1.67a21.689,21.689,0,0,1-3.642,2.579c-1.135.647-2.3,1.248-3.441,1.879a.581.581,0,0,1-.595.015,15.077,15.077,0,0,1-3.076-1.943,39.59,39.59,0,0,1-5.481-5.333c-.564-.683-.557-.716.309-.957.936-.262,1.878-.5,2.817-.754,1.351-.363,2.68-.793,4-1.26a13.55,13.55,0,0,0,5.308-3.271c.275-.283.576-.541.863-.812a.692.692,0,0,0,.254-.733.894.894,0,0,0-.719-.627,1.484,1.484,0,0,0-.542.014,7.462,7.462,0,0,0-1.488.423c-1.406.576-2.822,1.127-4.224,1.711a23.226,23.226,0,0,1-5.048,1.528,27.015,27.015,0,0,1-4.272.282.66.66,0,0,1-.631-.433c-.507-.969-1.017-1.937-1.5-2.92a51.293,51.293,0,0,1-3.4-9.412c-.023-.088-.054-.175-.069-.264-.031-.187.063-.278.244-.292.091-.007.182-.015.273-.018,1.671-.058,3.342-.128,5.014-.168a23.115,23.115,0,0,0,3.529-.409,4.64,4.64,0,0,0,.947-.319,1.755,1.755,0,0,0,.763-.632.74.74,0,0,0-.137-1.054,2.741,2.741,0,0,0-.963-.5,20.929,20.929,0,0,0-2.822-.727c-1.344-.253-2.7-.453-4.036-.731-1.278-.265-2.541-.6-3.812-.905a.415.415,0,0,1-.354-.36c-.085-.509-.19-1.016-.249-1.528q-.321-2.807-.613-5.617c-.11-1.058-.193-2.119-.291-3.178a10.1,10.1,0,0,1-.061-1.8c.215-.118.372.015.534.073a25.842,25.842,0,0,0,2.609.813,6.336,6.336,0,0,0,1.443.186.424.424,0,0,0,.386-.69,3.926,3.926,0,0,0-.506-.641,19.9,19.9,0,0,0-2.056-1.8c-.712-.57-1.427-1.137-2.157-1.684a1.061,1.061,0,0,1-.474-.912,51.1,51.1,0,0,1,.129-5.923,35.1,35.1,0,0,0,.037-3.83,2.4,2.4,0,0,1,.236-1.5c.109-.162-.068-.461.152-.581.285-.155.521.08.752.2a3.751,3.751,0,0,1,.962.686,8.751,8.751,0,0,0,3.327,2.007c1.31.488,2.6,1.015,3.911,1.511a.886.886,0,0,1,.512.482c.432.905.871,1.807,1.295,2.716.346.744.662,1.5,1.013,2.243a9.11,9.11,0,0,0,.587,1.028,2.1,2.1,0,0,0,.426.469.493.493,0,0,0,.719-.123,1.19,1.19,0,0,0,.2-.6,7.433,7.433,0,0,0-.1-2.45,25.571,25.571,0,0,0-.749-2.723c-.114-.352-.027-.437.353-.336.587.155,1.166.345,1.757.484a6.587,6.587,0,0,0,1.716.205,10.127,10.127,0,0,1,2.972.37,7.7,7.7,0,0,0,2.531.217,3.739,3.739,0,0,0,.455-.035c.408-.078.6.131.759.477a12.989,12.989,0,0,1,.882,2.679c.375,1.753.714,3.513,1.087,5.266.214,1.01.466,2.012.7,3.018a2.192,2.192,0,0,0,.461.98.571.571,0,0,0,.988-.037,2.291,2.291,0,0,0,.381-1.017,11.425,11.425,0,0,0,.148-2.362,30.709,30.709,0,0,0-1.531-7.851c-.085-.255-.159-.515-.227-.736.1-.237.272-.177.41-.176a12.71,12.71,0,0,1,4.7.966c1.042.417,2.122.738,3.189,1.092a16.856,16.856,0,0,1,3.82,2.1.666.666,0,0,1,.276.629c.012.943.055,1.885.054,2.828q0,2.874-.043,5.748a38.4,38.4,0,0,1-.45,3.893c-.056.482-.084.968-.1,1.453a1.574,1.574,0,0,0,.074.538.653.653,0,0,0,.96.377,1.579,1.579,0,0,0,.579-.568,8,8,0,0,0,.959-1.858,30.484,30.484,0,0,0,1.454-5.733,25.635,25.635,0,0,0,.381-4.172.229.229,0,0,1,.058-.155.179.179,0,0,1,.246.016,25.191,25.191,0,0,1,2.059,1.935A26.939,26.939,0,0,1,155.1,165.7a14.111,14.111,0,0,1,1.16,6.223,16.13,16.13,0,0,1-.334,2.437,32.262,32.262,0,0,1-.751,3.469,15.918,15.918,0,0,1-2.682,4.838,8.721,8.721,0,0,1-4.867,3.18,7.325,7.325,0,0,1-4.053-.019c-.173-.053-.352-.088-.53-.126-.02,0-.047.026-.118.068a4.26,4.26,0,0,0,.228,1.2c.12.625.3,1.239.425,1.863a5.388,5.388,0,0,1,.051,1.725,12.836,12.836,0,0,1-1.251,4.359c-.411.813-.821,1.628-1.221,2.447a10.744,10.744,0,0,1-4.282,4.486,5.734,5.734,0,0,1-2.135.765,23.99,23.99,0,0,1-5.724.223,2.59,2.59,0,0,1-1.229-.314" transform="translate(-69.338 -94.301)" fill="#2a9e6b"/>
          <path id="Path_1257729" data-name="Path 1257729" d="M113.987,175.017a47,47,0,0,0,6.4,1.448,19,19,0,0,0,4.087.278c.089-.005.2-.015.212-.121a.325.325,0,0,0-.085-.229c-2.188-2.21-3.968-4.764-6.005-7.1a12.459,12.459,0,0,1-1.191-1.723q-1.426-2.333-2.871-4.655a16.792,16.792,0,0,1-.945-1.767c-.489-1.045-.985-2.087-1.475-3.133a2.765,2.765,0,0,1-.121-.339.185.185,0,0,1,.116-.22c.069-.035.176-.081.246.017a4.132,4.132,0,0,1,.3.45c.417.776.843,1.548,1.233,2.337a19.677,19.677,0,0,0,1.487,2.505q1.04,1.5,2.011,3.041a27.276,27.276,0,0,0,2.376,3.228c1.129,1.315,2.235,2.648,3.347,3.978a33.437,33.437,0,0,0,3.422,3.536c.772.687,1.538,1.381,2.313,2.065.33.291.421.256.495-.2.082-.51.139-1.024.2-1.537a74.9,74.9,0,0,0,.641-11.372c-.017-.576-.085-1.151-.129-1.726l.3.011a12.351,12.351,0,0,1,.675,4.115,40.8,40.8,0,0,1-.977,10.125,6.22,6.22,0,0,1-.269.963.486.486,0,0,0,.18.629c.581.488,1.149.992,1.735,1.474a34.009,34.009,0,0,1,2.639,2.376,24.053,24.053,0,0,0,3.789,2.976c.8.54,1.621,1.056,2.385,1.553.272-.051.261-.226.3-.362a36.7,36.7,0,0,0,1.046-5.91,55.584,55.584,0,0,0,.086-8.009c-.07-1.608-.172-3.214-.269-4.82-.033-.545-.1-1.088-.144-1.632h.306a45.742,45.742,0,0,1,1.137,10.587,30.436,30.436,0,0,1-1.649,10.03c-.182.54-.189.548.29.877.7.481,1.411.952,2.121,1.42a46.346,46.346,0,0,1,3.851,2.918c.165.135.324.276.493.406.367.283.408.276.606-.11a12.469,12.469,0,0,0,.844-2.211q.915-3.151,1.819-6.305c.422-1.46.856-2.915,1.168-4.4q.309-1.474.491-2.967c.025-.21.065-.419.124-.793a5.339,5.339,0,0,1,.144,1.6,26.445,26.445,0,0,1-.891,6.124c-.527,2.093-1.136,4.163-1.8,6.217a11.584,11.584,0,0,1-1.5,3.113c-.085.122-.149.259-.234.409.841.856,1.661,1.711,2.5,2.543,1.233,1.217,2.491,2.409,3.724,3.625a14.048,14.048,0,0,1,3.695,5.779,7.256,7.256,0,0,0,.671,1.59,2.662,2.662,0,0,1,.162.325.32.32,0,0,1-.034.343c-.093.117-.207.089-.325.044a1.831,1.831,0,0,1-.9-.743c-.333-.509-.682-1.007-1.02-1.512a11.683,11.683,0,0,0-1.652-1.939q-2.506-2.394-5.006-4.794-.754-.726-1.471-1.492c-1.227-1.314-2.61-2.46-3.943-3.659a.707.707,0,0,0-.2-.075,19.514,19.514,0,0,1-3.869,4.41,13.135,13.135,0,0,1-4.837,2.846,2.79,2.79,0,0,1-1.094.226,3.457,3.457,0,0,1,.363-.235,18.268,18.268,0,0,0,5.534-4.105,25.123,25.123,0,0,0,2.754-3.28c.468-.693.439-.633-.168-1.169-2.28-2.015-4.672-3.89-7.087-5.737-.337-.258-.386-.268-.627-.066a18.174,18.174,0,0,1-5.506,2.974,29.188,29.188,0,0,1-5.034,1.256,29.793,29.793,0,0,1-3.618.447,13.889,13.889,0,0,1-3.627-.266,1.742,1.742,0,0,1-.248-.093c.13-.254.368-.2.565-.228,2.378-.335,4.754-.683,7.115-1.125a31.569,31.569,0,0,0,5.187-1.393,36.564,36.564,0,0,0,4.445-2.1.262.262,0,0,0,.155-.276c-1.308-1.048-2.419-2.39-3.753-3.49-1.831-1.512-3.551-3.145-5.3-4.743-.135-.123-.275-.241-.4-.371a.689.689,0,0,0-.668-.192,14.8,14.8,0,0,1-5.348-.227,19.927,19.927,0,0,1-6.218-2.012l.225-.241" transform="translate(-74.637 -104.923)" fill="#0a2d54"/>
          <path id="Path_1257730" data-name="Path 1257730" d="M82.493,96.832a5.988,5.988,0,0,1-4.176-1.124,2.549,2.549,0,0,1-.871-3.068,2.621,2.621,0,0,0,.151-.331,12.846,12.846,0,0,1,2.669-4.724,35.093,35.093,0,0,1,2.66-2.874,17.864,17.864,0,0,1,4.038-2.783,26.661,26.661,0,0,1,3.471-1.6q2-.772,4-1.515a3.385,3.385,0,0,1,1.784-.263c1.075.193,1.568.415,1.132,1.71A29.661,29.661,0,0,1,93.764,88.2c-.719,1.013-1.308,2.119-1.951,3.185a7.838,7.838,0,0,1-1.3,1.637c-.462.44-.908.9-1.385,1.322A9.923,9.923,0,0,1,84.521,96.6a9.653,9.653,0,0,1-2.028.232" transform="translate(-51.487 -52.331)" fill="#2a9e6b"/>
          <path id="Path_1257731" data-name="Path 1257731" d="M87.131,25.222c.213-1.006.075-2.17.207-3.316a6.944,6.944,0,0,1,.631-2.087,17.193,17.193,0,0,1,3.794-5.307,30.033,30.033,0,0,1,5.056-3.725,9.589,9.589,0,0,1,1.647-.773c1.363-.52,2.756-.949,4.164-1.335a1.955,1.955,0,0,1,1.412.124.607.607,0,0,1,.413.8,5.567,5.567,0,0,1-.161.616c-.483,1.7-1.052,3.363-1.653,5.019-.114.314-.24.626-.328.947A27.006,27.006,0,0,1,98.877,23.2a3.4,3.4,0,0,1-.31.45,16.174,16.174,0,0,1-5.079,4.086c-.656.318-1.315.629-1.952.985a7.56,7.56,0,0,1-1.762.735,2.5,2.5,0,0,1-.994.067,1.226,1.226,0,0,1-1.106-.93,15.379,15.379,0,0,1-.544-3.371" transform="translate(-58.076 -5.732)" fill="#2a9e6b"/>
          <path id="Path_1257732" data-name="Path 1257732" d="M53.033,59.828a10.6,10.6,0,0,1-.362,3.128c-.238,1-.422,2.02-.759,3a5.059,5.059,0,0,1-1.939,2.579,2.677,2.677,0,0,1-3.532.168,3.571,3.571,0,0,1-1.319-1.358,9.364,9.364,0,0,1-1.209-4.441,18.218,18.218,0,0,1,.289-4.085c.212-1.134.348-2.283.523-3.424a34.065,34.065,0,0,1,1.657-6.058c.21-.6.45-1.2.6-1.817A1.377,1.377,0,0,1,48.3,46.466a.572.572,0,0,1,.568.213,2.069,2.069,0,0,1,.3.452c.7,1.584,1.589,3.077,2.263,4.677a20.254,20.254,0,0,1,1.6,8.021" transform="translate(-29.259 -30.964)" fill="#2a9e6b"/>
          <path id="Path_1257733" data-name="Path 1257733" d="M59.659,64.411c.935-2.756,1.985-5.443,3.1-8.1.528-1.258,1.139-2.483,1.757-3.7a71.733,71.733,0,0,0,3.318-6.891A20.527,20.527,0,0,1,70.2,41.308c1.058-1.526,2.16-3.016,3.354-4.437a4.233,4.233,0,0,1,.817-.855c.131.206-.034.351-.1.491A31.589,31.589,0,0,1,72.294,40.1,42.325,42.325,0,0,0,69,46.287c-.656,1.506-1.128,3.078-1.8,4.575-.741,1.664-1.472,3.333-2.2,5-.22.5-.442,1-.645,1.506-.734,1.832-1.488,3.656-2.183,5.5a53.865,53.865,0,0,0-2.188,6.469.854.854,0,0,0-.037.615c.248.021.384-.165.54-.3q1.8-1.548,3.586-3.1c1.192-1.043,2.228-2.243,3.338-3.369.662-.671,1.322-1.344,1.987-2.012.235-.236.483-.459.741-.7.177.227-.015.357-.083.475A32.755,32.755,0,0,1,65.4,67.118a8.412,8.412,0,0,1-.734.684,41.366,41.366,0,0,1-4.793,3.632,1.1,1.1,0,0,0-.584.849c-.154,1.024-.228,2.053-.3,3.085a56.169,56.169,0,0,0-.043,5.653c.007.212,0,.425,0,.638,0,.015-.037.029-.059.044-.143-.016-.187-.133-.228-.241a8.674,8.674,0,0,1-.549-2.019,34.582,34.582,0,0,1-.251-6.826,29.675,29.675,0,0,1,.629-3.59,18.656,18.656,0,0,1,.66-2.838.614.614,0,0,0-.121-.593c-2.366-3.472-2.988-7.38-2.846-11.473a12.233,12.233,0,0,1,.173-1.811,2.2,2.2,0,0,1,.241.911,59.9,59.9,0,0,0,1.877,8.723c.217.694.511,1.365.786,2.04.064.156.1.359.4.425" transform="translate(-37.437 -24.006)" fill="#242f25"/>
          <path id="Path_1257734" data-name="Path 1257734" d="M106.965,81.641a3.468,3.468,0,0,1,1.279-.994,30.042,30.042,0,0,1,6.58-2.62c.234-.062.465-.14.7-.2a2.631,2.631,0,0,1,.535-.1,1.147,1.147,0,0,1,1.216,1.669c-.113.313-.208.632-.3.952a17.4,17.4,0,0,1-1.981,4.48c-.191.3-.421.584-.661.913-.081-.573-.063-.659.327-1.635.1-.141.254-.356.108-.453-.271-.18-.268.168-.376.294a1.374,1.374,0,0,0-.13.221,9.747,9.747,0,0,1-2.565,2.765c-.166-.157-.082-.267-.021-.361.38-.586.769-1.166,1.152-1.75.133-.2.267-.405.382-.618a.189.189,0,0,0-.032-.248.2.2,0,0,0-.244-.024,5.658,5.658,0,0,0-.478.416c-.818.772-1.625,1.554-2.452,2.315a7.508,7.508,0,0,1-1.277.972.253.253,0,0,1-.022-.364,9.57,9.57,0,0,1,1.341-1.723c.475-.513.959-1.017,1.435-1.529.165-.178.319-.366.47-.557a.267.267,0,0,0,.048-.33c-.121-.157-.282-.082-.4.005q-.988.734-1.962,1.486a17.337,17.337,0,0,1-2.33,1.593c-.152.082-.292.225-.495.167-.089-.14.025-.222.092-.307a8.713,8.713,0,0,1,1.119-1.2q1.339-1.169,2.665-2.353a3,3,0,0,0,.317-.323.187.187,0,0,0,.024-.168.173.173,0,0,0-.232-.07,4.651,4.651,0,0,0-.562.3c-.561.364-1.112.742-1.671,1.109a10.341,10.341,0,0,1-1.656.938c-.155-.141-.1-.277-.027-.417a4.214,4.214,0,0,1,1.221-1.335,24.407,24.407,0,0,1,2.862-1.946,4.109,4.109,0,0,0,1.014-.712,7.984,7.984,0,0,0-1.7.607c-.829.378-1.656.762-2.487,1.136-.192.086-.4.144-.6.215l-.233-.213m7.121-.357-.369.171-.181.192a3.177,3.177,0,0,0-1.025.817c-.064.079-.192.157-.072.268s.186-.03.264-.093c.24-.226.484-.45.72-.681a.3.3,0,0,0,.1-.322c.132,0,.18-.073.177-.194l.387-.16.019-.023Zm-1.816,0a.269.269,0,0,0-.389-.013c-.215.139-.523.175-.576.5,0,.013.043.047.069.051.278.033.4-.21.6-.334.1-.064.2-.133.3-.2m.186-1.531-.053-.03,0,.013Zm1.169,3.538c-.02.019-.059.043-.056.058a.578.578,0,0,0,.054.121c.02-.02.059-.044.055-.059a.545.545,0,0,0-.054-.12m.261-.267-.051-.063-.062.052.079.065.034-.054" transform="translate(-71.173 -51.806)" fill="#ded307"/>
          <path id="Path_1257735" data-name="Path 1257735" d="M110.034,14.2c-.072-.247.1-.4.228-.561a10.191,10.191,0,0,1,1.428-1.4c.187-.154.374-.309.546-.481a.284.284,0,0,0,.074-.242c-.021-.054-.145-.078-.228-.095-.056-.012-.121.021-.18.015s-.122-.031-.129-.061a.184.184,0,0,1,.043-.157,8.619,8.619,0,0,1,.806-.59,19.433,19.433,0,0,1,3.022-1.485c.622-.24,1.258-.447,1.9-.646a4.966,4.966,0,0,1,.89-.178,1.478,1.478,0,0,1,1.041.247.894.894,0,0,1,.441.928,8.4,8.4,0,0,1-.2.887A12.764,12.764,0,0,1,118.03,14.2l-.291,0c-.082-.112-.21-.164-.3-.066A7.17,7.17,0,0,0,117,14.7c-.459.6-.918,1.2-1.383,1.8a.731.731,0,0,1-.453.341,16.287,16.287,0,0,1,.637-1.806,3.5,3.5,0,0,0,.615-1.378l.038-.024-.028.033a3.034,3.034,0,0,0-.867,1.114c-.267.165-.4.455-.611.669-.278.28-.562.554-.847.827a.169.169,0,0,1-.236.03.213.213,0,0,1-.041-.165,2.736,2.736,0,0,1,.337-.939c.205-.372.423-.738.649-1.1.21-.334.443-.655.655-.988.077-.121.2-.275.063-.406-.182-.178-.327.015-.463.11s-.222.207-.339.3q-1.161.956-2.328,1.906c-.109.088-.236.154-.472.306a2.467,2.467,0,0,1,.451-1,13.6,13.6,0,0,1,1.784-2.068,1.827,1.827,0,0,0,.52-.621.186.186,0,0,0-.031-.158.2.2,0,0,0-.155-.053,1.8,1.8,0,0,0-.712.389c-.956.648-1.9,1.313-2.864,1.949-.27.178-.512.44-.877.439Zm3.463-3.477.135-.082-.121.1a.431.431,0,0,0-.082.035c-.013.009-.016.033-.023.05l.091-.1m2.212.032c-.156-.013-.3-.009-.376.167a.681.681,0,0,0-.245.074c-.071.058-.223.133-.086.26.078.072.16,0,.226-.054a.223.223,0,0,0,.092-.3c.187.089.281-.038.376-.163l.029-.062-.016.074m.7.871a.827.827,0,0,0-.633.451.159.159,0,0,0,.039.233.3.3,0,0,0,.245.028.893.893,0,0,0,.386-.674l.063-.1-.1.063m-3.26-.644a1.115,1.115,0,0,0-.706.266c-.058.045-.121.119-.042.21a.114.114,0,0,0,.155.031,1.225,1.225,0,0,0,.593-.508m4.9,2.384c-.029-.049-.058-.138-.086-.137-.171,0-.264.135-.339.261a.356.356,0,0,0-.006.243c.007.029.11.065.151.049a.407.407,0,0,0,.279-.415m.08-.674c-.008.022-.028.048-.023.067.022.078.061.082.1.009a.081.081,0,0,0-.015-.068c-.008-.011-.038-.005-.058-.007" transform="translate(-73.33 -5.538)" fill="#ded307"/>
          <path id="Path_1257736" data-name="Path 1257736" d="M50.794,49.649a16.532,16.532,0,0,1,.353,4.86,5.974,5.974,0,0,1-.5-1.612c-.127-.556-.245-1.114-.391-1.777a1.121,1.121,0,0,0-.2.734,29.947,29.947,0,0,1-.272,3.085c-.063.328-.138.653-.208.98-.019.089-.054.176-.154.188-.127.016-.148-.1-.153-.18-.041-.576-.1-1.151-.1-1.728-.008-.79.024-1.58.037-2.37,0-.21,0-.42,0-.677a1.01,1.01,0,0,0-.352.761,27.988,27.988,0,0,1-.879,3.347c-.034.1-.04.266-.2.236-.137-.026-.148-.185-.161-.3a9.958,9.958,0,0,1,.026-2.364c.031-.24.059-.481.1-.8a4.227,4.227,0,0,0-.477,1.306c-.193.7-.359,1.413-.56,2.114-.05.175.042.519-.262.477-.217-.03-.186-.348-.225-.546a4.013,4.013,0,0,1,.01-1.451A24.961,24.961,0,0,1,47.954,48a6.218,6.218,0,0,1,.423-.806,1.561,1.561,0,0,1,2.36-.351,2.98,2.98,0,0,1,.528.622,10.725,10.725,0,0,1,1.622,4.316,4.037,4.037,0,0,1-.043,1.45.173.173,0,0,1-.105.114.2.2,0,0,1-.163-.051,4.624,4.624,0,0,1-.794-1.424q-.469-1.282-.941-2.561a1.016,1.016,0,0,0-.328-.934,1.465,1.465,0,0,0-.037-.166c-.008-.025-.041-.063-.055-.06a.081.081,0,0,0-.057.132.754.754,0,0,0,.117.121,2.443,2.443,0,0,0,.314,1.248" transform="translate(-30.76 -30.961)" fill="#ded307"/>
          <path id="Path_1257737" data-name="Path 1257737" d="M199.185,28.988a42.7,42.7,0,0,1,3.992,7.67,24.134,24.134,0,0,1,.894,2.869c.729,2.855,1.416,5.722,2.132,8.58a21.291,21.291,0,0,1,.671,4.96,36.18,36.18,0,0,0,.877,7.41,36.846,36.846,0,0,1,.791,7.147c.019.911.088,1.821.124,2.733.034.85.032,1.7.087,2.551a1.859,1.859,0,0,1-.51,1.413c-.535.606-.683.564-1.075-.045-.477-.742-.962-1.476-1.389-2.251-.307-.558-.683-1.077-1.023-1.617a33.249,33.249,0,0,0-4.863-5.9c-1.276-1.259-2.539-2.532-3.841-3.764-1.1-1.043-2.268-2.021-3.379-3.056a37.478,37.478,0,0,1-3.291-3.532c-1.163-1.4-2.361-2.775-3.638-4.079a35.4,35.4,0,0,1-3.847-4.854c-1.321-1.932-2.64-3.867-3.876-5.853a15.7,15.7,0,0,1-2.133-4.813c-.127-.563-.311-1.111-.458-1.67a35.159,35.159,0,0,1-.684-6.145c.016-.395.046-.789.067-1.183a8.037,8.037,0,0,1,1.583-4.305,6.143,6.143,0,0,1,5.152-2.635,14.364,14.364,0,0,1,4.221.664A21.814,21.814,0,0,1,192.48,22.5a28.693,28.693,0,0,1,4.407,3.663,24.053,24.053,0,0,1,2.3,2.826" transform="translate(-116.472 -12.411)" fill="#db0b6a"/>
          <path id="Path_1257738" data-name="Path 1257738" d="M197.025,52.506a37.354,37.354,0,0,1,2.12,3.616c.563,1.009,1.084,2.041,1.625,3.062a.367.367,0,0,0,.269.239,1.516,1.516,0,0,0,.55-.793c.777-1.75,1.687-3.442,2.343-5.245.332-.913.619-1.843.927-2.765a2.721,2.721,0,0,1,.123-.341.234.234,0,0,1,.3-.13.274.274,0,0,1,.138.2,1.51,1.51,0,0,1-.057.45,25.937,25.937,0,0,1-1.216,3.82c-.376.831-.731,1.672-1.092,2.509a9.8,9.8,0,0,1-1.413,2.439.927.927,0,0,0-.127,1.148c.724,1.473,1.462,2.941,2.063,4.471q.516,1.316,1.043,2.628a6.218,6.218,0,0,0,.268.578c.1.188.291.175.416-.03a6.09,6.09,0,0,0,.579-1.236,14.549,14.549,0,0,0,.672-3.022,1.675,1.675,0,0,1,.364-1.011.345.345,0,0,1,.244-.056c.045,0,.1.067.126.117a1.282,1.282,0,0,1,.049.718,10.324,10.324,0,0,1-1.123,3.733,3.351,3.351,0,0,1-.426.7A1.671,1.671,0,0,0,205.6,70.3q1.352,3.387,2.561,6.831c.309.888.721,1.74,1.1,2.6a4.9,4.9,0,0,1,.551,2.005.213.213,0,0,1-.316.192,1.723,1.723,0,0,1-.8-.722,16.471,16.471,0,0,1-1.611-3.163c-1.492-3.986-3.012-7.961-4.522-11.94a5.6,5.6,0,0,1-.241-.591,1.046,1.046,0,0,0-.883-.8q.017-.16.034-.32l.344-.056a.613.613,0,0,0-.005-.113c-.58-1.2-1.148-2.415-1.742-3.612-.513-1.034-1.059-2.053-1.584-3.082a.9.9,0,0,0-.7-.5,57.132,57.132,0,0,1-6.069-1.653c-1.018-.306-2.025-.654-3.031-1a13.483,13.483,0,0,1-2.48-1.144c-1.2-.713-2.412-1.413-3.621-2.116-.16-.093-.332-.174-.36-.378a.455.455,0,0,1,.059-.256c.016-.031.117-.045.163-.026a3.011,3.011,0,0,1,.4.2q1.643.983,3.282,1.973a13.548,13.548,0,0,0,2.293,1.116,89.9,89.9,0,0,0,8.793,2.734,2.482,2.482,0,0,0,.446.07.154.154,0,0,0,.154-.179.646.646,0,0,0-.108-.248c-1.308-2.3-2.624-4.593-3.922-6.9a1.555,1.555,0,0,0-.954-.767,68.79,68.79,0,0,1-7.361-2.952,20.72,20.72,0,0,1-1.855-.975c-1.286-.752-2.559-1.525-3.833-2.3a10.56,10.56,0,0,1-.981-.663c-.986-.761-1.915-1.595-2.96-2.28a1.059,1.059,0,0,1-.5-.623.343.343,0,0,1,.079-.336c.107-.1.22-.053.32.03.82.677,1.648,1.345,2.458,2.033a14.879,14.879,0,0,0,2.141,1.545c.578.337,1.15.684,1.71,1.049a31.556,31.556,0,0,0,5.489,2.863c1.552.622,3.1,1.262,4.647,1.888a3.353,3.353,0,0,0,.6.179c.111.022.137-.094.128-.182a.451.451,0,0,0-.076-.164c-1.411-2.486-2.86-4.949-4.416-7.348-.447-.689-.9-1.375-1.326-2.075a1.152,1.152,0,0,0-.786-.553,17.227,17.227,0,0,1-4.477-1.781,34.515,34.515,0,0,1-3.448-2.046,29.494,29.494,0,0,1-3.715-3.223,1.231,1.231,0,0,1-.248-.372.277.277,0,0,1,.049-.247.169.169,0,0,1,.239.04,14.278,14.278,0,0,0,1.312,1.265,20.748,20.748,0,0,0,3.34,2.526c.881.54,1.776,1.057,2.654,1.6a20.285,20.285,0,0,0,4.017,1.716c.08.028.178.049.236-.053s-.013-.169-.06-.239c-.782-1.16-1.592-2.3-2.463-3.4-.208-.262-.413-.526-.613-.794q-2.262-3.035-4.52-6.072c-.181-.244-.361-.49-.532-.741-.136-.2-.262-.41-.385-.62-.061-.1-.131-.239-.03-.335.156-.148.272.029.375.107a2.9,2.9,0,0,1,.382.387c2.148,2.4,4.15,4.927,6.133,7.47,1.912,2.453,3.554,5.082,5.267,7.666a6.174,6.174,0,0,1,.3.562,1.039,1.039,0,0,0,.305.473c1.125,1.587,2.119,3.259,3.114,4.927,1.074,1.8,2.112,3.62,3.164,5.432a2.6,2.6,0,0,1,.113.248.455.455,0,0,0,.205.413" transform="translate(-116.253 -16.506)" fill="#dfd40d"/>
          <path id="Path_1257739" data-name="Path 1257739" d="M241.8,69.393a.455.455,0,0,1-.205-.413c.214-.03.279-.212.365-.367a16.664,16.664,0,0,0,1.836-5.122,21.386,21.386,0,0,0,.22-2.356c.075-1.06.15-2.121.188-3.183a20.6,20.6,0,0,0-.255-3.539c-.062-.451-.128-.9-.168-1.355a9.85,9.85,0,0,0-.318-2.157,2.026,2.026,0,0,1-.073-.539.3.3,0,0,1,.1-.23c.162-.107.216.071.249.156a8.007,8.007,0,0,1,.421,1.2c.267,1.215.555,2.427.709,3.665A17.486,17.486,0,0,1,244.9,58.7c-.076.969-.175,1.936-.232,2.906a10.978,10.978,0,0,1-.366,2.15,16.726,16.726,0,0,1-2.015,4.762c-.178.281-.325.582-.487.874" transform="translate(-161.028 -33.392)" fill="#dfd413"/>
          <path id="Path_1257740" data-name="Path 1257740" d="M221.83,43.4a1.04,1.04,0,0,1-.305-.473.679.679,0,0,0,.339-.407,15.553,15.553,0,0,0,1.121-5.772,29.155,29.155,0,0,0-.654-5.777,15.28,15.28,0,0,0-.706-2.726,1.54,1.54,0,0,1-.079-.44.2.2,0,0,1,.085-.148.182.182,0,0,1,.166,0,1.588,1.588,0,0,1,.324.309A4.266,4.266,0,0,1,222.7,29.2a20.377,20.377,0,0,1,.929,5.183,17.282,17.282,0,0,1-1.389,7.913c-.161.359-.276.738-.413,1.108" transform="translate(-147.654 -18.421)" fill="#dfd413"/>
          <path id="Path_1257741" data-name="Path 1257741" d="M239.724,140.134c-.011.107-.022.213-.034.32-.969-.091-1.919-.3-2.872-.479-1.193-.228-2.388-.449-3.58-.685-.356-.07-.7-.178-1.054-.278a.586.586,0,0,1-.341-.285.2.2,0,0,1,.005-.247A.221.221,0,0,1,232,138.4a2.986,2.986,0,0,1,.536.1,55.921,55.921,0,0,0,5.786,1.255,4.917,4.917,0,0,1,1.4.375" transform="translate(-154.504 -92.25)" fill="#dfd413"/>
        </g>
      </g>
    </g>
    <rect id="Rectangle_411054" data-name="Rectangle 411054" width="116" height="116" transform="translate(-0.104 -0.243)" fill="none"/>
  </g>
</svg>
