<svg xmlns="http://www.w3.org/2000/svg" xmlns:xlink="http://www.w3.org/1999/xlink" width="116" height="116" viewBox="0 0 116 116">
  <defs>
    <clipPath id="clip-path">
      <rect id="Rectangle_411061" data-name="Rectangle 411061" width="115.757" height="99.264" fill="none"/>
    </clipPath>
  </defs>
  <g id="Group_1207759" data-name="Group 1207759" transform="translate(0.171 0.243)">
    <rect id="Rectangle_411058" data-name="Rectangle 411058" width="116" height="116" transform="translate(-0.171 -0.243)" fill="none"/>
    <g id="Group_1207755" data-name="Group 1207755" transform="translate(0 8.368)">
      <g id="Group_1207754" data-name="Group 1207754" clip-path="url(#clip-path)">
        <path id="Path_1257790" data-name="Path 1257790" d="M88.784,122.29c0,19.53-16.11,35.363-35.983,35.363S16.818,141.82,16.818,122.29,32.928,86.927,52.8,86.927s35.983,15.832,35.983,35.363" transform="translate(-11.297 -58.389)" fill="#ffbc32"/>
        <path id="Path_1257791" data-name="Path 1257791" d="M271.355,19.853A19.853,19.853,0,1,1,251.5,0a19.853,19.853,0,0,1,19.853,19.853" transform="translate(-155.599)" fill="#ffbc32"/>
        <path id="Path_1257792" data-name="Path 1257792" d="M161.4,24.757c.346.127,2.773-.968,3.162-.858,4.37,1.245,11.906,1.794,16.061,3.651,10.082,4.5,16.665,10.754,22.166,20.192a32.665,32.665,0,0,1,2.546,5.414,55.379,55.379,0,0,1,3.007,19.581c-.149,6.318-1.436,13.458-4.962,18.82a18.283,18.283,0,0,1-3.387,3.912,15.575,15.575,0,0,1-10.807,3.665,14.054,14.054,0,0,1-9.033-3.878c-4.957-4.69-7.556-10.281-8.724-16.926-.333-1.892-.538-3.737-.733-5.642l-.4-3.895a16.664,16.664,0,0,0-.683-3.579,46.666,46.666,0,0,0-3.019-7.064c-1.232-2.352-.564-5-2.281-7.025a44.351,44.351,0,0,0-5.413-5.564c.045-1.43-3.124-1.958-4.137-2.93l-1.71-1.642c-.716-.687-1.906-1.865-1.895-2.924a28.958,28.958,0,0,0,10.666,4.467,20.481,20.481,0,0,0,5.068.343,25.1,25.1,0,0,1-6.114-4.249L158.2,36.417a35.465,35.465,0,0,0-6.283-4.186c2.307.731,4.514,1.412,6.831,1.913a44.127,44.127,0,0,0,10.517,1.034A35.981,35.981,0,0,0,152.7,26.118c-.068.034-.075-.025-.006-.044,3.664.23,6.527,2.132,8.7-1.317" transform="translate(-101.532 -16.048)" fill="#392043"/>
        <path id="Path_1257793" data-name="Path 1257793" d="M4.472,136.478A26.48,26.48,0,0,1,1.7,131.186a18.3,18.3,0,0,1-.455-14.295,16.1,16.1,0,0,1,2.194-3.618c-.2-.074-.38-.034-.432-.164a.323.323,0,0,1,.128-.386,15.371,15.371,0,0,0,2.1-1.8l2.241-2.336a25.677,25.677,0,0,1,8.826-6.05,11.374,11.374,0,0,1,2.967-.727,8.464,8.464,0,0,0-7.2,1.258c-.072.051-.2-.2-.171-.247.257-.471,1.063-.8,1.647-1.128,2.025-1.15,4.187-2.12,6.57-1.776a5.213,5.213,0,0,1,2.186.769c.267.711.049,2.115.51,2.663a11.776,11.776,0,0,0-.733-4.911,16.843,16.843,0,0,0-3.528-5.411c-.661-.689-2.5-1.885-2.5-2.881,0-.749.773-1.345.73-1.886-.652.326-.844,1.2-1.833,1.495-1.142.344-1.648-1.36-1.625-1.861a3.933,3.933,0,0,1,1.363-2.648c1.181-1.064,2.553-.05,3.412.878a26.492,26.492,0,0,1,5.954,12.287,13.924,13.924,0,0,1,4.48-4.125.222.222,0,0,1,.2-.005c.054.025.14.176.092.259A8.851,8.851,0,0,0,27.557,99.2c1.816-2.049,4.165-2.739,6.7-3.309l3.023-.7a12.935,12.935,0,0,0,3.294-1.3c.065-.035.185.113.179.161a.376.376,0,0,1-.057.26A28.971,28.971,0,0,1,37.3,97.492a32.648,32.648,0,0,1,8.4.213,13.592,13.592,0,0,1,5.056,2.025,18.779,18.779,0,0,1,7.46,10.09,26.64,26.64,0,0,1,1.416,5.728,37.213,37.213,0,0,1,.011,7.652,25.725,25.725,0,0,1-2.452,8.743A28.936,28.936,0,0,1,46.3,144.016a36.5,36.5,0,0,1-6.317,3.016,34.494,34.494,0,0,1-7.89,2.085,28.75,28.75,0,0,1-17.578-3.284,32.128,32.128,0,0,1-10.042-9.355M14.952,118.1a.735.735,0,0,0,.074.557,4.2,4.2,0,0,0,0-.585c.028-4.6,2.234-9.262,4.812-13.088a4.647,4.647,0,0,0-1.333,1.107A19.123,19.123,0,0,0,14.952,118.1m13.061-16.014a4.9,4.9,0,0,0,3.068.171c-.53-.584-2.431-.427-3.068-.171m-2.446,4.957c-1-1.329-2.378-1.6-1.892-1.177a16.51,16.51,0,0,1,4.895,7.309c.084.251.017.522.248.68a17.665,17.665,0,0,0-3.251-6.812m4.258,8.078a5.994,5.994,0,0,1-.641,1.6,20.071,20.071,0,0,0-4.536-8.049,2.258,2.258,0,0,0-.687.333c-1.159.681-2.251,1.332-3.485,1.9a32.294,32.294,0,0,0-4.239,8.684c-.127.005-.2-.1-.321-.107-.15.374-.164,1.22-.4,1.351-.46.261-.446-1.606-.556-1.993l-1.14-.634a14.866,14.866,0,0,1,1.142-6.1,16.22,16.22,0,0,0-9.9,3.608A9.7,9.7,0,0,0,1.9,120.657a10.325,10.325,0,0,0-.119,3.112,17.691,17.691,0,0,0,.969,4.913,24.268,24.268,0,0,0,2.37,4.85,34.146,34.146,0,0,0,5.806,6.957,23.058,23.058,0,0,0,27.436,2.465,17.576,17.576,0,0,0,8.63-14.185,17.867,17.867,0,0,0-.573-6.47,26.512,26.512,0,0,0-4.928-9.554,27.318,27.318,0,0,0-3.71-3.861,9.646,9.646,0,0,0-7.9-2.155,14.847,14.847,0,0,1-.054,8.4" transform="translate(0 -56.952)" fill="#8c0e12"/>
        <path id="Path_1257794" data-name="Path 1257794" d="M33.349,159.718a14.847,14.847,0,0,0,.055-8.4,9.646,9.646,0,0,1,7.9,2.155,27.318,27.318,0,0,1,3.71,3.861,26.512,26.512,0,0,1,4.928,9.554,17.867,17.867,0,0,1,.573,6.471,17.576,17.576,0,0,1-8.63,14.185,23.058,23.058,0,0,1-27.436-2.465,34.147,34.147,0,0,1-5.806-6.957,24.268,24.268,0,0,1-2.37-4.85,17.691,17.691,0,0,1-.969-4.913,10.324,10.324,0,0,1,.119-3.112,9.7,9.7,0,0,1,3.162-4.933,16.22,16.22,0,0,1,9.9-3.608,14.866,14.866,0,0,0-1.142,6.1l1.14.634c.11.387.1,2.254.556,1.993.231-.131.245-.977.4-1.351.116.011.194.112.321.107A32.294,32.294,0,0,1,24,155.5c1.234-.571,2.325-1.222,3.485-1.9a2.258,2.258,0,0,1,.687-.333,20.071,20.071,0,0,1,4.536,8.049,5.994,5.994,0,0,0,.641-1.6" transform="translate(-3.523 -101.546)" fill="#e23732"/>
        <path id="Path_1257795" data-name="Path 1257795" d="M45.587,159.4l-.073.027a19.121,19.121,0,0,1,3.552-12.009,4.647,4.647,0,0,1,1.333-1.107c-2.578,3.827-4.784,8.489-4.812,13.088" transform="translate(-30.562 -98.28)" fill="#fff"/>
        <path id="Path_1257796" data-name="Path 1257796" d="M73.8,149.8a17.665,17.665,0,0,1,3.251,6.812c-.23-.158-.163-.429-.248-.68a16.509,16.509,0,0,0-4.895-7.309c-.486-.419.89-.153,1.891,1.177" transform="translate(-48.235 -99.71)" fill="#fff"/>
        <path id="Path_1257797" data-name="Path 1257797" d="M85.328,137.016c.637-.256,2.539-.413,3.068.171a4.906,4.906,0,0,1-3.068-.171" transform="translate(-57.315 -91.879)" fill="#fff"/>
        <path id="Path_1257798" data-name="Path 1257798" d="M45.572,186.182a4.191,4.191,0,0,1,0,.585.736.736,0,0,1-.074-.557Z" transform="translate(-30.548 -125.058)" fill="#e23732"/>
        <path id="Path_1257799" data-name="Path 1257799" d="M179.561,29.091c.3.185.624.3.969.481A91.354,91.354,0,0,1,191.8,36.266c8.653,6.163,13.684,13.336,17.1,23.344a31.88,31.88,0,0,1,1.385,5.628,54.274,54.274,0,0,1-.833,19.2c-1.323,5.988-3.871,12.547-8.2,17a17.685,17.685,0,0,1-3.922,3.1,14.839,14.839,0,0,1-10.865,1.482,13.431,13.431,0,0,1-7.782-5.37c-3.791-5.386-5.192-11.193-5.049-17.736.041-1.863.193-3.658.365-5.508l.352-3.783a16.332,16.332,0,0,0,.027-3.535,45.584,45.584,0,0,0-1.522-7.287,34.712,34.712,0,0,0-2.933-7.069,38.522,38.522,0,0,0-4.074-5.831c.31-1.353-.46-2.961-1.232-4.075l-1.3-1.881c-.545-.787-1.446-2.13-1.238-3.136a27.663,27.663,0,0,0,9.211,6.234A19.434,19.434,0,0,0,176,48.306a24.107,24.107,0,0,1-4.964-5.182l-2.014-2.581a34.05,34.05,0,0,0-5.135-5.153c2.036,1.125,3.987,2.183,6.076,3.09a41.937,41.937,0,0,0,9.712,2.939,34.462,34.462,0,0,0-13.9-11.7c-.07.02-.066-.037,0-.043,3.408.9,11.089,2.3,13.785-.582" transform="translate(-108.849 -19.54)" fill="#79418a"/>
        <path id="Path_1257800" data-name="Path 1257800" d="M127.664,14.705c-2.7,2.88-10.377,1.482-13.785.582-.068.006-.073.063,0,.043a34.462,34.462,0,0,1,13.9,11.7,41.937,41.937,0,0,1-9.712-2.939c-2.089-.907-4.04-1.966-6.076-3.09a34.05,34.05,0,0,1,5.135,5.153l2.014,2.581A24.108,24.108,0,0,0,124.1,33.92a19.435,19.435,0,0,1-4.708-1.268,27.663,27.663,0,0,1-9.211-6.234c-.209,1.006.692,2.349,1.238,3.136l1.3,1.881c.772,1.114,1.542,2.722,1.232,4.075-1.61-1.231-3.166-2.532-4.709-3.884a40.665,40.665,0,0,1-3.7-3.657,17.517,17.517,0,0,1-4-7.63,7.508,7.508,0,0,1,.378-5.194A8.741,8.741,0,0,0,99.5,12.971a17.46,17.46,0,0,0-9.1-2.137l-2.488.333a6.456,6.456,0,0,1-1.769.043.9.9,0,0,1-.751-.492,5.349,5.349,0,0,1-.6-2.279c0-.2.04-.5.231-.575a2.445,2.445,0,0,1,.824-.135A36,36,0,0,1,92.706,8a12.382,12.382,0,0,1,5.819,2.209c.762.511,1.438,1.057,2.155,1.628l2,1.59c2.991-3.2,9.106-3.447,13.1-2.679a23.885,23.885,0,0,1,2.912.842l3.7,1.2c1.624.528,4.263.985,5.98.351a3.39,3.39,0,0,1-.7,1.565" transform="translate(-56.952 -5.155)" fill="#78a91a"/>
      </g>
    </g>
  </g>
</svg>
