<svg xmlns="http://www.w3.org/2000/svg" xmlns:xlink="http://www.w3.org/1999/xlink" width="116" height="116" viewBox="0 0 116 116">
  <defs>
    <clipPath id="clip-path">
      <rect id="Rectangle_411056" data-name="Rectangle 411056" width="94.096" height="113.012" fill="none"/>
    </clipPath>
  </defs>
  <g id="Group_1207761" data-name="Group 1207761" transform="translate(0.42 0.243)">
    <rect id="Rectangle_411055" data-name="Rectangle 411055" width="116" height="116" transform="translate(-0.42 -0.243)" fill="none"/>
    <g id="Group_1207751" data-name="Group 1207751" transform="translate(10.809 1.395)">
      <g id="Group_1207750" data-name="Group 1207750" clip-path="url(#clip-path)">
        <path id="Path_1257742" data-name="Path 1257742" d="M147.282,153.417c16.963,0,30.715,13.514,30.715,30.185s-13.752,30.185-30.715,30.185-30.715-13.514-30.715-30.185,13.752-30.185,30.715-30.185" transform="translate(-83.901 -110.424)" fill="#ffbc32"/>
        <path id="Path_1257743" data-name="Path 1257743" d="M16.946,66.49A16.946,16.946,0,1,1,0,83.436,16.946,16.946,0,0,1,16.946,66.49" transform="translate(0 -47.857)" fill="#ffbc32"/>
        <path id="Path_1257744" data-name="Path 1257744" d="M102.042,89.1a9.427,9.427,0,0,0-1.184,2.029,29.053,29.053,0,0,0-1.032-5.495,1.131,1.131,0,0,0-.677.854l-1,4.349c-1.225-4.991,2.874-17.642,3.095-19.114l.043-.289c.082-.546,4.555-12.335,6.659-11.909a1.272,1.272,0,0,1,.952,1.148,3.089,3.089,0,0,1-.129,1.2l-2.382,8.593-2.3,8.54c-.77,2.858-1.377,5.711-1.918,8.608a4.951,4.951,0,0,0-.127,1.49m-.43-8.45.322-1.8a38.664,38.664,0,0,1,1.194-4.568c.665-2.164,1.7-4.223,2.161-6.473a.213.213,0,0,0-.136-.25c-.4-.048-1.452,2.659-1.593,3.145l-.959,3.313c-.534,1.846-.963,3.659-1.357,5.537-.08.383-.676,2.787-.239,2.846.094.013.147-.048.185-.148a8.925,8.925,0,0,0,.422-1.6" transform="translate(-70.482 -42.838)" fill="#4e9d24"/>
        <path id="Path_1257745" data-name="Path 1257745" d="M49.331,116.962a24.518,24.518,0,0,1,.369,2.953c-.363-.406-1.165-1.137-1.571-.672a.516.516,0,0,0-.09.426l.708,3.447c-.2-.2-.976-.729-1.011-.827A35.231,35.231,0,0,0,37.5,107.429l-3.5-2.9c-.445-.369-1.208-1.125-.919-1.7s1.5-.363,2.046-.228a10.438,10.438,0,0,1,3.027,1.321,27.517,27.517,0,0,1,8.752,8.719,29.465,29.465,0,0,1,2.261,4.175c.042.1.065.167.161.145m-1.944.489a21.834,21.834,0,0,0-5.591-8.467.157.157,0,0,0-.2-.022.141.141,0,0,0-.008.2,86.9,86.9,0,0,1,5.655,8.426.088.088,0,0,0,.145.031c.017-.021.037-.069,0-.164" transform="translate(-23.767 -73.739)" fill="#4e9d24"/>
        <path id="Path_1257746" data-name="Path 1257746" d="M109.121,101.324a8.924,8.924,0,0,1-.422,1.6c-.037.1-.091.16-.185.148-.438-.059.158-2.462.239-2.845.394-1.878.822-3.692,1.357-5.537l.959-3.313c.141-.486,1.193-3.194,1.593-3.145a.213.213,0,0,1,.136.25c-.462,2.25-1.5,4.309-2.161,6.473a38.664,38.664,0,0,0-1.194,4.568Z" transform="translate(-77.991 -63.508)" fill="#de6c0a"/>
        <path id="Path_1257747" data-name="Path 1257747" d="M69.292,134.107c.035.1.015.143,0,.165a.088.088,0,0,1-.145-.031,86.892,86.892,0,0,0-5.655-8.426.141.141,0,0,1,.008-.2.157.157,0,0,1,.2.022,21.834,21.834,0,0,1,5.591,8.467" transform="translate(-45.672 -90.395)" fill="#de6c0a"/>
        <path id="Path_1257748" data-name="Path 1257748" d="M53.168,28.6l-.043.289C52.9,30.36,48.8,43.011,50.029,48l1-4.349a1.131,1.131,0,0,1,.677-.854,29.061,29.061,0,0,1,1.031,5.5,9.438,9.438,0,0,1,1.184-2.029l.637-.748a.468.468,0,0,1,.389-.162c.37.045.37.7.365.977-.036,2.1-.56,4.884-.29,6.906a26.693,26.693,0,0,0,3.562,10.175,19.972,19.972,0,0,0,3.536,4.39A15.72,15.72,0,0,0,66.6,70.7a27.36,27.36,0,0,1,5.188,3.008c4.2,3.079,7.012,7.345,7.347,12.648a18.905,18.905,0,0,1-1.9,9.476A21.945,21.945,0,0,1,66.505,106.22c-10.762,4.849-25.3,2.264-30.472-9.325a15.651,15.651,0,0,1,.744-15.01A24.776,24.776,0,0,1,39.16,78.7L41.7,75.82a20.876,20.876,0,0,0,4.6-7.3,22.65,22.65,0,0,0,.84-11.349A17.682,17.682,0,0,0,45.06,51.4a24.675,24.675,0,0,0-2.194-2.957.461.461,0,0,1-.09-.571.756.756,0,0,1,.625-.244,6.038,6.038,0,0,1,2.766.87.344.344,0,0,0,.161.053c.035.1.807.627,1.011.827l-.708-3.447a.516.516,0,0,1,.09-.426c.405-.465,1.208.266,1.571.671a24.576,24.576,0,0,0-.369-2.953,54.923,54.923,0,0,0-3.532-10.209,66.967,66.967,0,0,0-11.6-17.079,5.832,5.832,0,0,1-1.723-3.073.9.9,0,0,1,.215-.7c.465-.5,1.42-.2,1.99.117A30.329,30.329,0,0,1,40.8,18.347a37.008,37.008,0,0,1,5.927,8.881,48.826,48.826,0,0,1,2.893,7.819A55.342,55.342,0,0,0,42.506,4.5a20.731,20.731,0,0,1-1.574-3.447.9.9,0,0,1,.1-.733c.436-.681,1.668-.159,2.288.405a17.764,17.764,0,0,1,2.746,3.19,36.493,36.493,0,0,1,3.279,6A49.168,49.168,0,0,1,53.168,28.6M48.7,54.079a9.7,9.7,0,0,0-3.6-4.567.145.145,0,0,0-.177,0c-.042.034-.033.106.02.163a13.776,13.776,0,0,1,3.222,4.7l.687,1.766a.164.164,0,0,0,.179.1c.3-.062-.2-1.814-.334-2.159m8.573,50.461a1.039,1.039,0,0,0,.822-1.26,2.39,2.39,0,0,0-.939-1.478c-2.221-1.782-3.873-3.374-4.854-6.154a16.393,16.393,0,0,1-.851-3.992,24.016,24.016,0,0,1-.1-4.765l.226-2.183a6.727,6.727,0,0,0-.287-3.541.662.662,0,0,0-.385-.328.75.75,0,0,0-.554.134,12.019,12.019,0,0,0-1.826,1.519l-.664.7L47.9,78.5a2.469,2.469,0,0,0-.3-1.262.729.729,0,0,0-1.085-.253,1.684,1.684,0,0,0-.451.508L42.9,82.711c-.219-1.29.334-2.769-.132-3.969a.66.66,0,0,0-.369-.419c-1.26-.288-3.729,4.444-4.181,5.527a14.412,14.412,0,0,0-.985,7.186,13.709,13.709,0,0,0,5.462,9.42,11.606,11.606,0,0,0,3.439,1.775.879.879,0,0,0,1.159-.7,3.371,3.371,0,0,0-.077-1.4l4.021,2.33a22.656,22.656,0,0,0,4.04,1.878,3.591,3.591,0,0,0,1.995.194m2.41-14.662a24.1,24.1,0,0,0-2.335-9.608c-.055-.12-.139-.158-.232-.119a.187.187,0,0,0-.1.249,34.93,34.93,0,0,1,2.435,9.554.123.123,0,0,0,.164.091.183.183,0,0,0,.066-.166" transform="translate(-22.36 0)" fill="#de6c0a"/>
        <path id="Path_1257749" data-name="Path 1257749" d="M72.859,301.9a3.589,3.589,0,0,1-1.995-.194,22.67,22.67,0,0,1-4.04-1.878L62.8,297.5a3.37,3.37,0,0,1,.077,1.4.879.879,0,0,1-1.159.7,11.594,11.594,0,0,1-3.44-1.775,13.71,13.71,0,0,1-5.462-9.42,14.415,14.415,0,0,1,.985-7.186c.452-1.083,2.921-5.815,4.182-5.527a.66.66,0,0,1,.368.419c.466,1.2-.087,2.679.133,3.969l3.166-5.217a1.668,1.668,0,0,1,.451-.508.728.728,0,0,1,1.085.253,2.465,2.465,0,0,1,.3,1.262l-.042,4.694.664-.7a12.017,12.017,0,0,1,1.826-1.519.75.75,0,0,1,.555-.134.66.66,0,0,1,.385.327,6.72,6.72,0,0,1,.286,3.542l-.226,2.183a24.017,24.017,0,0,0,.1,4.765,16.406,16.406,0,0,0,.851,3.992c.982,2.779,2.633,4.372,4.854,6.154a2.39,2.39,0,0,1,.939,1.478,1.038,1.038,0,0,1-.822,1.26m-11.653-8.543L59.637,291c-1.874-2.811-2.352-5.768-2.477-9.091a.164.164,0,0,0-.187-.155.18.18,0,0,0-.114.148,14.81,14.81,0,0,0,1.931,9.182,10.189,10.189,0,0,0,2.1,2.558.225.225,0,0,0,.257.02.212.212,0,0,0,.055-.306m6.712,3.547c-.511-.763-1.036-1.442-1.563-2.167l-1.6-2.2a19.087,19.087,0,0,1-3.135-10.083.142.142,0,0,0-.14-.131.125.125,0,0,0-.1.138,24.033,24.033,0,0,0,2.59,10.13,11.525,11.525,0,0,0,3.756,4.574.163.163,0,0,0,.193-.259" transform="translate(-37.948 -197.359)" fill="#feba54"/>
        <path id="Path_1257750" data-name="Path 1257750" d="M126.292,295.7a.183.183,0,0,1-.066.166.123.123,0,0,1-.164-.091,34.93,34.93,0,0,0-2.435-9.554.187.187,0,0,1,.1-.249c.093-.039.177,0,.232.119a24.1,24.1,0,0,1,2.335,9.608" transform="translate(-88.971 -205.824)" fill="#feba54"/>
        <path id="Path_1257751" data-name="Path 1257751" d="M84.223,181.173c.131.345.636,2.1.334,2.158a.164.164,0,0,1-.179-.1l-.687-1.767a13.781,13.781,0,0,0-3.222-4.7c-.053-.057-.063-.129-.02-.163a.145.145,0,0,1,.177,0,9.7,9.7,0,0,1,3.6,4.567" transform="translate(-57.885 -127.093)" fill="#feba54"/>
        <path id="Path_1257752" data-name="Path 1257752" d="M90.151,317.76a.163.163,0,0,1-.193.259,11.525,11.525,0,0,1-3.756-4.574,24.033,24.033,0,0,1-2.59-10.13.125.125,0,0,1,.1-.138.142.142,0,0,1,.14.131,19.087,19.087,0,0,0,3.135,10.083l1.6,2.2c.527.725,1.052,1.4,1.563,2.167" transform="translate(-60.181 -218.216)" fill="#de6c0a"/>
        <path id="Path_1257753" data-name="Path 1257753" d="M71.54,312.752a.212.212,0,0,1-.055.306.226.226,0,0,1-.258-.02,10.205,10.205,0,0,1-2.1-2.558,14.808,14.808,0,0,1-1.931-9.182.18.18,0,0,1,.113-.148.164.164,0,0,1,.187.155c.125,3.323.6,6.28,2.477,9.091Z" transform="translate(-48.282 -216.755)" fill="#de6c0a"/>
        <path id="Path_1257754" data-name="Path 1257754" d="M163.907,152.7a24.335,24.335,0,0,0,.613,3.2,21.292,21.292,0,0,0,2.914,6.783,12.284,12.284,0,0,0,1.677,2.051,10.686,10.686,0,0,0,5.762,2.718c.931.2,1.822.4,2.73.691a9.141,9.141,0,0,1,6.084,5.326,11.068,11.068,0,0,1,.835,4.713c-.052.022-.059.07-.071.136a14.832,14.832,0,0,1-.651,2.578c-.709,1.911-2.026,3.979-4.373,3.677a1.8,1.8,0,0,1-.99-.387c1.736-5.33-2.477-9.329-5.89-12.746l-2.824-2.827a40.145,40.145,0,0,0,2.678,3.211c2.416,2.784,5.519,6.1,5.442,10.019a8.63,8.63,0,0,1-.931,3.823c-1.437,1.706-2.887,2.59-5.164,1.9-1.217-.325-2.237-.845-3.313.233-2.007-3.037-2.616-8.352-2.887-11.94l-.313-4.159a14.239,14.239,0,0,0-.561-3.379,36.892,36.892,0,0,1,.164,4.67c-.133,4.678-.069,11.866,2.913,15.679-1.211,1.445-2.673,1.29-4.288.684-.535-.2-2.014-.834-2.513-.559l-.982.543c-.058.032-.207.119-.28.06a9.589,9.589,0,0,1-2.273-2.606c-2.276-3.878-.972-8.6.538-12.495a3.125,3.125,0,0,0,.143-.432,19.982,19.982,0,0,0-1.148,2.336,16.237,16.237,0,0,0-1.653,7.885,7.622,7.622,0,0,0,2.395,4.982l.8.73c-2.87.425-4.858-2-5.792-4.394a12.36,12.36,0,0,1-.617-6.641,17.153,17.153,0,0,1,1.859-5.544c.039-.069.119-.161.037-.2l.365-.428,2.429-2.382a18.3,18.3,0,0,0,2.042-2.368,8.386,8.386,0,0,0,.48-.787c1.956-3.415.8-6.983-.826-10.232a3.322,3.322,0,0,0,2.606-.671A12.572,12.572,0,0,1,163,161.936c.029.179-.038.355.086.523a13.547,13.547,0,0,0-1.473-6.725,4.354,4.354,0,0,0,2.229-2.946c.01-.054,0-.122.064-.087m5.72,15.786a.454.454,0,0,1-.086-.137.058.058,0,0,0,.008.107c.017.008.046.048.077.03m.078.07a.026.026,0,1,0-.02.031.026.026,0,0,0,.02-.031m-11.554,5.232a.026.026,0,0,0-.031-.02.026.026,0,1,0,.011.05.026.026,0,0,0,.02-.031m24.981,1.684c-.1-1.7-1.551-3.733-2.844-4.812a2.942,2.942,0,0,0-1.371-.7.6.6,0,0,0-.722.327.867.867,0,0,0,.242.686c.357.475.734.885,1.122,1.337a17.857,17.857,0,0,1,1.915,2.836c.206.359.7,1.288,1.108,1.271s.573-.537.55-.941" transform="translate(-109.324 -109.902)" fill="#d3b9c4"/>
        <path id="Path_1257755" data-name="Path 1257755" d="M179.962,218.341a11.16,11.16,0,0,1-1.3,5.039,9.65,9.65,0,0,1-7.788,5.09,5.806,5.806,0,0,1-5.557,1.2c-2.432,1.94-5.248,3.075-8.141,1.294a11.837,11.837,0,0,1-6.627-.3,8.053,8.053,0,0,1-4.972-7.354c-.251-4.079,1.344-7.184,3.842-10.116.082.035,0,.127-.037.2a17.154,17.154,0,0,0-1.859,5.544,12.358,12.358,0,0,0,.617,6.641c.934,2.392,2.922,4.819,5.792,4.394l-.8-.73a7.623,7.623,0,0,1-2.394-4.982,16.237,16.237,0,0,1,1.653-7.885,19.98,19.98,0,0,1,1.148-2.336,3.135,3.135,0,0,1-.143.432c-1.511,3.894-2.814,8.617-.538,12.495a9.589,9.589,0,0,0,2.273,2.606c.073.059.222-.028.28-.06l.982-.543c.5-.276,1.978.358,2.513.558,1.615.607,3.077.761,4.288-.684-2.981-3.812-3.046-11-2.913-15.679a36.832,36.832,0,0,0-.164-4.67,14.219,14.219,0,0,1,.562,3.379l.313,4.159c.27,3.589.879,8.9,2.887,11.94,1.076-1.078,2.1-.558,3.313-.233,2.277.686,3.727-.2,5.164-1.9a8.627,8.627,0,0,0,.93-3.823c.078-3.918-3.025-7.235-5.442-10.019a40.144,40.144,0,0,1-2.678-3.211l2.824,2.827c3.413,3.416,7.626,7.416,5.89,12.746a1.8,1.8,0,0,0,.99.387c2.347.3,3.664-1.765,4.373-3.677a14.831,14.831,0,0,0,.65-2.578c.012-.066.018-.113.071-.136" transform="translate(-104.762 -150.059)" fill="#c4a2af"/>
        <path id="Path_1257756" data-name="Path 1257756" d="M180.746,151.856c-.06-.035-.054.033-.064.087a4.356,4.356,0,0,1-2.229,2.946,13.545,13.545,0,0,1,1.473,6.725c-.124-.168-.057-.344-.086-.523a12.573,12.573,0,0,0-1.926-5.775,3.322,3.322,0,0,1-2.606.671c-.166-.156.537-1.262.662-1.437a7.209,7.209,0,0,1,4.739-3.034Z" transform="translate(-126.162 -109.057)" fill="#c4a2af"/>
        <path id="Path_1257757" data-name="Path 1257757" d="M250.662,219.781c.023.4-.153.925-.55.941s-.9-.912-1.108-1.271a17.859,17.859,0,0,0-1.915-2.836c-.388-.452-.764-.862-1.121-1.337a.867.867,0,0,1-.242-.686.6.6,0,0,1,.722-.327,2.942,2.942,0,0,1,1.371.7c1.292,1.079,2.746,3.11,2.844,4.812" transform="translate(-176.854 -154.211)" fill="#fff"/>
        <path id="Path_1257758" data-name="Path 1257758" d="M214.884,208.706c-.031.018-.06-.022-.077-.03a.057.057,0,0,1-.008-.106.469.469,0,0,0,.086.136" transform="translate(-154.581 -150.122)" fill="#c4a2af"/>
        <path id="Path_1257759" data-name="Path 1257759" d="M215.335,209.255a.026.026,0,0,1-.05.011.026.026,0,1,1,.05-.011" transform="translate(-154.954 -150.6)" fill="#c4a2af"/>
        <path id="Path_1257760" data-name="Path 1257760" d="M174.106,227.924a.026.026,0,0,1-.02.031.026.026,0,0,1-.031-.02.026.026,0,0,1,.02-.031.026.026,0,0,1,.031.02" transform="translate(-125.279 -164.037)" fill="#c4a2af"/>
        <path id="Path_1257761" data-name="Path 1257761" d="M227.241,264.478a4.355,4.355,0,0,0,1.619,3.32,13.547,13.547,0,0,0-2.742,6.315c.154-.141.122-.326.185-.5a12.571,12.571,0,0,1,3-5.294,3.322,3.322,0,0,0,2.427,1.162c-2.226,2.873-4.045,6.152-2.784,9.88a8.393,8.393,0,0,0,.319.865,18.3,18.3,0,0,0,1.547,2.717l1.924,2.805.275.491c-.087.018-.026.124,0,.2a17.158,17.158,0,0,1,.754,5.8,12.363,12.363,0,0,1-1.886,6.4c-1.378,2.167-3.8,4.164-6.531,3.194l.925-.562a7.621,7.621,0,0,0,3.31-4.426,16.236,16.236,0,0,0-.1-8.056,20,20,0,0,0-.676-2.514,3.131,3.131,0,0,0,.057.451c.731,4.112,1.1,9-1.882,12.364a9.594,9.594,0,0,1-2.733,2.118c-.083.044-.212-.07-.263-.113l-.859-.722c-.436-.367-2.01-.031-2.573.063-1.7.283-3.166.153-4.075-1.5,3.661-3.166,5.111-10.207,5.882-14.822a36.935,36.935,0,0,1,1.062-4.55,14.226,14.226,0,0,0-1.2,3.207l-1.11,4.021c-.958,3.469-2.58,8.566-5.136,11.159-.848-1.265-1.949-.951-3.206-.867-2.366.234-3.618-.913-4.7-2.864a8.632,8.632,0,0,1-.176-3.931c.68-3.859,4.364-6.515,7.272-8.781a40,40,0,0,0,3.247-2.634L215.1,281.1c-4.008,2.694-8.914,5.806-8.238,11.371a1.8,1.8,0,0,1-1.046.189c-2.361-.156-3.255-2.439-3.581-4.452a14.818,14.818,0,0,1-.141-2.656c0-.067,0-.115-.043-.147a11.063,11.063,0,0,1,1.729-4.463,9.14,9.14,0,0,1,7-4.052,28.076,28.076,0,0,1,2.812-.151,10.689,10.689,0,0,0,6.179-1.555,12.312,12.312,0,0,0,2.042-1.689,21.3,21.3,0,0,0,4.167-6.093,24.324,24.324,0,0,0,1.218-3.023c.066-.023.047.043.046.1m-8.621,14.274a.058.058,0,0,0,.029-.1.472.472,0,0,1-.11.117c.027.024.063-.01.082-.014m-.158.1a.026.026,0,1,0-.013-.034.026.026,0,0,0,.013.034m10.327,7.362a.026.026,0,1,0-.013-.034.026.026,0,0,0,.013.034M204.3,284.045c.4.094,1.062-.721,1.333-1.034a17.875,17.875,0,0,1,2.426-2.413c.468-.369.916-.7,1.359-1.1.174-.157.391-.382.37-.627-.026-.305-.358-.455-.645-.46a2.943,2.943,0,0,0-1.482.427c-1.476.809-3.294,2.522-3.718,4.173-.1.392-.028.938.358,1.03" transform="translate(-145.429 -190.288)" fill="#d3b9c4"/>
        <path id="Path_1257762" data-name="Path 1257762" d="M201.611,322.641a11.16,11.16,0,0,0,.3,5.195,9.65,9.65,0,0,0,6.66,6.5,5.807,5.807,0,0,0,5.222,2.246c2.012,2.373,4.556,4.029,7.738,2.84a11.843,11.843,0,0,0,6.561.982,8.055,8.055,0,0,0,6.3-6.257c1.033-3.954.067-7.308-1.819-10.667-.087.018-.026.124,0,.2a17.15,17.15,0,0,1,.754,5.8,12.362,12.362,0,0,1-1.886,6.4c-1.378,2.167-3.8,4.164-6.531,3.194l.925-.562a7.623,7.623,0,0,0,3.311-4.427,16.238,16.238,0,0,0-.1-8.055,19.906,19.906,0,0,0-.676-2.514,3.139,3.139,0,0,0,.057.451c.731,4.112,1.1,9-1.882,12.364a9.594,9.594,0,0,1-2.733,2.118c-.083.044-.212-.07-.263-.113l-.858-.722c-.436-.367-2.01-.03-2.573.064-1.7.283-3.166.153-4.075-1.5,3.66-3.166,5.111-10.207,5.882-14.822a36.874,36.874,0,0,1,1.062-4.55,14.227,14.227,0,0,0-1.2,3.207l-1.11,4.021c-.958,3.469-2.58,8.566-5.136,11.159-.848-1.265-1.949-.951-3.206-.867-2.366.234-3.618-.913-4.7-2.864a8.628,8.628,0,0,1-.175-3.931c.68-3.859,4.364-6.515,7.272-8.781a40,40,0,0,0,3.247-2.634l-3.316,2.229c-4.008,2.694-8.914,5.806-8.238,11.37a1.8,1.8,0,0,1-1.046.189c-2.361-.156-3.255-2.439-3.581-4.452a14.849,14.849,0,0,1-.141-2.656c0-.067,0-.115-.043-.147" transform="translate(-144.989 -227.522)" fill="#c4a2af"/>
        <path id="Path_1257763" data-name="Path 1257763" d="M289.01,263.556c.066-.023.047.042.045.1a4.356,4.356,0,0,0,1.619,3.32,13.544,13.544,0,0,0-2.742,6.315c.154-.141.122-.326.185-.5a12.574,12.574,0,0,1,3-5.294,3.322,3.322,0,0,0,2.427,1.162c.193-.121-.283-1.342-.372-1.538a7.209,7.209,0,0,0-4.065-3.891Z" transform="translate(-207.244 -189.465)" fill="#c4a2af"/>
        <path id="Path_1257764" data-name="Path 1257764" d="M208.683,319.076c-.1.392-.028.937.358,1.03s1.062-.721,1.333-1.034a17.861,17.861,0,0,1,2.426-2.413c.468-.369.916-.7,1.358-1.1.175-.157.391-.382.37-.627-.026-.305-.358-.455-.645-.46a2.945,2.945,0,0,0-1.482.427c-1.476.809-3.294,2.522-3.718,4.173" transform="translate(-150.173 -226.349)" fill="#fff"/>
        <path id="Path_1257765" data-name="Path 1257765" d="M260.884,315.426c.027.024.064-.01.082-.014a.058.058,0,0,0,.029-.1.467.467,0,0,1-.11.117" transform="translate(-187.775 -226.949)" fill="#c4a2af"/>
        <path id="Path_1257766" data-name="Path 1257766" d="M260.557,315.879a.026.026,0,1,0,.047.02.026.026,0,1,0-.047-.02" transform="translate(-187.538 -227.348)" fill="#c4a2af"/>
        <path id="Path_1257767" data-name="Path 1257767" d="M297.41,342.151a.026.026,0,1,0,.047.02.026.026,0,0,0-.047-.02" transform="translate(-214.064 -246.257)" fill="#c4a2af"/>
      </g>
    </g>
  </g>
</svg>
