<svg xmlns="http://www.w3.org/2000/svg" xmlns:xlink="http://www.w3.org/1999/xlink" width="114" height="114" viewBox="0 0 114 114">
  <defs>
    <clipPath id="clip-path">
      <rect id="Rectangle_411065" data-name="Rectangle 411065" width="91.011" height="114" fill="none"/>
    </clipPath>
  </defs>
  <g id="Group_1207771" data-name="Group 1207771" transform="translate(8984 7273)">
    <g id="Group_1207766" data-name="Group 1207766" transform="translate(-8973 -7273)">
      <g id="Group_1207765" data-name="Group 1207765" clip-path="url(#clip-path)">
        <path id="Path_1257820" data-name="Path 1257820" d="M91.222,85.582A45.361,45.361,0,1,1,45.861,40.221,45.361,45.361,0,0,1,91.222,85.582" transform="translate(-0.355 -28.582)" fill="#fff"/>
        <ellipse id="Ellipse_12986" data-name="Ellipse 12986" cx="45.361" cy="45.361" rx="45.361" ry="45.361" transform="translate(0.145 11.639)" fill="none" stroke="#366023" stroke-miterlimit="10" stroke-width="1"/>
        <path id="Path_1257821" data-name="Path 1257821" d="M106.274,234.414c-.245-.232-.49-.359-.7-.587-2.833-3.154-5.283-7.56-7.406-11.316a10.922,10.922,0,0,1,3.068-2.062.859.859,0,0,0,.534-1.068.832.832,0,0,0-1.18-.49,12.884,12.884,0,0,0-3.355,1.867l-7.333-14.775a14.068,14.068,0,0,1,5.753-3.222.865.865,0,0,0,.475-.943.794.794,0,0,0-.9-.648,14.745,14.745,0,0,0-4.1,1.588,8.84,8.84,0,0,0-2,1.488c-1.486-3.3-2.931-6.649-4.23-10.187a19.063,19.063,0,0,1,5.482-2.943l1.568-.553a.848.848,0,0,0,.744-.976.836.836,0,0,0-.961-.7,10.681,10.681,0,0,0-1.791.483,17.675,17.675,0,0,0-5.571,2.8c-1.131-4.189.608-7.662,4.122-9.887a18.785,18.785,0,0,1,6.672-2.623c3.384-.622,7.179-.745,10.174,1.164,2.465,1.571,3.616,4.594,3.965,7.38l.467,3.734a14.48,14.48,0,0,0-5.626.017,3.189,3.189,0,0,0-1.342.328.911.911,0,0,0-.276,1.059.879.879,0,0,0,1.02.472,18.615,18.615,0,0,1,6.4.005l.889,16.167a14.413,14.413,0,0,0-6.161.381c-.444.136-.458.848-.34,1.125a.971.971,0,0,0,1.14.432,16.83,16.83,0,0,1,5.4-.118c.11,6.111.312,12.981-.676,19-.169,1.028-.875,4.319-2.073,4.457a2.411,2.411,0,0,1-1.865-.844" transform="translate(-59.717 -127.373)" fill="#e65a19"/>
        <path id="Path_1257822" data-name="Path 1257822" d="M67.241,144.935A3.6,3.6,0,0,1,63,146.143c-2.131-.815-4.07-3.384-5.359-5.264a85.517,85.517,0,0,1-4.477-7.351c-4.5-8.222-8.558-16.612-12.221-25.24a54.38,54.38,0,0,1-2.263-6.214c-1.948-6.738,1.343-11.439,7.4-14.261l-1.423-1.39c-2.185-.271-4.3-.379-6.487-.537a9.325,9.325,0,0,1-3.113-.56A1.819,1.819,0,0,1,34,82.9c-2.473-.641-5.919-1.726-7.521-3.764a2.865,2.865,0,0,1,.189-3.855c-2.069-1.687-4.4-4.6-3.715-7.461a4.219,4.219,0,0,1,2.8-2.922,6.39,6.39,0,0,1,5.338.6,17.045,17.045,0,0,1,3.086,2.525,1.9,1.9,0,0,1,2.153-1.127C35.11,65.209,34.131,62.9,35,60.968a2.779,2.779,0,0,1,2.08-1.651A9.341,9.341,0,0,1,36.94,55.8a5.787,5.787,0,0,1,6.927-4.838c2.679.6,4.239,2.653,5.055,5.184,2.669-.691,3.916,1.856,4.367,4A13.69,13.69,0,0,1,53,66.1a4.745,4.745,0,0,1,1.635-.91c.557-2.691,1.558-5.458,3.67-7.332a6.255,6.255,0,0,1,4.042-1.635,4.306,4.306,0,0,1,4.312,3.267,12.233,12.233,0,0,1-.712,7.013c2.3.787,1.851,3.623.987,5.329a9.378,9.378,0,0,1-2.227,2.879l-3.271,2.85A28.786,28.786,0,0,0,54.9,85.632l2.072.071a10.962,10.962,0,0,1,9.817,5.963,17.088,17.088,0,0,1,1.4,4.781,67.4,67.4,0,0,1,.754,6.776l.625,10.162a188.79,188.79,0,0,1,.015,23.075c-.252,2.665-.676,6.3-2.343,8.476M48.973,86.711l-1.433-5.9-2.073-1.376c.568,2.5,1.659,5.514,3.506,7.28m2.6-.532a8.285,8.285,0,0,0,.977-4.6,16.854,16.854,0,0,0-.727-3.541l-1.733,2.585Zm11.206,56.975a2.411,2.411,0,0,0,1.865.844c1.2-.138,1.9-3.429,2.073-4.457.988-6.022.786-12.893.676-19a16.83,16.83,0,0,0-5.4.118.971.971,0,0,1-1.14-.432c-.118-.278-.1-.99.34-1.125a14.413,14.413,0,0,1,6.161-.381l-.889-16.167a18.615,18.615,0,0,0-6.4-.005.879.879,0,0,1-1.02-.472.911.911,0,0,1,.276-1.059,3.189,3.189,0,0,1,1.342-.328,14.479,14.479,0,0,1,5.626-.017l-.467-3.734c-.349-2.786-1.5-5.809-3.965-7.38-3-1.909-6.791-1.786-10.174-1.164A18.785,18.785,0,0,0,45,91.015c-3.514,2.225-5.253,5.7-4.122,9.887a17.675,17.675,0,0,1,5.571-2.8,10.682,10.682,0,0,1,1.791-.483.836.836,0,0,1,.961.7.848.848,0,0,1-.744.976l-1.568.553a19.063,19.063,0,0,0-5.482,2.943c1.3,3.538,2.744,6.885,4.23,10.187a8.841,8.841,0,0,1,2-1.488,14.745,14.745,0,0,1,4.1-1.588.794.794,0,0,1,.9.648.864.864,0,0,1-.475.943,14.069,14.069,0,0,0-5.753,3.222L53.744,129.5a12.884,12.884,0,0,1,3.355-1.867.832.832,0,0,1,1.18.49.859.859,0,0,1-.534,1.068,10.922,10.922,0,0,0-3.068,2.062c2.123,3.756,4.573,8.163,7.406,11.316.205.228.45.355.7.587" transform="translate(-16.221 -36.114)" fill="#040405"/>
        <path id="Path_1257823" data-name="Path 1257823" d="M163.828,220.253c-.21-.33-.45-.542-.617-.857-2.3-4.347-3.814-10-5.146-14.821a12.668,12.668,0,0,1,4.033-1.455,1,1,0,0,0,.9-1.052.965.965,0,0,0-1.19-.883,14.951,14.951,0,0,0-4.3,1.156l-4.089-18.692a16.321,16.321,0,0,1,7.382-2c.481-.021.8-.613.8-.928a.92.92,0,0,0-.833-.983,17.1,17.1,0,0,0-5.06.631,10.271,10.271,0,0,0-2.665,1.113c-.742-4.134-1.425-8.308-1.89-12.655a22.116,22.116,0,0,1,7-1.767l1.92-.181a.984.984,0,0,0,1.112-.889.969.969,0,0,0-.883-1.062,12.375,12.375,0,0,0-2.152.039,20.507,20.507,0,0,0-7.057,1.576c-.092-5.033,2.843-8.451,7.424-9.964a21.8,21.8,0,0,1,8.247-1.072c3.983.253,8.289,1.185,11.121,4.177,2.331,2.463,2.775,6.188,2.382,9.422l-.527,4.333a16.794,16.794,0,0,0-6.335-1.566,3.7,3.7,0,0,0-1.6-.009,1.057,1.057,0,0,0-.609,1.114,1.02,1.02,0,0,0,1.015.819,21.584,21.584,0,0,1,7.2,1.81l-3.554,18.442a16.724,16.724,0,0,0-7.039-1.308c-.538.028-.754.825-.7,1.171a1.126,1.126,0,0,0,1.162.808,19.518,19.518,0,0,1,6.113,1.389c-1.6,6.908-3.307,14.7-6.115,21.194-.479,1.109-2.2,4.613-3.588,4.431a2.8,2.8,0,0,1-1.861-1.475" transform="translate(-107.368 -110.472)" fill="#e65a19"/>
        <path id="Path_1257824" data-name="Path 1257824" d="M140.2,113.043a4.176,4.176,0,0,1-5.108.165c-2.168-1.518-3.627-4.955-4.547-7.433a99.184,99.184,0,0,1-2.967-9.534c-2.752-10.522-4.95-21.1-6.641-31.845a62.967,62.967,0,0,1-.795-7.63c-.294-8.131,4.734-12.495,12.34-13.964l-1.21-1.965c-2.382-.92-4.735-1.638-7.148-2.432a10.821,10.821,0,0,1-3.345-1.507,2.111,2.111,0,0,1-.508-3.032c-2.6-1.418-6.174-3.61-7.4-6.355a3.324,3.324,0,0,1,1.3-4.285c-1.853-2.481-3.658-6.412-2.078-9.443a4.9,4.9,0,0,1,3.972-2.5,7.414,7.414,0,0,1,5.839,2.175,19.781,19.781,0,0,1,2.761,3.711,2.206,2.206,0,0,1,2.74-.662c-.894-2.231-1.344-5.106.176-7.035A3.222,3.222,0,0,1,130.386,8.2a10.834,10.834,0,0,1,.834-4A6.713,6.713,0,0,1,140.379.712c2.847,1.428,4.023,4.18,4.228,7.258,3.2-.026,3.884,3.192,3.786,5.736a15.879,15.879,0,0,1-2,6.613,5.492,5.492,0,0,1,2.1-.563c1.385-2.871,3.291-5.7,6.2-7.217a7.253,7.253,0,0,1,5.009-.7,5,5,0,0,1,3.932,4.891,14.191,14.191,0,0,1-2.777,7.691c2.363,1.533,1.061,4.6-.391,6.274a10.881,10.881,0,0,1-3.318,2.613l-4.484,2.285a33.394,33.394,0,0,0-9.63,7.241l2.312.664c4.592,1.318,8.379,4.653,9.367,9.477a19.81,19.81,0,0,1,.226,5.773,78.064,78.064,0,0,1-1.061,7.837L151.712,78.2c-1.3,6.982-4.165,19.4-6.485,25.97-1.034,2.927-2.537,6.9-5.024,8.878m-4.152-70.666.051-7.047L134.158,33.2c-.066,2.976.313,6.672,1.894,9.179m3.076.134a9.608,9.608,0,0,0,2.4-4.9,19.533,19.533,0,0,0,.179-4.188l-2.678,2.421Zm-3.443,67.271a2.8,2.8,0,0,0,1.861,1.475c1.387.182,3.109-3.322,3.588-4.431,2.808-6.5,4.517-14.286,6.115-21.194a19.518,19.518,0,0,0-6.113-1.389,1.127,1.127,0,0,1-1.162-.808c-.054-.346.162-1.143.7-1.171a16.724,16.724,0,0,1,7.039,1.308l3.554-18.442a21.584,21.584,0,0,0-7.2-1.809,1.02,1.02,0,0,1-1.015-.819,1.057,1.057,0,0,1,.609-1.114,3.7,3.7,0,0,1,1.6.009,16.794,16.794,0,0,1,6.335,1.566l.527-4.333c.393-3.234-.051-6.959-2.382-9.422-2.832-2.992-7.138-3.924-11.121-4.177a21.8,21.8,0,0,0-8.247,1.072c-4.581,1.513-7.516,4.932-7.424,9.964a20.507,20.507,0,0,1,7.057-1.576,12.375,12.375,0,0,1,2.152-.039.969.969,0,0,1,.883,1.062.984.984,0,0,1-1.112.889l-1.92.181a22.116,22.116,0,0,0-7,1.767c.465,4.348,1.148,8.521,1.89,12.655a10.27,10.27,0,0,1,2.665-1.113,17.1,17.1,0,0,1,5.06-.631.92.92,0,0,1,.833.983c0,.315-.319.907-.8.928a16.321,16.321,0,0,0-7.382,2l4.089,18.692a14.951,14.951,0,0,1,4.3-1.156.965.965,0,0,1,1.19.883,1,1,0,0,1-.9,1.052,12.667,12.667,0,0,0-4.033,1.455c1.331,4.825,2.846,10.474,5.146,14.821.166.315.406.526.617.857" transform="translate(-79.224 0)" fill="#040405"/>
      </g>
    </g>
    <rect id="Rectangle_411067" data-name="Rectangle 411067" width="114" height="114" transform="translate(-8984 -7273)" fill="none"/>
  </g>
</svg>
