<svg xmlns="http://www.w3.org/2000/svg" xmlns:xlink="http://www.w3.org/1999/xlink" width="114" height="114" viewBox="0 0 114 114">
  <defs>
    <clipPath id="clip-path">
      <rect id="Rectangle_411064" data-name="Rectangle 411064" width="112.356" height="101.457" fill="none"/>
    </clipPath>
  </defs>
  <g id="Group_1207770" data-name="Group 1207770" transform="translate(9248 7247)">
    <g id="Group_1207764" data-name="Group 1207764" transform="translate(-9247 -7241)">
      <g id="Group_1207763" data-name="Group 1207763" clip-path="url(#clip-path)">
        <path id="Path_1257809" data-name="Path 1257809" d="M118.527,51.067A50.567,50.567,0,1,1,67.96.5a50.567,50.567,0,0,1,50.567,50.567" transform="translate(-11.782 -0.339)" fill="#fff"/>
        <ellipse id="Ellipse_12985" data-name="Ellipse 12985" cx="50.567" cy="50.567" rx="50.567" ry="50.567" transform="translate(5.611 0.161)" fill="none" stroke="#366023" stroke-miterlimit="10" stroke-width="1"/>
        <path id="Path_1257810" data-name="Path 1257810" d="M76.119,112.329A90.393,90.393,0,0,1,63,113.58a121.333,121.333,0,0,1-20.512-1.1c-10.217-1.475-19.764-3.868-28.187-10.054A35.06,35.06,0,0,1,.078,75.622,43.114,43.114,0,0,1,2.535,58.056,34.823,34.823,0,0,1,25.626,36.321,46.441,46.441,0,0,1,39.968,34.28c10.133.075,16.249,2.014,25.791,3.184,3.77.462,7.4.9,11.129,1.649,10.214,2.052,19.929,6.256,27.1,13.971,6.076,6.54,8.694,14.546,8.34,23.433a35.263,35.263,0,0,1-8.433,21.534c-7.163,8.324-17,12.5-27.773,14.279m15.058-8.658c.328-.18.562-.37.91-.566l.9-.509c1.33-.748,2.708-1.913,3.61-2.5l.714-.464a34.121,34.121,0,0,0,3.335-3.286l.745-.925a30.029,30.029,0,0,0,3.715-5.431,30.875,30.875,0,0,0,3.581-13.331c.313-5.131-.718-11.28-3.357-15.657l-1.278-2.12c-.372-.617-1.859-2.438-2.393-3.065-.392-.46-.809-.835-1.178-1.319-.463-.609-1.1-1.059-1.622-1.625a15.5,15.5,0,0,0-2.954-2.234L93.318,48.9c-6.563-4.423-17.36-6.512-25.188-7.448-1.782-.213-3.473-.454-5.256-.573a9.366,9.366,0,0,1-1.2-.205L54.268,39.3a76.453,76.453,0,0,0-17.791-1.37,38.91,38.91,0,0,0-16.437,4.6,7.056,7.056,0,0,1-1.064.676c-1.163.431-2.74,1.89-4,2.734a31.167,31.167,0,0,0-3.193,3.05c.428-.444-1.794,2.425-1.75,2.378a7.456,7.456,0,0,0-1.369,2.169c-.176.406-.545.673-.755,1.085A36.255,36.255,0,0,0,4.2,65.678a33.858,33.858,0,0,0-.476,3.4A44.475,44.475,0,0,0,3.847,77l.091.718a29,29,0,0,0,3.981,12.21l1.248,1.931a39.164,39.164,0,0,0,3.493,4.419,35.114,35.114,0,0,0,4.054,3.374l1.692,1.172,2.307,1.361c8.242,4.864,21.141,7.014,30.589,7.586l2.578.156,2.1.126a77.725,77.725,0,0,0,8.133-.016c8.853-.386,19.2-2.068,27.062-6.364" transform="translate(0 -23.22)" fill="#040405"/>
        <path id="Path_1257811" data-name="Path 1257811" d="M140.342,230.359a2.684,2.684,0,0,1,1.2,2.714c-.7,1.85-4.572,1.289-6.119-1.021a1.955,1.955,0,0,1-.156-1.937,1.907,1.907,0,0,1,1.6-.951,5.7,5.7,0,0,1,3.48,1.195" transform="translate(-91.504 -155.232)" fill="#352619"/>
        <path id="Path_1257812" data-name="Path 1257812" d="M98.753,111.163c-7.858,4.3-18.208,5.978-27.062,6.364a77.636,77.636,0,0,1-8.133.016l-2.1-.126-2.578-.156c-9.448-.573-22.347-2.723-30.589-7.586l-2.307-1.361-1.692-1.172a35.11,35.11,0,0,1-4.054-3.374,39.1,39.1,0,0,1-3.494-4.419L15.5,97.417a28.994,28.994,0,0,1-3.981-12.21l-.091-.718a44.442,44.442,0,0,1-.125-7.916,33.77,33.77,0,0,1,.476-3.4,36.251,36.251,0,0,1,3.7-11.058c.21-.412.578-.678.755-1.085A7.451,7.451,0,0,1,17.6,58.858c-.044.047,2.178-2.821,1.75-2.378a31.14,31.14,0,0,1,3.193-3.05c1.264-.844,2.841-2.3,4-2.733a7.1,7.1,0,0,0,1.064-.676,38.9,38.9,0,0,1,16.437-4.6A76.435,76.435,0,0,1,61.844,46.8l7.409,1.366a9.377,9.377,0,0,0,1.2.205c1.783.118,3.475.36,5.256.573,7.828.936,18.626,3.025,25.188,7.449l2.591,1.746a15.5,15.5,0,0,1,2.954,2.234c.521.566,1.159,1.016,1.622,1.625.368.485.786.86,1.178,1.32.534.627,2.02,2.448,2.393,3.065l1.278,2.12c2.639,4.377,3.67,10.526,3.357,15.657a30.876,30.876,0,0,1-3.58,13.331,30.057,30.057,0,0,1-3.715,5.43l-.745.925a34.126,34.126,0,0,1-3.335,3.286l-.714.463c-.9.586-2.28,1.75-3.61,2.5l-.9.509c-.348.2-.582.387-.91.566M47.286,51.225a1.774,1.774,0,0,0-.893-1.523c-1.752-.9-3.988,1.747-4.067,3.595a1.73,1.73,0,0,0,.693,1.459,1.794,1.794,0,0,0,1.582.075c1.328-.3,2.685-2.474,2.685-3.606m31.07,11.132a1.392,1.392,0,0,0,1.618,1.4,3.954,3.954,0,0,0,3.573-3.432,1.62,1.62,0,0,0-1.768-1.687,4.218,4.218,0,0,0-1.717.645,3.669,3.669,0,0,0-1.7,3.077m-49.771.2c.055-1.087-.462-2.143-1.613-2.185-.5-.018-.976.39-1.412.62-1.486.785-2.854,5.739-.821,6.344,1.751.522,3.728-2.429,3.846-4.78m70.17,21.052c1.565,1.485,5.012-1.288,5.061-4.375a1.587,1.587,0,0,0-1.862-1.69c-3.309.829-4.23,5.088-3.2,6.065m-49.79-1.124a5.53,5.53,0,0,0,.947-2.9,1.591,1.591,0,0,0-.8-1.5,1.507,1.507,0,0,0-1.582.194c-1.8,1.428-2.774,4.535-1.377,5.476.868.585,2.32-.352,2.812-1.273M28.22,96.5a2.039,2.039,0,0,0,2.189-.651,1.925,1.925,0,0,0,.23-1.591,5.658,5.658,0,0,0-2.077-3.248,4.131,4.131,0,0,0-2.846-.859c-.173.276-.546.451-.677.751a4.16,4.16,0,0,0,.929,4.02A5.039,5.039,0,0,0,28.22,96.5m53.4-2.041a1.5,1.5,0,0,0-1.643.165c-2.131,1.639-2.72,5.186-1.021,6.067a1.669,1.669,0,0,0,1.488-.16c1.816-.839,3.2-5.059,1.176-6.072M56.414,105.839a5.7,5.7,0,0,0-3.48-1.195,1.907,1.907,0,0,0-1.6.951,1.955,1.955,0,0,0,.156,1.937c1.546,2.31,5.417,2.871,6.119,1.021a2.684,2.684,0,0,0-1.2-2.714" transform="translate(-7.576 -30.712)" fill="#c27e3f"/>
        <path id="Path_1257813" data-name="Path 1257813" d="M56.881,190.594a5.039,5.039,0,0,1-2.252-1.578A4.16,4.16,0,0,1,53.7,185c.131-.3.5-.475.677-.75a4.131,4.131,0,0,1,2.846.859,5.655,5.655,0,0,1,2.076,3.248,1.924,1.924,0,0,1-.23,1.591,2.04,2.04,0,0,1-2.189.651" transform="translate(-36.237 -124.808)" fill="#352619"/>
        <path id="Path_1257814" data-name="Path 1257814" d="M281.8,151.162c-1.03-.977-.109-5.236,3.2-6.065a1.586,1.586,0,0,1,1.861,1.69c-.049,3.087-3.5,5.859-5.061,4.375" transform="translate(-190.623 -98.26)" fill="#352619"/>
        <path id="Path_1257815" data-name="Path 1257815" d="M54.892,94.139c-.118,2.351-2.094,5.3-3.846,4.78-2.033-.605-.664-5.56.822-6.345.436-.23.914-.639,1.412-.62,1.15.043,1.667,1.1,1.613,2.185" transform="translate(-33.884 -62.29)" fill="#352619"/>
        <path id="Path_1257816" data-name="Path 1257816" d="M221.863,197.24c2.024,1.012.641,5.232-1.176,6.072a1.667,1.667,0,0,1-1.487.16c-1.7-.88-1.11-4.427,1.021-6.067a1.5,1.5,0,0,1,1.643-.165" transform="translate(-147.818 -133.496)" fill="#352619"/>
        <path id="Path_1257817" data-name="Path 1257817" d="M219.4,90.273a3.668,3.668,0,0,1,1.7-3.076,4.222,4.222,0,0,1,1.717-.646,1.621,1.621,0,0,1,1.768,1.687,3.954,3.954,0,0,1-3.573,3.432,1.392,1.392,0,0,1-1.618-1.4" transform="translate(-148.623 -58.628)" fill="#352619"/>
        <path id="Path_1257818" data-name="Path 1257818" d="M112.677,60.009c0,1.132-1.357,3.305-2.685,3.606a1.793,1.793,0,0,1-1.582-.075,1.728,1.728,0,0,1-.693-1.459c.079-1.847,2.315-4.494,4.067-3.595a1.774,1.774,0,0,1,.894,1.523" transform="translate(-72.967 -39.496)" fill="#352619"/>
        <path id="Path_1257819" data-name="Path 1257819" d="M121,150.977c-.492.921-1.944,1.858-2.812,1.273-1.4-.941-.423-4.048,1.377-5.476a1.506,1.506,0,0,1,1.582-.194,1.59,1.59,0,0,1,.8,1.5,5.53,5.53,0,0,1-.947,2.9" transform="translate(-79.61 -99.2)" fill="#352619"/>
      </g>
    </g>
    <rect id="Rectangle_411068" data-name="Rectangle 411068" width="114" height="114" transform="translate(-9248 -7247)" fill="none"/>
  </g>
</svg>
