<svg xmlns="http://www.w3.org/2000/svg" width="79.517" height="79.516" viewBox="0 0 79.517 79.516">
  <g id="Group_1207781" data-name="Group 1207781" transform="translate(-1021.967 -3102.655)">
    <g id="Group_1200255" data-name="Group 1200255" transform="translate(1021.967 3102.655)">
      <g id="Group_1187152" data-name="Group 1187152" transform="translate(0 0)">
        <g id="Group_1185946" data-name="Group 1185946">
          <g id="Group_1184280" data-name="Group 1184280">
            <g id="Group_1182168" data-name="Group 1182168">
              <g id="Group_1178877" data-name="Group 1178877">
                <g id="Group_1111311" data-name="Group 1111311">
                  <g id="Group_1098742" data-name="Group 1098742" transform="translate(0 0)">
                    <g id="Rectangle_400898" data-name="Rectangle 400898" transform="translate(0 0)" fill="#cfe0b9" stroke="#435829" stroke-width="1" opacity="0.859">
                      <rect width="79.516" height="79.516" rx="39.758" stroke="none"/>
                      <rect x="0.5" y="0.5" width="78.516" height="78.516" rx="39.258" fill="none"/>
                    </g>
                    <g id="Rectangle_400907" data-name="Rectangle 400907" transform="translate(0 0)" fill="#fff" stroke="#435829" stroke-width="1">
                      <rect width="79.516" height="79.516" rx="39.758" stroke="none"/>
                      <rect x="0.5" y="0.5" width="78.516" height="78.516" rx="39.258" fill="none"/>
                    </g>
                  </g>
                </g>
              </g>
            </g>
          </g>
        </g>
      </g>
    </g>
    <g id="vegetables_8411141_1_" data-name="vegetables_8411141 (1)" transform="translate(1029.258 3109.551)">
      <g id="Group_1202378" data-name="Group 1202378" transform="translate(0 12.755)">
        <path id="Path_1246266" data-name="Path 1246266" d="M32.828,113.341a7.935,7.935,0,0,0-7.886-5.208,7.933,7.933,0,0,0-14.267,5.193,7.931,7.931,0,0,0-.337,12.422,7.931,7.931,0,0,0,10.523,8.832l9.938-3.617a7.931,7.931,0,0,0,2.385-13.53A7.89,7.89,0,0,0,32.828,113.341Z" transform="translate(-7.501 -104.959)" fill="#a2e62e"/>
        <path id="Path_1246267" data-name="Path 1246267" d="M62.772,135.851a7.892,7.892,0,0,0-2.356-3.363,7.931,7.931,0,0,0-8.243-9.3,7.877,7.877,0,0,0-.8-.906,16.561,16.561,0,0,1-12.544,24.38,7.935,7.935,0,0,0,9.26,2.972l9.938-3.617A7.932,7.932,0,0,0,62.772,135.851Z" transform="translate(-34.733 -120.016)" fill="#97d729"/>
      </g>
      <path id="Path_1246268" data-name="Path 1246268" d="M343.491,19.4h-3.966V9.483A1.983,1.983,0,0,1,341.508,7.5h0a1.983,1.983,0,0,1,1.983,1.983V19.4Z" transform="translate(-296.072 -7.5)" fill="#a2e62e"/>
      <path id="Path_1246269" data-name="Path 1246269" d="M262.865,65.578a6.906,6.906,0,1,0-13.812,0c-.037,6.47-5.971,5-7.673,12.858-1.255,5.8,4.81,10.742,10.742,10.742a10.742,10.742,0,0,0,10.742-10.742C262.865,75.629,262.865,67.872,262.865,65.578Z" transform="translate(-210.627 -51.975)" fill="#bd80e1"/>
      <path id="Path_1246270" data-name="Path 1246270" d="M262.867,138.549V129a9.177,9.177,0,0,0-6.97,3.791,15.88,15.88,0,0,0-7.13-4.952c-1.212,4.1-5.9,3.865-7.385,10.713-1.255,5.8,4.81,10.742,10.742,10.742A10.742,10.742,0,0,0,262.867,138.549Z" transform="translate(-210.629 -112.087)" fill="#af66da"/>
      <g id="Group_1202379" data-name="Group 1202379" transform="translate(20.624 13.485)">
        <ellipse id="Ellipse_12419" data-name="Ellipse 12419" cx="11.898" cy="10.576" rx="11.898" ry="10.576" transform="translate(0 5.288)" fill="#fe646f"/>
        <path id="Path_1246271" data-name="Path 1246271" d="M185.739,175.663c.019.242.029.485.029.731,0,5.841-5.327,10.576-11.9,10.576a12.62,12.62,0,0,1-8.564-3.235c.422,5.5,5.575,9.845,11.87,9.845,6.571,0,11.9-4.735,11.9-10.576A9.964,9.964,0,0,0,185.739,175.663Z" transform="translate(-165.276 -167.14)" fill="#fd4755"/>
        <path id="Path_1246272" data-name="Path 1246272" d="M207.535,114.8l.106-3.175a1.058,1.058,0,0,0-1.057-1.093H204.8a1.058,1.058,0,0,0-1.057,1.093l.106,3.175a1.319,1.319,0,0,1-1.032,1.333,12.466,12.466,0,0,0-4.7,2.107l4.273.517a1.983,1.983,0,0,1,1.037.45l.99.831a1.983,1.983,0,0,0,2.55,0l.99-.831a1.983,1.983,0,0,1,1.037-.45l4.273-.517a12.465,12.465,0,0,0-4.7-2.107A1.319,1.319,0,0,1,207.535,114.8Z" transform="translate(-193.796 -110.536)" fill="#a2e62e"/>
      </g>
      <g id="Group_1202380" data-name="Group 1202380" transform="translate(39.064 12.069)">
        <path id="Path_1246273" data-name="Path 1246273" d="M419.212,111.478s6.159,1.372,8.225-2.249a3.769,3.769,0,0,0-.26-4.132,3.767,3.767,0,0,0-6.524-3.722,3.769,3.769,0,0,0-3.689,1.878C414.9,106.874,419.212,111.478,419.212,111.478Z" transform="translate(-401.953 -99.723)" fill="#a2e62e"/>
        <path id="Path_1246274" data-name="Path 1246274" d="M432.429,115.231a3.771,3.771,0,0,0-.38-3.849,8.662,8.662,0,0,1-9.6,7.235,13.356,13.356,0,0,0,2.018,2.995s6.159,1.372,8.225-2.249A3.769,3.769,0,0,0,432.429,115.231Z" transform="translate(-407.206 -109.856)" fill="#97d729"/>
        <path id="Path_1246275" data-name="Path 1246275" d="M314.812,170.134l-8.478,20.385a4.493,4.493,0,0,0,1.922,5.627h0a4.493,4.493,0,0,0,5.822-1.209l13.235-17.671a5.237,5.237,0,0,0-1.6-7.687l-3.475-1.982A5.236,5.236,0,0,0,314.812,170.134Z" transform="translate(-305.989 -158.114)" fill="#fe9738"/>
        <path id="Path_1246276" data-name="Path 1246276" d="M326.547,183.545l-1-.57a5.224,5.224,0,0,1-.727,4.936l-13.235,17.671a4.493,4.493,0,0,1-4.643,1.676,4.486,4.486,0,0,0,2.142,2.854h0a4.493,4.493,0,0,0,5.822-1.209l13.235-17.671A5.237,5.237,0,0,0,326.547,183.545Z" transform="translate(-306.819 -172.08)" fill="#fe860a"/>
      </g>
      <path id="Path_1246277" data-name="Path 1246277" d="M71.222,304.263H8.822A1.322,1.322,0,0,1,7.5,302.941v-9.254a1.322,1.322,0,0,1,1.322-1.322h62.4a1.322,1.322,0,0,1,1.322,1.322v9.254A1.322,1.322,0,0,1,71.222,304.263Z" transform="translate(-7.5 -255.084)" fill="#e8ad8c"/>
      <path id="Path_1246278" data-name="Path 1246278" d="M71.222,425.483H8.822A1.322,1.322,0,0,1,7.5,424.161v-9.254a1.322,1.322,0,0,1,1.322-1.322h62.4a1.322,1.322,0,0,1,1.322,1.322v9.254A1.322,1.322,0,0,1,71.222,425.483Z" transform="translate(-7.5 -360.44)" fill="#e8ad8c"/>
      <path id="Path_1246279" data-name="Path 1246279" d="M475.083,304.263h-2.909v-11.9h2.909a1.322,1.322,0,0,1,1.322,1.322v9.254A1.322,1.322,0,0,1,475.083,304.263Z" transform="translate(-411.361 -255.084)" fill="#e19974"/>
      <path id="Path_1246280" data-name="Path 1246280" d="M475.083,425.483h-2.909v-11.9h2.909a1.322,1.322,0,0,1,1.322,1.322v9.254A1.322,1.322,0,0,1,475.083,425.483Z" transform="translate(-411.361 -360.44)" fill="#e19974"/>
      <rect id="Rectangle_410629" data-name="Rectangle 410629" width="60.813" height="3.966" transform="translate(2.115 49.179)" fill="#d77f4a"/>
      <path id="Path_1246281" data-name="Path 1246281" d="M10.574,129.484a7.88,7.88,0,0,1-.237-3.739,7.93,7.93,0,0,1,.336-12.422,7.934,7.934,0,0,1,14.267-5.193,7.935,7.935,0,0,1,7.822,5.042" transform="translate(-7.5 -92.203)" fill="none" stroke="#000" stroke-linecap="round" stroke-linejoin="round" stroke-miterlimit="10" stroke-width="1"/>
      <line id="Line_727" data-name="Line 727" x2="7.681" y2="19.037" transform="translate(10.403 18.244)" fill="none" stroke="#000" stroke-linecap="round" stroke-linejoin="round" stroke-miterlimit="10" stroke-width="1"/>
      <line id="Line_728" data-name="Line 728" y2="6.685" transform="translate(13.846 20.095)" fill="none" stroke="#000" stroke-linecap="round" stroke-linejoin="round" stroke-miterlimit="10" stroke-width="1"/>
      <line id="Line_729" data-name="Line 729" y2="8.977" transform="translate(17.16 26.016)" fill="none" stroke="#000" stroke-linecap="round" stroke-linejoin="round" stroke-miterlimit="10" stroke-width="1"/>
      <line id="Line_730" data-name="Line 730" x2="4.918" y2="4.669" transform="translate(10.102 25.018)" fill="none" stroke="#000" stroke-linecap="round" stroke-linejoin="round" stroke-miterlimit="10" stroke-width="1"/>
      <line id="Line_731" data-name="Line 731" x2="7.088" y2="6.699" transform="translate(10.995 30.582)" fill="none" stroke="#000" stroke-linecap="round" stroke-linejoin="round" stroke-miterlimit="10" stroke-width="1"/>
      <path id="Path_1246282" data-name="Path 1246282" d="M339.53,14.457V9.483a1.983,1.983,0,0,1,3.966,0V14.52" transform="translate(-296.076 -7.5)" fill="none" stroke="#000" stroke-linecap="round" stroke-linejoin="round" stroke-miterlimit="10" stroke-width="1"/>
      <path id="Path_1246283" data-name="Path 1246283" d="M405.22,99.16a6.919,6.919,0,0,1,.188,1.607v7.286" transform="translate(-353.169 -87.164)" fill="none" stroke="#000" stroke-linecap="round" stroke-linejoin="round" stroke-miterlimit="10" stroke-width="1"/>
      <path id="Path_1246284" data-name="Path 1246284" d="M279.89,71.116a6.474,6.474,0,0,0,2.777-5.54,6.908,6.908,0,0,1,11.174-5.431" transform="translate(-244.242 -51.973)" fill="none" stroke="#000" stroke-linecap="round" stroke-linejoin="round" stroke-miterlimit="10" stroke-width="1"/>
      <path id="Path_1246285" data-name="Path 1246285" d="M207.535,114.8l.106-3.175a1.058,1.058,0,0,0-1.057-1.093H204.8a1.058,1.058,0,0,0-1.057,1.093l.106,3.175a1.319,1.319,0,0,1-1.032,1.333,12.466,12.466,0,0,0-4.7,2.107l4.273.517a1.983,1.983,0,0,1,1.037.45l.99.831a1.983,1.983,0,0,0,2.55,0l.99-.831a1.983,1.983,0,0,1,1.037-.45l4.273-.517a12.465,12.465,0,0,0-4.7-2.107A1.319,1.319,0,0,1,207.535,114.8Z" transform="translate(-173.172 -97.051)" fill="none" stroke="#000" stroke-linecap="round" stroke-linejoin="round" stroke-miterlimit="10" stroke-width="1"/>
      <path id="Path_1246286" data-name="Path 1246286" d="M169.409,169.439a9.84,9.84,0,0,0-.295,16.088" transform="translate(-144.462 -148.246)" fill="none" stroke="#000" stroke-linecap="round" stroke-linejoin="round" stroke-miterlimit="10" stroke-width="1"/>
      <path id="Path_1246287" data-name="Path 1246287" d="M313.882,169.439a9.84,9.84,0,0,1,.295,16.088" transform="translate(-273.785 -148.246)" fill="none" stroke="#000" stroke-linecap="round" stroke-linejoin="round" stroke-miterlimit="10" stroke-width="1"/>
      <path id="Path_1246288" data-name="Path 1246288" d="M417.363,108.814c-.846-1.617-1.452-3.718-.4-5.564a3.766,3.766,0,0,1,3.689-1.879,3.767,3.767,0,0,1,6.524,3.723,3.768,3.768,0,0,1,.26,4.131c-1.054,1.847-3.172,2.394-4.995,2.488" transform="translate(-362.891 -87.65)" fill="none" stroke="#000" stroke-linecap="round" stroke-linejoin="round" stroke-miterlimit="10" stroke-width="1"/>
      <path id="Path_1246289" data-name="Path 1246289" d="M331.489,183.328l5.485-13.191a5.237,5.237,0,0,1,7.43-2.538l3.476,1.983a5.236,5.236,0,0,1,1.6,7.688l-4.537,6.059" transform="translate(-289.088 -146.047)" fill="none" stroke="#000" stroke-linecap="round" stroke-linejoin="round" stroke-miterlimit="10" stroke-width="1"/>
      <line id="Line_732" data-name="Line 732" x1="2.62" y2="4.593" transform="translate(57.054 17.95)" fill="none" stroke="#000" stroke-linecap="round" stroke-linejoin="round" stroke-miterlimit="10" stroke-width="1"/>
      <line id="Line_733" data-name="Line 733" y1="3.966" transform="translate(2.115 49.179)" fill="none" stroke="#000" stroke-linecap="round" stroke-linejoin="round" stroke-miterlimit="10" stroke-width="1"/>
      <line id="Line_734" data-name="Line 734" y2="3.966" transform="translate(62.928 49.179)" fill="none" stroke="#000" stroke-linecap="round" stroke-linejoin="round" stroke-miterlimit="10" stroke-width="1"/>
      <path id="Path_1246290" data-name="Path 1246290" d="M19.493,292.37H71.222a1.321,1.321,0,0,1,1.322,1.322v9.254a1.321,1.321,0,0,1-1.322,1.322H8.822A1.321,1.321,0,0,1,7.5,302.946v-9.254a1.321,1.321,0,0,1,1.322-1.322h6.091" transform="translate(-7.5 -255.088)" fill="none" stroke="#000" stroke-linecap="round" stroke-linejoin="round" stroke-miterlimit="10" stroke-width="1"/>
      <path id="Path_1246291" data-name="Path 1246291" d="M63.3,425.488h7.918a1.322,1.322,0,0,0,1.322-1.322v-9.254a1.321,1.321,0,0,0-1.322-1.322H8.822A1.322,1.322,0,0,0,7.5,414.912v9.254a1.322,1.322,0,0,0,1.322,1.322h49.9" transform="translate(-7.5 -360.444)" fill="none" stroke="#000" stroke-linecap="round" stroke-linejoin="round" stroke-miterlimit="10" stroke-width="1"/>
      <g id="Group_1202381" data-name="Group 1202381" transform="translate(3.966 41.247)">
        <line id="Line_735" data-name="Line 735" transform="translate(57.111 0)" fill="none" stroke="#000" stroke-linecap="round" stroke-linejoin="round" stroke-miterlimit="10" stroke-width="1"/>
        <line id="Line_736" data-name="Line 736" transform="translate(57.111 3.966)" fill="none" stroke="#000" stroke-linecap="round" stroke-linejoin="round" stroke-miterlimit="10" stroke-width="1"/>
        <line id="Line_737" data-name="Line 737" transform="translate(0 0)" fill="none" stroke="#000" stroke-linecap="round" stroke-linejoin="round" stroke-miterlimit="10" stroke-width="1"/>
        <line id="Line_738" data-name="Line 738" transform="translate(0 3.966)" fill="none" stroke="#000" stroke-linecap="round" stroke-linejoin="round" stroke-miterlimit="10" stroke-width="1"/>
      </g>
      <g id="Group_1202382" data-name="Group 1202382" transform="translate(3.966 57.112)">
        <line id="Line_739" data-name="Line 739" transform="translate(57.111)" fill="none" stroke="#000" stroke-linecap="round" stroke-linejoin="round" stroke-miterlimit="10" stroke-width="1"/>
        <line id="Line_740" data-name="Line 740" transform="translate(57.111 3.966)" fill="none" stroke="#000" stroke-linecap="round" stroke-linejoin="round" stroke-miterlimit="10" stroke-width="1"/>
        <line id="Line_741" data-name="Line 741" transform="translate(0)" fill="none" stroke="#000" stroke-linecap="round" stroke-linejoin="round" stroke-miterlimit="10" stroke-width="1"/>
        <line id="Line_742" data-name="Line 742" transform="translate(0 3.966)" fill="none" stroke="#000" stroke-linecap="round" stroke-linejoin="round" stroke-miterlimit="10" stroke-width="1"/>
      </g>
    </g>
  </g>
</svg>
