<svg xmlns="http://www.w3.org/2000/svg" xmlns:xlink="http://www.w3.org/1999/xlink" width="100" height="100" viewBox="0 0 100 100">
  <defs>
    <clipPath id="clip-path">
      <rect id="Rectangle_411070" data-name="Rectangle 411070" width="89.88" height="88.932" fill="none"/>
    </clipPath>
  </defs>
  <g id="Group_1207785" data-name="Group 1207785" transform="translate(-750.5 -2211)">
    <path id="Path_1257918" data-name="Path 1257918" d="M91.222,85.582A45.361,45.361,0,1,1,45.861,40.221,45.361,45.361,0,0,1,91.222,85.582" transform="translate(754.139 2175.418)" fill="#fff"/>
    <g id="Group_1207780" data-name="Group 1207780" transform="translate(750.591 2211.021)">
      <g id="Group_1207775" data-name="Group 1207775" transform="translate(5.441 5.441)">
        <g id="Group_1207774" data-name="Group 1207774" clip-path="url(#clip-path)">
          <path id="Path_1257848" data-name="Path 1257848" d="M94.091,46.223a1.861,1.861,0,0,1-1.633.048,39.876,39.876,0,0,0-4.593-1.461,16.305,16.305,0,0,1-1.515-8.75A27.122,27.122,0,0,1,89.7,25.421a17.67,17.67,0,0,1,1.809-2.85c.408-.418.676-.911,1.061-1.349l.8-.91a10.22,10.22,0,0,1,1.988-2.087,6.285,6.285,0,0,0,.825-.68l.66-.591a12.076,12.076,0,0,1,2.5-1.8,13.782,13.782,0,0,1,1.362-.784c.317-.116.428-.337.695-.485a30.209,30.209,0,0,1,26.5-1.862c.212.342.57.262.878.386a23.547,23.547,0,0,1,3.134,1.656l.656.388a29.62,29.62,0,0,1,3.966,2.965l1.009.853a28.274,28.274,0,0,1,9.515,20.057,14.77,14.77,0,0,1-.216,2.876,8.194,8.194,0,0,1-1.316,3.287,7.193,7.193,0,0,1-4.732,3.113,116.089,116.089,0,0,0-15.014-2.91c-.183-.253-.379-.039-.61-.067a91.321,91.321,0,0,0-31.088,1.592" transform="translate(-60.158 -6.834)" fill="#722832"/>
          <path id="Path_1257849" data-name="Path 1257849" d="M38.254,59.13c-2.2,1.7-5.365,1.868-7.967,2.284a64.913,64.913,0,0,0,3.46,8.41c1.349,2.784,2.934,5.97,2.857,9.051a9.1,9.1,0,0,1-6.782,8.4,15.214,15.214,0,0,1-5.975.675c-5.009-.451-7.85-4.092-8.067-9l-.346-7.828a20.627,20.627,0,0,0-.848-5.3c-2.552,1.068-5.035,2.348-7.848,1.961a7.171,7.171,0,0,1-5.225-3.732c-1.885-3.339-1.8-7.43-.871-11.068a20.754,20.754,0,0,1,14.041-14.76,24.437,24.437,0,0,1,9.427-.738c-2.126-6.349-.653-13.441,2.21-19.193a32.769,32.769,0,0,1,19-16.381,33.273,33.273,0,0,1,9.923-1.9A33.684,33.684,0,0,1,74.16,5.185a34.049,34.049,0,0,1,10.145,9.549,31.786,31.786,0,0,1,5.551,16.42c.2,3.871-.788,7.212-3.623,9.843-4.605,4.274-12.957,5.185-19.036,5.095a114.479,114.479,0,0,0,1.362,18.434c.685,5.075,1.067,10.791-.653,15.658a12.42,12.42,0,0,1-7.734,7.73,20.416,20.416,0,0,1-6.762,1.018c-5.988.011-11.954-2.32-13.882-8.447-1.067-3.391-.563-8.093.505-11.456l2.228-7.019a59.442,59.442,0,0,0,3.195-16.337A47.544,47.544,0,0,1,36.5,44.239a22.731,22.731,0,0,1,3.4,6.106A11.766,11.766,0,0,1,40.6,54.63a5.9,5.9,0,0,1-2.35,4.5m-4.32-19.741A91.321,91.321,0,0,1,65.022,37.8c.231.028.427-.187.61.066a116.11,116.11,0,0,1,15.014,2.911,7.2,7.2,0,0,0,4.732-3.113,8.2,8.2,0,0,0,1.316-3.287A14.752,14.752,0,0,0,86.91,31.5a27.6,27.6,0,0,0-3.189-11.97A27.453,27.453,0,0,0,77.4,11.44l-1.009-.853a29.62,29.62,0,0,0-3.965-2.965l-.656-.388a23.621,23.621,0,0,0-3.134-1.656c-.308-.124-.666-.044-.878-.386a30.21,30.21,0,0,0-26.5,1.861c-.267.148-.378.369-.695.485a13.666,13.666,0,0,0-1.362.784,12.072,12.072,0,0,0-2.5,1.8l-.66.591a6.33,6.33,0,0,1-.825.68,10.23,10.23,0,0,0-1.988,2.087l-.8.91c-.385.438-.653.93-1.061,1.349a17.7,17.7,0,0,0-1.809,2.85,27.123,27.123,0,0,0-3.355,10.64,16.3,16.3,0,0,0,1.515,8.75A39.892,39.892,0,0,1,32.3,39.437a1.863,1.863,0,0,0,1.633-.048m16.4.74a4.767,4.767,0,0,1-1.481.157c-.026-.045-.033-.1-.072-.113a.111.111,0,0,0-.153.111l-.041,4.9c0,.109-.092.209-.075.342a8.165,8.165,0,0,1-.1,1.6,61.794,61.794,0,0,1-3,14.876L43.83,66.819a28.293,28.293,0,0,0-1.9,9.779,9.712,9.712,0,0,0,1.336,4.812A7.165,7.165,0,0,0,45.427,83.8a9.649,9.649,0,0,0,3.438,1.6c3.854.891,8.831.868,12.328-1.243.127-.077.225-.121.191-.261a1.786,1.786,0,0,0,.692-.422c0,.185,1.61-1.395,1.358-1.4a7.245,7.245,0,0,0,1.4-2.278,16.3,16.3,0,0,0,1.212-5.119l.091-1.155a25.517,25.517,0,0,0-.006-3.736l-.093-1.384c-.077-1.142-.22-2.239-.383-3.364l-.619-4.261a2.681,2.681,0,0,0,0-.342l-.536-4.911-.118-1.467-.114-1.6-.1-1.375-.085-3.475c-.03-1.228-.069-2.444-.041-3.691a14.767,14.767,0,0,0,.1-1.707,4.278,4.278,0,0,1,.146-1.664c-.474-.035-.913-.116-1.409-.16l-2.381-.21c-.517-.046-.986-.086-1.488-.1l-2.114-.075a37.124,37.124,0,0,0-4.32,0c-.783.064-1.51,0-2.222.119M13.311,63.049l.941-.435L17.6,61.294c.251-.1.456-.118.719-.2a50.835,50.835,0,0,1,7.83-1.956l6.48-1.044a7.557,7.557,0,0,0,3.642-1.261c2.548-1.991.9-5.867-.34-8.166a14.514,14.514,0,0,0-5.2-5.511,18.334,18.334,0,0,0-7.27-2.676,17.4,17.4,0,0,0-11.388,2.071A19.824,19.824,0,0,0,7.517,46.2l-.771,1.047c-.464.629-.907,1.209-1.327,1.9a17.925,17.925,0,0,0-2.339,6.738,12.082,12.082,0,0,0,.5,5.619c.782,2.36,3.594,4.227,6.061,3.1a3.645,3.645,0,0,1,.831-.337c.255-.057,2.435-1.029,2.844-1.218M38.451,41.4l-.764.2,2.284.428c1.863.349,3.671.6,5.619.8a12.91,12.91,0,0,0-.041-2.333c-.23-.25-.911.132-1.159.107l-.653-.066c.159.016-3.239.481-3.814.623a3.463,3.463,0,0,1-1.473.235m32.967.373c-.634-.276-3.113-.6-3.983-.8l-.2,2.236a70.667,70.667,0,0,0,7.367-.492l1.035-.105c-.4-.177-4.209-.838-4.214-.84M18.107,67.39l0,.342.2,1.609L18.42,71.6l.132,3.646.184,3.348a8.561,8.561,0,0,0,1.309,4.284,7.5,7.5,0,0,0,.8.911,5.89,5.89,0,0,0,3.985,1.277,10.852,10.852,0,0,0,5.358-1.178c.23-.121.491-.193.565-.441a2.917,2.917,0,0,0,.768-.46c.3-.259.76-.475.827-.907a5.712,5.712,0,0,0,.469-.67c1.434-1.9.68-5.1-.322-7.074a3.834,3.834,0,0,1-.255-.683l-1.092-2.324-1.3-2.707A47.122,47.122,0,0,1,27.174,61.9a41.367,41.367,0,0,0-9.727,2.632c.344.924.408,1.914.66,2.856" transform="translate(0 0)" fill="#040405"/>
          <path id="Path_1257850" data-name="Path 1257850" d="M125.232,134.459a3.463,3.463,0,0,0,1.473-.235c.575-.141,3.973-.606,3.814-.623l.653.066c.248.025.929-.357,1.159-.107a12.909,12.909,0,0,1,.041,2.333c-1.948-.2-3.757-.453-5.62-.8l-2.284-.428Z" transform="translate(-86.781 -93.06)" fill="#722832"/>
          <path id="Path_1257851" data-name="Path 1257851" d="M226.228,136.117s3.817.663,4.214.84l-1.035.1a70.667,70.667,0,0,1-7.367.492l.2-2.236c.87.2,3.349.523,3.983.8" transform="translate(-154.81 -94.345)" fill="#722832"/>
          <path id="Path_1257852" data-name="Path 1257852" d="M20.1,155.794c-.409.189-2.589,1.161-2.844,1.218a3.656,3.656,0,0,0-.831.337c-2.466,1.126-5.278-.741-6.06-3.1a12.079,12.079,0,0,1-.5-5.619,17.925,17.925,0,0,1,2.34-6.738c.419-.687.863-1.266,1.327-1.9l.771-1.047a19.832,19.832,0,0,1,4.555-3.657,17.4,17.4,0,0,1,11.387-2.071,18.335,18.335,0,0,1,7.271,2.676,14.511,14.511,0,0,1,5.2,5.511c1.237,2.3,2.888,6.174.34,8.166a7.557,7.557,0,0,1-3.642,1.26l-6.48,1.044a50.838,50.838,0,0,0-7.83,1.956c-.263.086-.468.105-.719.2l-3.348,1.319Z" transform="translate(-6.786 -92.746)" fill="#722832"/>
          <path id="Path_1257853" data-name="Path 1257853" d="M162.659,161.77l-.093-1.384c-.077-1.142-.22-2.239-.383-3.364l-.62-4.261a2.625,2.625,0,0,0,0-.342l-.537-4.911-.117-1.467-.114-1.6-.1-1.375L160.6,139.6c-.03-1.228-.069-2.444-.041-3.691a14.774,14.774,0,0,0,.1-1.706,4.283,4.283,0,0,1,.146-1.663c-.474-.035-.914-.116-1.409-.16l-2.381-.21c-.517-.046-.986-.086-1.488-.1l-2.114-.075a37.131,37.131,0,0,0-4.321,0c-.782.064-1.51,0-2.222.119a4.765,4.765,0,0,1-1.48.157c-.026-.044-.033-.1-.072-.113a.11.11,0,0,0-.153.111l-.041,4.9c0,.109-.092.209-.075.342a8.142,8.142,0,0,1-.1,1.6,61.765,61.765,0,0,1-3,14.876l-1.591,4.817a28.293,28.293,0,0,0-1.9,9.779,9.715,9.715,0,0,0,1.336,4.812,7.168,7.168,0,0,0,2.164,2.391,9.651,9.651,0,0,0,3.438,1.6c3.853.891,8.831.868,12.328-1.243.127-.076.224-.121.191-.261a1.785,1.785,0,0,0,.692-.422c0,.185,1.61-1.395,1.358-1.4a7.253,7.253,0,0,0,1.4-2.278,16.3,16.3,0,0,0,1.212-5.119l.091-1.154a25.525,25.525,0,0,0-.006-3.736" transform="translate(-96.532 -91.977)" fill="#e2dacc"/>
          <path id="Path_1257854" data-name="Path 1257854" d="M72.409,216.191l-1.092-2.324-1.3-2.707a47.122,47.122,0,0,1-2.674-6.721,41.368,41.368,0,0,0-9.727,2.632c.344.924.408,1.914.66,2.856l0,.342.2,1.609.114,2.259.132,3.646.184,3.348a8.555,8.555,0,0,0,1.309,4.284,7.52,7.52,0,0,0,.8.911A5.893,5.893,0,0,0,65,227.6a10.85,10.85,0,0,0,5.358-1.178c.23-.121.491-.193.565-.441a2.923,2.923,0,0,0,.768-.46c.3-.259.76-.475.826-.907a5.68,5.68,0,0,0,.469-.67c1.434-1.9.68-5.1-.322-7.074a3.841,3.841,0,0,1-.255-.683" transform="translate(-40.173 -142.538)" fill="#e2dacc"/>
        </g>
      </g>
      <rect id="Rectangle_411072" data-name="Rectangle 411072" width="100" height="100" transform="translate(-0.091 -0.02)" fill="none"/>
    </g>
  </g>
</svg>
