<svg xmlns="http://www.w3.org/2000/svg" xmlns:xlink="http://www.w3.org/1999/xlink" width="480.09" height="298.856" viewBox="0 0 480.09 298.856">
  <defs>
    <clipPath id="clip-path">
      <rect id="Rectangle_411018" data-name="Rectangle 411018" width="413.627" height="186.445" fill="#e7efdc"/>
    </clipPath>
    <clipPath id="clip-path-2">
      <rect id="Rectangle_410993" data-name="Rectangle 410993" width="17.199" height="4.78" fill="#89b254"/>
    </clipPath>
    <clipPath id="clip-path-3">
      <rect id="Rectangle_410994" data-name="Rectangle 410994" width="16.139" height="10.332" fill="#89b254"/>
    </clipPath>
    <clipPath id="clip-path-4">
      <rect id="Rectangle_410995" data-name="Rectangle 410995" width="8.703" height="4.454" fill="#89b254"/>
    </clipPath>
    <clipPath id="clip-path-5">
      <rect id="Rectangle_410996" data-name="Rectangle 410996" width="5.947" height="3.085" fill="#89b254"/>
    </clipPath>
    <clipPath id="clip-path-6">
      <rect id="Rectangle_410997" data-name="Rectangle 410997" width="24.17" height="5.722" fill="#89b254"/>
    </clipPath>
    <clipPath id="clip-path-7">
      <rect id="Rectangle_410998" data-name="Rectangle 410998" width="58.667" height="22.048" fill="#89b254"/>
    </clipPath>
    <clipPath id="clip-path-8">
      <rect id="Rectangle_410999" data-name="Rectangle 410999" width="9.92" height="3.559" fill="#e7efdc"/>
    </clipPath>
    <clipPath id="clip-path-9">
      <rect id="Rectangle_411000" data-name="Rectangle 411000" width="9.015" height="4.6" fill="#89b254"/>
    </clipPath>
    <clipPath id="clip-path-10">
      <rect id="Rectangle_411001" data-name="Rectangle 411001" width="4.221" height="6.226" fill="#89b254"/>
    </clipPath>
    <clipPath id="clip-path-11">
      <rect id="Rectangle_411002" data-name="Rectangle 411002" width="5.69" height="3.719" fill="#89b254"/>
    </clipPath>
    <clipPath id="clip-path-12">
      <rect id="Rectangle_411003" data-name="Rectangle 411003" width="0.13" height="0.43" fill="none"/>
    </clipPath>
    <clipPath id="clip-path-13">
      <rect id="Rectangle_411004" data-name="Rectangle 411004" width="14.069" height="9.743" fill="#e7efdc"/>
    </clipPath>
    <clipPath id="clip-path-14">
      <rect id="Rectangle_411005" data-name="Rectangle 411005" width="7.73" height="2.62" fill="#89b254"/>
    </clipPath>
    <clipPath id="clip-path-15">
      <rect id="Rectangle_411006" data-name="Rectangle 411006" width="5.451" height="2.841" fill="#89b254"/>
    </clipPath>
    <clipPath id="clip-path-16">
      <rect id="Rectangle_411007" data-name="Rectangle 411007" width="3.345" height="1.551" fill="#89b254"/>
    </clipPath>
    <clipPath id="clip-path-17">
      <rect id="Rectangle_411008" data-name="Rectangle 411008" width="23.126" height="17.786" fill="#435829"/>
    </clipPath>
    <clipPath id="clip-path-18">
      <rect id="Rectangle_411009" data-name="Rectangle 411009" width="13.549" height="3.523" fill="#e7efdc"/>
    </clipPath>
    <clipPath id="clip-path-19">
      <rect id="Rectangle_411010" data-name="Rectangle 411010" width="12.554" height="3.639" fill="#89b254"/>
    </clipPath>
    <clipPath id="clip-path-20">
      <rect id="Rectangle_411011" data-name="Rectangle 411011" width="10.933" height="6.907" fill="#89b254"/>
    </clipPath>
    <clipPath id="clip-path-21">
      <rect id="Rectangle_411012" data-name="Rectangle 411012" width="5.854" height="3.04" fill="#89b254"/>
    </clipPath>
    <clipPath id="clip-path-22">
      <rect id="Rectangle_411013" data-name="Rectangle 411013" width="3.944" height="1.828" fill="#89b254"/>
    </clipPath>
    <clipPath id="clip-path-23">
      <rect id="Rectangle_411014" data-name="Rectangle 411014" width="15.819" height="11.674" fill="#e7efdc"/>
    </clipPath>
    <clipPath id="clip-path-24">
      <rect id="Rectangle_411015" data-name="Rectangle 411015" width="8.604" height="2.876" fill="#89b254"/>
    </clipPath>
    <clipPath id="clip-path-25">
      <rect id="Rectangle_411016" data-name="Rectangle 411016" width="7.309" height="4.334" fill="#89b254"/>
    </clipPath>
    <clipPath id="clip-path-26">
      <rect id="Rectangle_411017" data-name="Rectangle 411017" width="3.905" height="1.853" fill="#89b254"/>
    </clipPath>
    <clipPath id="clip-path-27">
      <rect id="Rectangle_411025" data-name="Rectangle 411025" width="55.164" height="90.805" fill="#89b254"/>
    </clipPath>
    <clipPath id="clip-path-28">
      <rect id="Rectangle_411025-2" data-name="Rectangle 411025" width="37.556" height="61.821" fill="#89b254"/>
    </clipPath>
    <clipPath id="clip-path-29">
      <rect id="Rectangle_411023" data-name="Rectangle 411023" width="32.887" height="66.412" fill="#cfe0b9"/>
    </clipPath>
    <clipPath id="clip-path-30">
      <rect id="Rectangle_411023-2" data-name="Rectangle 411023" width="44.542" height="89.949" fill="#5f7b39"/>
    </clipPath>
  </defs>
  <g id="Group_1207703" data-name="Group 1207703" transform="translate(-1020 -7065.297)">
    <path id="Path_1257380" data-name="Path 1257380" d="M13.2,0H466.888a13.2,13.2,0,0,1,13.2,13.2V285.654a13.2,13.2,0,0,1-13.2,13.2H13.2A13.2,13.2,0,0,1,0,285.654V13.2A13.2,13.2,0,0,1,13.2,0Z" transform="translate(1020 7065.297)" fill="#435829"/>
    <path id="Path_1257492" data-name="Path 1257492" d="M116.89.02C194.782.439,234.18,69.891,237.5,104.085s9.83,105.306-87.07,125.436S5.586,177.181.412,91.013,39-.4,116.89.02Z" transform="translate(1466.179 7127.949) rotate(100)" fill="#cfe0b9"/>
    <path id="Path_1257491" data-name="Path 1257491" d="M69.823,1.343c75.307,10.649,242.867,57,229.443,132.227s-88.49,89.928-137.957,86.4S27.8,176.917,9.323,110.883-5.484-9.305,69.823,1.343Z" transform="translate(1029.706 7103.136) rotate(-5)" fill="#f2f6ec"/>
    <g id="Group_1207686" data-name="Group 1207686" transform="translate(1053.232 7117.192)">
      <g id="Group_1207685" data-name="Group 1207685">
        <g id="Group_1207684" data-name="Group 1207684" clip-path="url(#clip-path)">
          <path id="Path_1257319" data-name="Path 1257319" d="M232.321,91.979a2.124,2.124,0,0,1,.8-.286l2.977-.331a37.314,37.314,0,0,0,23.063-11.641,57.3,57.3,0,0,0,4.63-5.6l1.581-2.138a1.282,1.282,0,0,1,1.069-.6c.028.244.175.453.141.692-.241,1.664-2.417,5.139-3.471,6.623a36.166,36.166,0,0,1-15.546,12.6,28.613,28.613,0,0,1-10.9,2.289,14.517,14.517,0,0,1-3.889-.455.936.936,0,0,1-.664-.692Z" transform="translate(82.399 25.343)" fill="#e55166"/>
          <path id="Path_1257320" data-name="Path 1257320" d="M264.728,64.819l.469.2a47.225,47.225,0,0,0-1.821,11.994c-.1,2.252-.251,4.461-.527,6.713-.068.553-.171,1.68-.679,1.813-.562.146-.618-1.18-.645-1.654-.079-1.4-.119-2.755-.121-4.175a42.028,42.028,0,0,1,.457-6.058,36.515,36.515,0,0,1,1.7-6.912l-4.466,2.774c-1.866,1.159-3.715,2.23-5.634,3.23a11.379,11.379,0,0,1-2.027.859c-.233.061-.425-.081-.653-.161a1.712,1.712,0,0,1,.337-.743c1.417-1.291,5.932-3.783,7.74-4.747Z" transform="translate(89.022 23.01)" fill="#e55166"/>
          <path id="Path_1257321" data-name="Path 1257321" d="M77.964,92.094a5.321,5.321,0,0,1,1.873.515l5.291,2.939c15.053,8.359,35.983,12.153,61.623,10.011,6.542-.546,13.084-1.469,19.784-2.572l7.276-1.2a3.847,3.847,0,0,1,2.982.386c-.511.375-.761.835-1.36,1.133-4.149,2.062-15.371,4.459-20.353,5.339-19.28,3.408-37.521,3.345-52.357-.062-8.761-2.014-16.264-5.064-21.813-9.244a18,18,0,0,1-4.892-5.085c-.325-.553-.051-1.142.564-1.733Z" transform="translate(26.937 32.692)" fill="#e55166"/>
          <path id="Path_1257322" data-name="Path 1257322" d="M160.074,97.324l.442.519a47.382,47.382,0,0,0-7.471,11.761c-1.129,2.364-2.294,4.648-3.623,6.9-.325.551-.95,1.7-1.587,1.519-.706-.2-.171-1.667.012-2.2.539-1.554,1.1-3.046,1.743-4.577a43.11,43.11,0,0,1,3.248-6.236,35.79,35.79,0,0,1,5.042-6.366l-6.325.133c-2.642.057-5.225.031-7.856-.118a14.035,14.035,0,0,1-2.69-.369c-.293-.083-.447-.362-.668-.592.21-.21.4-.514.717-.584,2.191-.486,8.444-.287,10.931-.169Z" transform="translate(49.819 34.366)" fill="#e55166"/>
          <path id="Path_1257323" data-name="Path 1257323" d="M58.742,95.655a2.344,2.344,0,0,0-.682-.512l-2.442-1.049c-6.944-2.985-13.88-9.236-20.021-18.718-1.566-2.419-3-4.939-4.417-7.562l-1.538-2.848a1.687,1.687,0,0,0-.935-.934,4.011,4.011,0,0,0-.028.778c.4,1.995,2.579,6.535,3.61,8.5,3.993,7.612,8.912,13.931,14.078,18.169a25.412,25.412,0,0,0,9.066,5.095,7.9,7.9,0,0,0,3.08.335c.279-.035.411-.289.45-.661Z" transform="translate(10.174 22.73)" fill="#e55166"/>
          <path id="Path_1257324" data-name="Path 1257324" d="M29.609,61.341l-.375-.019a26.271,26.271,0,0,1-2.621,7.249c-.653,1.293-1.259,2.576-1.794,3.919-.131.329-.424.992-.129,1.209.327.24.787-.489.957-.748.5-.763.959-1.514,1.413-2.31a23.894,23.894,0,0,0,1.631-3.531,19.872,19.872,0,0,0,1.081-4.359l2.08,2.813c.869,1.175,1.755,2.3,2.71,3.4a7.7,7.7,0,0,0,1.07,1.053.944.944,0,0,0,.485.092.923.923,0,0,0,.014-.511,36.392,36.392,0,0,0-3.623-4.841Z" transform="translate(8.719 21.768)" fill="#e55166"/>
          <path id="Path_1257325" data-name="Path 1257325" d="M127.359,71.1a27.4,27.4,0,0,1-10.488-9.7,27.726,27.726,0,0,1-4.131-18.448,32.323,32.323,0,0,1,2.165-8.867c2.214-5.087,4.6-9.836,10.559-12.893a31.917,31.917,0,0,1,9.932-3.115,27,27,0,0,1,7.956.153l7.98,1.164,9.154.885c3.069.3,8.452-.671,11.562-1.27l8.573-1.65,7.687-1.827c7.656-1.82,18.428,2.126,24.318,5.771a13.064,13.064,0,0,1,4.429,4.419c1.243,2.064,1.591,4.234,2.233,6.439a35.147,35.147,0,0,1,1.345,5.558,42.021,42.021,0,0,1-.234,12.519,25.333,25.333,0,0,1-4.98,11.008,49.024,49.024,0,0,1-4.645,5.584A29.7,29.7,0,0,1,199.1,73.878a97,97,0,0,1-16.611,3.963l-5.041.768a111.017,111.017,0,0,1-20.3,1.309A55.279,55.279,0,0,1,141.9,77.328,78.871,78.871,0,0,1,127.359,71.1M122.336,54.36c4.393,4.728,11.54,6.519,18.52,7.673a156.51,156.51,0,0,0,19.735,1.9,80.192,80.192,0,0,0,18.631-1.3,104.464,104.464,0,0,0,18.288-5.322,35.221,35.221,0,0,0,12.91-8.687c5.944-6.278,7.662-13.752,4.224-21.153a10.286,10.286,0,0,0-4.256-4.534,44.583,44.583,0,0,0-12.357-4.851,21.215,21.215,0,0,0-10.664.138c-3.489.921-6.859,1.673-10.456,2.328-8.809,1.6-11.9,2.729-21.107,1.736-3.713-.4-7.287-.785-10.962-1.4-5.6-.943-8.99-.906-14.238.809a17.493,17.493,0,0,0-9.47,6.8,35.108,35.108,0,0,0-4.3,9.194c-.726,2.386-1.283,4.78-.412,7.2a27.665,27.665,0,0,0,5.916,9.473" transform="translate(39.933 5.352)" fill="#89b254"/>
          <path id="Path_1257326" data-name="Path 1257326" d="M121.424,53.733a27.7,27.7,0,0,1-5.917-9.471c-.871-2.419-.313-4.814.413-7.2a35.128,35.128,0,0,1,4.3-9.194,17.493,17.493,0,0,1,9.47-6.8c5.248-1.714,8.635-1.751,14.238-.808,3.675.618,7.249,1,10.962,1.4,9.2.993,12.3-.135,21.107-1.737,3.6-.654,6.967-1.406,10.456-2.328a21.23,21.23,0,0,1,10.664-.138,44.667,44.667,0,0,1,12.357,4.851,10.282,10.282,0,0,1,4.256,4.535c3.439,7.4,1.721,14.874-4.223,21.153a35.238,35.238,0,0,1-12.91,8.687A104.461,104.461,0,0,1,178.31,62a80.119,80.119,0,0,1-18.631,1.3,156.759,156.759,0,0,1-19.735-1.894c-6.98-1.154-14.127-2.947-18.52-7.675m.794-21.846a2.521,2.521,0,0,0-2.672,1.523c-1.642,3.345-3.073,7-2.324,10.6a17.163,17.163,0,0,0,6.952,10.381,48.874,48.874,0,0,0,7.523,4.37c.855.421,3.336,1.154,4.379.248,1.306-1.134-.1-5.167-.623-6.787a17.089,17.089,0,0,1-.546-9.572c.377-1.492,1.93-2.5,2.9-2.108,1.019.408,1.089,5.4,1.266,6.78.393,3.069-.34,6.186.542,9.657,1.031,4.06,6.615,3.6,10.192,4.138a17.956,17.956,0,0,0,4.167.385c5.018-.438,1.85-6.482,2.153-9.959a28.1,28.1,0,0,1,2.373-8.793l3.026-1.287a3.356,3.356,0,0,1,.061,1.874l-1.446,7.767a12.84,12.84,0,0,0,.308,5.975c.771,2.7,3.383,3.672,6.8,3.638a58.563,58.563,0,0,0,8.738-.81c2.424-.392,4.291-1.718,4.9-3.553a17.328,17.328,0,0,0,.645-6.287l-.2-5.312a26.848,26.848,0,0,0-1.043-6.416c-.348-1.232.537-2.5,1.495-3.425a9.031,9.031,0,0,1,1.209,3.3l2.312,9.447c.285,1.163.671,2.234.879,3.413.245,1.381.461,3.352,2.4,3.995,3.188,1.057,8.851.4,9.282-3.019a27.221,27.221,0,0,0-.094-5.316l-.206-2.986a4.522,4.522,0,0,1,1.561-3.905c.118.35.308.6.367.873l1.347,6.064a4.05,4.05,0,0,0,1.058,2.03,2.288,2.288,0,0,0,2.333.352c2.874-.852,5.539-5.289,6.61-7.5a13.4,13.4,0,0,0,1.484-7.76,18.592,18.592,0,0,0-2.146-7c-2.137-3.7-7.008-6.608-11.726-8.091a6.694,6.694,0,0,0-2.7-.308c-3.994.451-.713,6.7-.8,9.8-.042,1.573-.725,7.2-2.516,8.264a7.969,7.969,0,0,1-1.283-3.527c-.546-3.211-1.011-6.347-1.812-9.54-.518-2.065-1.4-4.321-4.642-3.952-2.625.3-4.367,2.064-6.383,1.927-1.967-.133-4.291-.408-5.458,1.264a6.088,6.088,0,0,0-1.056,3.4l-.157,6.6c-.056,2.317.26,4.551.374,6.868.047.973.294,3.984-1.232,4.42-.969-1.275-2.257-7.493-2.233-8.726l.121-6.279a6.925,6.925,0,0,0-.86-4.188c-1.444-2.2-5.938-1.631-8.49-1.358-2.383.257-3.15-1.787-4.969-1.1a2.418,2.418,0,0,0-1.39,1.585c-.878,3.184-.367,8.919-1.423,12.872-.539,2.019-2.038,6.87-3.825,8.516-2.924-1.673-2.06-5.389-1.644-8.017l.709-4.478,1.5-5.614a4.482,4.482,0,0,0-.175-3.654c-1.206-1.917-5.917-2.641-8.474-2.008a2.233,2.233,0,0,0-1.774,1.673c-.79,3.034.522,5.194-.875,8.539a6.505,6.505,0,0,1-1.434,2.633c-1.671-1.645,1.736-10.6-1.531-11.6-2.344-.713-6,1.233-7.742,2.524-1.989,1.477-1.608,3.91-1.543,5.656l.136,3.583.608,6.378c.07.743.188,2.453-.686,2.763-1.564.557-1.408-3.119-1.435-4.073l-.142-5.045c-.022-.808-.107-2.469-1-2.724" transform="translate(40.846 5.979)" fill="#cfe0b9"/>
          <path id="Path_1257327" data-name="Path 1257327" d="M121.705,31.461c.893.253.977,1.915,1,2.722l.141,5.046c.027.953-.129,4.63,1.436,4.073.873-.312.755-2.02.684-2.764l-.608-6.378-.134-3.583c-.066-1.744-.447-4.177,1.543-5.656,1.737-1.29,5.4-3.236,7.741-2.523,3.267.993-.138,9.95,1.531,11.6a6.506,6.506,0,0,0,1.434-2.633c1.4-3.347.085-5.507.875-8.54a2.235,2.235,0,0,1,1.774-1.673c2.557-.631,7.269.092,8.474,2.008a4.478,4.478,0,0,1,.176,3.654l-1.5,5.614-.709,4.478c-.416,2.63-1.282,6.345,1.644,8.019,1.787-1.648,3.286-6.5,3.825-8.517,1.056-3.954.543-9.687,1.421-12.871a2.423,2.423,0,0,1,1.39-1.587c1.818-.691,2.587,1.354,4.969,1.1,2.554-.275,7.046-.839,8.49,1.358a6.925,6.925,0,0,1,.86,4.188l-.121,6.278c-.023,1.234,1.266,7.452,2.234,8.727,1.526-.436,1.278-3.447,1.23-4.421-.112-2.316-.43-4.55-.374-6.868l.157-6.6a6.085,6.085,0,0,1,1.057-3.4c1.165-1.672,3.489-1.4,5.457-1.264,2.016.135,3.76-1.629,6.383-1.928,3.241-.369,4.125,1.887,4.642,3.952.8,3.194,1.267,6.329,1.812,9.54a7.975,7.975,0,0,0,1.283,3.528c1.791-1.068,2.474-6.692,2.516-8.265.084-3.1-3.2-9.345.8-9.8a6.7,6.7,0,0,1,2.706.309c4.717,1.482,9.588,4.39,11.726,8.091a18.608,18.608,0,0,1,2.146,7,13.408,13.408,0,0,1-1.485,7.76c-1.07,2.211-3.736,6.646-6.61,7.5a2.286,2.286,0,0,1-2.332-.354,4.04,4.04,0,0,1-1.058-2.028l-1.347-6.065c-.06-.27-.249-.523-.369-.873a4.524,4.524,0,0,0-1.56,3.905l.2,2.986a27.343,27.343,0,0,1,.095,5.317c-.431,3.42-6.095,4.074-9.283,3.018-1.936-.641-2.15-2.612-2.4-3.994-.209-1.179-.593-2.249-.878-3.412l-2.313-9.447a9.037,9.037,0,0,0-1.209-3.3c-.957.927-1.841,2.194-1.495,3.427a26.769,26.769,0,0,1,1.043,6.415l.2,5.313a17.349,17.349,0,0,1-.645,6.286c-.612,1.836-2.481,3.161-4.9,3.553a58.4,58.4,0,0,1-8.74.812c-3.413.034-6.026-.94-6.8-3.639a12.835,12.835,0,0,1-.306-5.974l1.444-7.768a3.357,3.357,0,0,0-.06-1.874l-3.026,1.289a28.094,28.094,0,0,0-2.374,8.793c-.3,3.477,2.866,9.52-2.153,9.959a18.012,18.012,0,0,1-4.165-.385c-3.579-.539-9.162-.079-10.194-4.138-.882-3.471-.149-6.589-.542-9.658-.176-1.377-.247-6.373-1.266-6.779-.972-.388-2.523.617-2.9,2.108a17.084,17.084,0,0,0,.545,9.57c.522,1.622,1.931,5.653.625,6.787-1.045.906-3.526.175-4.381-.248a48.782,48.782,0,0,1-7.523-4.37,17.162,17.162,0,0,1-6.951-10.379c-.751-3.606.68-7.259,2.322-10.6a2.521,2.521,0,0,1,2.672-1.523M118.85,42.335c.45,4.119,2.893,7.878,6.817,10.642,1.627,1.145,6.233,3.905,8.257,4.36a3.808,3.808,0,0,0-.275-2.074l-1.179-3.934a18.154,18.154,0,0,1-.316-9.477c.444-1.9,2.064-3.152,4.515-3.413,1.77-.19,3.1.6,3.42,2.03a52.332,52.332,0,0,1,.8,6.581c.263,2.725-.226,6.91.438,9.123.61,2.028,3.072,2.309,5.653,2.448,2.2.119,6.218,1.1,6.741.45a1.359,1.359,0,0,0,.35-.9l-.7-5.313c-.4-3.076.977-7.543,2.159-10.488a4.353,4.353,0,0,1,2.767-2.267c1.028-.385,3.172-1.473,4.6-.13a1.962,1.962,0,0,1,.566,1.6,29.352,29.352,0,0,1-.852,5.615l-.443,2.209a15.17,15.17,0,0,0-.024,6.912c.823,3.18,6.409,2.121,9.062,1.877,2.866-.264,6.413-.394,7.057-3.019a20.38,20.38,0,0,0,.467-5.772l-.249-5.81c-.182-4.257-2.279-5.825-.008-9.023a3.739,3.739,0,0,1,2.679-1.985,2.438,2.438,0,0,1,2.321,1.252,24.825,24.825,0,0,1,1.661,5.077L186.9,46.23l.909,3.359c.274,1.008.192,2.213.913,3.112.676.846,2.471.732,3.577.635,1.733-.149,2.783-1.035,2.878-2.354a35.159,35.159,0,0,0-.228-4.829l-.188-2.875a5.873,5.873,0,0,1,2.074-4.974c.966-.829,2.921-.944,3.614.088a10.992,10.992,0,0,1,1.279,4.134l.785,3.658a2.338,2.338,0,0,0,.528,1,18.183,18.183,0,0,0,6.348-10.093,14.945,14.945,0,0,0-2.356-10.7c-1.42-2.173-3.917-3.638-6.425-4.946-1.076-.561-3.954-2.1-4.97-1.645-.721.321,1,5.638,1.075,7.215a19.375,19.375,0,0,1-1.7,8.624,3.81,3.81,0,0,1-2.729,2.224,2.456,2.456,0,0,1-2.016-.714,5.209,5.209,0,0,1-1.682-3.233l-1.535-8.547a12.449,12.449,0,0,0-1.28-4.038,1.406,1.406,0,0,0-1.79-.389l-3.646,1.5c-2.416.992-5.535-.229-6.214,1.088a5.2,5.2,0,0,0-.528,2.3l-.156,6.619.434,8c.1,1.852-.8,4.981-3.6,4.963a2.222,2.222,0,0,1-1.934-.855,27.339,27.339,0,0,1-2.607-9.828l.146-6.341a4.843,4.843,0,0,0-.547-3.047,2.626,2.626,0,0,0-2.088-.757c-3.786.034-5.752.955-8.466-.8a11.429,11.429,0,0,0-.485,3.337l-.393,6.186c-.176,2.772-2.869,11.971-5.371,13.063a3.5,3.5,0,0,1-3.4-.518,5.541,5.541,0,0,1-2.279-4.379,56.572,56.572,0,0,1,.973-8.325c.406-2.982,1.747-5.593,1.948-8.2.167-2.175-3.64-2.58-5.177-2.364a1.2,1.2,0,0,0-1.215,1.383l.053,4.958c.014,1.211-1.244,6.15-4.026,6.83a2.47,2.47,0,0,1-2.588-1.092,3.835,3.835,0,0,1-.569-2.58l.5-6.336c.054-.7.215-1.4-.543-1.985a9.345,9.345,0,0,0-5.3,3.046,4.325,4.325,0,0,0-.394,2.809l.108,3.237c.11,3.282.667,5.644.65,9.03a3.289,3.289,0,1,1-6.577-.085l-.3-6.424a14.14,14.14,0,0,0-1.538,6.966" transform="translate(41.358 6.404)" fill="#89b254"/>
          <path id="Path_1257328" data-name="Path 1257328" d="M118.248,41.894a14.14,14.14,0,0,1,1.538-6.966l.3,6.424a3.289,3.289,0,1,0,6.577.085c.016-3.386-.541-5.748-.65-9.03l-.108-3.237a4.325,4.325,0,0,1,.394-2.809,9.345,9.345,0,0,1,5.3-3.046c.759.585.6,1.29.543,1.985l-.5,6.336a3.835,3.835,0,0,0,.569,2.58,2.47,2.47,0,0,0,2.588,1.092c2.782-.68,4.039-5.619,4.026-6.83l-.053-4.958a1.2,1.2,0,0,1,1.215-1.383c1.538-.215,5.344.19,5.177,2.364-.2,2.608-1.542,5.219-1.948,8.2a56.572,56.572,0,0,0-.973,8.325,5.541,5.541,0,0,0,2.279,4.379,3.5,3.5,0,0,0,3.4.518c2.5-1.092,5.2-10.291,5.371-13.063l.393-6.186a11.428,11.428,0,0,1,.485-3.337c2.714,1.753,4.68.832,8.466.8a2.626,2.626,0,0,1,2.088.757,4.843,4.843,0,0,1,.547,3.047l-.146,6.341a27.34,27.34,0,0,0,2.607,9.828,2.222,2.222,0,0,0,1.934.855c2.8.018,3.7-3.111,3.6-4.963l-.434-8,.156-6.619a5.2,5.2,0,0,1,.528-2.3c.679-1.317,3.8-.1,6.214-1.088l3.646-1.5a1.406,1.406,0,0,1,1.79.389,12.449,12.449,0,0,1,1.28,4.038l1.535,8.547a5.209,5.209,0,0,0,1.682,3.233,2.456,2.456,0,0,0,2.016.714,3.81,3.81,0,0,0,2.729-2.224,19.376,19.376,0,0,0,1.7-8.624c-.074-1.577-1.8-6.894-1.074-7.215,1.016-.451,3.894,1.084,4.97,1.645,2.508,1.308,5.005,2.772,6.425,4.946a14.945,14.945,0,0,1,2.356,10.7,18.183,18.183,0,0,1-6.348,10.093,2.338,2.338,0,0,1-.528-1l-.785-3.658a10.993,10.993,0,0,0-1.279-4.134c-.692-1.032-2.648-.917-3.614-.088a5.873,5.873,0,0,0-2.074,4.974l.188,2.875a35.159,35.159,0,0,1,.228,4.829c-.095,1.318-1.145,2.2-2.878,2.354-1.106.1-2.9.21-3.577-.635-.721-.9-.64-2.1-.913-3.112L186.3,45.79l-1.767-7.324a24.823,24.823,0,0,0-1.661-5.077,2.438,2.438,0,0,0-2.321-1.252,3.739,3.739,0,0,0-2.679,1.985c-2.271,3.2-.173,4.765.008,9.023l.249,5.81a20.38,20.38,0,0,1-.467,5.772c-.644,2.625-4.191,2.755-7.057,3.019-2.653.244-8.24,1.3-9.062-1.877a15.17,15.17,0,0,1,.024-6.912l.443-2.209a29.356,29.356,0,0,0,.852-5.615,1.962,1.962,0,0,0-.566-1.6c-1.425-1.343-3.569-.255-4.6.13a4.353,4.353,0,0,0-2.767,2.267c-1.182,2.944-2.562,7.412-2.158,10.488l.7,5.313a1.359,1.359,0,0,1-.35.9c-.523.653-4.543-.331-6.741-.45-2.581-.14-5.043-.42-5.653-2.448-.664-2.213-.175-6.4-.438-9.123a52.332,52.332,0,0,0-.8-6.581c-.324-1.434-1.65-2.219-3.42-2.03-2.451.262-4.07,1.511-4.515,3.413a18.154,18.154,0,0,0,.316,9.477l1.179,3.934a3.808,3.808,0,0,1,.275,2.074c-2.024-.455-6.63-3.215-8.257-4.36-3.924-2.764-6.367-6.523-6.817-10.642" transform="translate(41.961 6.845)" fill="#cfe0b9"/>
          <path id="Path_1257329" data-name="Path 1257329" d="M248.969,32.733c-2.49,1.138-11.992,3.958-14.517,2.873-3.156-4.038-1.751-11.792,3.684-12.946,3.482-.24,11.672.694,12.523,5.207.318,1.683-.008,4.1-1.69,4.866" transform="translate(82.638 8.032)" fill="#e55166"/>
          <path id="Path_1257330" data-name="Path 1257330" d="M305.8,41.2c-5.375,1.766-18.119-.726-12.225-8.49,2.3-1.4,11.42-5.568,13.943-4.73,3.576,3.524,3.4,11.187-1.718,13.221" transform="translate(103.673 9.892)" fill="#e55166"/>
          <path id="Path_1257331" data-name="Path 1257331" d="M243.465,47.584c-4.217,2.73-8.848-5.984-5.236-7.775,11.745-5.406,19.178.318,5.236,7.775" transform="translate(84.107 13.375)" fill="#e55166"/>
          <path id="Path_1257332" data-name="Path 1257332" d="M301.935,23.931c-3.905,2.978-10.971,6.367-11.322-1.24,1.831-2.589,4.623-8.755,8.439-6.542,2.141,1.715,5.875,5.1,2.883,7.782" transform="translate(103.164 5.566)" fill="#e55166"/>
          <path id="Path_1257333" data-name="Path 1257333" d="M306.51,53.694c-.516,5.169-6.6,10.519-11.656,7.752A19.761,19.761,0,0,1,289,53.431c-1.463-3.224,1.028-7.994,4.894-7.489,2.68.84,11.157,5.065,12.615,7.752" transform="translate(102.441 16.296)" fill="#e55166"/>
          <path id="Path_1257334" data-name="Path 1257334" d="M254.758,67.051c-5.249-.081-10.34-6.252-7.687-11.166,2.322-3.107,8.372-8.616,12.517-5.863,1.144.76,2.728,2.55,2.194,4.309-.8,2.635-4.527,11.026-7.024,12.721" transform="translate(87.449 17.492)" fill="#e55166"/>
          <path id="Path_1257335" data-name="Path 1257335" d="M271.537,68.688c-2.969,1.234-7.7.3-7.527-2.217.343-3.848,1.889-15.055,7.7-10.837,1.119,3.813,4.072,10.387-.171,13.054" transform="translate(93.718 19.418)" fill="#e55166"/>
          <path id="Path_1257336" data-name="Path 1257336" d="M287.087,63.858c-1.3.73-6.736,1.817-7.073-1.557-.491-4.1-.172-9.473,4.761-8.653,1.961.756,4.641,8.568,2.312,10.21" transform="translate(99.342 19.015)" fill="#e55166"/>
          <path id="Path_1257337" data-name="Path 1257337" d="M295.848,10.821c-2.3,3.232-7.886,8.936-12.142,6.4-1.175-.7-2.856-2.386-2.413-4.169A47.966,47.966,0,0,1,286.1,1.724c3.721-5.751,13.086,4.326,9.746,9.1" transform="translate(99.829 0)" fill="#e55166"/>
          <path id="Path_1257338" data-name="Path 1257338" d="M257.924,16.356c-1.826,4.923-8.923-.623-11.589-2.335-4.16-2.747,1.906-10.864,5.272-8.008,2.675,2.9,6.615,6,6.317,10.343" transform="translate(86.946 1.922)" fill="#e55166"/>
          <path id="Path_1257339" data-name="Path 1257339" d="M272.951,10.484c-.836,2.5-4.012,2.944-6.114,2.046-2.106-1.691-2.649-10.782.176-12.089,8.531-.992,8.477,3.486,5.938,10.043" transform="translate(94.098 0.108)" fill="#e55166"/>
          <path id="Path_1257340" data-name="Path 1257340" d="M168.568,115.694a12.207,12.207,0,0,1,1.2-.953,20.833,20.833,0,0,1,2.534-.756,4.3,4.3,0,0,1,5.612-2.783,10.12,10.12,0,0,1,14.891,3.2.365.365,0,0,1-.007.371c-.228.29-.89-.054-1.03.272l.524,1.331a5.474,5.474,0,0,1,5.583,3.182c1.306,2.538-.34,4.538-1.28,6.568-.512,1.108.287,3.638-2.224,3.885.523.92.131,1.453.077,2.225a6.058,6.058,0,0,0-.995.06,6.491,6.491,0,0,1-7.726,2.317,8.189,8.189,0,0,1-11.763-2.083.775.775,0,0,0-.829-.462c-1.091.062-2.156.084-3.3.042a4.114,4.114,0,0,1,.377-4.614,6.565,6.565,0,0,1-.073-11.427c-.214-.534-1.48-.033-1.579-.377m9.559-.847a8.761,8.761,0,0,1,10.179-1.065l1.667.011a.768.768,0,0,0,.691-.213A8.794,8.794,0,0,0,178.1,112.7a3.051,3.051,0,0,0-3.06-.152,2.862,2.862,0,0,0-1.575,2.332c-.015.352.65.476.906.264a3.211,3.211,0,0,1,3.756-.3m2.4,10.891a3.406,3.406,0,0,0-4.122-3.232,6.778,6.778,0,0,1,13.428.007,6.7,6.7,0,0,0-6.778-6.966,6.8,6.8,0,0,0-6.73,7,3.349,3.349,0,0,0-2.615,3.336,3.5,3.5,0,0,1,3.405-2.844,3.553,3.553,0,0,1,3.412,2.7m13.639,3.431a4.349,4.349,0,1,0-8.7.008,4.4,4.4,0,0,1,8.7-.008m-11.864,3.97a2.972,2.972,0,1,0-5.94.033,3,3,0,0,1,5.94-.033" transform="translate(59.23 38.762)" fill="#435829"/>
          <g id="Group_1207611" data-name="Group 1207611" transform="translate(232.695 149.234)" style="isolation: isolate">
            <g id="Group_1207610" data-name="Group 1207610">
              <g id="Group_1207609" data-name="Group 1207609" clip-path="url(#clip-path-2)">
                <path id="Path_1257341" data-name="Path 1257341" d="M176.4,114.512a3.211,3.211,0,0,0-3.756.3c-.257.211-.921.088-.908-.264a2.863,2.863,0,0,1,1.576-2.332,3.051,3.051,0,0,1,3.06.152,8.793,8.793,0,0,1,12.563.877.769.769,0,0,1-.69.213l-1.667-.011a8.761,8.761,0,0,0-10.179,1.065" transform="translate(-171.732 -110.137)" fill="#89b254"/>
              </g>
            </g>
          </g>
          <g id="Group_1207614" data-name="Group 1207614" transform="translate(232.933 154.309)" style="isolation: isolate">
            <g id="Group_1207613" data-name="Group 1207613">
              <g id="Group_1207612" data-name="Group 1207612" clip-path="url(#clip-path-3)">
                <path id="Path_1257342" data-name="Path 1257342" d="M178.729,124.074a3.552,3.552,0,0,0-3.413-2.7,3.5,3.5,0,0,0-3.4,2.843,3.345,3.345,0,0,1,2.615-3.335,6.8,6.8,0,0,1,6.729-7,6.7,6.7,0,0,1,6.779,6.966,6.778,6.778,0,0,0-13.428-.007,3.408,3.408,0,0,1,4.122,3.232" transform="translate(-171.908 -113.882)" fill="#89b254"/>
              </g>
            </g>
          </g>
          <g id="Group_1207617" data-name="Group 1207617" transform="translate(244.693 163.486)" style="isolation: isolate">
            <g id="Group_1207616" data-name="Group 1207616">
              <g id="Group_1207615" data-name="Group 1207615" clip-path="url(#clip-path-4)">
                <path id="Path_1257343" data-name="Path 1257343" d="M189.287,125.1a4.4,4.4,0,0,0-8.7.008,4.349,4.349,0,1,1,8.7-.008" transform="translate(-180.587 -120.655)" fill="#89b254"/>
              </g>
            </g>
          </g>
          <g id="Group_1207620" data-name="Group 1207620" transform="translate(235.583 168.849)" style="isolation: isolate">
            <g id="Group_1207619" data-name="Group 1207619">
              <g id="Group_1207618" data-name="Group 1207618" clip-path="url(#clip-path-5)">
                <path id="Path_1257344" data-name="Path 1257344" d="M179.808,127.666a3,3,0,0,0-5.94.033,2.972,2.972,0,1,1,5.94-.033" transform="translate(-173.864 -124.613)" fill="#89b254"/>
              </g>
            </g>
          </g>
          <g id="Group_1207623" data-name="Group 1207623" transform="translate(260.926 102.334)" style="isolation: isolate">
            <g id="Group_1207622" data-name="Group 1207622">
              <g id="Group_1207621" data-name="Group 1207621" clip-path="url(#clip-path-6)">
                <path id="Path_1257345" data-name="Path 1257345" d="M195.475,80.867a5.012,5.012,0,0,1-2.908.324,3.131,3.131,0,0,1,.274-.818,16.323,16.323,0,0,1,23.9.73,15.267,15.267,0,0,1-2.779.144,16.323,16.323,0,0,0-18.485-.379" transform="translate(-192.567 -75.524)" fill="#89b254"/>
              </g>
            </g>
          </g>
          <g id="Group_1207626" data-name="Group 1207626" transform="translate(238.27 95.741)" style="isolation: isolate">
            <g id="Group_1207625" data-name="Group 1207625">
              <g id="Group_1207624" data-name="Group 1207624" clip-path="url(#clip-path-7)">
                <path id="Path_1257346" data-name="Path 1257346" d="M221.252,73.529a25.183,25.183,0,0,0-34.312,11.4c-.069.142-.423.012-.526-.033a7.84,7.84,0,0,0-10.568,4.89c.274.027.665.164.848.015a7.873,7.873,0,0,1,7.775-3.61c.821.118,1.6.467,2.42.665a25.631,25.631,0,0,1,13.618-12.7A25.061,25.061,0,0,1,234.1,92.235c.047.206-.068.252.014.354a.272.272,0,0,0,.4.058,25.174,25.174,0,0,0-13.263-19.118" transform="translate(-175.847 -70.659)" fill="#89b254"/>
              </g>
            </g>
          </g>
          <path id="Path_1257347" data-name="Path 1257347" d="M252.163,87.332a6.27,6.27,0,0,0-5.423-3.6,7.072,7.072,0,0,0-1.24-1.892c-.514.073-.405-.411-.694-.505-.033-.011-1.19.1-.99.289a7.6,7.6,0,0,1,1.612,2.256,2.949,2.949,0,0,1,.507,1.07,5.072,5.072,0,0,1,5.2,2.974c1.161,2.291-.2,4.219-1.173,6.068-.523.991.324,3.355-2.05,3.593.408.892.1,1.446.005,2.232l-.971.046a5.989,5.989,0,0,1-4.457,2.393c-.351-.117-.669-.508-1-.707a28.347,28.347,0,0,0,.528-7.843c-.011-.225-.054-.491-.084-.717a35.354,35.354,0,0,0-1.814-7.106,10.673,10.673,0,0,0-.637-1.352l-1.688-2.995c-.3-.526-1.125-1.352-1.379-1.875a5.894,5.894,0,0,0-.832-.981,26.256,26.256,0,0,0-42.958,5.3,8.964,8.964,0,0,0-11.366,5.2,20.254,20.254,0,0,0-8.4,39.529,20.619,20.619,0,0,1,2.535-.756A4.3,4.3,0,0,1,181,125.17a10.118,10.118,0,0,1,14.89,3.2.359.359,0,0,1-.007.371c-.226.29-.889-.056-1.028.272l.524,1.331a5.471,5.471,0,0,1,5.581,3.182c1.308,2.538-.339,4.536-1.279,6.568-.514,1.108.287,3.637-2.224,3.883.523.92.131,1.454.077,2.225a6.2,6.2,0,0,0-.995.061,6.491,6.491,0,0,1-7.726,2.316,8.187,8.187,0,0,1-11.763-2.083.775.775,0,0,0-.829-.461c-1.091.062-2.156.084-3.3.041a4.11,4.11,0,0,1,.377-4.612,6.565,6.565,0,0,1-.073-11.427c-.214-.534-1.48-.033-1.579-.377a7.457,7.457,0,0,0-3,5.893,8.2,8.2,0,0,0,2.864,6.3,5.778,5.778,0,0,0,.435,5.115,5.479,5.479,0,0,0,4.069,2.477,9.528,9.528,0,0,0,13,2.729,7.711,7.711,0,0,0,6.932-1.3,7.872,7.872,0,0,0,3.045-6.065,5.166,5.166,0,0,0,1.733-2.2,25.032,25.032,0,0,0,29.337-12.643,15.637,15.637,0,0,0,15.011-25.1,6.97,6.97,0,0,0,2.9-2.455l.37-.595a6.836,6.836,0,0,0,.931-3.508c1.824-.787,1.423-2.73,2.008-3.963,1.07-2.255,2.182-4.386.883-7.02M226.17,83.263a16.323,16.323,0,0,0-18.485-.379,5.023,5.023,0,0,1-2.908.324,3.13,3.13,0,0,1,.274-.818,16.323,16.323,0,0,1,23.9.73,15.261,15.261,0,0,1-2.779.144m14.219,9.614c-.081-.1.032-.148-.014-.352a25.084,25.084,0,0,0-47.21-5.377c-.82-.2-1.6-.549-2.42-.665a7.873,7.873,0,0,0-7.775,3.61c-.183.149-.575.011-.848-.015a7.838,7.838,0,0,1,10.566-4.89c.1.045.457.173.526.033a25.187,25.187,0,0,1,34.314-11.4,25.169,25.169,0,0,1,13.261,19.119.271.271,0,0,1-.4-.06" transform="translate(56.147 24.793)" fill="#435829"/>
          <g id="Group_1207629" data-name="Group 1207629" transform="translate(291.727 103.086)" style="isolation: isolate">
            <g id="Group_1207628" data-name="Group 1207628">
              <g id="Group_1207627" data-name="Group 1207627" clip-path="url(#clip-path-8)">
                <path id="Path_1257348" data-name="Path 1257348" d="M225.219,79.631c-.512.073-.405-.411-.694-.505-.033-.011-1.19.1-.99.289a8.5,8.5,0,0,0-7.4-1.962,5.891,5.891,0,0,0-.832-.981,9.187,9.187,0,0,1,9.92,3.16" transform="translate(-215.299 -76.079)" fill="#e7efdc"/>
              </g>
            </g>
          </g>
          <path id="Path_1257349" data-name="Path 1257349" d="M224.568,80.829a2.9,2.9,0,0,1,.507,1.072,5.074,5.074,0,0,1,5.2,2.973c1.16,2.291-.2,4.219-1.175,6.069-.522.989.325,3.354-2.049,3.593.408.89.1,1.444.005,2.232l-.972.046a5.987,5.987,0,0,1-4.457,2.392c-.351-.115-.669-.507-1.005-.707a28.343,28.343,0,0,0,.53-7.843,4.114,4.114,0,0,1,5.6,2.715,3.615,3.615,0,0,0-1.734-3.058,4.4,4.4,0,0,0-3.951-.374,35.221,35.221,0,0,0-1.814-7.106,6.222,6.222,0,0,1,3.572,4.874,6.2,6.2,0,0,0-4.207-6.226l-1.69-2.995A7.99,7.99,0,0,1,223,80.67a1.3,1.3,0,0,0,1.568.159m2.252,13c.094-.249.1-.37-.019-.43-.045.188-.065.318.019.43" transform="translate(77.008 27.848)" fill="#435829"/>
          <g id="Group_1207632" data-name="Group 1207632" transform="translate(292.561 104.27)" style="isolation: isolate">
            <g id="Group_1207631" data-name="Group 1207631">
              <g id="Group_1207630" data-name="Group 1207630" clip-path="url(#clip-path-9)">
                <path id="Path_1257350" data-name="Path 1257350" d="M223.317,79.1a7.571,7.571,0,0,1,1.612,2.256,1.3,1.3,0,0,1-1.569-.159,7.987,7.987,0,0,0-6.068-2.184c-.3-.526-1.125-1.352-1.379-1.875a8.491,8.491,0,0,1,7.4,1.962" transform="translate(-215.914 -76.953)" fill="#89b254"/>
              </g>
            </g>
          </g>
          <g id="Group_1207635" data-name="Group 1207635" transform="translate(295.628 109.329)" style="isolation: isolate">
            <g id="Group_1207634" data-name="Group 1207634">
              <g id="Group_1207633" data-name="Group 1207633" clip-path="url(#clip-path-10)">
                <path id="Path_1257351" data-name="Path 1257351" d="M218.814,82.038a10.758,10.758,0,0,0-.637-1.352,6.2,6.2,0,0,1,4.207,6.226,6.22,6.22,0,0,0-3.57-4.874" transform="translate(-218.178 -80.686)" fill="#89b254"/>
              </g>
            </g>
          </g>
          <g id="Group_1207638" data-name="Group 1207638" transform="translate(298.078 117.498)" style="isolation: isolate">
            <g id="Group_1207637" data-name="Group 1207637">
              <g id="Group_1207636" data-name="Group 1207636" clip-path="url(#clip-path-11)">
                <path id="Path_1257352" data-name="Path 1257352" d="M220.07,87.72c-.011-.225-.054-.489-.084-.717a4.4,4.4,0,0,1,3.951.374,3.611,3.611,0,0,1,1.733,3.058,4.114,4.114,0,0,0-5.6-2.715" transform="translate(-219.986 -86.715)" fill="#89b254"/>
              </g>
            </g>
          </g>
          <g id="Group_1207641" data-name="Group 1207641" transform="translate(303.769 121.248)" style="isolation: isolate">
            <g id="Group_1207640" data-name="Group 1207640">
              <g id="Group_1207639" data-name="Group 1207639" clip-path="url(#clip-path-12)">
                <path id="Path_1257353" data-name="Path 1257353" d="M224.244,89.913c-.084-.111-.064-.241-.019-.43.122.06.112.18.019.43" transform="translate(-224.186 -89.482)" fill="#25b1e3"/>
              </g>
            </g>
          </g>
          <path id="Path_1257354" data-name="Path 1257354" d="M213.78,131.974c-1.16-.083,1.168,1.381-.825,3.274a1.27,1.27,0,0,1-.726,1.709c-.038.291.058.572-.06.827-.085.183-.412.123-.547.279a2.693,2.693,0,0,1-3.042.768,3.483,3.483,0,0,1-4.588-.443c-.321-.322-.974.131-1.275.018a1.644,1.644,0,0,1-.588-2.519,2.869,2.869,0,0,1-1.358-2.173,2.773,2.773,0,0,1,1.022-2.356c-.149-.211-.335-.184-.484-.2.348-.56,1.182-.607,1.64-.9a1.964,1.964,0,0,1,2.4-1.117,4.182,4.182,0,0,1,6.282,1.593,2.6,2.6,0,0,1,2.146,1.244m-8.321-1.331a3.629,3.629,0,0,1,5.387.684.275.275,0,0,0,.337.106c.286-.135-.493-1.924-2.393-2.469a3.868,3.868,0,0,0-3.359.741c-.474-.093-1-.272-1.412.072a1,1,0,0,0-.417,1.247,1.526,1.526,0,0,1,1.856-.381m4.8,3.144a2.725,2.725,0,0,0-2.462-2.825,2.649,2.649,0,0,0-2.985,2.211,2.99,2.99,0,0,1,3.083-1.732,2.852,2.852,0,0,1,2.364,2.346m1.615,2.093a1.73,1.73,0,0,0-3.347.412,1.922,1.922,0,0,1,1.442-1.228,2.147,2.147,0,0,1,1.905.816" transform="translate(71.268 45.55)" fill="#435829"/>
          <g id="Group_1207644" data-name="Group 1207644" transform="translate(271.501 176.701)" style="isolation: isolate">
            <g id="Group_1207643" data-name="Group 1207643">
              <g id="Group_1207642" data-name="Group 1207642" clip-path="url(#clip-path-13)">
                <path id="Path_1257355" data-name="Path 1257355" d="M213.919,131.23c.936,1.123.417,2.3-.061,3.505-.24.606-.47,1.257-.76,1.86a7.152,7.152,0,0,1-1.381,2.462c-.909.824-2.019.359-2.879.675-2.039.748-4.026.588-5.477-1.256-.526-.256-1.425-.434-1.7-1.159a2.571,2.571,0,0,1-.091-2.03,3.2,3.2,0,0,1-.118-4.881c.149.02.335-.007.484.2a2.772,2.772,0,0,0-1.02,2.356,2.866,2.866,0,0,0,1.356,2.175,1.643,1.643,0,0,0,.588,2.518c.3.114.954-.339,1.275-.018a3.482,3.482,0,0,0,4.588.443,2.694,2.694,0,0,0,3.043-.768c.134-.154.461-.1.546-.279.118-.253.022-.535.061-.825a1.272,1.272,0,0,0,.726-1.709c1.992-1.893-.336-3.356.824-3.275" transform="translate(-200.372 -130.408)" fill="#e7efdc"/>
              </g>
            </g>
          </g>
          <g id="Group_1207647" data-name="Group 1207647" transform="translate(274.78 174.386)" style="isolation: isolate">
            <g id="Group_1207646" data-name="Group 1207646">
              <g id="Group_1207645" data-name="Group 1207645" clip-path="url(#clip-path-14)">
                <path id="Path_1257356" data-name="Path 1257356" d="M204.739,130.507a1.526,1.526,0,0,0-1.856.381,1,1,0,0,1,.419-1.247c.408-.344.936-.167,1.411-.072a3.868,3.868,0,0,1,3.359-.741c1.9.545,2.679,2.333,2.393,2.469a.275.275,0,0,1-.337-.106,3.629,3.629,0,0,0-5.387-.684" transform="translate(-202.792 -128.7)" fill="#89b254"/>
              </g>
            </g>
          </g>
          <g id="Group_1207650" data-name="Group 1207650" transform="translate(276.084 176.496)" style="isolation: isolate">
            <g id="Group_1207649" data-name="Group 1207649">
              <g id="Group_1207648" data-name="Group 1207648" clip-path="url(#clip-path-15)">
                <path id="Path_1257357" data-name="Path 1257357" d="M209.2,133.1a2.854,2.854,0,0,0-2.364-2.345,2.992,2.992,0,0,0-3.083,1.732,2.649,2.649,0,0,1,2.985-2.211A2.726,2.726,0,0,1,209.2,133.1" transform="translate(-203.754 -130.257)" fill="#89b254"/>
              </g>
            </g>
          </g>
          <g id="Group_1207653" data-name="Group 1207653" transform="translate(279.799 180.292)" style="isolation: isolate">
            <g id="Group_1207652" data-name="Group 1207652">
              <g id="Group_1207651" data-name="Group 1207651" clip-path="url(#clip-path-16)">
                <path id="Path_1257358" data-name="Path 1257358" d="M209.842,134.2a2.147,2.147,0,0,0-1.905-.816,1.922,1.922,0,0,0-1.442,1.228,1.73,1.73,0,0,1,3.347-.412" transform="translate(-206.496 -133.058)" fill="#89b254"/>
              </g>
            </g>
          </g>
          <g id="Group_1207656" data-name="Group 1207656" transform="translate(281.546 158.717)" style="isolation: isolate">
            <g id="Group_1207655" data-name="Group 1207655">
              <g id="Group_1207654" data-name="Group 1207654" clip-path="url(#clip-path-17)">
                <path id="Path_1257359" data-name="Path 1257359" d="M225.89,117.232a4.216,4.216,0,0,1,.608.993,4.6,4.6,0,0,1,4,2.683c1.012,1.935-.1,3.406-.591,5.062a16.874,16.874,0,0,1-1.3,3.081c-.725,1.417-.856,3.088-2.333,4.066a5.908,5.908,0,0,1-4.66.844,6.612,6.612,0,0,1-8.836-1.847,4.178,4.178,0,0,1-2.771-1.73,4.114,4.114,0,0,1-.287-3.484,5.407,5.407,0,0,1-1.661-5.817,5.245,5.245,0,0,1,4.282-3.546c.111.336.457.14.772.225a1.719,1.719,0,0,1,0,.527,4.473,4.473,0,0,0-2.184,8.367,2.714,2.714,0,0,0-.3,2.984c.558.374,1.832-.213,2.7.224a5.608,5.608,0,0,0,8.126,1.619,4.474,4.474,0,0,0,5.317-1.634c.138-.129.566-.005.622-.221a1.71,1.71,0,0,0-.027-1.3c1.732-.194,1.114-1.862,1.5-2.614.692-1.359,1.713-2.806.825-4.488a3.724,3.724,0,0,0-3.756-2.129c-.037-.244-.2-.344-.267-.495a4.99,4.99,0,0,0-.6-1.173c.091-.154.191-.316.331-.3a4.028,4.028,0,0,1,.489.095" transform="translate(-207.785 -117.136)" fill="#435829"/>
              </g>
            </g>
          </g>
          <g id="Group_1207659" data-name="Group 1207659" transform="translate(286.103 155.822)" style="isolation: isolate">
            <g id="Group_1207658" data-name="Group 1207658">
              <g id="Group_1207657" data-name="Group 1207657" clip-path="url(#clip-path-18)">
                <path id="Path_1257360" data-name="Path 1257360" d="M224.7,117.991a4.028,4.028,0,0,0-.489-.095c-.14-.019-.24.142-.331.3a6.07,6.07,0,0,0-8.783-.814,2.108,2.108,0,0,0-1.973-.16,2.709,2.709,0,0,0-1.2,1.3c-.316-.085-.661.111-.772-.225a2.943,2.943,0,0,1,3.832-1.95,6.811,6.811,0,0,1,9.717,1.644" transform="translate(-211.148 -114.999)" fill="#e7efdc"/>
              </g>
            </g>
          </g>
          <path id="Path_1257361" data-name="Path 1257361" d="M225.438,118.755c.066.149.23.251.267.493a3.728,3.728,0,0,1,3.757,2.13c.886,1.682-.134,3.129-.825,4.488-.383.752.234,2.42-1.5,2.612a1.717,1.717,0,0,1,.028,1.3c-.057.215-.484.092-.623.221a4.473,4.473,0,0,1-5.317,1.635,5.608,5.608,0,0,1-8.124-1.619c-.866-.436-2.14.15-2.7-.224a2.714,2.714,0,0,1,.3-2.984,4.473,4.473,0,0,1,2.184-8.367c.192-.005.412.248.641.03a2.017,2.017,0,0,1,2.531-.224,5.952,5.952,0,0,1,8.406.451.8.8,0,0,0,.972.06m-7.746,6.848a2.3,2.3,0,0,0-2.753-2.2,4.544,4.544,0,0,1,4.631-3.943,4.632,4.632,0,0,1,4.459,4.07,4.593,4.593,0,1,0-9.177-.1,2.2,2.2,0,0,0-1.744,2.1,2.414,2.414,0,0,1,2.347-1.755,2.387,2.387,0,0,1,2.237,1.821m9.211,2.008a2.846,2.846,0,0,0-3.172-2.677,2.934,2.934,0,0,0-2.679,3.028,3,3,0,0,1,5.851-.351m-8.043,2.775a1.9,1.9,0,0,0-2.024-1.825,1.922,1.922,0,0,0-1.92,1.828,2.136,2.136,0,0,1,2.015-1.493,2.093,2.093,0,0,1,1.93,1.49" transform="translate(73.991 41.434)" fill="#435829"/>
          <g id="Group_1207662" data-name="Group 1207662" transform="translate(286.875 156.685)" style="isolation: isolate">
            <g id="Group_1207661" data-name="Group 1207661">
              <g id="Group_1207660" data-name="Group 1207660" clip-path="url(#clip-path-19)">
                <path id="Path_1257362" data-name="Path 1257362" d="M223.674,117.965a5.021,5.021,0,0,1,.6,1.175.8.8,0,0,1-.97-.058,5.951,5.951,0,0,0-8.406-.451,2.021,2.021,0,0,0-2.532.222c-.229.218-.447-.034-.64-.028a1.779,1.779,0,0,0,0-.53,2.7,2.7,0,0,1,1.2-1.3,2.1,2.1,0,0,1,1.972.157,6.073,6.073,0,0,1,8.784.814" transform="translate(-211.718 -115.636)" fill="#89b254"/>
              </g>
            </g>
          </g>
          <g id="Group_1207665" data-name="Group 1207665" transform="translate(287.099 160.13)" style="isolation: isolate">
            <g id="Group_1207664" data-name="Group 1207664">
              <g id="Group_1207663" data-name="Group 1207663" clip-path="url(#clip-path-20)">
                <path id="Path_1257363" data-name="Path 1257363" d="M216.467,125.086a2.384,2.384,0,0,0-2.237-1.82,2.414,2.414,0,0,0-2.347,1.755,2.2,2.2,0,0,1,1.744-2.1,4.594,4.594,0,1,1,9.179.095,4.633,4.633,0,0,0-4.461-4.069,4.541,4.541,0,0,0-4.63,3.943,2.3,2.3,0,0,1,2.752,2.2" transform="translate(-211.883 -118.178)" fill="#89b254"/>
              </g>
            </g>
          </g>
          <g id="Group_1207668" data-name="Group 1207668" transform="translate(295.04 166.357)" style="isolation: isolate">
            <g id="Group_1207667" data-name="Group 1207667">
              <g id="Group_1207666" data-name="Group 1207666" clip-path="url(#clip-path-21)">
                <path id="Path_1257364" data-name="Path 1257364" d="M223.6,125.464a3,3,0,0,0-5.851.351,2.934,2.934,0,0,1,2.679-3.028,2.845,2.845,0,0,1,3.172,2.677" transform="translate(-217.744 -122.773)" fill="#89b254"/>
              </g>
            </g>
          </g>
          <g id="Group_1207671" data-name="Group 1207671" transform="translate(288.906 169.995)" style="isolation: isolate">
            <g id="Group_1207670" data-name="Group 1207670">
              <g id="Group_1207669" data-name="Group 1207669" clip-path="url(#clip-path-22)">
                <path id="Path_1257365" data-name="Path 1257365" d="M217.161,127.284a2.093,2.093,0,0,0-1.93-1.49,2.136,2.136,0,0,0-2.015,1.493,1.922,1.922,0,0,1,1.92-1.828,1.9,1.9,0,0,1,2.024,1.825" transform="translate(-213.217 -125.459)" fill="#89b254"/>
              </g>
            </g>
          </g>
          <path id="Path_1257366" data-name="Path 1257366" d="M304.754,31.564c-3.286-13.315-17.656-19.135-30.167-19.958-13.641-.153-24.6,11.852-26.063,24.978-2.432,14.6,9.731,28.429,23.872,30.8,19.113,1.779,38.3-16.257,32.358-35.819M258.9,29.987h0" transform="translate(88.112 4.12)" fill="#f4b8c1"/>
          <path id="Path_1257367" data-name="Path 1257367" d="M82.851,85.1c-1.808-7.325-9.71-10.524-16.59-10.977-7.5-.084-13.53,6.519-14.334,13.736-1.336,8.028,5.352,15.635,13.13,16.939,10.512.978,21.063-8.94,17.8-19.7m-25.219-.869h0" transform="translate(18.372 26.311)" fill="#cfe0b9"/>
          <path id="Path_1257368" data-name="Path 1257368" d="M64.907,57.693H5.222A5.22,5.22,0,0,1,0,52.474V27.433a5.22,5.22,0,0,1,5.222-5.219H64.907a5.22,5.22,0,0,1,5.221,5.219v25.04a5.22,5.22,0,0,1-5.221,5.219" transform="translate(0 7.886)" fill="#89b254"/>
          <path id="Path_1257369" data-name="Path 1257369" d="M109.98,32.888a6.323,6.323,0,1,1-6.324-6.324,6.324,6.324,0,0,1,6.324,6.324" transform="translate(34.552 9.43)" fill="#435829"/>
          <path id="Path_1257370" data-name="Path 1257370" d="M109.98,47.033a6.323,6.323,0,1,1-6.324-6.324,6.324,6.324,0,0,1,6.324,6.324" transform="translate(34.552 14.451)" fill="#435829"/>
          <path id="Path_1257371" data-name="Path 1257371" d="M102.228,27.548a2.323,2.323,0,0,0,.74-.423L104.9,25.3c5.494-5.191,13.985-9.078,25.124-10.952,2.843-.478,5.725-.8,8.695-1.056l3.225-.28a1.686,1.686,0,0,0,1.226-.489,3.977,3.977,0,0,0-.7-.333c-1.988-.427-7.022-.228-9.237-.061-8.572.645-16.322,2.653-22.262,5.714a25.423,25.423,0,0,0-8.275,6.3,7.932,7.932,0,0,0-1.528,2.7c-.077.271.1.492.428.676Z" transform="translate(35.906 4.237)" fill="#e55166"/>
          <path id="Path_1257372" data-name="Path 1257372" d="M137.583,15.542l.165-.337a26.247,26.247,0,0,1-5.614-5.282c-.928-1.112-1.864-2.176-2.885-3.2-.251-.251-.743-.782-1.058-.6-.351.2.137.916.306,1.175.5.76,1.009,1.481,1.56,2.214a24.117,24.117,0,0,0,2.595,2.9,19.816,19.816,0,0,0,3.573,2.721l-3.408.794c-1.424.331-2.8.7-4.194,1.14a7.738,7.738,0,0,0-1.392.565c-.145.084-.19.255-.276.409.141.083.283.22.463.214A36.378,36.378,0,0,0,133.3,16.85Z" transform="translate(45.068 2.161)" fill="#e55166"/>
          <path id="Path_1257373" data-name="Path 1257373" d="M84.431,89.862c-.9.833.751.106,1.383,2.381.3,1.087-.5,1.672-.733,2.493-.2.68-.023,1.566-1,1.833a2.542,2.542,0,0,1-.312,1.714,1.253,1.253,0,0,1-.851-.107c-.736,1.1-2.015.411-2.866.676-1.541.48-3.248,1.018-4.642-.262a1.05,1.05,0,0,0-1.184-.209c-.691.2-1.4-.434-1.653-.988a1.926,1.926,0,0,1,.237-2,3.127,3.127,0,0,1-1.5-3.23,3.185,3.185,0,0,1,2.278-2.443c-.157-.225-.321-.259-.367-.4.165-.13.443-.133.575-.272a2.052,2.052,0,0,1,2.6-1.23,4.708,4.708,0,0,1,7.061,1.812c.423-.089.694.173.967.238m-7.916-.4a4.112,4.112,0,0,1,6.026.8.244.244,0,0,0,.317.054c.425-.377-.8-2.182-2.57-2.688a4.356,4.356,0,0,0-3.835.845,1.54,1.54,0,0,0-1.539.06c-.4.327-.793.766-.436,1.434.535-.851,1.335-.648,2.038-.5m.9,4.543c-.213-.832-.974-.969-1.7-.973a3.1,3.1,0,0,1,2.95-2.668,3.246,3.246,0,0,1,3.2,2.345,3.029,3.029,0,0,0-3.3-2.863,3.147,3.147,0,0,0-2.919,3.225c-.57.187-1.047.538-1.091,1.1a1.839,1.839,0,0,1,1.451-.863,2.061,2.061,0,0,1,1.411.7m6.446,1.939a1.966,1.966,0,0,0-3.905-.2,2.182,2.182,0,0,1,2.1-1.312,2.06,2.06,0,0,1,1.809,1.508" transform="translate(25.301 30.846)" fill="#435829"/>
          <g id="Group_1207674" data-name="Group 1207674" transform="translate(95.966 120.16)" style="isolation: isolate">
            <g id="Group_1207673" data-name="Group 1207673">
              <g id="Group_1207672" data-name="Group 1207672" clip-path="url(#clip-path-23)">
                <path id="Path_1257374" data-name="Path 1257374" d="M73.386,88.68c.047.145.211.179.369.4a3.185,3.185,0,0,0-2.279,2.443,3.129,3.129,0,0,0,1.5,3.23,1.929,1.929,0,0,0-.237,2c.253.554.962,1.191,1.653.988a1.052,1.052,0,0,1,1.184.209c1.4,1.279,3.1.741,4.642.262.851-.266,2.131.428,2.866-.676a1.249,1.249,0,0,0,.852.107,2.541,2.541,0,0,0,.31-1.714c.976-.267.8-1.153,1-1.833.238-.821,1.035-1.406.733-2.493-.631-2.275-2.279-1.547-1.383-2.381A3.023,3.023,0,0,1,86.5,91.267c.474,1.229-.366,2.037-.565,2.977a11.168,11.168,0,0,1-.869,2.116,7.1,7.1,0,0,1-1.524,2.77c-1.005.928-2.238.405-3.229.766-2.224.809-4.583.669-6.092-1.423a2.59,2.59,0,0,1-2.1-3.553,3.794,3.794,0,0,1-1.179-3.734,3.408,3.408,0,0,1,2.442-2.505" transform="translate(-70.824 -88.679)" fill="#e7efdc"/>
              </g>
            </g>
          </g>
          <g id="Group_1207677" data-name="Group 1207677" transform="translate(99.64 118.325)" style="isolation: isolate">
            <g id="Group_1207676" data-name="Group 1207676">
              <g id="Group_1207675" data-name="Group 1207675" clip-path="url(#clip-path-24)">
                <path id="Path_1257375" data-name="Path 1257375" d="M75.713,89.312c-.7-.142-1.5-.347-2.038.5-.356-.668.038-1.106.436-1.432a1.536,1.536,0,0,1,1.539-.061,4.357,4.357,0,0,1,3.833-.846c1.768.507,3,2.312,2.572,2.69a.248.248,0,0,1-.318-.056,4.112,4.112,0,0,0-6.024-.8" transform="translate(-73.536 -87.326)" fill="#89b254"/>
              </g>
            </g>
          </g>
          <g id="Group_1207680" data-name="Group 1207680" transform="translate(99.859 120.689)" style="isolation: isolate">
            <g id="Group_1207679" data-name="Group 1207679">
              <g id="Group_1207678" data-name="Group 1207678" clip-path="url(#clip-path-25)">
                <path id="Path_1257376" data-name="Path 1257376" d="M76.56,93.237a2.06,2.06,0,0,0-1.411-.7A1.837,1.837,0,0,0,73.7,93.4c.043-.564.52-.913,1.091-1.1a3.147,3.147,0,0,1,2.919-3.225,3.026,3.026,0,0,1,3.3,2.862,3.245,3.245,0,0,0-3.2-2.344,3.093,3.093,0,0,0-2.951,2.667c.73,0,1.492.141,1.706.974" transform="translate(-73.698 -89.07)" fill="#89b254"/>
              </g>
            </g>
          </g>
          <g id="Group_1207683" data-name="Group 1207683" transform="translate(105.261 124.941)" style="isolation: isolate">
            <g id="Group_1207682" data-name="Group 1207682">
              <g id="Group_1207681" data-name="Group 1207681" clip-path="url(#clip-path-26)">
                <path id="Path_1257377" data-name="Path 1257377" d="M81.589,94.062a2.059,2.059,0,0,0-1.809-1.508,2.182,2.182,0,0,0-2.1,1.312,1.966,1.966,0,0,1,3.905.2" transform="translate(-77.685 -92.208)" fill="#89b254"/>
              </g>
            </g>
          </g>
          <line id="Line_1444" data-name="Line 1444" x1="49.429" transform="translate(76.004 50.317)" fill="none" stroke="#e55166" stroke-miterlimit="10" stroke-width="1"/>
          <path id="Path_1257378" data-name="Path 1257378" d="M89.4,33.681l4.677,4.677-4.683,4.684s.022-9.345.005-9.362" transform="translate(31.733 11.956)" fill="#e55166"/>
          <line id="Line_1445" data-name="Line 1445" x1="36.713" transform="translate(265.509 50.317)" fill="none" stroke="#e55166" stroke-miterlimit="10" stroke-width="1"/>
          <path id="Path_1257379" data-name="Path 1257379" d="M223.414,33.681l4.677,4.677-4.683,4.684s.022-9.345.005-9.362" transform="translate(74.506 11.956)" fill="#e55166"/>
        </g>
      </g>
      <path id="Path_1257922" data-name="Path 1257922" d="M4.938-.738a1.89,1.89,0,0,1-.855.609A3.49,3.49,0,0,1,2.84.078,2.448,2.448,0,0,1,1.574-.246a2.16,2.16,0,0,1-.85-.928A3.246,3.246,0,0,1,.414-2.582v-.445a3.01,3.01,0,0,1,.617-2.014,2.141,2.141,0,0,1,1.723-.725A2.271,2.271,0,0,1,4.262-5.3a2.021,2.021,0,0,1,.672,1.352H3.965A1.09,1.09,0,0,0,2.773-4.973a1.167,1.167,0,0,0-1.01.479,2.44,2.44,0,0,0-.357,1.4v.438a2.317,2.317,0,0,0,.389,1.432,1.282,1.282,0,0,0,1.08.51,1.424,1.424,0,0,0,1.078-.344V-2.168H2.781v-.75H4.938ZM7.012-.789H9.594V0H6.023V-5.687h.988Zm7.406-4.9v3.8a1.847,1.847,0,0,1-.58,1.436,2.2,2.2,0,0,1-1.545.529,2.219,2.219,0,0,1-1.551-.521,1.856,1.856,0,0,1-.574-1.447v-3.8h.984v3.8a1.209,1.209,0,0,0,.289.871,1.128,1.128,0,0,0,.852.3q1.141,0,1.141-1.2V-5.687Zm5.395,3.836a2.054,2.054,0,0,1-.672,1.42,2.291,2.291,0,0,1-1.559.51,2.218,2.218,0,0,1-1.2-.322,2.115,2.115,0,0,1-.8-.916,3.306,3.306,0,0,1-.293-1.379V-3.07a3.33,3.33,0,0,1,.285-1.418,2.149,2.149,0,0,1,.818-.945,2.283,2.283,0,0,1,1.232-.332,2.193,2.193,0,0,1,1.516.512,2.138,2.138,0,0,1,.668,1.445h-.984a1.4,1.4,0,0,0-.357-.885,1.181,1.181,0,0,0-.842-.271,1.154,1.154,0,0,0-.99.471,2.351,2.351,0,0,0-.354,1.381v.5a2.494,2.494,0,0,0,.33,1.406,1.1,1.1,0,0,0,.967.484,1.278,1.278,0,0,0,.875-.262,1.365,1.365,0,0,0,.371-.871ZM25.234-2.7a3.489,3.489,0,0,1-.289,1.467,2.186,2.186,0,0,1-.826.969,2.272,2.272,0,0,1-1.236.338A2.278,2.278,0,0,1,21.65-.26a2.219,2.219,0,0,1-.836-.963,3.38,3.38,0,0,1-.3-1.441v-.32a3.46,3.46,0,0,1,.295-1.469,2.217,2.217,0,0,1,.832-.975,2.265,2.265,0,0,1,1.232-.338,2.285,2.285,0,0,1,1.232.334,2.188,2.188,0,0,1,.83.961,3.452,3.452,0,0,1,.3,1.459Zm-.988-.3a2.486,2.486,0,0,0-.357-1.449,1.169,1.169,0,0,0-1.014-.5,1.166,1.166,0,0,0-1,.5,2.438,2.438,0,0,0-.369,1.42V-2.7a2.467,2.467,0,0,0,.365,1.449,1.176,1.176,0,0,0,1.014.512,1.162,1.162,0,0,0,1.01-.5A2.521,2.521,0,0,0,24.246-2.7ZM23.164-7.211h1.082L23.164-6.027H22.4ZM27.207-.789h2.582V0h-3.57V-5.687h.988ZM31.59,0h-.984V-5.687h.984Zm4.188-1.465a.687.687,0,0,0-.264-.578,3.172,3.172,0,0,0-.951-.41,4.593,4.593,0,0,1-1.094-.461,1.46,1.46,0,0,1-.777-1.273,1.386,1.386,0,0,1,.561-1.133,2.269,2.269,0,0,1,1.455-.445,2.458,2.458,0,0,1,1.059.219,1.738,1.738,0,0,1,.73.623,1.6,1.6,0,0,1,.266.9h-.984a.891.891,0,0,0-.279-.7,1.153,1.153,0,0,0-.8-.252,1.2,1.2,0,0,0-.752.207.689.689,0,0,0-.268.578.624.624,0,0,0,.289.521,3.33,3.33,0,0,0,.953.406,4.384,4.384,0,0,1,1.066.449,1.7,1.7,0,0,1,.59.578,1.506,1.506,0,0,1,.188.764,1.354,1.354,0,0,1-.545,1.131,2.364,2.364,0,0,1-1.479.42A2.778,2.778,0,0,1,33.607-.15a1.906,1.906,0,0,1-.8-.631,1.572,1.572,0,0,1-.287-.937H33.5a.92.92,0,0,0,.32.75,1.4,1.4,0,0,0,.918.266,1.219,1.219,0,0,0,.775-.209A.674.674,0,0,0,35.777-1.465ZM38.676,0h-.984V-5.687h.984Zm4.188-1.465a.687.687,0,0,0-.264-.578,3.172,3.172,0,0,0-.951-.41,4.593,4.593,0,0,1-1.094-.461,1.46,1.46,0,0,1-.777-1.273,1.386,1.386,0,0,1,.561-1.133,2.269,2.269,0,0,1,1.455-.445,2.458,2.458,0,0,1,1.059.219,1.738,1.738,0,0,1,.73.623,1.6,1.6,0,0,1,.266.9h-.984a.891.891,0,0,0-.279-.7,1.153,1.153,0,0,0-.8-.252,1.2,1.2,0,0,0-.752.207.689.689,0,0,0-.268.578.624.624,0,0,0,.289.521,3.33,3.33,0,0,0,.953.406,4.384,4.384,0,0,1,1.066.449,1.7,1.7,0,0,1,.59.578,1.506,1.506,0,0,1,.188.764,1.354,1.354,0,0,1-.545,1.131,2.364,2.364,0,0,1-1.479.42A2.778,2.778,0,0,1,40.693-.15a1.906,1.906,0,0,1-.8-.631,1.572,1.572,0,0,1-.287-.937h.988a.92.92,0,0,0,.32.75,1.4,1.4,0,0,0,.918.266A1.219,1.219,0,0,0,42.6-.912.674.674,0,0,0,42.863-1.465Z" transform="translate(77.189 39.447)" fill="#12263f"/>
      <path id="Path_1257923" data-name="Path 1257923" d="M4.938-.738a1.89,1.89,0,0,1-.855.609A3.49,3.49,0,0,1,2.84.078,2.448,2.448,0,0,1,1.574-.246a2.16,2.16,0,0,1-.85-.928A3.246,3.246,0,0,1,.414-2.582v-.445a3.01,3.01,0,0,1,.617-2.014,2.141,2.141,0,0,1,1.723-.725A2.271,2.271,0,0,1,4.262-5.3a2.021,2.021,0,0,1,.672,1.352H3.965A1.09,1.09,0,0,0,2.773-4.973a1.167,1.167,0,0,0-1.01.479,2.44,2.44,0,0,0-.357,1.4v.438a2.317,2.317,0,0,0,.389,1.432,1.282,1.282,0,0,0,1.08.51,1.424,1.424,0,0,0,1.078-.344V-2.168H2.781v-.75H4.938ZM7.012-.789H9.594V0H6.023V-5.687h.988Zm7.406-4.9v3.8a1.847,1.847,0,0,1-.58,1.436,2.2,2.2,0,0,1-1.545.529,2.219,2.219,0,0,1-1.551-.521,1.856,1.856,0,0,1-.574-1.447v-3.8h.984v3.8a1.209,1.209,0,0,0,.289.871,1.128,1.128,0,0,0,.852.3q1.141,0,1.141-1.2V-5.687Zm5.395,3.836a2.054,2.054,0,0,1-.672,1.42,2.291,2.291,0,0,1-1.559.51,2.218,2.218,0,0,1-1.2-.322,2.115,2.115,0,0,1-.8-.916,3.306,3.306,0,0,1-.293-1.379V-3.07a3.33,3.33,0,0,1,.285-1.418,2.149,2.149,0,0,1,.818-.945,2.283,2.283,0,0,1,1.232-.332,2.193,2.193,0,0,1,1.516.512,2.138,2.138,0,0,1,.668,1.445h-.984a1.4,1.4,0,0,0-.357-.885,1.181,1.181,0,0,0-.842-.271,1.154,1.154,0,0,0-.99.471,2.351,2.351,0,0,0-.354,1.381v.5a2.494,2.494,0,0,0,.33,1.406,1.1,1.1,0,0,0,.967.484,1.278,1.278,0,0,0,.875-.262,1.365,1.365,0,0,0,.371-.871ZM25.234-2.7a3.489,3.489,0,0,1-.289,1.467,2.186,2.186,0,0,1-.826.969,2.272,2.272,0,0,1-1.236.338A2.278,2.278,0,0,1,21.65-.26a2.219,2.219,0,0,1-.836-.963,3.38,3.38,0,0,1-.3-1.441v-.32a3.46,3.46,0,0,1,.295-1.469,2.217,2.217,0,0,1,.832-.975,2.265,2.265,0,0,1,1.232-.338,2.285,2.285,0,0,1,1.232.334,2.188,2.188,0,0,1,.83.961,3.452,3.452,0,0,1,.3,1.459Zm-.988-.3a2.486,2.486,0,0,0-.357-1.449,1.169,1.169,0,0,0-1.014-.5,1.166,1.166,0,0,0-1,.5,2.438,2.438,0,0,0-.369,1.42V-2.7a2.467,2.467,0,0,0,.365,1.449,1.176,1.176,0,0,0,1.014.512,1.162,1.162,0,0,0,1.01-.5A2.521,2.521,0,0,0,24.246-2.7Zm4.945,1.527a.687.687,0,0,0-.264-.578,3.172,3.172,0,0,0-.951-.41,4.593,4.593,0,0,1-1.094-.461,1.46,1.46,0,0,1-.777-1.273,1.386,1.386,0,0,1,.561-1.133,2.269,2.269,0,0,1,1.455-.445,2.458,2.458,0,0,1,1.059.219,1.738,1.738,0,0,1,.73.623,1.6,1.6,0,0,1,.266.9h-.984a.891.891,0,0,0-.279-.7,1.153,1.153,0,0,0-.8-.252,1.2,1.2,0,0,0-.752.207.689.689,0,0,0-.268.578.624.624,0,0,0,.289.521,3.33,3.33,0,0,0,.953.406,4.384,4.384,0,0,1,1.066.449,1.7,1.7,0,0,1,.59.578,1.506,1.506,0,0,1,.188.764,1.354,1.354,0,0,1-.545,1.131,2.364,2.364,0,0,1-1.479.42A2.778,2.778,0,0,1,27.021-.15a1.906,1.906,0,0,1-.8-.631,1.572,1.572,0,0,1-.287-.937h.988a.92.92,0,0,0,.32.75,1.4,1.4,0,0,0,.918.266,1.219,1.219,0,0,0,.775-.209A.674.674,0,0,0,29.191-1.465Zm5.039.141h-2.2L31.566,0H30.539l2.148-5.687h.887L35.727,0H34.7Zm-1.926-.8h1.648L33.129-4.48Z" transform="translate(15.978 76.654)" fill="#12263f"/>
      <path id="Path_1257924" data-name="Path 1257924" d="M4.25,0H.426V-.652L2.32-2.719A4.718,4.718,0,0,0,2.9-3.482,1.237,1.237,0,0,0,3.078-4.1a.935.935,0,0,0-.229-.656A.793.793,0,0,0,2.234-5a.914.914,0,0,0-.715.281,1.106,1.106,0,0,0-.254.77H.316a1.86,1.86,0,0,1,.236-.936,1.627,1.627,0,0,1,.676-.646,2.151,2.151,0,0,1,1.014-.23,1.924,1.924,0,0,1,1.307.416A1.444,1.444,0,0,1,4.027-4.2a1.952,1.952,0,0,1-.24.893A5.075,5.075,0,0,1,3-2.246L1.609-.758H4.25ZM8.105-2.113V0H7.117V-5.687H9.293a2.2,2.2,0,0,1,1.514.5,1.667,1.667,0,0,1,.561,1.313,1.612,1.612,0,0,1-.549,1.3,2.308,2.308,0,0,1-1.537.465Zm0-.793H9.293a1.17,1.17,0,0,0,.8-.248.912.912,0,0,0,.277-.717.984.984,0,0,0-.281-.736,1.084,1.084,0,0,0-.773-.283H8.105ZM13.273,0h-.984V-5.687h.984Zm3.3-2.191h-1.1V0h-.988V-5.687h2a2.328,2.328,0,0,1,1.52.441,1.561,1.561,0,0,1,.535,1.277,1.6,1.6,0,0,1-.275.955,1.752,1.752,0,0,1-.768.592L18.777-.051V0H17.719Zm-1.1-.793h1.016a1.13,1.13,0,0,0,.781-.252.879.879,0,0,0,.281-.689.935.935,0,0,0-.26-.707,1.1,1.1,0,0,0-.775-.258H15.477Zm8.164-2.7v3.8a1.847,1.847,0,0,1-.58,1.436,2.2,2.2,0,0,1-1.545.529,2.219,2.219,0,0,1-1.551-.521,1.856,1.856,0,0,1-.574-1.447v-3.8h.984v3.8a1.209,1.209,0,0,0,.289.871,1.128,1.128,0,0,0,.852.3q1.141,0,1.141-1.2V-5.687ZM26.7-1.238l1.445-4.449H29.23L27.184,0h-.957L24.188-5.687H25.27Zm6.063-.086h-2.2L30.1,0H29.07l2.148-5.687h.887L34.258,0H33.227Zm-1.926-.8h1.648L31.66-4.48Zm7.707-2.77H36.77V0h-.98V-4.891H34.031v-.8h4.512Zm5.176,2.2a3.489,3.489,0,0,1-.289,1.467A2.186,2.186,0,0,1,42.6-.26a2.272,2.272,0,0,1-1.236.338A2.278,2.278,0,0,1,40.135-.26a2.219,2.219,0,0,1-.836-.963A3.38,3.38,0,0,1,39-2.664v-.32a3.46,3.46,0,0,1,.295-1.469,2.217,2.217,0,0,1,.832-.975,2.265,2.265,0,0,1,1.232-.338,2.285,2.285,0,0,1,1.232.334,2.188,2.188,0,0,1,.83.961,3.452,3.452,0,0,1,.3,1.459Zm-.988-.3a2.486,2.486,0,0,0-.357-1.449,1.169,1.169,0,0,0-1.014-.5,1.166,1.166,0,0,0-1,.5,2.438,2.438,0,0,0-.369,1.42V-2.7a2.467,2.467,0,0,0,.365,1.449,1.176,1.176,0,0,0,1.014.512,1.162,1.162,0,0,0,1.01-.5A2.521,2.521,0,0,0,42.73-2.7Z" transform="translate(109.595 79.055)" fill="#12263f"/>
      <path id="Path_1257926" data-name="Path 1257926" d="M5.117-2.7a3.489,3.489,0,0,1-.289,1.467A2.186,2.186,0,0,1,4-.26,2.272,2.272,0,0,1,2.766.078,2.278,2.278,0,0,1,1.533-.26,2.219,2.219,0,0,1,.7-1.223,3.38,3.38,0,0,1,.4-2.664v-.32A3.46,3.46,0,0,1,.693-4.453a2.217,2.217,0,0,1,.832-.975,2.265,2.265,0,0,1,1.232-.338,2.285,2.285,0,0,1,1.232.334,2.188,2.188,0,0,1,.83.961,3.452,3.452,0,0,1,.3,1.459Zm-.988-.3a2.486,2.486,0,0,0-.357-1.449,1.169,1.169,0,0,0-1.014-.5,1.166,1.166,0,0,0-1,.5,2.438,2.438,0,0,0-.369,1.42V-2.7a2.467,2.467,0,0,0,.365,1.449,1.176,1.176,0,0,0,1.014.512,1.162,1.162,0,0,0,1.01-.5A2.521,2.521,0,0,0,4.129-2.7Zm3.844-.641,1.2-2.055h1.141L8.59-2.867,10.348,0H9.2L7.973-2.086,6.746,0H5.6L7.359-2.867,5.637-5.687H6.777ZM12.121,0h-.984V-5.687h.984Zm-.215-7.238h1.082L11.906-6.055h-.762ZM17.7-.738a1.89,1.89,0,0,1-.855.609A3.49,3.49,0,0,1,15.6.078a2.448,2.448,0,0,1-1.266-.324,2.16,2.16,0,0,1-.85-.928,3.246,3.246,0,0,1-.311-1.408v-.445a3.01,3.01,0,0,1,.617-2.014,2.141,2.141,0,0,1,1.723-.725A2.271,2.271,0,0,1,17.02-5.3a2.021,2.021,0,0,1,.672,1.352h-.969a1.09,1.09,0,0,0-1.191-1.027,1.167,1.167,0,0,0-1.01.479,2.44,2.44,0,0,0-.357,1.4v.438a2.317,2.317,0,0,0,.389,1.432,1.282,1.282,0,0,0,1.08.51,1.424,1.424,0,0,0,1.078-.344V-2.168H15.539v-.75H17.7Zm4.41-1.8H19.77v1.75H22.5V0H18.781V-5.687h3.691v.8h-2.7v1.57h2.336ZM27.816,0h-.988L24.293-4.035V0H23.3V-5.687h.988l2.543,4.051V-5.687h.98Zm5.707-2.7a3.489,3.489,0,0,1-.289,1.467,2.186,2.186,0,0,1-.826.969,2.272,2.272,0,0,1-1.236.338A2.278,2.278,0,0,1,29.939-.26a2.219,2.219,0,0,1-.836-.963,3.38,3.38,0,0,1-.3-1.441v-.32A3.46,3.46,0,0,1,29.1-4.453a2.217,2.217,0,0,1,.832-.975,2.265,2.265,0,0,1,1.232-.338,2.285,2.285,0,0,1,1.232.334,2.188,2.188,0,0,1,.83.961,3.452,3.452,0,0,1,.3,1.459Zm-.988-.3a2.486,2.486,0,0,0-.357-1.449,1.169,1.169,0,0,0-1.014-.5,1.166,1.166,0,0,0-1,.5,2.438,2.438,0,0,0-.369,1.42V-2.7a2.467,2.467,0,0,0,.365,1.449,1.176,1.176,0,0,0,1.014.512,1.162,1.162,0,0,0,1.01-.5A2.521,2.521,0,0,0,32.535-2.7Z" transform="translate(67.587 141.467)" fill="#12263f"/>
      <path id="Path_1257927" data-name="Path 1257927" d="M1.859-5.687,3.5-1.328,5.137-5.687H6.414V0H5.43V-1.875l.1-2.508L3.848,0H3.141L1.465-4.379l.1,2.5V0H.578V-5.687ZM8.625,0H7.641V-5.687h.984Zm5.211-4.891H12.063V0h-.98V-4.891H9.324v-.8h4.512Zm5.176,2.2a3.489,3.489,0,0,1-.289,1.467A2.186,2.186,0,0,1,17.9-.26,2.272,2.272,0,0,1,16.66.078,2.278,2.278,0,0,1,15.428-.26a2.219,2.219,0,0,1-.836-.963,3.38,3.38,0,0,1-.3-1.441v-.32a3.46,3.46,0,0,1,.295-1.469,2.217,2.217,0,0,1,.832-.975,2.265,2.265,0,0,1,1.232-.338,2.285,2.285,0,0,1,1.232.334,2.188,2.188,0,0,1,.83.961,3.452,3.452,0,0,1,.3,1.459Zm-.988-.3a2.486,2.486,0,0,0-.357-1.449,1.169,1.169,0,0,0-1.014-.5,1.166,1.166,0,0,0-1,.5,2.438,2.438,0,0,0-.369,1.42V-2.7a2.467,2.467,0,0,0,.365,1.449,1.176,1.176,0,0,0,1.014.512,1.162,1.162,0,0,0,1.01-.5A2.521,2.521,0,0,0,18.023-2.7Zm6.313,1.141a2.054,2.054,0,0,1-.672,1.42,2.291,2.291,0,0,1-1.559.51,2.218,2.218,0,0,1-1.2-.322,2.115,2.115,0,0,1-.8-.916,3.306,3.306,0,0,1-.293-1.379V-3.07A3.33,3.33,0,0,1,20.1-4.488a2.149,2.149,0,0,1,.818-.945,2.283,2.283,0,0,1,1.232-.332,2.193,2.193,0,0,1,1.516.512,2.138,2.138,0,0,1,.668,1.445h-.984a1.4,1.4,0,0,0-.357-.885,1.181,1.181,0,0,0-.842-.271,1.154,1.154,0,0,0-.99.471,2.351,2.351,0,0,0-.354,1.381v.5a2.494,2.494,0,0,0,.33,1.406,1.1,1.1,0,0,0,.967.484A1.278,1.278,0,0,0,22.98-.98a1.365,1.365,0,0,0,.371-.871ZM29.758-2.7a3.489,3.489,0,0,1-.289,1.467,2.186,2.186,0,0,1-.826.969,2.272,2.272,0,0,1-1.236.338A2.278,2.278,0,0,1,26.174-.26a2.219,2.219,0,0,1-.836-.963,3.38,3.38,0,0,1-.3-1.441v-.32a3.46,3.46,0,0,1,.295-1.469,2.217,2.217,0,0,1,.832-.975A2.265,2.265,0,0,1,27.4-5.766a2.285,2.285,0,0,1,1.232.334,2.188,2.188,0,0,1,.83.961,3.452,3.452,0,0,1,.3,1.459Zm-.988-.3a2.486,2.486,0,0,0-.357-1.449,1.169,1.169,0,0,0-1.014-.5,1.166,1.166,0,0,0-1,.5,2.438,2.438,0,0,0-.369,1.42V-2.7a2.467,2.467,0,0,0,.365,1.449,1.176,1.176,0,0,0,1.014.512,1.162,1.162,0,0,0,1.01-.5A2.521,2.521,0,0,0,28.77-2.7ZM35.254,0h-.988L31.73-4.035V0h-.988V-5.687h.988l2.543,4.051V-5.687h.98Zm1.168,0V-5.687H38.1a2.635,2.635,0,0,1,1.338.336,2.291,2.291,0,0,1,.9.953,3.025,3.025,0,0,1,.32,1.414V-2.7a3.013,3.013,0,0,1-.322,1.422,2.263,2.263,0,0,1-.918.945A2.757,2.757,0,0,1,38.059,0Zm.988-4.891v4.1h.645a1.484,1.484,0,0,0,1.193-.486,2.118,2.118,0,0,0,.424-1.4v-.316a2.174,2.174,0,0,0-.4-1.414A1.426,1.426,0,0,0,38.1-4.891Zm6.328,2.7h-1.1V0h-.988V-5.687h2a2.328,2.328,0,0,1,1.52.441A1.561,1.561,0,0,1,45.7-3.969a1.6,1.6,0,0,1-.275.955,1.752,1.752,0,0,1-.768.592L45.938-.051V0H44.879Zm-1.1-.793h1.016a1.13,1.13,0,0,0,.781-.252.879.879,0,0,0,.281-.689.935.935,0,0,0-.26-.707,1.1,1.1,0,0,0-.775-.258H42.637ZM47.684,0H46.7V-5.687h.984Zm4.469-1.324h-2.2L49.488,0H48.461l2.148-5.687H51.5L53.648,0H52.617Zm-1.926-.8h1.648L51.051-4.48Z" transform="translate(182.809 94.658)" fill="#12263f"/>
      <path id="Path_1257929" data-name="Path 1257929" d="M-40.441,0V-5.687h1.68a2.635,2.635,0,0,1,1.338.336,2.291,2.291,0,0,1,.9.953,3.025,3.025,0,0,1,.32,1.414V-2.7a3.013,3.013,0,0,1-.322,1.422,2.263,2.263,0,0,1-.918.945A2.757,2.757,0,0,1-38.8,0Zm.988-4.891v4.1h.645a1.484,1.484,0,0,0,1.193-.486,2.118,2.118,0,0,0,.424-1.4v-.316a2.174,2.174,0,0,0-.4-1.414,1.426,1.426,0,0,0-1.168-.488ZM-34.172,0h-.984V-5.687h.984Zm5.754-2.7a3.489,3.489,0,0,1-.289,1.467,2.186,2.186,0,0,1-.826.969A2.272,2.272,0,0,1-30.77.078,2.278,2.278,0,0,1-32-.26a2.219,2.219,0,0,1-.836-.963,3.38,3.38,0,0,1-.3-1.441v-.32a3.46,3.46,0,0,1,.295-1.469,2.217,2.217,0,0,1,.832-.975,2.265,2.265,0,0,1,1.232-.338,2.285,2.285,0,0,1,1.232.334,2.188,2.188,0,0,1,.83.961,3.452,3.452,0,0,1,.3,1.459Zm-.988-.3a2.486,2.486,0,0,0-.357-1.449,1.169,1.169,0,0,0-1.014-.5,1.166,1.166,0,0,0-1,.5,2.438,2.438,0,0,0-.369,1.42V-2.7a2.467,2.467,0,0,0,.365,1.449,1.176,1.176,0,0,0,1.014.512,1.162,1.162,0,0,0,1.01-.5A2.521,2.521,0,0,0-29.406-2.7Zm3.844-.641,1.2-2.055h1.141l-1.719,2.82L-23.187,0H-24.34l-1.223-2.086L-26.789,0h-1.148l1.762-2.867L-27.9-5.687h1.141ZM-21.414,0H-22.4V-5.687h.984ZM-20.2,0V-5.687h1.68a2.635,2.635,0,0,1,1.338.336,2.291,2.291,0,0,1,.9.953,3.025,3.025,0,0,1,.32,1.414V-2.7a3.013,3.013,0,0,1-.322,1.422,2.263,2.263,0,0,1-.918.945A2.757,2.757,0,0,1-18.562,0Zm.988-4.891v4.1h.645a1.484,1.484,0,0,0,1.193-.486,2.118,2.118,0,0,0,.424-1.4v-.316a2.174,2.174,0,0,0-.4-1.414,1.426,1.426,0,0,0-1.168-.488Zm8.777,2.2a3.489,3.489,0,0,1-.289,1.467,2.186,2.186,0,0,1-.826.969,2.272,2.272,0,0,1-1.236.338A2.278,2.278,0,0,1-14.018-.26a2.219,2.219,0,0,1-.836-.963,3.38,3.38,0,0,1-.3-1.441v-.32a3.46,3.46,0,0,1,.295-1.469,2.217,2.217,0,0,1,.832-.975,2.265,2.265,0,0,1,1.232-.338,2.285,2.285,0,0,1,1.232.334,2.188,2.188,0,0,1,.83.961,3.452,3.452,0,0,1,.3,1.459Zm-.988-.3a2.486,2.486,0,0,0-.357-1.449,1.169,1.169,0,0,0-1.014-.5,1.166,1.166,0,0,0-1,.5,2.438,2.438,0,0,0-.369,1.42V-2.7A2.467,2.467,0,0,0-13.8-1.246a1.176,1.176,0,0,0,1.014.512,1.162,1.162,0,0,0,1.01-.5A2.521,2.521,0,0,0-11.422-2.7ZM-7.457,0V-5.687h1.68a2.635,2.635,0,0,1,1.338.336,2.291,2.291,0,0,1,.9.953,3.025,3.025,0,0,1,.32,1.414V-2.7a3.013,3.013,0,0,1-.322,1.422,2.263,2.263,0,0,1-.918.945A2.757,2.757,0,0,1-5.82,0Zm.988-4.891v4.1h.645a1.484,1.484,0,0,0,1.193-.486,2.118,2.118,0,0,0,.424-1.4v-.316a2.174,2.174,0,0,0-.4-1.414,1.426,1.426,0,0,0-1.168-.488ZM1.094-2.539H-1.242v1.75h2.73V0H-2.23V-5.687H1.461v.8h-2.7v1.57H1.094Zm7.531.688a2.054,2.054,0,0,1-.672,1.42,2.291,2.291,0,0,1-1.559.51A2.218,2.218,0,0,1,5.2-.244a2.115,2.115,0,0,1-.8-.916,3.306,3.306,0,0,1-.293-1.379V-3.07a3.33,3.33,0,0,1,.285-1.418,2.149,2.149,0,0,1,.818-.945,2.283,2.283,0,0,1,1.232-.332,2.193,2.193,0,0,1,1.516.512,2.138,2.138,0,0,1,.668,1.445H7.641a1.4,1.4,0,0,0-.357-.885,1.181,1.181,0,0,0-.842-.271,1.154,1.154,0,0,0-.99.471A2.351,2.351,0,0,0,5.1-3.113v.5A2.494,2.494,0,0,0,5.428-1.2a1.1,1.1,0,0,0,.967.484A1.278,1.278,0,0,0,7.27-.98a1.365,1.365,0,0,0,.371-.871Zm4.066.527h-2.2L10.027,0H9l2.148-5.687h.887L14.188,0H13.156Zm-1.926-.8h1.648L11.59-4.48Zm6.156-.07h-1.1V0h-.988V-5.687h2a2.328,2.328,0,0,1,1.52.441,1.561,1.561,0,0,1,.535,1.277,1.6,1.6,0,0,1-.275.955,1.752,1.752,0,0,1-.768.592L19.121-.051V0H18.063Zm-1.1-.793h1.016a1.13,1.13,0,0,0,.781-.252.879.879,0,0,0,.281-.689.935.935,0,0,0-.26-.707,1.1,1.1,0,0,0-.775-.258H15.82Zm4,2.984V-5.687h1.949a2.38,2.38,0,0,1,1.469.387,1.362,1.362,0,0,1,.5,1.152,1.228,1.228,0,0,1-.211.7,1.358,1.358,0,0,1-.617.484,1.255,1.255,0,0,1,.713.471,1.371,1.371,0,0,1,.252.83,1.514,1.514,0,0,1-.514,1.23A2.233,2.233,0,0,1,21.9,0Zm.988-2.566V-.789h1.1a1.062,1.062,0,0,0,.727-.23A.809.809,0,0,0,22.9-1.66a.812.812,0,0,0-.906-.906Zm0-.727h.969A1.12,1.12,0,0,0,22.5-3.5a.716.716,0,0,0,.26-.592.726.726,0,0,0-.24-.609,1.213,1.213,0,0,0-.748-.187h-.961Zm8.6.6a3.489,3.489,0,0,1-.289,1.467,2.186,2.186,0,0,1-.826.969,2.272,2.272,0,0,1-1.236.338A2.278,2.278,0,0,1,25.826-.26a2.219,2.219,0,0,1-.836-.963,3.38,3.38,0,0,1-.3-1.441v-.32a3.46,3.46,0,0,1,.295-1.469,2.217,2.217,0,0,1,.832-.975,2.265,2.265,0,0,1,1.232-.338,2.285,2.285,0,0,1,1.232.334,2.188,2.188,0,0,1,.83.961,3.452,3.452,0,0,1,.3,1.459Zm-.988-.3a2.486,2.486,0,0,0-.357-1.449,1.169,1.169,0,0,0-1.014-.5,1.166,1.166,0,0,0-1,.5,2.438,2.438,0,0,0-.369,1.42V-2.7a2.467,2.467,0,0,0,.365,1.449,1.176,1.176,0,0,0,1.014.512,1.162,1.162,0,0,0,1.01-.5A2.521,2.521,0,0,0,28.422-2.7ZM34.906,0h-.988L31.383-4.035V0h-.988V-5.687h.988l2.543,4.051V-5.687h.98Zm5.707-2.7a3.489,3.489,0,0,1-.289,1.467A2.186,2.186,0,0,1,39.5-.26a2.272,2.272,0,0,1-1.236.338A2.278,2.278,0,0,1,37.029-.26a2.219,2.219,0,0,1-.836-.963,3.38,3.38,0,0,1-.3-1.441v-.32a3.46,3.46,0,0,1,.295-1.469,2.217,2.217,0,0,1,.832-.975,2.265,2.265,0,0,1,1.232-.338,2.285,2.285,0,0,1,1.232.334,2.188,2.188,0,0,1,.83.961,3.452,3.452,0,0,1,.3,1.459Zm-.988-.3a2.486,2.486,0,0,0-.357-1.449,1.169,1.169,0,0,0-1.014-.5,1.166,1.166,0,0,0-1,.5,2.438,2.438,0,0,0-.369,1.42V-2.7a2.467,2.467,0,0,0,.365,1.449,1.176,1.176,0,0,0,1.014.512,1.162,1.162,0,0,0,1.01-.5A2.521,2.521,0,0,0,39.625-2.7ZM-11.115,7.871h1.484v.867h-1.484V10.43h-.922V8.738h-1.492V7.871h1.492V6.289h.922Zm7.531,1.8h-2.2L-6.248,11H-7.275l2.148-5.687h.887L-2.088,11H-3.119Zm-1.926-.8h1.648L-4.686,6.52Zm8.344,1.383a1.89,1.89,0,0,1-.855.609,3.49,3.49,0,0,1-1.242.207,2.448,2.448,0,0,1-1.266-.324,2.16,2.16,0,0,1-.85-.928,3.246,3.246,0,0,1-.311-1.408V7.973a3.01,3.01,0,0,1,.617-2.014A2.141,2.141,0,0,1,.65,5.234,2.271,2.271,0,0,1,2.158,5.7,2.021,2.021,0,0,1,2.83,7.055H1.861A1.09,1.09,0,0,0,.67,6.027a1.167,1.167,0,0,0-1.01.479A2.44,2.44,0,0,0-.7,7.91v.438A2.317,2.317,0,0,0-.309,9.779a1.282,1.282,0,0,0,1.08.51A1.424,1.424,0,0,0,1.85,9.945V8.832H.678v-.75H2.834ZM8.08,5.313v3.8a1.847,1.847,0,0,1-.58,1.436,2.2,2.2,0,0,1-1.545.529A2.219,2.219,0,0,1,4.4,10.557,1.856,1.856,0,0,1,3.83,9.109v-3.8h.984v3.8a1.209,1.209,0,0,0,.289.871,1.128,1.128,0,0,0,.852.3q1.141,0,1.141-1.2V5.313Zm4.152,4.363h-2.2L9.568,11H8.541l2.148-5.687h.887L13.729,11H12.7Zm-1.926-.8h1.648L11.131,6.52Z" transform="translate(269.418 196.677)" fill="#12263f"/>
      <path id="Path_1257931" data-name="Path 1257931" d="M10.065-2.922H4.9L4,0H-.032L5.7-15.641H9.249L15.028,0h-4.05ZM5.8-5.833H9.163L7.477-11.258Zm21.355-6.9H22.462V0H18.691V-12.729H14.083v-2.911H27.156Zm5.36,7.423V0H28.746V-15.641h6.241a7.269,7.269,0,0,1,3.174.661A4.979,4.979,0,0,1,40.3-13.1a5.134,5.134,0,0,1,.757,2.766,4.526,4.526,0,0,1-1.638,3.658,6.8,6.8,0,0,1-4.5,1.37Zm0-2.911h2.471a2.33,2.33,0,0,0,1.67-.548,2.035,2.035,0,0,0,.575-1.547,2.516,2.516,0,0,0-.591-1.751,2.092,2.092,0,0,0-1.611-.666H32.517Z" transform="translate(343.639 52.047)" fill="#12263f"/>
      <path id="Path_1257928" data-name="Path 1257928" d="M8.8-3.37a3.635,3.635,0,0,1-.561,1.835A3.383,3.383,0,0,1,6.805-.3,4.9,4.9,0,0,1,4.689.137,3.908,3.908,0,0,1,1.6-1.142,5.278,5.278,0,0,1,.472-4.751v-.492A6.025,6.025,0,0,1,.981-7.8,3.859,3.859,0,0,1,2.447-9.5a4.091,4.091,0,0,1,2.215-.6,4.29,4.29,0,0,1,2.912.954A3.768,3.768,0,0,1,8.825-6.515H6.433A1.783,1.783,0,0,0,5.975-7.82a1.884,1.884,0,0,0-1.312-.4,1.433,1.433,0,0,0-1.312.67,4.306,4.306,0,0,0-.437,2.14v.7a4.764,4.764,0,0,0,.4,2.276,1.463,1.463,0,0,0,1.377.684,1.842,1.842,0,0,0,1.265-.39A1.654,1.654,0,0,0,6.419-3.37Zm9.563-1.4a5.869,5.869,0,0,1-.54,2.577A3.991,3.991,0,0,1,16.293-.468a4.273,4.273,0,0,1-2.266.6,4.334,4.334,0,0,1-2.256-.584,3.985,3.985,0,0,1-1.535-1.671,5.7,5.7,0,0,1-.578-2.5v-.561A5.9,5.9,0,0,1,10.2-7.755a3.981,3.981,0,0,1,1.538-1.726,4.3,4.3,0,0,1,2.28-.608,4.261,4.261,0,0,1,2.256.6,4.053,4.053,0,0,1,1.542,1.712,5.726,5.726,0,0,1,.557,2.546Zm-2.44-.417a4.185,4.185,0,0,0-.5-2.252,1.59,1.59,0,0,0-1.418-.769q-1.8,0-1.907,2.707l-.007.731a4.3,4.3,0,0,0,.485,2.249,1.587,1.587,0,0,0,1.442.786,1.568,1.568,0,0,0,1.4-.772,4.187,4.187,0,0,0,.5-2.222ZM22.091,0H19.114V-.645l1.371-1.441A1.636,1.636,0,0,0,20.992-3a.638.638,0,0,0-.12-.419.429.429,0,0,0-.349-.144.434.434,0,0,0-.366.192.789.789,0,0,0-.141.479h-.99a1.4,1.4,0,0,1,.2-.725,1.376,1.376,0,0,1,.545-.52,1.619,1.619,0,0,1,.779-.187,1.592,1.592,0,0,1,1.065.319,1.14,1.14,0,0,1,.374.917,1.332,1.332,0,0,1-.094.491,2.152,2.152,0,0,1-.292.5,7.343,7.343,0,0,1-.637.7l-.551.636h1.679Zm8.522-5.646h2.331v1.976H30.613V-1H28.46V-3.671H26.122V-5.646H28.46v-2.6h2.153ZM45.851,0H43.465V-4.156H39.931V0h-2.4V-9.953h2.4V-6h3.534V-9.953h2.386Zm4,0H46.877V-.645l1.371-1.441A1.636,1.636,0,0,0,48.755-3a.638.638,0,0,0-.12-.419.429.429,0,0,0-.349-.144.434.434,0,0,0-.366.192.789.789,0,0,0-.141.479h-.99a1.4,1.4,0,0,1,.2-.725,1.376,1.376,0,0,1,.545-.52,1.619,1.619,0,0,1,.779-.187,1.592,1.592,0,0,1,1.065.319,1.14,1.14,0,0,1,.374.917,1.332,1.332,0,0,1-.094.491,2.152,2.152,0,0,1-.292.5,7.343,7.343,0,0,1-.637.7l-.551.636h1.679Zm9.418-4.771a5.869,5.869,0,0,1-.54,2.577A3.991,3.991,0,0,1,57.2-.468a4.273,4.273,0,0,1-2.266.6,4.334,4.334,0,0,1-2.256-.584A3.985,3.985,0,0,1,51.14-2.119a5.7,5.7,0,0,1-.578-2.5v-.561A5.9,5.9,0,0,1,51.1-7.755a3.981,3.981,0,0,1,1.538-1.726,4.3,4.3,0,0,1,2.28-.608,4.261,4.261,0,0,1,2.256.6,4.053,4.053,0,0,1,1.542,1.712,5.726,5.726,0,0,1,.557,2.546Zm-2.44-.417a4.185,4.185,0,0,0-.5-2.252,1.59,1.59,0,0,0-1.418-.769q-1.8,0-1.907,2.707L53-4.771a4.3,4.3,0,0,0,.485,2.249,1.587,1.587,0,0,0,1.442.786,1.568,1.568,0,0,0,1.4-.772,4.187,4.187,0,0,0,.5-2.222Z" transform="translate(226.017 138.865)" fill="#fbfbf9"/>
      <path id="Path_1257925" data-name="Path 1257925" d="M9.181-4.771a5.869,5.869,0,0,1-.54,2.577A3.991,3.991,0,0,1,7.106-.468a4.273,4.273,0,0,1-2.266.6A4.334,4.334,0,0,1,2.584-.448,3.985,3.985,0,0,1,1.049-2.119a5.7,5.7,0,0,1-.578-2.5v-.561a5.9,5.9,0,0,1,.537-2.581A3.981,3.981,0,0,1,2.546-9.481a4.3,4.3,0,0,1,2.28-.608,4.261,4.261,0,0,1,2.256.6A4.053,4.053,0,0,1,8.624-7.776a5.726,5.726,0,0,1,.557,2.546ZM6.74-5.188a4.185,4.185,0,0,0-.5-2.252A1.59,1.59,0,0,0,4.826-8.21q-1.8,0-1.907,2.707l-.007.731A4.3,4.3,0,0,0,3.4-2.522a1.587,1.587,0,0,0,1.442.786,1.568,1.568,0,0,0,1.4-.772,4.187,4.187,0,0,0,.5-2.222ZM12.9,0H9.927V-.645L11.3-2.086A1.636,1.636,0,0,0,11.8-3a.638.638,0,0,0-.12-.419.429.429,0,0,0-.349-.144.434.434,0,0,0-.366.192.789.789,0,0,0-.141.479h-.99a1.4,1.4,0,0,1,.2-.725,1.376,1.376,0,0,1,.545-.52,1.619,1.619,0,0,1,.779-.187,1.592,1.592,0,0,1,1.065.319,1.14,1.14,0,0,1,.374.917A1.332,1.332,0,0,1,12.7-2.6a2.152,2.152,0,0,1-.292.5,7.343,7.343,0,0,1-.637.7l-.551.636H12.9Z" transform="translate(79.59 119.661)" fill="#12263f"/>
      <path id="Path_1257921" data-name="Path 1257921" d="M8.8-3.37a3.635,3.635,0,0,1-.561,1.835A3.383,3.383,0,0,1,6.805-.3,4.9,4.9,0,0,1,4.689.137,3.908,3.908,0,0,1,1.6-1.142,5.278,5.278,0,0,1,.472-4.751v-.492A6.025,6.025,0,0,1,.981-7.8,3.859,3.859,0,0,1,2.447-9.5a4.091,4.091,0,0,1,2.215-.6,4.29,4.29,0,0,1,2.912.954A3.768,3.768,0,0,1,8.825-6.515H6.433A1.783,1.783,0,0,0,5.975-7.82a1.884,1.884,0,0,0-1.312-.4,1.433,1.433,0,0,0-1.312.67,4.306,4.306,0,0,0-.437,2.14v.7a4.764,4.764,0,0,0,.4,2.276,1.463,1.463,0,0,0,1.377.684,1.842,1.842,0,0,0,1.265-.39A1.654,1.654,0,0,0,6.419-3.37Zm3.028-.957v.776h-.044a1.482,1.482,0,0,0-.91.265,1.119,1.119,0,0,0-.438.737,1.155,1.155,0,0,1,.844-.328,1.077,1.077,0,0,1,.882.4A1.631,1.631,0,0,1,12.5-1.412a1.493,1.493,0,0,1-.192.747,1.369,1.369,0,0,1-.536.532A1.541,1.541,0,0,1,11,.059a1.592,1.592,0,0,1-.812-.207,1.42,1.42,0,0,1-.557-.59,1.944,1.944,0,0,1-.205-.885v-.4A2.462,2.462,0,0,1,9.713-3.2a2.05,2.05,0,0,1,.807-.825,2.308,2.308,0,0,1,1.163-.3Zm-.891,2.206a.565.565,0,0,0-.328.091.577.577,0,0,0-.2.223v.3q0,.809.56.809a.454.454,0,0,0,.376-.2.824.824,0,0,0,.151-.507.809.809,0,0,0-.154-.511A.492.492,0,0,0,10.942-2.121ZM23.228,0H20.842V-4.156H17.308V0h-2.4V-9.953h2.4V-6h3.534V-9.953h2.386Zm3.215,0h-.99V-3.152l-.973.284v-.75l1.872-.647h.091Zm4.263,0H27.729V-.645L29.1-2.086A1.636,1.636,0,0,0,29.606-3a.638.638,0,0,0-.12-.419.429.429,0,0,0-.349-.144.434.434,0,0,0-.366.192.789.789,0,0,0-.141.479h-.99a1.4,1.4,0,0,1,.2-.725,1.376,1.376,0,0,1,.545-.52,1.619,1.619,0,0,1,.779-.187,1.592,1.592,0,0,1,1.065.319,1.14,1.14,0,0,1,.374.917,1.332,1.332,0,0,1-.094.491,2.152,2.152,0,0,1-.292.5,7.343,7.343,0,0,1-.637.7l-.551.636h1.679ZM41.617-4.771a5.869,5.869,0,0,1-.54,2.577A3.991,3.991,0,0,1,39.542-.468a4.273,4.273,0,0,1-2.266.6,4.334,4.334,0,0,1-2.256-.584,3.985,3.985,0,0,1-1.535-1.671,5.7,5.7,0,0,1-.578-2.5v-.561a5.9,5.9,0,0,1,.537-2.581,3.981,3.981,0,0,1,1.538-1.726,4.3,4.3,0,0,1,2.28-.608,4.261,4.261,0,0,1,2.256.6A4.053,4.053,0,0,1,41.06-7.776a5.726,5.726,0,0,1,.557,2.546Zm-2.44-.417a4.185,4.185,0,0,0-.5-2.252,1.59,1.59,0,0,0-1.418-.769q-1.8,0-1.907,2.707l-.007.731a4.3,4.3,0,0,0,.485,2.249,1.587,1.587,0,0,0,1.442.786,1.568,1.568,0,0,0,1.4-.772,4.187,4.187,0,0,0,.5-2.222Zm5.571.861v.776H44.7a1.482,1.482,0,0,0-.91.265,1.119,1.119,0,0,0-.438.737,1.155,1.155,0,0,1,.844-.328,1.077,1.077,0,0,1,.882.4,1.631,1.631,0,0,1,.328,1.061,1.493,1.493,0,0,1-.192.747,1.369,1.369,0,0,1-.536.532,1.541,1.541,0,0,1-.763.192,1.592,1.592,0,0,1-.812-.207,1.42,1.42,0,0,1-.557-.59,1.944,1.944,0,0,1-.205-.885v-.4A2.462,2.462,0,0,1,42.628-3.2a2.05,2.05,0,0,1,.807-.825,2.308,2.308,0,0,1,1.163-.3Zm-.891,2.206a.565.565,0,0,0-.328.091.577.577,0,0,0-.2.223v.3q0,.809.56.809a.454.454,0,0,0,.376-.2.824.824,0,0,0,.151-.507.809.809,0,0,0-.154-.511A.492.492,0,0,0,43.857-2.121Z" transform="translate(12.377 52.448)" fill="#fbfbf9"/>
      <path id="Path_1257930" data-name="Path 1257930" d="M1.714-3.687h.65a1.164,1.164,0,0,0,.78-.255.909.909,0,0,0,.288-.725.991.991,0,0,0-.24-.71.964.964,0,0,0-.732-.253,1.02,1.02,0,0,0-.708.248.83.83,0,0,0-.277.648H.409a1.616,1.616,0,0,1,.261-.9A1.757,1.757,0,0,1,1.4-6.26a2.376,2.376,0,0,1,1.048-.226,2.2,2.2,0,0,1,1.505.481A1.689,1.689,0,0,1,4.5-4.667a1.36,1.36,0,0,1-.275.811,1.722,1.722,0,0,1-.71.573,1.57,1.57,0,0,1,.8.567,1.552,1.552,0,0,1,.275.923A1.718,1.718,0,0,1,4-.422a2.3,2.3,0,0,1-1.553.51A2.278,2.278,0,0,1,.936-.4a1.621,1.621,0,0,1-.589-1.31H1.415a.893.893,0,0,0,.283.686,1.075,1.075,0,0,0,.762.264,1.109,1.109,0,0,0,.782-.264.989.989,0,0,0,.286-.765,1,1,0,0,0-.3-.778,1.278,1.278,0,0,0-.888-.272H1.714Zm7.2-2.742v.883H8.785a2.12,2.12,0,0,0-1.433.492A2.06,2.06,0,0,0,6.715-3.7a1.734,1.734,0,0,1,1.314-.541,1.638,1.638,0,0,1,1.338.6A2.354,2.354,0,0,1,9.857-2.1a2.2,2.2,0,0,1-.573,1.58,1.98,1.98,0,0,1-1.505.6A1.934,1.934,0,0,1,6.225-.62a2.783,2.783,0,0,1-.6-1.854v-.365a3.916,3.916,0,0,1,.82-2.637,2.939,2.939,0,0,1,2.358-.954ZM7.77-3.375a1.124,1.124,0,0,0-.644.2A1.156,1.156,0,0,0,6.7-2.65v.325A1.915,1.915,0,0,0,7-1.193a.911.911,0,0,0,.773.42.9.9,0,0,0,.751-.356A1.482,1.482,0,0,0,8.8-2.065a1.5,1.5,0,0,0-.281-.945A.9.9,0,0,0,7.77-3.375Z" transform="translate(304.032 52.45)" fill="#12263f"/>
    </g>
    <g id="Group_1207696" data-name="Group 1207696" transform="matrix(0.839, -0.545, 0.545, 0.839, 1048.978, 7255.467)">
      <g id="Group_1207694" data-name="Group 1207694" transform="translate(0)" clip-path="url(#clip-path-27)">
        <path id="Path_1257509" data-name="Path 1257509" d="M30.93,19.407a13.874,13.874,0,0,1-5.537,12.542A12.879,12.879,0,0,1,11.6,32.961c-7.5-4.045-9.323-13.27-4.723-20.534C2.713,12.39,0,9.689,0,6.113A6.091,6.091,0,0,1,7.19.07c3.922.555,4.366,4.773,5.093,7.511,4.057-.222,8.694-1.406,12.69,1.628a14.148,14.148,0,0,1,5.957,10.2M8.744,6.137A2.787,2.787,0,1,0,5.957,8.924,2.792,2.792,0,0,0,8.744,6.137M27.958,20.751A10.285,10.285,0,1,0,17.673,31.037,10.279,10.279,0,0,0,27.958,20.751" transform="translate(24.197 48.293)" fill="#89b254"/>
        <path id="Path_1257510" data-name="Path 1257510" d="M18.4,9.2A9.2,9.2,0,1,1,9.2,0a9.2,9.2,0,0,1,9.2,9.2m-3.243,0A5.957,5.957,0,1,0,9.2,15.157,5.953,5.953,0,0,0,15.157,9.2" transform="translate(0.358 54.775)" fill="#89b254"/>
        <path id="Path_1257511" data-name="Path 1257511" d="M16.069,8.029A8.035,8.035,0,1,1,8.029,0a8.042,8.042,0,0,1,8.041,8.029m-3.256.012a4.785,4.785,0,1,0-4.785,4.785,4.79,4.79,0,0,0,4.785-4.785" transform="translate(23.987 14.374)" fill="#89b254"/>
        <path id="Path_1257512" data-name="Path 1257512" d="M14.688,7.35A7.344,7.344,0,1,1,7.35,0a7.332,7.332,0,0,1,7.338,7.35m-3.256.012A4.082,4.082,0,1,0,7.35,11.445a4.079,4.079,0,0,0,4.082-4.082" transform="translate(0 23.673)" fill="#89b254"/>
        <path id="Path_1257513" data-name="Path 1257513" d="M11.013,5.5A5.507,5.507,0,1,1,5.5,0a5.511,5.511,0,0,1,5.513,5.5m-3.256.037A2.245,2.245,0,1,0,5.513,7.782,2.245,2.245,0,0,0,7.757,5.537" transform="translate(14.293 79.786)" fill="#89b254"/>
        <path id="Path_1257514" data-name="Path 1257514" d="M9.188,4.588A4.594,4.594,0,1,1,4.6,0,4.587,4.587,0,0,1,9.188,4.588" transform="translate(38.7 32.638)" fill="#89b254"/>
        <path id="Path_1257515" data-name="Path 1257515" d="M9.04,4.514A4.52,4.52,0,1,1,4.526,0,4.516,4.516,0,0,1,9.04,4.514" transform="translate(12.518 37.855)" fill="#89b254"/>
        <path id="Path_1257516" data-name="Path 1257516" d="M9.188,4.588A4.594,4.594,0,1,1,4.6,0,4.587,4.587,0,0,1,9.188,4.588" transform="translate(11.346 -0.006)" fill="#89b254"/>
        <path id="Path_1257517" data-name="Path 1257517" d="M20.571,10.285A10.285,10.285,0,1,1,10.285,0,10.279,10.279,0,0,1,20.571,10.285" transform="translate(31.584 58.759)" fill="#f2f6ec"/>
        <path id="Path_1257518" data-name="Path 1257518" d="M5.574,2.787A2.787,2.787,0,1,1,2.787,0,2.784,2.784,0,0,1,5.574,2.787" transform="translate(27.354 51.643)" fill="#f2f6ec"/>
        <path id="Path_1257519" data-name="Path 1257519" d="M11.913,5.957A5.957,5.957,0,1,1,5.957,0a5.953,5.953,0,0,1,5.957,5.957" transform="translate(3.601 58.019)" fill="#f2f6ec"/>
        <path id="Path_1257520" data-name="Path 1257520" d="M9.57,4.785A4.785,4.785,0,1,1,4.785,0,4.79,4.79,0,0,1,9.57,4.785" transform="translate(27.23 17.63)" fill="#f2f6ec"/>
        <path id="Path_1257521" data-name="Path 1257521" d="M8.164,4.082A4.082,4.082,0,1,1,4.082,0,4.079,4.079,0,0,1,8.164,4.082" transform="translate(3.268 26.953)" fill="#f2f6ec"/>
        <path id="Path_1257522" data-name="Path 1257522" d="M4.489,2.245A2.245,2.245,0,1,1,2.245,0,2.245,2.245,0,0,1,4.489,2.245" transform="translate(17.562 83.079)" fill="#f2f6ec"/>
      </g>
    </g>
    <g id="Group_1207697" data-name="Group 1207697" transform="translate(1187.367 7278.523) rotate(68)">
      <g id="Group_1207694-2" data-name="Group 1207694" transform="translate(0)" clip-path="url(#clip-path-28)">
        <path id="Path_1257509-2" data-name="Path 1257509" d="M21.058,13.213a9.445,9.445,0,0,1-3.77,8.539A8.768,8.768,0,0,1,7.9,22.44C2.8,19.686,1.553,13.406,4.685,8.46,1.847,8.435,0,6.6,0,4.161A4.147,4.147,0,0,1,4.895.047C7.565.425,7.867,3.3,8.363,5.161,11.125,5.01,14.282,4.2,17,6.269a9.632,9.632,0,0,1,4.055,6.944M5.953,4.178a1.9,1.9,0,1,0-1.9,1.9,1.9,1.9,0,0,0,1.9-1.9m13.081,9.949a7,7,0,1,0-7,7,7,7,0,0,0,7-7" transform="translate(16.473 32.878)" fill="#89b254"/>
        <path id="Path_1257510-2" data-name="Path 1257510" d="M12.527,6.264A6.264,6.264,0,1,1,6.264,0a6.264,6.264,0,0,1,6.264,6.264m-2.208,0a4.055,4.055,0,1,0-4.055,4.055,4.053,4.053,0,0,0,4.055-4.055" transform="translate(0.243 37.292)" fill="#89b254"/>
        <path id="Path_1257511-2" data-name="Path 1257511" d="M10.94,5.466A5.47,5.47,0,1,1,5.466,0,5.475,5.475,0,0,1,10.94,5.466m-2.217.008A3.258,3.258,0,1,0,5.466,8.732,3.261,3.261,0,0,0,8.724,5.474" transform="translate(16.33 9.786)" fill="#89b254"/>
        <path id="Path_1257512-2" data-name="Path 1257512" d="M10,5A5,5,0,1,1,5,0a4.992,4.992,0,0,1,5,5m-2.217.008A2.779,2.779,0,1,0,5,7.792,2.777,2.777,0,0,0,7.783,5.012" transform="translate(0 16.117)" fill="#89b254"/>
        <path id="Path_1257513-2" data-name="Path 1257513" d="M7.5,3.745A3.749,3.749,0,1,1,3.745,0,3.752,3.752,0,0,1,7.5,3.745M5.281,3.77A1.528,1.528,0,1,0,3.753,5.3,1.528,1.528,0,0,0,5.281,3.77" transform="translate(9.731 54.319)" fill="#89b254"/>
        <path id="Path_1257514-2" data-name="Path 1257514" d="M6.255,3.123A3.128,3.128,0,1,1,3.132,0,3.123,3.123,0,0,1,6.255,3.123" transform="translate(26.347 22.221)" fill="#89b254"/>
        <path id="Path_1257515-2" data-name="Path 1257515" d="M6.154,3.073A3.077,3.077,0,1,1,3.081,0,3.074,3.074,0,0,1,6.154,3.073" transform="translate(8.522 25.772)" fill="#89b254"/>
        <path id="Path_1257516-2" data-name="Path 1257516" d="M6.255,3.123A3.128,3.128,0,1,1,3.132,0,3.123,3.123,0,0,1,6.255,3.123" transform="translate(7.724 -0.004)" fill="#89b254"/>
        <path id="Path_1257517-2" data-name="Path 1257517" d="M14,7A7,7,0,1,1,7,0a7,7,0,0,1,7,7" transform="translate(21.503 40.004)" fill="#f2f6ec"/>
        <path id="Path_1257518-2" data-name="Path 1257518" d="M3.8,1.9A1.9,1.9,0,1,1,1.9,0,1.9,1.9,0,0,1,3.8,1.9" transform="translate(18.623 35.159)" fill="#f2f6ec"/>
        <path id="Path_1257519-2" data-name="Path 1257519" d="M8.111,4.055A4.055,4.055,0,1,1,4.055,0,4.053,4.053,0,0,1,8.111,4.055" transform="translate(2.452 39.5)" fill="#f2f6ec"/>
        <path id="Path_1257520-2" data-name="Path 1257520" d="M6.515,3.258A3.258,3.258,0,1,1,3.258,0,3.261,3.261,0,0,1,6.515,3.258" transform="translate(18.539 12.002)" fill="#f2f6ec"/>
        <path id="Path_1257521-2" data-name="Path 1257521" d="M5.558,2.779A2.779,2.779,0,1,1,2.779,0,2.777,2.777,0,0,1,5.558,2.779" transform="translate(2.225 18.35)" fill="#f2f6ec"/>
        <path id="Path_1257522-2" data-name="Path 1257522" d="M3.056,1.528A1.528,1.528,0,1,1,1.528,0,1.528,1.528,0,0,1,3.056,1.528" transform="translate(11.956 56.561)" fill="#f2f6ec"/>
      </g>
    </g>
    <g id="Group_1207690" data-name="Group 1207690" transform="translate(1065.533 7145.47) rotate(-96)">
      <g id="Group_1207688" data-name="Group 1207688" transform="translate(0 0)" clip-path="url(#clip-path-29)">
        <path id="Path_1257496" data-name="Path 1257496" d="M8.3,4.152A4.148,4.148,0,1,0,4.144,8.3,4.151,4.151,0,0,0,8.3,4.152" transform="translate(11.261 0)" fill="#cfe0b9"/>
        <path id="Path_1257497" data-name="Path 1257497" d="M16.981,8.49a8.49,8.49,0,1,0-8.49,8.49,8.495,8.495,0,0,0,8.49-8.49" transform="translate(1.543 12.473)" fill="#cfe0b9"/>
        <path id="Path_1257498" data-name="Path 1257498" d="M11.73,5.865A5.865,5.865,0,1,0,5.865,11.73,5.864,5.864,0,0,0,11.73,5.865" transform="translate(21.149 34.478)" fill="#cfe0b9"/>
        <path id="Path_1257499" data-name="Path 1257499" d="M11.164,5.582a5.582,5.582,0,1,0-5.582,5.582,5.578,5.578,0,0,0,5.582-5.582" transform="translate(0 41.361)" fill="#cfe0b9"/>
        <path id="Path_1257500" data-name="Path 1257500" d="M9.508,4.75A4.754,4.754,0,1,0,4.75,9.5,4.749,4.749,0,0,0,9.508,4.75" transform="translate(16.528 54.14)" fill="#cfe0b9"/>
        <path id="Path_1257501" data-name="Path 1257501" d="M9.137,4.564A4.568,4.568,0,1,0,4.572,9.129,4.565,4.565,0,0,0,9.137,4.564" transform="translate(18.992 23.936)" fill="#cfe0b9"/>
        <path id="Path_1257502" data-name="Path 1257502" d="M6.842,3.417A3.421,3.421,0,1,0,3.425,6.834,3.413,3.413,0,0,0,6.842,3.417" transform="translate(6.624 59.577)" fill="#cfe0b9"/>
        <path id="Path_1257503" data-name="Path 1257503" d="M6.721,3.361A3.361,3.361,0,1,0,3.361,6.721,3.358,3.358,0,0,0,6.721,3.361" transform="translate(9.864 34.647)" fill="#cfe0b9"/>
      </g>
    </g>
    <g id="Group_1207698" data-name="Group 1207698" transform="translate(1408.38 7348.919) rotate(-152)">
      <g id="Group_1207688-2" data-name="Group 1207688" transform="translate(0 0)" clip-path="url(#clip-path-30)">
        <path id="Path_1257496-2" data-name="Path 1257496" d="M11.237,5.624a5.618,5.618,0,1,0-5.624,5.624,5.622,5.622,0,0,0,5.624-5.624" transform="translate(15.252 -0.001)" fill="#5f7b39"/>
        <path id="Path_1257497-2" data-name="Path 1257497" d="M23,11.5A11.5,11.5,0,1,0,11.5,23,11.506,11.506,0,0,0,23,11.5" transform="translate(2.09 16.893)" fill="#5f7b39"/>
        <path id="Path_1257498-2" data-name="Path 1257498" d="M15.887,7.943a7.943,7.943,0,1,0-7.943,7.943,7.943,7.943,0,0,0,7.943-7.943" transform="translate(28.645 46.697)" fill="#5f7b39"/>
        <path id="Path_1257499-2" data-name="Path 1257499" d="M15.121,7.56a7.56,7.56,0,1,0-7.56,7.56,7.555,7.555,0,0,0,7.56-7.56" transform="translate(0 56.019)" fill="#5f7b39"/>
        <path id="Path_1257500-2" data-name="Path 1257500" d="M12.878,6.434a6.439,6.439,0,1,0-6.444,6.434,6.432,6.432,0,0,0,6.444-6.434" transform="translate(22.386 73.328)" fill="#5f7b39"/>
        <path id="Path_1257501-2" data-name="Path 1257501" d="M12.375,6.182a6.187,6.187,0,1,0-6.182,6.182,6.182,6.182,0,0,0,6.182-6.182" transform="translate(25.723 32.419)" fill="#5f7b39"/>
        <path id="Path_1257502-2" data-name="Path 1257502" d="M9.267,4.628A4.634,4.634,0,1,0,4.639,9.256,4.623,4.623,0,0,0,9.267,4.628" transform="translate(8.972 80.692)" fill="#5f7b39"/>
        <path id="Path_1257503-2" data-name="Path 1257503" d="M9.1,4.552A4.552,4.552,0,1,0,4.552,9.1,4.548,4.548,0,0,0,9.1,4.552" transform="translate(13.359 46.927)" fill="#5f7b39"/>
      </g>
    </g>
  </g>
</svg>
